<svg xmlns="http://www.w3.org/2000/svg" xmlns:xlink="http://www.w3.org/1999/xlink" width="500" zoomAndPan="magnify" viewBox="0 0 375 374.999991" height="500" preserveAspectRatio="xMidYMid meet" version="1.2"><defs><clipPath id="bd5cf31bf4"><path d="M 99 51.109375 L 214 51.109375 L 214 165 L 99 165 Z M 99 51.109375 "/></clipPath><clipPath id="0abddc9ed3"><path d="M 53.667969 179 L 193 179 L 193 309 L 53.667969 309 Z M 53.667969 179 "/></clipPath><clipPath id="fea37d3707"><path d="M 177 179 L 321.417969 179 L 321.417969 324 L 177 324 Z M 177 179 "/></clipPath></defs><g id="bde372ccd2"><g clip-rule="nonzero" clip-path="url(#bd5cf31bf4)"><path style=" stroke:none;fill-rule:nonzero;fill:#ffffff;fill-opacity:1;" d="M 213.210938 107.699219 C 213.210938 109.554688 213.117188 111.402344 212.9375 113.25 C 212.753906 115.09375 212.484375 116.925781 212.121094 118.746094 C 211.761719 120.5625 211.308594 122.359375 210.773438 124.132812 C 210.234375 125.910156 209.609375 127.652344 208.898438 129.363281 C 208.191406 131.078125 207.398438 132.753906 206.523438 134.386719 C 205.648438 136.023438 204.699219 137.613281 203.667969 139.152344 C 202.636719 140.695312 201.535156 142.183594 200.359375 143.617188 C 199.183594 145.050781 197.9375 146.421875 196.628906 147.734375 C 195.316406 149.042969 193.945312 150.289062 192.511719 151.464844 C 191.078125 152.640625 189.589844 153.742188 188.046875 154.773438 C 186.507812 155.804688 184.917969 156.757812 183.28125 157.628906 C 181.648438 158.503906 179.972656 159.296875 178.257812 160.003906 C 176.546875 160.714844 174.800781 161.339844 173.027344 161.878906 C 171.253906 162.414062 169.457031 162.867188 167.636719 163.226562 C 165.820312 163.589844 163.988281 163.859375 162.144531 164.042969 C 160.296875 164.222656 158.449219 164.316406 156.59375 164.316406 C 154.738281 164.316406 152.890625 164.222656 151.042969 164.042969 C 149.199219 163.859375 147.367188 163.589844 145.546875 163.226562 C 143.730469 162.867188 141.933594 162.414062 140.160156 161.878906 C 138.382812 161.339844 136.640625 160.714844 134.925781 160.003906 C 133.214844 159.296875 131.539062 158.503906 129.90625 157.628906 C 128.269531 156.757812 126.679688 155.804688 125.140625 154.773438 C 123.597656 153.742188 122.109375 152.640625 120.675781 151.464844 C 119.242188 150.289062 117.871094 149.042969 116.558594 147.734375 C 115.25 146.421875 114.003906 145.050781 112.828125 143.617188 C 111.652344 142.183594 110.546875 140.695312 109.519531 139.152344 C 108.488281 137.613281 107.535156 136.023438 106.664062 134.386719 C 105.789062 132.753906 104.996094 131.078125 104.285156 129.363281 C 103.578125 127.652344 102.953125 125.910156 102.414062 124.132812 C 101.875 122.359375 101.425781 120.5625 101.066406 118.746094 C 100.703125 116.925781 100.429688 115.09375 100.25 113.25 C 100.066406 111.402344 99.976562 109.554688 99.976562 107.699219 C 99.976562 105.84375 100.066406 103.996094 100.25 102.148438 C 100.429688 100.304688 100.703125 98.472656 101.066406 96.652344 C 101.425781 94.835938 101.875 93.039062 102.414062 91.265625 C 102.953125 89.488281 103.578125 87.746094 104.285156 86.03125 C 104.996094 84.320312 105.789062 82.644531 106.664062 81.011719 C 107.535156 79.375 108.488281 77.785156 109.519531 76.246094 C 110.546875 74.703125 111.652344 73.214844 112.828125 71.78125 C 114.003906 70.347656 115.25 68.976562 116.558594 67.664062 C 117.871094 66.355469 119.242188 65.109375 120.675781 63.933594 C 122.109375 62.757812 123.597656 61.65625 125.140625 60.625 C 126.679688 59.59375 128.269531 58.640625 129.90625 57.769531 C 131.539062 56.894531 133.214844 56.101562 134.925781 55.390625 C 136.640625 54.683594 138.382812 54.058594 140.160156 53.519531 C 141.933594 52.980469 143.730469 52.53125 145.546875 52.171875 C 147.367188 51.808594 149.199219 51.535156 151.042969 51.355469 C 152.890625 51.171875 154.738281 51.082031 156.59375 51.082031 C 158.449219 51.082031 160.296875 51.171875 162.144531 51.355469 C 163.988281 51.535156 165.820312 51.808594 167.636719 52.171875 C 169.457031 52.53125 171.253906 52.980469 173.027344 53.519531 C 174.800781 54.058594 176.546875 54.683594 178.257812 55.390625 C 179.972656 56.101562 181.648438 56.894531 183.28125 57.769531 C 184.917969 58.640625 186.507812 59.59375 188.046875 60.625 C 189.589844 61.65625 191.078125 62.757812 192.511719 63.933594 C 193.945312 65.109375 195.316406 66.355469 196.628906 67.664062 C 197.9375 68.976562 199.183594 70.347656 200.359375 71.78125 C 201.535156 73.214844 202.636719 74.703125 203.667969 76.246094 C 204.699219 77.785156 205.648438 79.375 206.523438 81.011719 C 207.398438 82.644531 208.191406 84.320312 208.898438 86.03125 C 209.609375 87.746094 210.234375 89.488281 210.773438 91.265625 C 211.308594 93.039062 211.761719 94.835938 212.121094 96.652344 C 212.484375 98.472656 212.753906 100.304688 212.9375 102.148438 C 213.117188 103.996094 213.210938 105.84375 213.210938 107.699219 Z M 213.210938 107.699219 "/></g><g clip-rule="nonzero" clip-path="url(#0abddc9ed3)"><path style=" stroke:none;fill-rule:nonzero;fill:#ffffff;fill-opacity:1;" d="M 161.738281 251.8125 C 161.738281 225.304688 173.566406 201.601562 192.183594 185.558594 C 181.078125 181.851562 169.117188 179.757812 156.589844 179.757812 C 99.734375 179.757812 53.648438 220.695312 53.648438 277.546875 L 53.648438 308.429688 L 182.585938 308.429688 C 169.605469 293.160156 161.738281 273.421875 161.738281 251.8125 Z M 161.738281 251.8125 "/></g><g clip-rule="nonzero" clip-path="url(#fea37d3707)"><path style=" stroke:none;fill-rule:nonzero;fill:#ffffff;fill-opacity:1;" d="M 249.238281 179.757812 C 209.441406 179.757812 177.179688 212.019531 177.179688 251.816406 C 177.179688 291.613281 209.441406 323.875 249.238281 323.875 C 289.035156 323.875 321.296875 291.613281 321.296875 251.816406 C 321.296875 212.019531 289.035156 179.757812 249.238281 179.757812 Z M 244.089844 286.957031 L 205.929688 248.796875 L 220.484375 234.242188 L 244.089844 257.851562 L 277.988281 223.949219 L 292.542969 238.503906 Z M 244.089844 286.957031 "/></g></g></svg>