<svg xmlns="http://www.w3.org/2000/svg" xmlns:xlink="http://www.w3.org/1999/xlink" width="500" zoomAndPan="magnify" viewBox="0 0 375 374.999991" height="500" preserveAspectRatio="xMidYMid meet" version="1.2"><defs><clipPath id="9dae53a41a"><path d="M 83.898438 132.128906 L 299 132.128906 L 299 345.878906 L 83.898438 345.878906 Z M 83.898438 132.128906 "/></clipPath><clipPath id="6de5a4acc0"><path d="M 24 125 L 91 125 L 91 190 L 24 190 Z M 24 125 "/></clipPath><clipPath id="c8dcb0c9e6"><path d="M 43.761719 113.757812 L 103.394531 149.941406 L 67.988281 208.292969 L 8.355469 172.105469 Z M 43.761719 113.757812 "/></clipPath><clipPath id="c956b66497"><path d="M 43.761719 113.757812 L 103.394531 149.941406 L 67.988281 208.292969 L 8.355469 172.105469 Z M 43.761719 113.757812 "/></clipPath><clipPath id="65f2edf280"><path d="M 79 78 L 146 78 L 146 143 L 79 143 Z M 79 78 "/></clipPath><clipPath id="003bceb42a"><path d="M 98.875 66.445312 L 158.503906 102.628906 L 123.101562 160.976562 L 63.46875 124.792969 Z M 98.875 66.445312 "/></clipPath><clipPath id="a5d0949f7a"><path d="M 98.875 66.445312 L 158.503906 102.628906 L 123.101562 160.976562 L 63.46875 124.792969 Z M 98.875 66.445312 "/></clipPath><clipPath id="7fc2f134f8"><path d="M 156 49 L 223 49 L 223 114 L 156 114 Z M 156 49 "/></clipPath><clipPath id="a5d918124c"><path d="M 175.449219 37.5 L 235.078125 73.683594 L 199.671875 132.03125 L 140.042969 95.847656 Z M 175.449219 37.5 "/></clipPath><clipPath id="967f596ba7"><path d="M 175.449219 37.5 L 235.078125 73.683594 L 199.671875 132.03125 L 140.042969 95.847656 Z M 175.449219 37.5 "/></clipPath><clipPath id="0a91968cee"><path d="M 228 78 L 295 78 L 295 143 L 228 143 Z M 228 78 "/></clipPath><clipPath id="7fe3fcb591"><path d="M 247.953125 66.445312 L 307.582031 102.628906 L 272.175781 160.976562 L 212.546875 124.792969 Z M 247.953125 66.445312 "/></clipPath><clipPath id="9fd8fa9bbe"><path d="M 247.953125 66.445312 L 307.582031 102.628906 L 272.175781 160.976562 L 212.546875 124.792969 Z M 247.953125 66.445312 "/></clipPath><clipPath id="187e3ea5bc"><path d="M 287 125 L 355 125 L 355 190 L 287 190 Z M 287 125 "/></clipPath><clipPath id="0221234eaf"><path d="M 307.339844 113.757812 L 366.96875 149.941406 L 331.5625 208.292969 L 271.933594 172.105469 Z M 307.339844 113.757812 "/></clipPath><clipPath id="f5eaddf331"><path d="M 307.339844 113.757812 L 366.96875 149.941406 L 331.5625 208.292969 L 271.933594 172.105469 Z M 307.339844 113.757812 "/></clipPath></defs><g id="728ba00d3a"><g clip-rule="nonzero" clip-path="url(#9dae53a41a)"><path style=" stroke:none;fill-rule:nonzero;fill:#ffffff;fill-opacity:1;" d="M 270.695312 272.480469 C 266.363281 282.722656 260.160156 291.921875 252.261719 299.820312 C 244.363281 307.71875 235.167969 313.917969 224.925781 318.25 C 214.320312 322.734375 203.058594 325.007812 191.445312 325.007812 C 179.835938 325.007812 168.574219 322.734375 157.96875 318.25 C 147.726562 313.917969 138.53125 307.71875 130.632812 299.820312 C 122.734375 291.921875 116.53125 282.722656 112.199219 272.480469 C 107.714844 261.875 105.441406 250.613281 105.441406 239.003906 C 105.441406 227.394531 107.714844 216.128906 112.199219 205.527344 C 116.53125 195.285156 122.734375 186.085938 130.632812 178.1875 C 138.53125 170.289062 147.726562 164.089844 157.96875 159.757812 C 168.574219 155.273438 179.835938 153 191.445312 153 C 203.058594 153 214.320312 155.273438 224.925781 159.757812 C 235.167969 164.089844 244.363281 170.289062 252.261719 178.1875 C 260.160156 186.085938 266.363281 195.285156 270.695312 205.527344 C 275.179688 216.128906 277.453125 227.394531 277.453125 239.003906 C 277.453125 250.613281 275.179688 261.875 270.695312 272.480469 Z M 289.882812 249.355469 L 298.902344 239.003906 L 289.882812 228.652344 L 296.574219 216.660156 L 285.601562 208.410156 L 289.636719 195.285156 L 277.175781 189.511719 L 278.386719 175.839844 L 265 172.777344 L 263.347656 159.148438 L 249.621094 158.925781 L 245.183594 145.929688 L 231.710938 148.5625 L 224.660156 136.78125 L 212.035156 142.175781 L 202.675781 132.128906 L 191.445312 140.03125 L 180.21875 132.128906 L 170.859375 142.175781 L 158.234375 136.78125 L 151.183594 148.5625 L 137.710938 145.929688 L 133.273438 158.925781 L 119.542969 159.148438 L 117.894531 172.777344 L 104.507812 175.839844 L 105.714844 189.511719 L 93.257812 195.285156 L 97.292969 208.410156 L 86.320312 216.660156 L 93.007812 228.652344 L 83.992188 239.003906 L 93.007812 249.355469 L 86.320312 261.347656 L 97.292969 269.597656 L 93.257812 282.71875 L 105.714844 288.492188 L 104.507812 302.171875 L 117.894531 305.230469 L 119.542969 318.859375 L 133.273438 319.085938 L 137.710938 332.078125 L 151.183594 329.445312 L 158.234375 341.226562 L 170.859375 335.832031 L 180.21875 345.878906 L 191.445312 337.976562 L 202.675781 345.878906 L 212.035156 335.832031 L 224.660156 341.226562 L 231.710938 329.445312 L 245.183594 332.078125 L 249.621094 319.085938 L 263.347656 318.859375 L 265 305.230469 L 278.386719 302.171875 L 277.175781 288.492188 L 289.632812 282.71875 L 285.601562 269.597656 L 296.574219 261.347656 L 289.882812 249.355469 "/></g><path style=" stroke:none;fill-rule:nonzero;fill:#ffffff;fill-opacity:1;" d="M 183.492188 287.917969 C 182.429688 289.15625 180.589844 289.25 179.402344 288.128906 L 134.585938 245.707031 C 133.398438 244.585938 133.347656 242.699219 134.46875 241.511719 L 148.75 226.425781 C 149.871094 225.238281 151.757812 225.1875 152.945312 226.308594 L 177.425781 249.476562 C 178.609375 250.601562 180.453125 250.507812 181.515625 249.269531 L 229.347656 193.695312 C 230.410156 192.457031 232.296875 192.316406 233.53125 193.382812 L 249.273438 206.933594 C 250.511719 207.996094 250.652344 209.882812 249.589844 211.117188 Z M 191.445312 156.855469 C 146.148438 156.855469 109.296875 193.707031 109.296875 239.003906 C 109.296875 284.300781 146.148438 321.15625 191.445312 321.15625 C 236.746094 321.15625 273.597656 284.300781 273.597656 239.003906 C 273.597656 193.707031 236.746094 156.855469 191.445312 156.855469 "/><g clip-rule="nonzero" clip-path="url(#6de5a4acc0)"><g clip-rule="nonzero" clip-path="url(#c8dcb0c9e6)"><g clip-rule="nonzero" clip-path="url(#c956b66497)"><path style=" stroke:none;fill-rule:nonzero;fill:#ffffff;fill-opacity:1;" d="M 63.199219 128.796875 L 69.9375 143.238281 L 85.65625 145.871094 C 90.453125 146.675781 92.246094 152.632812 88.6875 155.953125 L 77.039062 166.824219 L 79.386719 182.585938 C 80.105469 187.398438 74.992188 190.941406 70.738281 188.585938 L 59.496094 182.359375 C 57.808594 181.425781 55.765625 181.378906 54.035156 182.238281 L 42.535156 187.96875 C 38.179688 190.140625 33.226562 186.375 34.152344 181.597656 L 37.191406 165.953125 L 26.023438 154.582031 C 22.613281 151.113281 24.664062 145.238281 29.496094 144.644531 L 45.308594 142.695312 L 52.671875 128.5625 C 54.921875 124.25 61.140625 124.386719 63.199219 128.792969 Z M 63.199219 128.796875 "/></g></g></g><g clip-rule="nonzero" clip-path="url(#65f2edf280)"><g clip-rule="nonzero" clip-path="url(#003bceb42a)"><g clip-rule="nonzero" clip-path="url(#a5d0949f7a)"><path style=" stroke:none;fill-rule:nonzero;fill:#ffffff;fill-opacity:1;" d="M 118.3125 81.480469 L 125.050781 95.921875 L 140.769531 98.558594 C 145.566406 99.363281 147.359375 105.320312 143.800781 108.636719 L 132.148438 119.507812 L 134.5 135.269531 C 135.21875 140.082031 130.105469 143.628906 125.851562 141.273438 L 114.609375 135.046875 C 112.921875 134.109375 110.878906 134.066406 109.148438 134.925781 L 97.644531 140.65625 C 93.292969 142.824219 88.339844 139.0625 89.265625 134.285156 L 92.300781 118.640625 L 81.136719 107.269531 C 77.726562 103.796875 79.777344 97.925781 84.605469 97.328125 L 100.421875 95.382812 L 107.785156 81.25 C 110.035156 76.9375 116.253906 77.070312 118.3125 81.480469 Z M 118.3125 81.480469 "/></g></g></g><g clip-rule="nonzero" clip-path="url(#7fc2f134f8)"><g clip-rule="nonzero" clip-path="url(#a5d918124c)"><g clip-rule="nonzero" clip-path="url(#967f596ba7)"><path style=" stroke:none;fill-rule:nonzero;fill:#ffffff;fill-opacity:1;" d="M 194.882812 52.535156 L 201.621094 66.976562 L 217.339844 69.613281 C 222.140625 70.417969 223.929688 76.375 220.371094 79.691406 L 208.722656 90.566406 L 211.070312 106.324219 C 211.789062 111.136719 206.675781 114.683594 202.421875 112.328125 L 191.183594 106.101562 C 189.492188 105.164062 187.449219 105.121094 185.71875 105.980469 L 174.21875 111.710938 C 169.863281 113.878906 164.910156 110.117188 165.839844 105.339844 L 168.875 89.695312 L 157.707031 78.324219 C 154.296875 74.851562 156.351562 68.980469 161.179688 68.382812 L 176.992188 66.4375 L 184.359375 52.304688 C 186.605469 47.992188 192.824219 48.125 194.882812 52.535156 Z M 194.882812 52.535156 "/></g></g></g><g clip-rule="nonzero" clip-path="url(#0a91968cee)"><g clip-rule="nonzero" clip-path="url(#7fe3fcb591)"><g clip-rule="nonzero" clip-path="url(#9fd8fa9bbe)"><path style=" stroke:none;fill-rule:nonzero;fill:#ffffff;fill-opacity:1;" d="M 267.386719 81.480469 L 274.128906 95.921875 L 289.84375 98.558594 C 294.644531 99.363281 296.4375 105.320312 292.878906 108.636719 L 281.226562 119.507812 L 283.578125 135.269531 C 284.292969 140.082031 279.183594 143.628906 274.925781 141.273438 L 263.6875 135.046875 C 261.996094 134.109375 259.953125 134.066406 258.222656 134.925781 L 246.722656 140.65625 C 242.367188 142.824219 237.417969 139.0625 238.34375 134.285156 L 241.378906 118.640625 L 230.210938 107.269531 C 226.804688 103.796875 228.855469 97.925781 233.683594 97.328125 L 249.5 95.382812 L 256.863281 81.25 C 259.109375 76.9375 265.332031 77.070312 267.386719 81.480469 Z M 267.386719 81.480469 "/></g></g></g><g clip-rule="nonzero" clip-path="url(#187e3ea5bc)"><g clip-rule="nonzero" clip-path="url(#0221234eaf)"><g clip-rule="nonzero" clip-path="url(#f5eaddf331)"><path style=" stroke:none;fill-rule:nonzero;fill:#ffffff;fill-opacity:1;" d="M 326.777344 128.796875 L 333.515625 143.238281 L 349.230469 145.871094 C 354.03125 146.675781 355.824219 152.632812 352.265625 155.953125 L 340.613281 166.824219 L 342.964844 182.585938 C 343.679688 187.398438 338.570312 190.941406 334.316406 188.585938 L 323.074219 182.359375 C 321.382812 181.425781 319.339844 181.378906 317.613281 182.238281 L 306.109375 187.96875 C 301.757812 190.140625 296.804688 186.375 297.730469 181.597656 L 300.765625 165.953125 L 289.601562 154.582031 C 286.191406 151.113281 288.242188 145.238281 293.070312 144.644531 L 308.886719 142.695312 L 316.25 128.5625 C 318.496094 124.25 324.71875 124.386719 326.773438 128.792969 Z M 326.777344 128.796875 "/></g></g></g></g></svg>