<svg xmlns="http://www.w3.org/2000/svg" xmlns:xlink="http://www.w3.org/1999/xlink" width="500" zoomAndPan="magnify" viewBox="0 0 375 374.999991" height="500" preserveAspectRatio="xMidYMid meet" version="1.2"><defs><clipPath id="28d0864d28"><path d="M 76.027344 76.027344 L 298.777344 76.027344 L 298.777344 298.777344 L 76.027344 298.777344 Z M 76.027344 76.027344 "/></clipPath></defs><g id="a6cc4f6ed7"><path style=" stroke:none;fill-rule:nonzero;fill:#000000;fill-opacity:1;" d="M 120.550781 179.976562 L 142.878906 179.976562 C 143.363281 179.976562 143.84375 180.023438 144.320312 180.117188 C 144.796875 180.214844 145.261719 180.355469 145.710938 180.539062 C 146.15625 180.726562 146.585938 180.953125 146.988281 181.222656 C 147.390625 181.492188 147.765625 181.800781 148.109375 182.144531 C 148.453125 182.488281 148.761719 182.859375 149.03125 183.265625 C 149.300781 183.667969 149.527344 184.09375 149.714844 184.542969 C 149.898438 184.992188 150.039062 185.457031 150.132812 185.933594 C 150.230469 186.410156 150.277344 186.890625 150.277344 187.375 L 150.277344 202.277344 C 150.277344 202.761719 150.230469 203.246094 150.132812 203.722656 C 150.039062 204.199219 149.898438 204.660156 149.714844 205.109375 C 149.527344 205.558594 149.300781 205.984375 149.03125 206.386719 C 148.761719 206.792969 148.453125 207.164062 148.109375 207.507812 C 147.765625 207.851562 147.390625 208.160156 146.988281 208.429688 C 146.585938 208.699219 146.15625 208.925781 145.710938 209.113281 C 145.261719 209.300781 144.796875 209.441406 144.320312 209.535156 C 143.84375 209.628906 143.363281 209.675781 142.878906 209.675781 L 120.550781 209.675781 C 120.066406 209.675781 119.582031 209.628906 119.105469 209.535156 C 118.628906 209.441406 118.167969 209.300781 117.71875 209.113281 C 117.269531 208.925781 116.84375 208.699219 116.441406 208.429688 C 116.035156 208.160156 115.664062 207.851562 115.320312 207.507812 C 114.976562 207.164062 114.667969 206.792969 114.398438 206.386719 C 114.128906 205.984375 113.902344 205.558594 113.714844 205.109375 C 113.527344 204.660156 113.386719 204.199219 113.292969 203.722656 C 113.199219 203.246094 113.152344 202.761719 113.152344 202.277344 L 113.152344 187.375 C 113.152344 186.890625 113.199219 186.410156 113.292969 185.933594 C 113.386719 185.457031 113.527344 184.992188 113.714844 184.542969 C 113.902344 184.09375 114.128906 183.667969 114.398438 183.265625 C 114.667969 182.859375 114.976562 182.488281 115.320312 182.144531 C 115.664062 181.800781 116.035156 181.492188 116.441406 181.222656 C 116.84375 180.953125 117.269531 180.726562 117.71875 180.539062 C 118.167969 180.355469 118.628906 180.214844 119.105469 180.117188 C 119.582031 180.023438 120.066406 179.976562 120.550781 179.976562 Z M 120.550781 179.976562 "/><path style=" stroke:none;fill-rule:nonzero;fill:#000000;fill-opacity:1;" d="M 176.238281 179.976562 L 198.566406 179.976562 C 199.050781 179.976562 199.53125 180.023438 200.007812 180.117188 C 200.484375 180.214844 200.949219 180.355469 201.398438 180.539062 C 201.84375 180.726562 202.273438 180.953125 202.675781 181.222656 C 203.078125 181.492188 203.453125 181.800781 203.796875 182.144531 C 204.140625 182.488281 204.449219 182.859375 204.71875 183.265625 C 204.988281 183.667969 205.214844 184.09375 205.402344 184.542969 C 205.585938 184.992188 205.726562 185.457031 205.820312 185.933594 C 205.917969 186.410156 205.964844 186.890625 205.964844 187.375 L 205.964844 202.277344 C 205.964844 202.761719 205.917969 203.246094 205.820312 203.722656 C 205.726562 204.199219 205.585938 204.660156 205.402344 205.109375 C 205.214844 205.558594 204.988281 205.984375 204.71875 206.386719 C 204.449219 206.792969 204.140625 207.164062 203.796875 207.507812 C 203.453125 207.851562 203.078125 208.160156 202.675781 208.429688 C 202.273438 208.699219 201.84375 208.925781 201.398438 209.113281 C 200.949219 209.300781 200.484375 209.441406 200.007812 209.535156 C 199.53125 209.628906 199.050781 209.675781 198.566406 209.675781 L 176.238281 209.675781 C 175.753906 209.675781 175.269531 209.628906 174.792969 209.535156 C 174.316406 209.441406 173.855469 209.300781 173.40625 209.113281 C 172.957031 208.925781 172.53125 208.699219 172.128906 208.429688 C 171.722656 208.160156 171.351562 207.851562 171.007812 207.507812 C 170.664062 207.164062 170.355469 206.792969 170.085938 206.386719 C 169.816406 205.984375 169.589844 205.558594 169.402344 205.109375 C 169.214844 204.660156 169.074219 204.199219 168.980469 203.722656 C 168.886719 203.246094 168.839844 202.761719 168.839844 202.277344 L 168.839844 187.375 C 168.839844 186.890625 168.886719 186.410156 168.980469 185.933594 C 169.074219 185.457031 169.214844 184.992188 169.402344 184.542969 C 169.589844 184.09375 169.816406 183.667969 170.085938 183.265625 C 170.355469 182.859375 170.664062 182.488281 171.007812 182.144531 C 171.351562 181.800781 171.722656 181.492188 172.128906 181.222656 C 172.53125 180.953125 172.957031 180.726562 173.40625 180.539062 C 173.855469 180.355469 174.316406 180.214844 174.792969 180.117188 C 175.269531 180.023438 175.753906 179.976562 176.238281 179.976562 Z M 176.238281 179.976562 "/><path style=" stroke:none;fill-rule:nonzero;fill:#000000;fill-opacity:1;" d="M 231.925781 179.976562 L 254.253906 179.976562 C 254.738281 179.976562 255.21875 180.023438 255.695312 180.117188 C 256.171875 180.214844 256.636719 180.355469 257.085938 180.539062 C 257.53125 180.726562 257.960938 180.953125 258.363281 181.222656 C 258.765625 181.492188 259.140625 181.800781 259.484375 182.144531 C 259.828125 182.488281 260.136719 182.859375 260.40625 183.265625 C 260.675781 183.667969 260.902344 184.09375 261.089844 184.542969 C 261.273438 184.992188 261.414062 185.457031 261.507812 185.933594 C 261.605469 186.410156 261.652344 186.890625 261.652344 187.375 L 261.652344 202.277344 C 261.652344 202.761719 261.605469 203.246094 261.507812 203.722656 C 261.414062 204.199219 261.273438 204.660156 261.089844 205.109375 C 260.902344 205.558594 260.675781 205.984375 260.40625 206.386719 C 260.136719 206.792969 259.828125 207.164062 259.484375 207.507812 C 259.140625 207.851562 258.765625 208.160156 258.363281 208.429688 C 257.960938 208.699219 257.53125 208.925781 257.085938 209.113281 C 256.636719 209.300781 256.171875 209.441406 255.695312 209.535156 C 255.21875 209.628906 254.738281 209.675781 254.253906 209.675781 L 231.925781 209.675781 C 231.441406 209.675781 230.957031 209.628906 230.480469 209.535156 C 230.003906 209.441406 229.542969 209.300781 229.09375 209.113281 C 228.644531 208.925781 228.21875 208.699219 227.816406 208.429688 C 227.410156 208.160156 227.039062 207.851562 226.695312 207.507812 C 226.351562 207.164062 226.042969 206.792969 225.773438 206.386719 C 225.503906 205.984375 225.277344 205.558594 225.089844 205.109375 C 224.902344 204.660156 224.761719 204.199219 224.667969 203.722656 C 224.574219 203.246094 224.527344 202.761719 224.527344 202.277344 L 224.527344 187.375 C 224.527344 186.890625 224.574219 186.410156 224.667969 185.933594 C 224.761719 185.457031 224.902344 184.992188 225.089844 184.542969 C 225.277344 184.09375 225.503906 183.667969 225.773438 183.265625 C 226.042969 182.859375 226.351562 182.488281 226.695312 182.144531 C 227.039062 181.800781 227.410156 181.492188 227.816406 181.222656 C 228.21875 180.953125 228.644531 180.726562 229.09375 180.539062 C 229.542969 180.355469 230.003906 180.214844 230.480469 180.117188 C 230.957031 180.023438 231.441406 179.976562 231.925781 179.976562 Z M 231.925781 179.976562 "/><path style=" stroke:none;fill-rule:nonzero;fill:#000000;fill-opacity:1;" d="M 120.550781 231.953125 L 142.878906 231.953125 C 143.363281 231.953125 143.84375 232 144.320312 232.09375 C 144.796875 232.1875 145.261719 232.328125 145.710938 232.515625 C 146.15625 232.699219 146.585938 232.929688 146.988281 233.199219 C 147.390625 233.46875 147.765625 233.773438 148.109375 234.117188 C 148.453125 234.460938 148.761719 234.835938 149.03125 235.238281 C 149.300781 235.644531 149.527344 236.070312 149.714844 236.519531 C 149.898438 236.96875 150.039062 237.429688 150.132812 237.90625 C 150.230469 238.382812 150.277344 238.863281 150.277344 239.351562 L 150.277344 254.253906 C 150.277344 254.738281 150.230469 255.21875 150.132812 255.695312 C 150.039062 256.171875 149.898438 256.636719 149.714844 257.085938 C 149.527344 257.53125 149.300781 257.960938 149.03125 258.363281 C 148.761719 258.765625 148.453125 259.140625 148.109375 259.484375 C 147.765625 259.828125 147.390625 260.136719 146.988281 260.40625 C 146.585938 260.675781 146.15625 260.902344 145.710938 261.089844 C 145.261719 261.273438 144.796875 261.414062 144.320312 261.507812 C 143.84375 261.605469 143.363281 261.652344 142.878906 261.652344 L 120.550781 261.652344 C 120.066406 261.652344 119.582031 261.605469 119.105469 261.507812 C 118.628906 261.414062 118.167969 261.273438 117.71875 261.089844 C 117.269531 260.902344 116.84375 260.675781 116.441406 260.40625 C 116.035156 260.136719 115.664062 259.828125 115.320312 259.484375 C 114.976562 259.140625 114.667969 258.765625 114.398438 258.363281 C 114.128906 257.960938 113.902344 257.53125 113.714844 257.085938 C 113.527344 256.636719 113.386719 256.171875 113.292969 255.695312 C 113.199219 255.21875 113.152344 254.738281 113.152344 254.253906 L 113.152344 239.351562 C 113.152344 238.863281 113.199219 238.382812 113.292969 237.90625 C 113.386719 237.429688 113.527344 236.96875 113.714844 236.519531 C 113.902344 236.070312 114.128906 235.644531 114.398438 235.238281 C 114.667969 234.835938 114.976562 234.460938 115.320312 234.117188 C 115.664062 233.773438 116.035156 233.46875 116.441406 233.199219 C 116.84375 232.929688 117.269531 232.699219 117.71875 232.515625 C 118.167969 232.328125 118.628906 232.1875 119.105469 232.09375 C 119.582031 232 120.066406 231.953125 120.550781 231.953125 Z M 120.550781 231.953125 "/><path style=" stroke:none;fill-rule:nonzero;fill:#000000;fill-opacity:1;" d="M 176.238281 231.953125 L 198.566406 231.953125 C 199.050781 231.953125 199.53125 232 200.007812 232.09375 C 200.484375 232.1875 200.949219 232.328125 201.398438 232.515625 C 201.84375 232.699219 202.273438 232.929688 202.675781 233.199219 C 203.078125 233.46875 203.453125 233.773438 203.796875 234.117188 C 204.140625 234.460938 204.449219 234.835938 204.71875 235.238281 C 204.988281 235.644531 205.214844 236.070312 205.402344 236.519531 C 205.585938 236.96875 205.726562 237.429688 205.820312 237.90625 C 205.917969 238.382812 205.964844 238.863281 205.964844 239.351562 L 205.964844 254.253906 C 205.964844 254.738281 205.917969 255.21875 205.820312 255.695312 C 205.726562 256.171875 205.585938 256.636719 205.402344 257.085938 C 205.214844 257.53125 204.988281 257.960938 204.71875 258.363281 C 204.449219 258.765625 204.140625 259.140625 203.796875 259.484375 C 203.453125 259.828125 203.078125 260.136719 202.675781 260.40625 C 202.273438 260.675781 201.84375 260.902344 201.398438 261.089844 C 200.949219 261.273438 200.484375 261.414062 200.007812 261.507812 C 199.53125 261.605469 199.050781 261.652344 198.566406 261.652344 L 176.238281 261.652344 C 175.753906 261.652344 175.269531 261.605469 174.792969 261.507812 C 174.316406 261.414062 173.855469 261.273438 173.40625 261.089844 C 172.957031 260.902344 172.53125 260.675781 172.128906 260.40625 C 171.722656 260.136719 171.351562 259.828125 171.007812 259.484375 C 170.664062 259.140625 170.355469 258.765625 170.085938 258.363281 C 169.816406 257.960938 169.589844 257.53125 169.402344 257.085938 C 169.214844 256.636719 169.074219 256.171875 168.980469 255.695312 C 168.886719 255.21875 168.839844 254.738281 168.839844 254.253906 L 168.839844 239.351562 C 168.839844 238.863281 168.886719 238.382812 168.980469 237.90625 C 169.074219 237.429688 169.214844 236.96875 169.402344 236.519531 C 169.589844 236.070312 169.816406 235.644531 170.085938 235.238281 C 170.355469 234.835938 170.664062 234.460938 171.007812 234.117188 C 171.351562 233.773438 171.722656 233.46875 172.128906 233.199219 C 172.53125 232.929688 172.957031 232.699219 173.40625 232.515625 C 173.855469 232.328125 174.316406 232.1875 174.792969 232.09375 C 175.269531 232 175.753906 231.953125 176.238281 231.953125 Z M 176.238281 231.953125 "/><g clip-rule="nonzero" clip-path="url(#28d0864d28)"><path style=" stroke:none;fill-rule:nonzero;fill:#000000;fill-opacity:1;" d="M 267.703125 94.589844 L 254.226562 94.589844 L 254.226562 83.453125 C 254.226562 82.964844 254.179688 82.480469 254.082031 82.003906 C 253.988281 81.523438 253.847656 81.0625 253.660156 80.609375 C 253.476562 80.160156 253.246094 79.730469 252.976562 79.328125 C 252.703125 78.921875 252.398438 78.546875 252.050781 78.203125 C 251.707031 77.855469 251.332031 77.550781 250.925781 77.277344 C 250.519531 77.007812 250.09375 76.777344 249.644531 76.59375 C 249.191406 76.40625 248.726562 76.265625 248.25 76.167969 C 247.773438 76.074219 247.289062 76.027344 246.800781 76.027344 C 246.3125 76.027344 245.832031 76.074219 245.351562 76.167969 C 244.875 76.265625 244.410156 76.40625 243.960938 76.59375 C 243.511719 76.777344 243.082031 77.007812 242.675781 77.277344 C 242.269531 77.550781 241.894531 77.855469 241.550781 78.203125 C 241.207031 78.546875 240.898438 78.921875 240.628906 79.328125 C 240.355469 79.730469 240.128906 80.160156 239.941406 80.609375 C 239.753906 81.0625 239.613281 81.523438 239.519531 82.003906 C 239.425781 82.480469 239.375 82.964844 239.375 83.453125 L 239.375 94.589844 L 135.425781 94.589844 L 135.425781 83.453125 C 135.425781 82.964844 135.378906 82.480469 135.285156 82.003906 C 135.1875 81.523438 135.046875 81.0625 134.863281 80.609375 C 134.675781 80.160156 134.445312 79.730469 134.175781 79.328125 C 133.90625 78.921875 133.597656 78.546875 133.25 78.203125 C 132.90625 77.855469 132.53125 77.550781 132.125 77.277344 C 131.722656 77.007812 131.292969 76.777344 130.84375 76.59375 C 130.394531 76.40625 129.929688 76.265625 129.449219 76.167969 C 128.972656 76.074219 128.488281 76.027344 128 76.027344 C 127.515625 76.027344 127.03125 76.074219 126.554688 76.167969 C 126.074219 76.265625 125.609375 76.40625 125.160156 76.59375 C 124.710938 76.777344 124.28125 77.007812 123.875 77.277344 C 123.472656 77.550781 123.097656 77.855469 122.75 78.203125 C 122.40625 78.546875 122.097656 78.921875 121.828125 79.328125 C 121.558594 79.730469 121.328125 80.160156 121.140625 80.609375 C 120.957031 81.0625 120.8125 81.523438 120.71875 82.003906 C 120.625 82.480469 120.578125 82.964844 120.578125 83.453125 L 120.578125 94.589844 L 107.101562 94.589844 C 106.082031 94.589844 105.066406 94.640625 104.054688 94.742188 C 103.042969 94.84375 102.039062 94.992188 101.039062 95.191406 C 100.042969 95.390625 99.058594 95.636719 98.082031 95.933594 C 97.109375 96.230469 96.152344 96.574219 95.214844 96.960938 C 94.273438 97.351562 93.355469 97.785156 92.457031 98.265625 C 91.5625 98.746094 90.691406 99.269531 89.84375 99.835938 C 88.996094 100.402344 88.183594 101.007812 87.394531 101.652344 C 86.609375 102.296875 85.855469 102.980469 85.136719 103.699219 C 84.417969 104.417969 83.734375 105.171875 83.089844 105.957031 C 82.445312 106.746094 81.839844 107.558594 81.273438 108.40625 C 80.707031 109.253906 80.183594 110.125 79.703125 111.019531 C 79.222656 111.917969 78.789062 112.835938 78.398438 113.777344 C 78.011719 114.714844 77.667969 115.671875 77.371094 116.644531 C 77.074219 117.621094 76.828125 118.605469 76.628906 119.601562 C 76.429688 120.601562 76.28125 121.605469 76.179688 122.617188 C 76.078125 123.628906 76.027344 124.644531 76.027344 125.664062 L 76.027344 267.703125 C 76.027344 268.71875 76.078125 269.734375 76.179688 270.746094 C 76.28125 271.761719 76.429688 272.765625 76.628906 273.761719 C 76.828125 274.761719 77.074219 275.746094 77.371094 276.71875 C 77.667969 277.695312 78.011719 278.648438 78.398438 279.589844 C 78.789062 280.53125 79.222656 281.449219 79.703125 282.34375 C 80.183594 283.242188 80.707031 284.113281 81.273438 284.960938 C 81.839844 285.804688 82.445312 286.621094 83.089844 287.40625 C 83.734375 288.195312 84.417969 288.949219 85.136719 289.667969 C 85.855469 290.386719 86.609375 291.070312 87.394531 291.714844 C 88.183594 292.359375 88.996094 292.964844 89.84375 293.53125 C 90.691406 294.097656 91.5625 294.617188 92.457031 295.097656 C 93.355469 295.578125 94.273438 296.011719 95.214844 296.402344 C 96.152344 296.792969 97.109375 297.136719 98.082031 297.433594 C 99.058594 297.726562 100.042969 297.976562 101.039062 298.175781 C 102.039062 298.375 103.042969 298.523438 104.054688 298.625 C 105.066406 298.726562 106.082031 298.777344 107.101562 298.777344 L 267.703125 298.777344 C 268.71875 298.777344 269.734375 298.726562 270.746094 298.625 C 271.761719 298.523438 272.765625 298.375 273.761719 298.175781 C 274.761719 297.976562 275.746094 297.726562 276.71875 297.433594 C 277.695312 297.136719 278.648438 296.792969 279.589844 296.402344 C 280.53125 296.011719 281.449219 295.578125 282.34375 295.097656 C 283.242188 294.617188 284.113281 294.097656 284.960938 293.53125 C 285.804688 292.964844 286.621094 292.359375 287.40625 291.714844 C 288.195312 291.070312 288.949219 290.386719 289.667969 289.667969 C 290.386719 288.949219 291.070312 288.195312 291.714844 287.40625 C 292.359375 286.621094 292.964844 285.804688 293.53125 284.960938 C 294.097656 284.113281 294.617188 283.242188 295.097656 282.34375 C 295.578125 281.449219 296.011719 280.53125 296.402344 279.589844 C 296.792969 278.648438 297.136719 277.695312 297.433594 276.71875 C 297.726562 275.746094 297.976562 274.761719 298.175781 273.761719 C 298.375 272.765625 298.523438 271.761719 298.625 270.746094 C 298.726562 269.734375 298.777344 268.71875 298.777344 267.703125 L 298.777344 125.664062 C 298.777344 124.644531 298.726562 123.628906 298.625 122.617188 C 298.523438 121.605469 298.375 120.601562 298.175781 119.601562 C 297.976562 118.605469 297.726562 117.621094 297.433594 116.644531 C 297.136719 115.671875 296.792969 114.714844 296.402344 113.777344 C 296.011719 112.835938 295.578125 111.917969 295.097656 111.019531 C 294.617188 110.125 294.097656 109.253906 293.53125 108.40625 C 292.964844 107.558594 292.359375 106.746094 291.714844 105.957031 C 291.070312 105.171875 290.386719 104.417969 289.667969 103.699219 C 288.949219 102.980469 288.195312 102.296875 287.40625 101.652344 C 286.621094 101.007812 285.804688 100.402344 284.960938 99.835938 C 284.113281 99.269531 283.242188 98.746094 282.34375 98.265625 C 281.449219 97.785156 280.53125 97.351562 279.589844 96.960938 C 278.648438 96.574219 277.695312 96.230469 276.71875 95.933594 C 275.746094 95.636719 274.761719 95.390625 273.761719 95.191406 C 272.765625 94.992188 271.761719 94.84375 270.746094 94.742188 C 269.734375 94.640625 268.71875 94.589844 267.703125 94.589844 Z M 107.101562 109.4375 L 120.578125 109.4375 L 120.578125 124.289062 C 120.578125 124.777344 120.625 125.257812 120.71875 125.738281 C 120.8125 126.214844 120.957031 126.679688 121.140625 127.128906 C 121.328125 127.582031 121.558594 128.007812 121.828125 128.414062 C 122.097656 128.820312 122.40625 129.195312 122.75 129.539062 C 123.097656 129.882812 123.472656 130.191406 123.875 130.460938 C 124.28125 130.734375 124.710938 130.960938 125.160156 131.148438 C 125.609375 131.335938 126.074219 131.476562 126.554688 131.570312 C 127.03125 131.667969 127.515625 131.714844 128 131.714844 C 128.488281 131.714844 128.972656 131.667969 129.449219 131.570312 C 129.929688 131.476562 130.394531 131.335938 130.84375 131.148438 C 131.292969 130.960938 131.722656 130.734375 132.125 130.460938 C 132.53125 130.191406 132.90625 129.882812 133.25 129.539062 C 133.597656 129.195312 133.90625 128.820312 134.175781 128.414062 C 134.445312 128.007812 134.675781 127.582031 134.863281 127.128906 C 135.046875 126.679688 135.1875 126.214844 135.285156 125.738281 C 135.378906 125.257812 135.425781 124.777344 135.425781 124.289062 L 135.425781 109.4375 L 239.375 109.4375 L 239.375 124.289062 C 239.375 124.777344 239.425781 125.257812 239.519531 125.738281 C 239.613281 126.214844 239.753906 126.679688 239.941406 127.128906 C 240.128906 127.582031 240.355469 128.007812 240.628906 128.414062 C 240.898438 128.820312 241.207031 129.195312 241.550781 129.539062 C 241.894531 129.882812 242.269531 130.191406 242.675781 130.460938 C 243.082031 130.734375 243.511719 130.960938 243.960938 131.148438 C 244.410156 131.335938 244.875 131.476562 245.351562 131.570312 C 245.832031 131.667969 246.3125 131.714844 246.800781 131.714844 C 247.289062 131.714844 247.773438 131.667969 248.25 131.570312 C 248.726562 131.476562 249.191406 131.335938 249.644531 131.148438 C 250.09375 130.960938 250.519531 130.734375 250.925781 130.460938 C 251.332031 130.191406 251.707031 129.882812 252.050781 129.539062 C 252.398438 129.195312 252.703125 128.820312 252.976562 128.414062 C 253.246094 128.007812 253.476562 127.582031 253.660156 127.128906 C 253.847656 126.679688 253.988281 126.214844 254.082031 125.738281 C 254.179688 125.257812 254.226562 124.777344 254.226562 124.289062 L 254.226562 109.4375 L 267.703125 109.4375 C 268.234375 109.441406 268.765625 109.464844 269.292969 109.519531 C 269.820312 109.570312 270.347656 109.648438 270.867188 109.753906 C 271.386719 109.855469 271.902344 109.988281 272.410156 110.140625 C 272.917969 110.296875 273.417969 110.472656 273.910156 110.679688 C 274.398438 110.882812 274.878906 111.109375 275.347656 111.359375 C 275.816406 111.609375 276.269531 111.882812 276.710938 112.179688 C 277.15625 112.472656 277.582031 112.789062 277.992188 113.125 C 278.402344 113.464844 278.792969 113.820312 279.171875 114.195312 C 279.546875 114.570312 279.902344 114.964844 280.238281 115.375 C 280.578125 115.785156 280.894531 116.210938 281.1875 116.652344 C 281.484375 117.09375 281.757812 117.550781 282.007812 118.019531 C 282.257812 118.488281 282.484375 118.964844 282.6875 119.457031 C 282.890625 119.945312 283.070312 120.445312 283.226562 120.953125 C 283.378906 121.464844 283.507812 121.976562 283.613281 122.5 C 283.714844 123.019531 283.792969 123.542969 283.847656 124.074219 C 283.898438 124.601562 283.925781 125.132812 283.925781 125.664062 L 283.925781 142.851562 L 90.875 142.851562 L 90.875 125.664062 C 90.878906 125.132812 90.902344 124.601562 90.957031 124.074219 C 91.007812 123.542969 91.085938 123.019531 91.191406 122.5 C 91.292969 121.976562 91.425781 121.464844 91.578125 120.953125 C 91.734375 120.445312 91.910156 119.945312 92.117188 119.457031 C 92.320312 118.964844 92.546875 118.488281 92.796875 118.019531 C 93.046875 117.550781 93.320312 117.09375 93.617188 116.652344 C 93.910156 116.210938 94.226562 115.785156 94.5625 115.375 C 94.902344 114.964844 95.257812 114.570312 95.632812 114.195312 C 96.007812 113.820312 96.402344 113.464844 96.8125 113.125 C 97.222656 112.789062 97.648438 112.472656 98.089844 112.179688 C 98.53125 111.882812 98.988281 111.609375 99.457031 111.359375 C 99.925781 111.109375 100.402344 110.882812 100.894531 110.679688 C 101.382812 110.472656 101.882812 110.296875 102.390625 110.140625 C 102.902344 109.988281 103.414062 109.855469 103.9375 109.753906 C 104.457031 109.648438 104.980469 109.570312 105.511719 109.519531 C 106.039062 109.464844 106.570312 109.441406 107.101562 109.4375 Z M 267.703125 283.925781 L 107.101562 283.925781 C 106.570312 283.925781 106.039062 283.898438 105.511719 283.847656 C 104.980469 283.792969 104.457031 283.714844 103.9375 283.613281 C 103.414062 283.507812 102.902344 283.378906 102.390625 283.226562 C 101.882812 283.070312 101.382812 282.890625 100.894531 282.6875 C 100.402344 282.484375 99.925781 282.257812 99.457031 282.007812 C 98.988281 281.757812 98.53125 281.484375 98.089844 281.1875 C 97.648438 280.894531 97.222656 280.578125 96.8125 280.238281 C 96.402344 279.902344 96.007812 279.546875 95.632812 279.171875 C 95.257812 278.792969 94.902344 278.402344 94.5625 277.992188 C 94.226562 277.582031 93.910156 277.15625 93.617188 276.710938 C 93.320312 276.269531 93.046875 275.816406 92.796875 275.347656 C 92.546875 274.878906 92.320312 274.398438 92.117188 273.910156 C 91.910156 273.417969 91.734375 272.917969 91.578125 272.410156 C 91.425781 271.902344 91.292969 271.386719 91.191406 270.867188 C 91.085938 270.347656 91.007812 269.820312 90.957031 269.292969 C 90.902344 268.765625 90.878906 268.234375 90.875 267.703125 L 90.875 157.703125 L 283.925781 157.703125 L 283.925781 267.703125 C 283.925781 268.234375 283.898438 268.765625 283.847656 269.292969 C 283.792969 269.820312 283.714844 270.347656 283.613281 270.867188 C 283.507812 271.386719 283.378906 271.902344 283.226562 272.410156 C 283.070312 272.917969 282.890625 273.417969 282.6875 273.910156 C 282.484375 274.398438 282.257812 274.878906 282.007812 275.347656 C 281.757812 275.816406 281.484375 276.269531 281.1875 276.714844 C 280.894531 277.15625 280.578125 277.582031 280.238281 277.992188 C 279.902344 278.402344 279.546875 278.796875 279.171875 279.171875 C 278.796875 279.546875 278.402344 279.902344 277.992188 280.238281 C 277.582031 280.578125 277.15625 280.894531 276.714844 281.1875 C 276.269531 281.484375 275.816406 281.757812 275.347656 282.007812 C 274.878906 282.257812 274.398438 282.484375 273.910156 282.6875 C 273.417969 282.890625 272.917969 283.070312 272.410156 283.226562 C 271.902344 283.378906 271.386719 283.507812 270.867188 283.613281 C 270.347656 283.714844 269.820312 283.792969 269.292969 283.847656 C 268.765625 283.898438 268.234375 283.925781 267.703125 283.925781 Z M 267.703125 283.925781 "/></g></g></svg>