<svg xmlns="http://www.w3.org/2000/svg" xmlns:xlink="http://www.w3.org/1999/xlink" width="500" zoomAndPan="magnify" viewBox="0 0 375 374.999991" height="500" preserveAspectRatio="xMidYMid meet" version="1.2"><defs><clipPath id="80b452346f"><path d="M 109 47 L 299.902344 47 L 299.902344 293 L 109 293 Z M 109 47 "/></clipPath></defs><g id="647e3e2864"><path style=" stroke:none;fill-rule:nonzero;fill:#000000;fill-opacity:1;" d="M 294.324219 96.242188 L 251.371094 53.289062 L 251.371094 96.242188 Z M 294.324219 96.242188 "/><g clip-rule="nonzero" clip-path="url(#80b452346f)"><path style=" stroke:none;fill-rule:nonzero;fill:#000000;fill-opacity:1;" d="M 242.113281 114.753906 C 237.019531 114.753906 232.855469 110.679688 232.855469 105.496094 L 232.855469 47.917969 L 118.988281 47.917969 C 113.898438 47.917969 109.730469 52.085938 109.730469 57.175781 L 109.730469 282.957031 C 109.730469 288.046875 113.898438 292.210938 118.988281 292.210938 L 290.527344 292.210938 C 295.710938 292.210938 299.785156 288.046875 299.785156 282.957031 L 299.785156 114.753906 Z M 156.019531 96.242188 L 204.804688 96.242188 C 209.898438 96.242188 214.0625 100.40625 214.0625 105.496094 C 214.0625 110.679688 209.894531 114.753906 204.804688 114.753906 L 156.019531 114.753906 C 150.925781 114.753906 146.761719 110.683594 146.761719 105.496094 C 146.761719 100.40625 150.925781 96.242188 156.019531 96.242188 Z M 253.5 248.613281 L 156.019531 248.613281 C 150.925781 248.613281 146.761719 244.445312 146.761719 239.355469 C 146.761719 234.261719 150.925781 230.097656 156.019531 230.097656 L 253.5 230.097656 C 258.589844 230.097656 262.757812 234.261719 262.757812 239.355469 C 262.757812 244.445312 258.589844 248.613281 253.5 248.613281 Z M 253.5 203.992188 L 156.019531 203.992188 C 150.925781 203.992188 146.761719 199.828125 146.761719 194.734375 C 146.761719 189.644531 150.925781 185.476562 156.019531 185.476562 L 253.5 185.476562 C 258.589844 185.476562 262.757812 189.644531 262.757812 194.734375 C 262.757812 199.828125 258.589844 203.992188 253.5 203.992188 Z M 253.5 159.375 L 156.019531 159.375 C 150.925781 159.375 146.761719 155.207031 146.761719 150.117188 C 146.761719 145.023438 150.925781 140.859375 156.019531 140.859375 L 253.5 140.859375 C 258.589844 140.859375 262.757812 145.023438 262.757812 150.117188 C 262.757812 155.207031 258.589844 159.375 253.5 159.375 Z M 253.5 159.375 "/></g><path style=" stroke:none;fill-rule:nonzero;fill:#000000;fill-opacity:1;" d="M 118.988281 301.46875 C 108.804688 301.46875 100.472656 293.136719 100.472656 282.957031 L 100.472656 82.539062 L 84.273438 82.539062 C 79.183594 82.539062 75.015625 86.707031 75.015625 91.796875 L 75.015625 317.578125 C 75.015625 322.667969 79.183594 326.832031 84.273438 326.832031 L 255.90625 326.832031 C 260.996094 326.832031 265.164062 322.667969 265.164062 317.578125 L 265.164062 301.46875 Z M 118.988281 301.46875 "/></g></svg>