<svg xmlns="http://www.w3.org/2000/svg" xmlns:xlink="http://www.w3.org/1999/xlink" width="500" zoomAndPan="magnify" viewBox="0 0 375 374.999991" height="500" preserveAspectRatio="xMidYMid meet" version="1.2"><defs><clipPath id="fa7691d9c9"><path d="M 82.03125 57.691406 L 292.78125 57.691406 L 292.78125 317.191406 L 82.03125 317.191406 Z M 82.03125 57.691406 "/></clipPath></defs><g id="911fa8142f"><g clip-rule="nonzero" clip-path="url(#fa7691d9c9)"><path style=" stroke:none;fill-rule:nonzero;fill:#000000;fill-opacity:1;" d="M 290.410156 124.933594 L 225.566406 60.058594 C 224.042969 58.550781 221.984375 57.691406 219.828125 57.691406 L 154.984375 57.691406 C 141.578125 57.691406 130.667969 68.609375 130.667969 82.019531 L 130.667969 122.566406 L 106.351562 122.566406 C 92.945312 122.566406 82.035156 133.484375 82.035156 146.894531 L 82.035156 292.863281 C 82.035156 306.277344 92.945312 317.191406 106.351562 317.191406 L 219.828125 317.191406 C 233.234375 317.191406 244.144531 306.277344 244.144531 292.863281 L 244.144531 252.316406 L 268.460938 252.316406 C 281.867188 252.316406 292.777344 241.402344 292.777344 227.988281 L 292.777344 130.675781 C 292.777344 128.519531 291.917969 126.460938 290.410156 124.933594 Z M 227.933594 85.378906 L 265.105469 122.566406 L 227.933594 122.566406 Z M 227.933594 292.863281 C 227.933594 297.324219 224.285156 300.972656 219.828125 300.972656 L 106.351562 300.972656 C 101.878906 300.972656 98.246094 297.324219 98.246094 292.863281 L 98.246094 146.894531 C 98.246094 142.417969 101.878906 138.785156 106.351562 138.785156 L 163.089844 138.785156 L 163.089844 187.441406 C 163.089844 196.378906 170.367188 203.660156 179.300781 203.660156 L 227.933594 203.660156 Z M 179.300781 187.441406 L 179.300781 150.253906 L 216.472656 187.441406 Z M 276.566406 227.988281 C 276.566406 232.449219 272.917969 236.097656 268.460938 236.097656 L 244.144531 236.097656 L 244.144531 195.550781 C 244.144531 193.394531 243.285156 191.335938 241.777344 189.808594 L 176.933594 124.933594 C 175.410156 123.425781 173.351562 122.566406 171.195312 122.566406 L 146.878906 122.566406 L 146.878906 82.019531 C 146.878906 77.542969 150.511719 73.910156 154.984375 73.910156 L 211.722656 73.910156 L 211.722656 122.566406 C 211.722656 131.503906 218.984375 138.785156 227.933594 138.785156 L 276.566406 138.785156 Z M 276.566406 227.988281 "/></g></g></svg>