<svg xmlns="http://www.w3.org/2000/svg" xmlns:xlink="http://www.w3.org/1999/xlink" width="500" zoomAndPan="magnify" viewBox="0 0 375 374.999991" height="500" preserveAspectRatio="xMidYMid meet" version="1.2"><defs><clipPath id="5f704d3a5c"><path d="M 57.914062 69.460938 L 317.414062 69.460938 L 317.414062 305.710938 L 57.914062 305.710938 Z M 57.914062 69.460938 "/></clipPath></defs><g id="d399d7a96f"><g clip-rule="nonzero" clip-path="url(#5f704d3a5c)"><path style=" stroke:none;fill-rule:nonzero;fill:#000000;fill-opacity:1;" d="M 262.785156 168.972656 L 317.414062 305.472656 L 290.65625 305.472656 L 275.746094 268.246094 L 224.964844 268.246094 L 210.078125 305.472656 L 183.332031 305.472656 L 237.949219 168.972656 Z M 157.246094 69.695312 L 157.246094 94.515625 L 231.742188 94.515625 L 231.742188 119.335938 L 207.308594 119.335938 C 202.519531 133.742188 196.339844 147.527344 188.773438 160.691406 C 181.207031 173.855469 172.402344 186.132812 162.359375 197.523438 C 171.339844 205.53125 181.007812 212.589844 191.363281 218.707031 L 182.039062 242.011719 C 168.660156 234.425781 156.257812 225.488281 144.828125 215.195312 C 133.738281 225.226562 121.703125 233.953125 108.71875 241.378906 C 95.738281 248.804688 82.109375 254.75 67.835938 259.222656 L 61.179688 235.285156 C 73.410156 231.390625 85.097656 226.257812 96.242188 219.898438 C 107.390625 213.535156 117.75 206.082031 127.320312 197.539062 C 113.078125 181.421875 101.394531 163.625 92.269531 144.152344 L 120.082031 144.152344 C 127.023438 156.957031 135.273438 168.859375 144.828125 179.855469 C 152.589844 170.914062 159.503906 161.363281 165.574219 151.199219 C 171.644531 141.035156 176.773438 130.417969 180.960938 119.347656 L 57.914062 119.335938 L 57.914062 94.515625 L 132.414062 94.515625 L 132.414062 69.695312 Z M 250.367188 204.773438 L 234.882812 243.425781 L 265.824219 243.425781 Z M 250.367188 204.773438 "/></g></g></svg>