<svg xmlns="http://www.w3.org/2000/svg" xmlns:xlink="http://www.w3.org/1999/xlink" width="500" zoomAndPan="magnify" viewBox="0 0 375 374.999991" height="500" preserveAspectRatio="xMidYMid meet" version="1.2"><defs><clipPath id="1f8b4d74aa"><path d="M 193 52.902344 L 244 52.902344 L 244 267 L 193 267 Z M 193 52.902344 "/></clipPath><clipPath id="13ed13ccb9"><path d="M 35.625 131 L 339.375 131 L 339.375 322.152344 L 35.625 322.152344 Z M 35.625 131 "/></clipPath></defs><g id="69382b9b48"><path style=" stroke:none;fill-rule:nonzero;fill:#ffffff;fill-opacity:1;" d="M 99.054688 147.457031 L 48.410156 147.457031 L 48.410156 278.78125 L 99.054688 228.5 Z M 99.054688 147.457031 "/><path style=" stroke:none;fill-rule:nonzero;fill:#ffffff;fill-opacity:1;" d="M 126.992188 205.242188 L 137.28125 213.449219 L 171.511719 240.699219 L 171.511719 109.007812 L 120.867188 109.007812 L 120.867188 200.207031 L 124.503906 203.25 Z M 126.992188 205.242188 "/><g clip-rule="nonzero" clip-path="url(#1f8b4d74aa)"><path style=" stroke:none;fill-rule:nonzero;fill:#ffffff;fill-opacity:1;" d="M 243.972656 216.976562 L 243.972656 52.917969 L 193.332031 52.917969 L 193.332031 258.078125 L 204.292969 266.808594 Z M 243.972656 216.976562 "/></g><g clip-rule="nonzero" clip-path="url(#13ed13ccb9)"><path style=" stroke:none;fill-rule:nonzero;fill:#ffffff;fill-opacity:1;" d="M 309.363281 143.757812 L 276.6875 156.605469 L 296.425781 172.328125 L 262.671875 214.71875 L 243.972656 238.203125 L 242.039062 240.628906 L 206.398438 285.390625 L 195.851562 276.996094 L 193.332031 274.984375 L 175.738281 260.976562 L 171.511719 257.605469 L 129.035156 223.785156 L 125.457031 220.933594 L 120.867188 225.480469 L 108.917969 237.34375 L 99.054688 247.132812 L 62.214844 283.703125 L 48.410156 297.410156 L 35.632812 310.09375 L 47.527344 322.078125 L 48.410156 321.203125 L 62.214844 307.5 L 99.054688 270.925781 L 108.917969 261.136719 L 120.867188 249.269531 L 126.6875 243.5 L 129.035156 245.363281 L 171.511719 279.191406 L 175.738281 282.558594 L 193.332031 296.566406 L 195.851562 298.578125 L 209.085938 309.113281 L 242.550781 267.089844 L 243.972656 265.296875 L 262.671875 241.820312 L 309.363281 183.183594 L 309.636719 182.84375 L 329.375 198.5625 L 339.359375 131.964844 Z M 309.363281 143.757812 "/></g></g></svg>