<svg xmlns="http://www.w3.org/2000/svg" xmlns:xlink="http://www.w3.org/1999/xlink" width="500" zoomAndPan="magnify" viewBox="0 0 375 374.999991" height="500" preserveAspectRatio="xMidYMid meet" version="1.2"><defs><clipPath id="bb04c5cec5"><path d="M 34.007812 176 L 189 176 L 189 290 L 34.007812 290 Z M 34.007812 176 "/></clipPath><clipPath id="58d6cb4974"><path d="M 167 207 L 340.757812 207 L 340.757812 320 L 167 320 Z M 167 207 "/></clipPath></defs><g id="15ffadaa30"><g clip-rule="nonzero" clip-path="url(#bb04c5cec5)"><path style=" stroke:none;fill-rule:nonzero;fill:#ffffff;fill-opacity:1;" d="M 188.84375 200.097656 C 182.738281 190.746094 175.074219 182.882812 165.835938 176.960938 C 164.550781 176.125 162.863281 176.253906 161.632812 177.160156 C 150.074219 185.621094 135.832031 190.621094 120.429688 190.621094 C 105.011719 190.621094 90.773438 185.621094 79.210938 177.160156 C 77.960938 176.253906 76.296875 176.125 74.992188 176.960938 C 47.652344 194.550781 34.042969 229.011719 34.042969 268.617188 C 34.042969 285.488281 99.703125 291.972656 150.054688 288.023438 C 152.355469 250.699219 166.105469 219.644531 188.84375 200.097656 Z M 188.84375 200.097656 "/></g><path style=" stroke:none;fill-rule:nonzero;fill:#ffffff;fill-opacity:1;" d="M 156.902344 84.285156 C 158.097656 85.480469 159.230469 86.730469 160.300781 88.039062 C 161.375 89.34375 162.378906 90.699219 163.316406 92.105469 C 164.257812 93.511719 165.125 94.957031 165.921875 96.449219 C 166.71875 97.9375 167.4375 99.464844 168.085938 101.023438 C 168.734375 102.585938 169.300781 104.175781 169.792969 105.792969 C 170.28125 107.410156 170.691406 109.046875 171.023438 110.703125 C 171.351562 112.359375 171.597656 114.03125 171.765625 115.710938 C 171.929688 117.394531 172.011719 119.078125 172.011719 120.769531 C 172.011719 122.457031 171.929688 124.144531 171.765625 125.824219 C 171.597656 127.507812 171.351562 129.175781 171.023438 130.832031 C 170.691406 132.492188 170.28125 134.128906 169.792969 135.746094 C 169.300781 137.363281 168.734375 138.949219 168.085938 140.511719 C 167.4375 142.074219 166.71875 143.597656 165.921875 145.089844 C 165.125 146.578125 164.257812 148.027344 163.316406 149.433594 C 162.378906 150.835938 161.375 152.191406 160.300781 153.5 C 159.230469 154.804688 158.097656 156.054688 156.902344 157.25 C 155.707031 158.445312 154.457031 159.578125 153.152344 160.648438 C 151.84375 161.722656 150.488281 162.726562 149.082031 163.667969 C 147.679688 164.605469 146.230469 165.472656 144.742188 166.269531 C 143.25 167.066406 141.726562 167.789062 140.164062 168.433594 C 138.601562 169.082031 137.015625 169.648438 135.398438 170.140625 C 133.78125 170.628906 132.144531 171.039062 130.484375 171.371094 C 128.828125 171.699219 127.160156 171.945312 125.476562 172.113281 C 123.796875 172.277344 122.109375 172.359375 120.421875 172.359375 C 118.730469 172.359375 117.042969 172.277344 115.363281 172.113281 C 113.683594 171.945312 112.011719 171.699219 110.355469 171.371094 C 108.699219 171.039062 107.0625 170.628906 105.445312 170.140625 C 103.828125 169.648438 102.238281 169.082031 100.675781 168.433594 C 99.117188 167.789062 97.589844 167.066406 96.097656 166.269531 C 94.609375 165.472656 93.160156 164.605469 91.757812 163.667969 C 90.351562 162.726562 88.996094 161.722656 87.691406 160.648438 C 86.382812 159.578125 85.132812 158.445312 83.9375 157.25 C 82.742188 156.054688 81.609375 154.804688 80.539062 153.5 C 79.464844 152.191406 78.460938 150.835938 77.523438 149.433594 C 76.582031 148.027344 75.714844 146.578125 74.917969 145.089844 C 74.121094 143.597656 73.402344 142.074219 72.753906 140.511719 C 72.109375 138.949219 71.539062 137.363281 71.050781 135.746094 C 70.558594 134.128906 70.148438 132.492188 69.820312 130.832031 C 69.488281 129.175781 69.242188 127.507812 69.074219 125.824219 C 68.910156 124.144531 68.828125 122.457031 68.828125 120.769531 C 68.828125 119.078125 68.910156 117.394531 69.074219 115.710938 C 69.242188 114.03125 69.488281 112.359375 69.820312 110.703125 C 70.148438 109.046875 70.558594 107.410156 71.050781 105.792969 C 71.539062 104.175781 72.109375 102.585938 72.753906 101.023438 C 73.402344 99.464844 74.121094 97.9375 74.917969 96.449219 C 75.714844 94.957031 76.582031 93.511719 77.523438 92.105469 C 78.460938 90.699219 79.464844 89.34375 80.539062 88.039062 C 81.609375 86.730469 82.742188 85.480469 83.9375 84.285156 C 85.132812 83.09375 86.382812 81.957031 87.691406 80.886719 C 88.996094 79.816406 90.351562 78.808594 91.757812 77.871094 C 93.160156 76.933594 94.609375 76.0625 96.097656 75.265625 C 97.589844 74.472656 99.117188 73.75 100.675781 73.101562 C 102.238281 72.457031 103.828125 71.886719 105.445312 71.398438 C 107.0625 70.90625 108.699219 70.496094 110.355469 70.167969 C 112.011719 69.835938 113.683594 69.589844 115.363281 69.425781 C 117.042969 69.257812 118.730469 69.175781 120.421875 69.175781 C 122.109375 69.175781 123.796875 69.257812 125.476562 69.425781 C 127.160156 69.589844 128.828125 69.835938 130.484375 70.167969 C 132.144531 70.496094 133.78125 70.90625 135.398438 71.398438 C 137.015625 71.886719 138.601562 72.457031 140.164062 73.101562 C 141.726562 73.75 143.25 74.472656 144.742188 75.265625 C 146.230469 76.0625 147.679688 76.933594 149.082031 77.871094 C 150.488281 78.808594 151.84375 79.816406 153.152344 80.886719 C 154.457031 81.957031 155.707031 83.09375 156.902344 84.285156 Z M 156.902344 84.285156 "/><g clip-rule="nonzero" clip-path="url(#58d6cb4974)"><path style=" stroke:none;fill-rule:nonzero;fill:#ffffff;fill-opacity:1;" d="M 299.613281 207.753906 C 298.316406 206.921875 296.640625 207.046875 295.398438 207.957031 C 283.851562 216.414062 269.59375 221.421875 254.203125 221.421875 C 238.789062 221.421875 224.546875 216.414062 212.984375 207.953125 C 211.742188 207.042969 210.066406 206.921875 208.773438 207.753906 C 181.417969 225.351562 167.816406 259.808594 167.816406 299.425781 C 167.816406 326.796875 340.566406 326.796875 340.566406 299.425781 C 340.566406 259.808594 326.964844 225.351562 299.613281 207.753906 Z M 299.613281 207.753906 "/></g><path style=" stroke:none;fill-rule:nonzero;fill:#ffffff;fill-opacity:1;" d="M 305.785156 151.570312 C 305.785156 153.257812 305.703125 154.945312 305.535156 156.625 C 305.371094 158.308594 305.125 159.976562 304.792969 161.632812 C 304.464844 163.292969 304.054688 164.929688 303.5625 166.546875 C 303.074219 168.164062 302.503906 169.75 301.859375 171.3125 C 301.210938 172.875 300.488281 174.398438 299.691406 175.890625 C 298.898438 177.378906 298.027344 178.828125 297.089844 180.230469 C 296.152344 181.636719 295.144531 182.992188 294.074219 184.300781 C 293.003906 185.605469 291.867188 186.855469 290.675781 188.050781 C 289.480469 189.246094 288.230469 190.378906 286.921875 191.449219 C 285.617188 192.523438 284.261719 193.527344 282.855469 194.464844 C 281.449219 195.40625 280.003906 196.273438 278.511719 197.070312 C 277.023438 197.867188 275.496094 198.585938 273.9375 199.234375 C 272.375 199.882812 270.785156 200.449219 269.167969 200.941406 C 267.550781 201.429688 265.914062 201.839844 264.257812 202.171875 C 262.601562 202.5 260.929688 202.746094 259.25 202.914062 C 257.566406 203.078125 255.882812 203.160156 254.191406 203.160156 C 252.503906 203.160156 250.816406 203.078125 249.136719 202.914062 C 247.453125 202.746094 245.785156 202.5 244.128906 202.171875 C 242.46875 201.839844 240.832031 201.429688 239.214844 200.941406 C 237.597656 200.449219 236.011719 199.882812 234.449219 199.234375 C 232.886719 198.585938 231.363281 197.867188 229.871094 197.070312 C 228.382812 196.273438 226.933594 195.40625 225.527344 194.464844 C 224.125 193.527344 222.769531 192.523438 221.460938 191.449219 C 220.15625 190.378906 218.90625 189.246094 217.710938 188.050781 C 216.515625 186.855469 215.382812 185.605469 214.3125 184.300781 C 213.238281 182.992188 212.234375 181.636719 211.292969 180.230469 C 210.355469 178.828125 209.488281 177.378906 208.691406 175.890625 C 207.894531 174.398438 207.171875 172.875 206.527344 171.3125 C 205.878906 169.75 205.3125 168.164062 204.820312 166.546875 C 204.332031 164.929688 203.921875 163.292969 203.589844 161.632812 C 203.261719 159.976562 203.015625 158.308594 202.847656 156.625 C 202.683594 154.945312 202.601562 153.257812 202.601562 151.570312 C 202.601562 149.878906 202.683594 148.195312 202.847656 146.511719 C 203.015625 144.832031 203.261719 143.160156 203.589844 141.503906 C 203.921875 139.847656 204.332031 138.210938 204.820312 136.59375 C 205.3125 134.976562 205.878906 133.386719 206.527344 131.824219 C 207.171875 130.265625 207.894531 128.738281 208.691406 127.25 C 209.488281 125.757812 210.355469 124.3125 211.292969 122.90625 C 212.234375 121.5 213.238281 120.144531 214.3125 118.839844 C 215.382812 117.53125 216.515625 116.28125 217.710938 115.085938 C 218.90625 113.894531 220.15625 112.757812 221.460938 111.6875 C 222.769531 110.617188 224.125 109.609375 225.527344 108.671875 C 226.933594 107.734375 228.382812 106.863281 229.871094 106.070312 C 231.363281 105.273438 232.886719 104.550781 234.449219 103.902344 C 236.011719 103.257812 237.597656 102.6875 239.214844 102.199219 C 240.832031 101.707031 242.46875 101.296875 244.128906 100.96875 C 245.785156 100.636719 247.453125 100.390625 249.136719 100.226562 C 250.816406 100.058594 252.503906 99.976562 254.191406 99.976562 C 255.882812 99.976562 257.566406 100.058594 259.25 100.226562 C 260.929688 100.390625 262.601562 100.636719 264.257812 100.96875 C 265.914062 101.296875 267.550781 101.707031 269.167969 102.199219 C 270.785156 102.6875 272.375 103.257812 273.9375 103.902344 C 275.496094 104.550781 277.023438 105.273438 278.511719 106.070312 C 280.003906 106.863281 281.449219 107.734375 282.855469 108.671875 C 284.261719 109.609375 285.617188 110.617188 286.921875 111.6875 C 288.230469 112.757812 289.480469 113.894531 290.675781 115.085938 C 291.867188 116.28125 293.003906 117.53125 294.074219 118.839844 C 295.144531 120.144531 296.152344 121.5 297.089844 122.90625 C 298.027344 124.3125 298.898438 125.757812 299.691406 127.25 C 300.488281 128.738281 301.210938 130.265625 301.859375 131.824219 C 302.503906 133.386719 303.074219 134.976562 303.5625 136.59375 C 304.054688 138.210938 304.464844 139.847656 304.792969 141.503906 C 305.125 143.160156 305.371094 144.832031 305.535156 146.511719 C 305.703125 148.195312 305.785156 149.878906 305.785156 151.570312 Z M 305.785156 151.570312 "/></g></svg>