<svg xmlns="http://www.w3.org/2000/svg" xmlns:xlink="http://www.w3.org/1999/xlink" width="500" zoomAndPan="magnify" viewBox="0 0 375 374.999991" height="500" preserveAspectRatio="xMidYMid meet" version="1.2"><defs><clipPath id="731b6deb92"><path d="M 48.875 49 L 325 49 L 325 326 L 48.875 326 Z M 48.875 49 "/></clipPath></defs><g id="290c387b84"><g clip-rule="nonzero" clip-path="url(#731b6deb92)"><path style=" stroke:none;fill-rule:nonzero;fill:#000000;fill-opacity:1;" d="M 314.746094 118.394531 L 308.613281 121.972656 L 301.90625 110.195312 C 300.675781 108.058594 297.964844 107.3125 295.828125 108.546875 C 293.691406 109.761719 292.960938 112.472656 294.179688 114.609375 L 300.933594 126.457031 L 213.488281 177.578125 C 212.722656 168.042969 207.773438 159.390625 199.972656 153.953125 L 301.351562 94.699219 C 301.75 94.457031 302.273438 94.386719 302.742188 94.527344 C 303.226562 94.648438 303.628906 94.960938 303.886719 95.414062 L 315.441406 115.683594 C 315.980469 116.640625 315.667969 117.855469 314.746094 118.394531 Z M 182.808594 174.730469 C 183.921875 175.546875 184.875 176.589844 185.5 177.839844 C 186.230469 179.230469 186.507812 180.777344 186.441406 182.324219 L 177.492188 182.878906 Z M 193.421875 173.777344 C 192.066406 171.136719 190.035156 168.980469 187.636719 167.332031 L 192.519531 159.84375 C 200.335938 163.996094 205.042969 172.28125 204.644531 181.226562 L 195.316406 181.785156 C 195.28125 179.039062 194.707031 176.277344 193.421875 173.777344 Z M 323.152344 111.289062 L 311.617188 91.019531 C 310.175781 88.5 307.847656 86.691406 305.070312 85.945312 C 302.324219 85.179688 299.335938 85.582031 296.871094 87.023438 L 188.75 150.21875 C 188.644531 150.273438 188.59375 150.394531 188.507812 150.445312 C 188.160156 150.6875 187.882812 150.96875 187.621094 151.296875 C 187.515625 151.417969 187.359375 151.488281 187.257812 151.628906 L 165.230469 185.414062 C 164.308594 186.820312 164.257812 188.628906 165.105469 190.085938 C 165.90625 191.460938 167.367188 192.292969 168.945312 192.292969 C 169.035156 192.292969 169.121094 192.292969 169.207031 192.277344 L 209.144531 189.863281 C 209.316406 189.84375 209.457031 189.738281 209.628906 189.707031 C 210.046875 189.636719 210.445312 189.53125 210.828125 189.339844 C 210.917969 189.304688 211.019531 189.304688 211.105469 189.253906 L 309.167969 131.945312 C 309.167969 131.945312 309.167969 131.945312 309.1875 131.945312 C 309.1875 131.945312 309.1875 131.945312 309.1875 131.925781 L 319.226562 126.074219 C 324.351562 123.085938 326.105469 116.449219 323.152344 111.289062 Z M 231.207031 107.796875 L 168.945312 107.796875 C 166.496094 107.796875 164.5 105.800781 164.5 103.351562 C 164.5 100.902344 166.496094 98.90625 168.945312 98.90625 L 231.207031 98.90625 C 233.65625 98.90625 235.652344 100.902344 235.652344 103.351562 C 235.652344 105.800781 233.65625 107.796875 231.207031 107.796875 Z M 146.710938 183.398438 C 149.160156 183.398438 151.15625 185.398438 151.15625 187.847656 C 151.15625 190.296875 149.160156 192.292969 146.710938 192.292969 L 124.476562 192.292969 C 122.027344 192.292969 120.027344 190.296875 120.027344 187.847656 C 120.027344 185.398438 122.027344 183.398438 124.476562 183.398438 Z M 160.050781 165.609375 L 124.476562 165.609375 C 122.027344 165.609375 120.027344 163.613281 120.027344 161.164062 C 120.027344 158.714844 122.027344 156.71875 124.476562 156.71875 L 160.050781 156.71875 C 162.5 156.71875 164.5 158.714844 164.5 161.164062 C 164.5 163.613281 162.5 165.609375 160.050781 165.609375 Z M 186.734375 138.929688 L 124.476562 138.929688 C 122.027344 138.929688 120.027344 136.929688 120.027344 134.480469 C 120.027344 132.03125 122.027344 130.035156 124.476562 130.035156 L 186.734375 130.035156 C 189.183594 130.035156 191.183594 132.03125 191.183594 134.480469 C 191.183594 136.929688 189.183594 138.929688 186.734375 138.929688 Z M 120.027344 103.351562 C 120.027344 100.902344 122.027344 98.90625 124.476562 98.90625 L 142.265625 98.90625 C 144.714844 98.90625 146.710938 100.902344 146.710938 103.351562 C 146.710938 105.800781 144.714844 107.796875 142.265625 107.796875 L 124.476562 107.796875 C 122.027344 107.796875 120.027344 105.800781 120.027344 103.351562 Z M 83.859375 176.78125 C 85.078125 178.898438 84.363281 181.609375 82.226562 182.84375 C 81.53125 183.261719 80.769531 183.453125 80.003906 183.453125 C 78.476562 183.453125 76.980469 182.652344 76.148438 181.226562 L 49.464844 135.019531 C 48.875 133.996094 48.71875 132.777344 49.03125 131.632812 C 49.324219 130.503906 50.074219 129.53125 51.097656 128.941406 L 77.78125 113.546875 C 79.898438 112.332031 82.628906 113.042969 83.859375 115.179688 C 85.078125 117.316406 84.347656 120.027344 82.226562 121.261719 L 59.402344 134.410156 Z M 301.769531 240.671875 C 303.003906 242.792969 302.253906 245.519531 300.136719 246.753906 L 277.902344 259.609375 C 277.207031 260.007812 276.441406 260.199219 275.675781 260.199219 C 274.148438 260.199219 272.65625 259.398438 271.839844 257.976562 C 270.585938 255.855469 271.335938 253.128906 273.453125 251.914062 L 291.851562 241.28125 L 271.820312 206.609375 C 270.585938 204.488281 271.335938 201.777344 273.453125 200.527344 C 275.574219 199.3125 278.300781 200.042969 279.535156 202.160156 Z M 163.820312 315.199219 L 157.046875 303.472656 L 184.09375 303.472656 Z M 187.414062 60.511719 L 194.1875 72.222656 L 167.140625 72.222656 Z M 257.890625 174.503906 C 255.4375 174.503906 253.441406 176.503906 253.441406 178.953125 L 253.441406 294.578125 L 102.238281 294.578125 L 102.238281 81.117188 L 253.441406 81.117188 L 253.441406 94.457031 C 253.441406 96.90625 255.4375 98.90625 257.890625 98.90625 C 260.339844 98.90625 262.335938 96.90625 262.335938 94.457031 L 262.335938 76.667969 C 262.335938 74.21875 260.339844 72.222656 257.890625 72.222656 L 204.472656 72.222656 L 192.902344 52.210938 C 191.667969 50.089844 188.941406 49.359375 186.820312 50.578125 L 149.351562 72.222656 L 97.792969 72.222656 C 95.34375 72.222656 93.34375 74.21875 93.34375 76.667969 L 93.34375 299.023438 C 93.34375 301.472656 95.34375 303.472656 97.792969 303.472656 L 146.761719 303.472656 L 158.332031 323.484375 C 159.167969 324.90625 160.660156 325.707031 162.1875 325.707031 C 162.953125 325.707031 163.71875 325.515625 164.414062 325.117188 L 201.882812 303.472656 L 257.890625 303.472656 C 260.339844 303.472656 262.335938 301.472656 262.335938 299.023438 L 262.335938 178.953125 C 262.335938 176.503906 260.339844 174.503906 257.890625 174.503906 "/></g></g></svg>