<svg xmlns="http://www.w3.org/2000/svg" xmlns:xlink="http://www.w3.org/1999/xlink" width="500" zoomAndPan="magnify" viewBox="0 0 375 374.999991" height="500" preserveAspectRatio="xMidYMid meet" version="1.2"><defs><clipPath id="b0929ed988"><path d="M 101.5 266 L 273.25 266 L 273.25 295.25 L 101.5 295.25 Z M 101.5 266 "/></clipPath></defs><g id="2877d0cd40"><path style=" stroke:none;fill-rule:nonzero;fill:#000000;fill-opacity:1;" d="M 182.667969 81.78125 C 185.371094 79.414062 189.394531 79.414062 192.097656 81.78125 L 248.675781 131.445312 C 251.652344 134.058594 251.953125 138.605469 249.332031 141.578125 L 239.902344 152.339844 C 237.296875 155.308594 232.789062 155.597656 229.8125 153 L 201.6875 128.289062 L 201.6875 230.675781 C 201.6875 234.636719 198.480469 237.851562 194.53125 237.851562 L 180.21875 237.851562 C 176.269531 237.851562 173.0625 234.636719 173.0625 230.675781 L 173.0625 128.289062 L 144.9375 153 C 141.976562 155.597656 137.46875 155.308594 134.847656 152.339844 L 125.417969 141.589844 C 122.796875 138.605469 123.097656 134.058594 126.074219 131.445312 Z M 182.667969 81.78125 "/><g clip-rule="nonzero" clip-path="url(#b0929ed988)"><path style=" stroke:none;fill-rule:nonzero;fill:#000000;fill-opacity:1;" d="M 266.09375 266.550781 L 108.65625 266.550781 C 104.707031 266.550781 101.5 269.765625 101.5 273.726562 L 101.5 288.074219 C 101.5 292.035156 104.707031 295.25 108.65625 295.25 L 266.09375 295.25 C 270.042969 295.25 273.25 292.035156 273.25 288.074219 L 273.25 273.726562 C 273.25 269.765625 270.042969 266.550781 266.09375 266.550781 Z M 266.09375 266.550781 "/></g></g></svg>