<svg xmlns="http://www.w3.org/2000/svg" xmlns:xlink="http://www.w3.org/1999/xlink" width="500" zoomAndPan="magnify" viewBox="0 0 375 374.999991" height="500" preserveAspectRatio="xMidYMid meet" version="1.0"><defs><clipPath id="7c421f2ac3"><path d="M 4.285156 4.285156 L 371.035156 4.285156 L 371.035156 371.035156 L 4.285156 371.035156 Z M 4.285156 4.285156 " clip-rule="nonzero"/></clipPath><clipPath id="a63535584a"><path d="M 0.285156 0.285156 L 367.035156 0.285156 L 367.035156 365 L 0.285156 365 Z M 0.285156 0.285156 " clip-rule="nonzero"/></clipPath><clipPath id="57bf8c2787"><rect x="0" width="368" y="0" height="368"/></clipPath></defs><g clip-path="url(#7c421f2ac3)"><g transform="matrix(1, 0, 0, 1, 4, 4)"><g clip-path="url(#57bf8c2787)"><g clip-path="url(#a63535584a)"><path fill="#000000" d="M 0.285156 360.257812 C 1.023438 363.398438 3.039062 363.777344 5.132812 364.101562 C 20.097656 366.425781 37.355469 353.515625 39.75 338.261719 C 40.238281 334.5625 40.464844 330.84375 40.429688 327.109375 C 40.484375 322.960938 40.085938 318.808594 40.199219 314.667969 C 40.464844 304.871094 43.617188 300.644531 53.300781 300.042969 C 63.246094 299.207031 73.164062 299.46875 83.050781 300.828125 C 105.140625 304.390625 127.050781 309.09375 149.015625 313.414062 C 168.046875 317.691406 187.25 320.9375 206.628906 323.160156 C 214.535156 323.9375 222.359375 323.433594 230.101562 321.660156 C 244.636719 318.207031 251.53125 308.308594 250.238281 293.332031 C 249.648438 288.789062 248.59375 284.355469 247.074219 280.03125 C 245.558594 275.707031 243.609375 271.585938 241.230469 267.671875 C 232.214844 251.230469 221.480469 235.992188 209.039062 221.960938 C 195.066406 206.074219 180.75 190.484375 166.410156 174.925781 C 152.632812 159.976562 138.472656 145.375 124.800781 130.328125 C 119.355469 124.0625 114.257812 117.527344 109.511719 110.714844 C 107.898438 108.296875 106.707031 105.679688 105.945312 102.871094 C 105.847656 102.519531 105.789062 102.160156 105.765625 101.792969 C 105.738281 101.429688 105.753906 101.066406 105.800781 100.703125 C 105.851562 100.339844 105.933594 99.984375 106.054688 99.640625 C 106.175781 99.292969 106.328125 98.964844 106.515625 98.648438 C 106.703125 98.332031 106.917969 98.039062 107.164062 97.769531 C 107.40625 97.496094 107.675781 97.25 107.972656 97.035156 C 108.265625 96.816406 108.578125 96.628906 108.910156 96.476562 C 109.242188 96.320312 109.585938 96.199219 109.941406 96.113281 C 113.609375 95.460938 117.304688 95.117188 121.03125 95.082031 C 135.640625 95.394531 149.933594 97.683594 163.90625 101.949219 C 187.136719 108.164062 210.203125 115.007812 233.265625 121.847656 C 256.328125 128.6875 279.074219 136.699219 302.757812 141.132812 C 310.925781 142.675781 319.15625 143.242188 327.457031 142.835938 C 341.449219 142.089844 348.546875 133.609375 347.273438 119.726562 C 346.636719 114.355469 345.222656 109.203125 343.027344 104.261719 C 337.394531 91.710938 330.371094 79.988281 321.960938 69.101562 C 316.324219 61.398438 310.394531 53.910156 304.855469 46.140625 C 301.207031 41.097656 297.886719 35.847656 294.882812 30.394531 C 293.4375 27.402344 292.566406 24.253906 292.273438 20.941406 C 292.21875 20.527344 292.203125 20.109375 292.230469 19.6875 C 292.261719 19.269531 292.332031 18.855469 292.441406 18.453125 C 292.554688 18.046875 292.707031 17.65625 292.894531 17.28125 C 293.085938 16.910156 293.3125 16.558594 293.574219 16.226562 C 293.835938 15.898438 294.128906 15.601562 294.449219 15.332031 C 294.773438 15.058594 295.117188 14.824219 295.488281 14.625 C 295.855469 14.425781 296.242188 14.265625 296.644531 14.140625 C 297.046875 14.019531 297.457031 13.941406 297.875 13.902344 C 304.074219 13.46875 310.265625 13.589844 316.445312 14.257812 C 327.125 15.664062 337.683594 17.949219 348.328125 19.625 C 352.425781 20.207031 356.550781 20.484375 360.691406 20.457031 C 362.371094 20.355469 363.902344 19.828125 365.285156 18.871094 C 365.777344 18.515625 366.175781 18.074219 366.480469 17.550781 C 366.785156 17.027344 366.96875 16.460938 367.035156 15.855469 C 367.023438 15.253906 366.882812 14.683594 366.605469 14.144531 C 366.332031 13.605469 365.949219 13.15625 365.46875 12.796875 C 363.277344 11.597656 360.96875 10.703125 358.542969 10.121094 C 342.804688 6.507812 327.179688 2.351562 310.960938 0.984375 C 304.722656 0.445312 298.546875 0.851562 292.433594 2.210938 C 280.523438 4.839844 274.109375 14.582031 276.960938 26.421875 C 278.492188 32.476562 280.863281 38.183594 284.070312 43.539062 C 288.910156 51.742188 294.515625 59.503906 300.050781 67.277344 C 305.582031 75.046875 311.683594 82.4375 317.054688 90.308594 C 321.726562 97.152344 325.949219 104.3125 329.992188 111.542969 C 331.539062 114.492188 332.589844 117.609375 333.144531 120.890625 C 333.273438 121.351562 333.34375 121.816406 333.359375 122.289062 C 333.378906 122.765625 333.339844 123.234375 333.246094 123.703125 C 333.15625 124.167969 333.007812 124.617188 332.8125 125.046875 C 332.613281 125.480469 332.367188 125.882812 332.078125 126.257812 C 331.785156 126.632812 331.453125 126.96875 331.082031 127.265625 C 330.710938 127.5625 330.308594 127.8125 329.878906 128.015625 C 329.453125 128.21875 329.003906 128.367188 328.539062 128.46875 C 328.074219 128.566406 327.605469 128.609375 327.128906 128.597656 C 322.15625 128.925781 317.226562 128.585938 312.34375 127.578125 C 293.445312 122.84375 274.550781 118.035156 255.886719 112.480469 C 228.46875 104.320312 201.527344 94.5 173.511719 88.4375 C 158.554688 85.195312 143.417969 82.644531 128.316406 80.011719 C 124.605469 79.441406 120.878906 79.285156 117.136719 79.542969 C 113.394531 79.804688 109.722656 80.46875 106.128906 81.542969 C 91.636719 85.492188 85.800781 95.863281 91.226562 110.03125 C 94.058594 117.425781 97.867188 124.273438 102.652344 130.582031 C 111.464844 142.117188 120.929688 153.175781 130.699219 163.890625 C 144.660156 179.246094 159.136719 194.117188 173.398438 209.199219 C 189.363281 225.558594 204.136719 242.925781 217.722656 261.308594 C 222.75 268.425781 227.265625 275.851562 231.261719 283.589844 C 233.195312 287.746094 234.40625 292.101562 234.898438 296.660156 C 234.992188 297.125 235.039062 297.59375 235.046875 298.066406 C 235.050781 298.542969 235.011719 299.011719 234.929688 299.480469 C 234.847656 299.945312 234.726562 300.402344 234.558594 300.84375 C 234.394531 301.289062 234.1875 301.714844 233.941406 302.121094 C 233.699219 302.527344 233.417969 302.90625 233.105469 303.261719 C 232.789062 303.613281 232.445312 303.9375 232.070312 304.226562 C 231.695312 304.519531 231.296875 304.773438 230.878906 304.988281 C 230.457031 305.207031 230.019531 305.382812 229.5625 305.519531 C 225.652344 306.863281 221.636719 307.703125 217.511719 308.03125 C 205.839844 308.285156 194.324219 307.054688 182.96875 304.332031 C 159.367188 299.761719 135.925781 294.328125 112.292969 289.941406 C 98.050781 287.292969 83.597656 285.746094 69.195312 284.039062 C 60.839844 283.234375 52.605469 283.910156 44.492188 286.070312 C 29.265625 289.742188 21.996094 298.929688 22.144531 314.574219 C 22.246094 319.972656 22.796875 325.324219 23.792969 330.628906 C 24.125 332.054688 24.261719 333.496094 24.199219 334.957031 C 24.136719 336.421875 23.875 337.847656 23.421875 339.238281 C 22.96875 340.628906 22.335938 341.933594 21.523438 343.148438 C 20.710938 344.367188 19.746094 345.449219 18.636719 346.402344 C 14.019531 350.496094 8.945312 354.085938 4.035156 357.847656 C 2.792969 358.78125 1.414062 359.53125 0.285156 360.257812 Z M 0.285156 360.257812 " fill-opacity="1" fill-rule="nonzero"/></g></g></g></g></svg>