<svg xmlns="http://www.w3.org/2000/svg" xmlns:xlink="http://www.w3.org/1999/xlink" width="500" zoomAndPan="magnify" viewBox="0 0 375 374.999991" height="500" preserveAspectRatio="xMidYMid meet" version="1.2"><defs><clipPath id="1780da4c56"><path d="M 76.875 72 L 298.125 72 L 298.125 303 L 76.875 303 Z M 76.875 72 "/></clipPath></defs><g id="7631f742b6"><g clip-rule="nonzero" clip-path="url(#1780da4c56)"><path style=" stroke:none;fill-rule:nonzero;fill:#000000;fill-opacity:1;" d="M 149.65625 200.796875 C 149.65625 201.5625 149.578125 202.324219 149.429688 203.074219 C 149.28125 203.824219 149.0625 204.554688 148.769531 205.261719 C 148.476562 205.96875 148.117188 206.640625 147.691406 207.277344 C 147.265625 207.914062 146.785156 208.503906 146.242188 209.046875 C 145.703125 209.585938 145.113281 210.070312 144.480469 210.496094 C 143.84375 210.921875 143.171875 211.28125 142.464844 211.574219 C 141.757812 211.867188 141.03125 212.085938 140.28125 212.238281 C 139.53125 212.386719 138.773438 212.460938 138.011719 212.460938 C 137.246094 212.460938 136.488281 212.386719 135.738281 212.238281 C 134.988281 212.085938 134.261719 211.867188 133.554688 211.574219 C 132.847656 211.28125 132.175781 210.921875 131.539062 210.496094 C 130.90625 210.070312 130.316406 209.585938 129.777344 209.046875 C 129.234375 208.503906 128.753906 207.914062 128.328125 207.277344 C 127.902344 206.640625 127.542969 205.96875 127.25 205.261719 C 126.957031 204.554688 126.738281 203.824219 126.589844 203.074219 C 126.441406 202.324219 126.363281 201.5625 126.363281 200.796875 C 126.363281 200.03125 126.441406 199.273438 126.589844 198.523438 C 126.738281 197.773438 126.957031 197.042969 127.25 196.335938 C 127.542969 195.628906 127.902344 194.957031 128.328125 194.320312 C 128.753906 193.683594 129.234375 193.09375 129.777344 192.550781 C 130.316406 192.011719 130.90625 191.527344 131.539062 191.101562 C 132.175781 190.675781 132.847656 190.316406 133.554688 190.023438 C 134.261719 189.730469 134.988281 189.507812 135.738281 189.359375 C 136.488281 189.210938 137.246094 189.136719 138.011719 189.136719 C 138.773438 189.136719 139.53125 189.210938 140.28125 189.359375 C 141.03125 189.507812 141.757812 189.730469 142.464844 190.023438 C 143.171875 190.316406 143.84375 190.675781 144.480469 191.101562 C 145.113281 191.527344 145.703125 192.011719 146.242188 192.550781 C 146.785156 193.09375 147.265625 193.683594 147.691406 194.320312 C 148.117188 194.957031 148.476562 195.628906 148.769531 196.335938 C 149.0625 197.042969 149.28125 197.773438 149.429688 198.523438 C 149.578125 199.273438 149.65625 200.03125 149.65625 200.796875 Z M 231.167969 192.050781 L 181.675781 192.050781 C 181.105469 192.050781 180.535156 192.105469 179.972656 192.21875 C 179.410156 192.332031 178.863281 192.496094 178.335938 192.71875 C 177.804688 192.9375 177.300781 193.207031 176.824219 193.523438 C 176.347656 193.84375 175.90625 194.207031 175.503906 194.613281 C 175.097656 195.019531 174.734375 195.460938 174.414062 195.9375 C 174.097656 196.417969 173.828125 196.921875 173.609375 197.449219 C 173.390625 197.980469 173.222656 198.527344 173.113281 199.09375 C 173 199.65625 172.945312 200.222656 172.945312 200.796875 C 172.945312 201.371094 173 201.941406 173.113281 202.503906 C 173.222656 203.066406 173.390625 203.613281 173.609375 204.144531 C 173.828125 204.675781 174.097656 205.179688 174.414062 205.65625 C 174.734375 206.136719 175.097656 206.578125 175.503906 206.984375 C 175.90625 207.390625 176.347656 207.753906 176.824219 208.070312 C 177.300781 208.390625 177.804688 208.660156 178.335938 208.878906 C 178.863281 209.097656 179.410156 209.265625 179.972656 209.378906 C 180.535156 209.488281 181.105469 209.546875 181.675781 209.546875 L 231.167969 209.546875 C 231.742188 209.546875 232.308594 209.488281 232.871094 209.378906 C 233.433594 209.265625 233.980469 209.097656 234.511719 208.878906 C 235.039062 208.660156 235.542969 208.390625 236.019531 208.070312 C 236.496094 207.753906 236.9375 207.390625 237.34375 206.984375 C 237.75 206.578125 238.109375 206.136719 238.429688 205.65625 C 238.746094 205.179688 239.015625 204.675781 239.238281 204.144531 C 239.457031 203.613281 239.621094 203.066406 239.734375 202.503906 C 239.84375 201.941406 239.902344 201.371094 239.902344 200.796875 C 239.902344 200.222656 239.84375 199.65625 239.734375 199.09375 C 239.621094 198.527344 239.457031 197.980469 239.238281 197.449219 C 239.015625 196.921875 238.746094 196.417969 238.429688 195.9375 C 238.109375 195.460938 237.75 195.019531 237.34375 194.613281 C 236.9375 194.207031 236.496094 193.84375 236.019531 193.523438 C 235.542969 193.207031 235.039062 192.9375 234.511719 192.71875 C 233.980469 192.496094 233.433594 192.332031 232.871094 192.21875 C 232.308594 192.105469 231.742188 192.050781 231.167969 192.050781 Z M 138.011719 235.785156 C 137.246094 235.785156 136.488281 235.863281 135.738281 236.011719 C 134.988281 236.160156 134.261719 236.382812 133.554688 236.675781 C 132.847656 236.96875 132.175781 237.328125 131.539062 237.753906 C 130.90625 238.179688 130.316406 238.660156 129.777344 239.203125 C 129.234375 239.746094 128.753906 240.332031 128.328125 240.96875 C 127.902344 241.605469 127.542969 242.277344 127.25 242.988281 C 126.957031 243.695312 126.738281 244.421875 126.589844 245.175781 C 126.441406 245.925781 126.363281 246.683594 126.363281 247.449219 C 126.363281 248.214844 126.441406 248.972656 126.589844 249.726562 C 126.738281 250.476562 126.957031 251.207031 127.25 251.914062 C 127.542969 252.621094 127.902344 253.292969 128.328125 253.929688 C 128.753906 254.566406 129.234375 255.15625 129.777344 255.695312 C 130.316406 256.238281 130.90625 256.722656 131.539062 257.148438 C 132.175781 257.574219 132.847656 257.933594 133.554688 258.226562 C 134.261719 258.519531 134.988281 258.738281 135.738281 258.890625 C 136.488281 259.039062 137.246094 259.113281 138.011719 259.113281 C 138.773438 259.113281 139.53125 259.039062 140.28125 258.890625 C 141.03125 258.738281 141.757812 258.519531 142.464844 258.226562 C 143.171875 257.933594 143.84375 257.574219 144.480469 257.148438 C 145.113281 256.722656 145.703125 256.238281 146.242188 255.695312 C 146.785156 255.15625 147.265625 254.566406 147.691406 253.929688 C 148.117188 253.292969 148.476562 252.621094 148.769531 251.914062 C 149.0625 251.207031 149.28125 250.476562 149.429688 249.726562 C 149.578125 248.972656 149.65625 248.214844 149.65625 247.449219 C 149.65625 246.683594 149.578125 245.925781 149.429688 245.175781 C 149.28125 244.421875 149.0625 243.695312 148.769531 242.988281 C 148.476562 242.277344 148.117188 241.605469 147.691406 240.96875 C 147.265625 240.332031 146.785156 239.746094 146.242188 239.203125 C 145.703125 238.660156 145.113281 238.179688 144.480469 237.753906 C 143.84375 237.328125 143.171875 236.96875 142.464844 236.675781 C 141.757812 236.382812 141.03125 236.160156 140.28125 236.011719 C 139.53125 235.863281 138.773438 235.785156 138.011719 235.785156 Z M 231.167969 238.703125 L 181.675781 238.703125 C 181.105469 238.703125 180.535156 238.757812 179.972656 238.871094 C 179.410156 238.984375 178.863281 239.148438 178.335938 239.367188 C 177.804688 239.589844 177.300781 239.859375 176.824219 240.175781 C 176.347656 240.496094 175.90625 240.859375 175.503906 241.265625 C 175.097656 241.671875 174.734375 242.113281 174.414062 242.589844 C 174.097656 243.066406 173.828125 243.570312 173.609375 244.101562 C 173.390625 244.632812 173.222656 245.179688 173.113281 245.742188 C 173 246.308594 172.945312 246.875 172.945312 247.449219 C 172.945312 248.023438 173 248.59375 173.113281 249.15625 C 173.222656 249.71875 173.390625 250.265625 173.609375 250.796875 C 173.828125 251.328125 174.097656 251.832031 174.414062 252.308594 C 174.734375 252.789062 175.097656 253.230469 175.503906 253.636719 C 175.90625 254.042969 176.347656 254.402344 176.824219 254.722656 C 177.300781 255.042969 177.804688 255.3125 178.335938 255.53125 C 178.863281 255.75 179.410156 255.917969 179.972656 256.027344 C 180.535156 256.140625 181.105469 256.195312 181.675781 256.195312 L 231.167969 256.195312 C 231.742188 256.195312 232.308594 256.140625 232.871094 256.027344 C 233.433594 255.917969 233.980469 255.75 234.511719 255.53125 C 235.039062 255.3125 235.542969 255.042969 236.019531 254.722656 C 236.496094 254.402344 236.9375 254.042969 237.34375 253.636719 C 237.75 253.230469 238.109375 252.789062 238.429688 252.308594 C 238.746094 251.832031 239.015625 251.328125 239.238281 250.796875 C 239.457031 250.265625 239.621094 249.71875 239.734375 249.15625 C 239.84375 248.59375 239.902344 248.023438 239.902344 247.449219 C 239.902344 246.875 239.84375 246.308594 239.734375 245.742188 C 239.621094 245.179688 239.457031 244.632812 239.238281 244.101562 C 239.015625 243.570312 238.746094 243.066406 238.429688 242.589844 C 238.109375 242.113281 237.75 241.671875 237.34375 241.265625 C 236.9375 240.859375 236.496094 240.496094 236.019531 240.175781 C 235.542969 239.859375 235.039062 239.589844 234.511719 239.367188 C 233.980469 239.148438 233.433594 238.984375 232.871094 238.871094 C 232.308594 238.757812 231.742188 238.703125 231.167969 238.703125 Z M 298.125 119.15625 C 298.125 120.6875 298.050781 122.210938 297.902344 123.730469 C 297.75 125.25 297.527344 126.761719 297.230469 128.257812 C 296.933594 129.757812 296.5625 131.238281 296.121094 132.699219 C 295.675781 134.164062 295.164062 135.597656 294.578125 137.011719 C 293.996094 138.421875 293.34375 139.800781 292.625 141.148438 C 291.90625 142.496094 291.121094 143.804688 290.273438 145.078125 C 289.425781 146.347656 288.519531 147.574219 287.550781 148.753906 C 286.585938 149.933594 285.5625 151.066406 284.480469 152.144531 C 283.402344 153.226562 282.273438 154.25 281.09375 155.21875 C 279.917969 156.191406 278.691406 157.097656 277.425781 157.949219 C 276.15625 158.796875 274.847656 159.582031 273.503906 160.300781 C 272.15625 161.019531 270.78125 161.675781 269.371094 162.257812 C 267.960938 162.84375 266.527344 163.355469 265.066406 163.800781 C 263.605469 164.246094 262.128906 164.613281 260.632812 164.914062 C 259.136719 165.210938 257.628906 165.433594 256.113281 165.585938 C 254.59375 165.734375 253.070312 165.808594 251.546875 165.808594 C 250.019531 165.808594 248.5 165.734375 246.980469 165.585938 C 245.460938 165.433594 243.957031 165.210938 242.457031 164.914062 C 240.960938 164.613281 239.484375 164.246094 238.023438 163.800781 C 236.566406 163.355469 235.128906 162.84375 233.722656 162.257812 C 232.3125 161.675781 230.933594 161.019531 229.589844 160.300781 C 228.242188 159.582031 226.9375 158.796875 225.667969 157.949219 C 224.398438 157.097656 223.175781 156.191406 221.996094 155.21875 C 220.816406 154.25 219.6875 153.226562 218.609375 152.144531 C 217.53125 151.066406 216.507812 149.933594 215.539062 148.753906 C 214.570312 147.574219 213.664062 146.347656 212.816406 145.078125 C 211.96875 143.804688 211.1875 142.496094 210.46875 141.148438 C 209.746094 139.800781 209.097656 138.421875 208.511719 137.011719 C 207.929688 135.597656 207.414062 134.164062 206.972656 132.699219 C 206.53125 131.238281 206.160156 129.757812 205.863281 128.257812 C 205.566406 126.761719 205.339844 125.25 205.191406 123.730469 C 205.042969 122.210938 204.96875 120.6875 204.96875 119.15625 C 204.96875 117.628906 205.042969 116.105469 205.191406 114.585938 C 205.339844 113.066406 205.566406 111.554688 205.863281 110.058594 C 206.160156 108.558594 206.53125 107.078125 206.972656 105.617188 C 207.414062 104.152344 207.929688 102.71875 208.511719 101.304688 C 209.097656 99.894531 209.746094 98.515625 210.46875 97.167969 C 211.1875 95.820312 211.96875 94.511719 212.816406 93.238281 C 213.664062 91.96875 214.570312 90.742188 215.539062 89.5625 C 216.507812 88.382812 217.53125 87.25 218.609375 86.171875 C 219.6875 85.089844 220.816406 84.066406 221.996094 83.097656 C 223.175781 82.125 224.398438 81.21875 225.667969 80.367188 C 226.9375 79.519531 228.242188 78.734375 229.589844 78.015625 C 230.933594 77.292969 232.3125 76.640625 233.722656 76.058594 C 235.128906 75.472656 236.566406 74.957031 238.023438 74.515625 C 239.484375 74.070312 240.960938 73.699219 242.457031 73.402344 C 243.957031 73.105469 245.460938 72.882812 246.980469 72.730469 C 248.5 72.582031 250.019531 72.507812 251.546875 72.507812 C 253.070312 72.507812 254.59375 72.582031 256.113281 72.730469 C 257.628906 72.882812 259.136719 73.105469 260.632812 73.402344 C 262.128906 73.699219 263.605469 74.070312 265.066406 74.515625 C 266.527344 74.957031 267.960938 75.472656 269.371094 76.058594 C 270.78125 76.640625 272.15625 77.292969 273.503906 78.015625 C 274.847656 78.734375 276.15625 79.519531 277.425781 80.367188 C 278.691406 81.21875 279.917969 82.125 281.09375 83.097656 C 282.273438 84.066406 283.402344 85.089844 284.480469 86.171875 C 285.5625 87.25 286.585938 88.382812 287.550781 89.5625 C 288.519531 90.742188 289.425781 91.96875 290.273438 93.238281 C 291.121094 94.511719 291.90625 95.820312 292.625 97.167969 C 293.34375 98.515625 293.996094 99.894531 294.578125 101.304688 C 295.164062 102.71875 295.675781 104.152344 296.121094 105.617188 C 296.5625 107.078125 296.933594 108.558594 297.230469 110.058594 C 297.527344 111.554688 297.75 113.066406 297.902344 114.585938 C 298.050781 116.105469 298.125 117.628906 298.125 119.15625 Z M 275.183594 107.144531 C 274.78125 106.738281 274.339844 106.375 273.863281 106.058594 C 273.382812 105.738281 272.882812 105.46875 272.351562 105.25 C 271.820312 105.03125 271.277344 104.863281 270.714844 104.75 C 270.152344 104.640625 269.582031 104.582031 269.007812 104.582031 C 268.4375 104.582031 267.867188 104.640625 267.304688 104.75 C 266.742188 104.863281 266.199219 105.03125 265.667969 105.25 C 265.136719 105.46875 264.632812 105.738281 264.15625 106.058594 C 263.679688 106.375 263.238281 106.738281 262.835938 107.144531 L 251.539062 118.457031 L 240.242188 107.144531 C 239.832031 106.765625 239.390625 106.429688 238.914062 106.132812 C 238.4375 105.839844 237.941406 105.589844 237.417969 105.390625 C 236.894531 105.195312 236.359375 105.046875 235.808594 104.949219 C 235.257812 104.855469 234.703125 104.8125 234.140625 104.824219 C 233.582031 104.835938 233.03125 104.898438 232.484375 105.015625 C 231.9375 105.136719 231.40625 105.304688 230.890625 105.523438 C 230.378906 105.742188 229.890625 106.007812 229.425781 106.324219 C 228.964844 106.636719 228.535156 106.992188 228.136719 107.386719 C 227.742188 107.785156 227.390625 108.214844 227.078125 108.679688 C 226.765625 109.140625 226.5 109.632812 226.28125 110.148438 C 226.0625 110.664062 225.894531 111.195312 225.777344 111.742188 C 225.660156 112.289062 225.59375 112.84375 225.585938 113.402344 C 225.574219 113.960938 225.617188 114.519531 225.710938 115.070312 C 225.808594 115.621094 225.957031 116.160156 226.15625 116.683594 C 226.355469 117.207031 226.601562 117.707031 226.894531 118.179688 C 227.191406 118.65625 227.527344 119.101562 227.90625 119.511719 L 245.375 137.003906 C 245.78125 137.410156 246.222656 137.773438 246.699219 138.09375 C 247.175781 138.414062 247.679688 138.683594 248.207031 138.902344 C 248.738281 139.121094 249.285156 139.289062 249.847656 139.398438 C 250.410156 139.511719 250.976562 139.566406 251.550781 139.566406 C 252.121094 139.566406 252.691406 139.511719 253.253906 139.398438 C 253.816406 139.289062 254.363281 139.121094 254.890625 138.902344 C 255.421875 138.683594 255.925781 138.414062 256.402344 138.09375 C 256.878906 137.773438 257.320312 137.410156 257.726562 137.003906 L 275.191406 119.511719 C 275.597656 119.105469 275.957031 118.664062 276.277344 118.183594 C 276.59375 117.707031 276.863281 117.203125 277.082031 116.671875 C 277.300781 116.140625 277.46875 115.59375 277.578125 115.03125 C 277.691406 114.46875 277.746094 113.898438 277.746094 113.324219 C 277.746094 112.75 277.6875 112.183594 277.578125 111.617188 C 277.464844 111.054688 277.300781 110.507812 277.078125 109.976562 C 276.859375 109.449219 276.589844 108.945312 276.273438 108.464844 C 275.953125 107.988281 275.589844 107.546875 275.183594 107.140625 Z M 100.164062 84.167969 C 99.402344 84.167969 98.640625 84.207031 97.882812 84.28125 C 97.121094 84.355469 96.367188 84.46875 95.621094 84.617188 C 94.871094 84.765625 94.132812 84.953125 93.402344 85.171875 C 92.675781 85.394531 91.957031 85.652344 91.253906 85.945312 C 90.546875 86.238281 89.859375 86.5625 89.1875 86.921875 C 88.511719 87.285156 87.859375 87.675781 87.226562 88.101562 C 86.589844 88.523438 85.980469 88.980469 85.390625 89.464844 C 84.800781 89.949219 84.234375 90.460938 83.695312 91 C 83.15625 91.542969 82.644531 92.105469 82.160156 92.699219 C 81.675781 93.289062 81.222656 93.902344 80.800781 94.535156 C 80.375 95.171875 79.984375 95.824219 79.625 96.5 C 79.265625 97.171875 78.941406 97.863281 78.648438 98.570312 C 78.355469 99.273438 78.097656 99.992188 77.878906 100.722656 C 77.65625 101.457031 77.472656 102.195312 77.324219 102.945312 C 77.171875 103.695312 77.0625 104.449219 76.988281 105.207031 C 76.914062 105.96875 76.875 106.730469 76.875 107.496094 L 76.875 270.777344 C 76.875 271.824219 76.929688 272.875 77.03125 273.917969 C 77.136719 274.964844 77.289062 276 77.496094 277.03125 C 77.699219 278.058594 77.957031 279.078125 78.261719 280.082031 C 78.566406 281.085938 78.917969 282.074219 79.320312 283.042969 C 79.722656 284.015625 80.171875 284.960938 80.664062 285.886719 C 81.160156 286.8125 81.699219 287.714844 82.28125 288.585938 C 82.863281 289.460938 83.488281 290.300781 84.152344 291.113281 C 84.820312 291.925781 85.523438 292.703125 86.265625 293.445312 C 87.003906 294.1875 87.78125 294.890625 88.589844 295.558594 C 89.402344 296.226562 90.242188 296.851562 91.113281 297.433594 C 91.988281 298.015625 92.882812 298.558594 93.808594 299.050781 C 94.734375 299.546875 95.679688 299.996094 96.648438 300.398438 C 97.617188 300.800781 98.601562 301.15625 99.605469 301.460938 C 100.609375 301.765625 101.625 302.019531 102.652344 302.226562 C 103.679688 302.433594 104.71875 302.585938 105.761719 302.691406 C 106.804688 302.796875 107.847656 302.847656 108.898438 302.847656 L 254.457031 302.847656 C 255.503906 302.847656 256.550781 302.796875 257.59375 302.691406 C 258.636719 302.585938 259.675781 302.433594 260.703125 302.226562 C 261.730469 302.023438 262.746094 301.765625 263.75 301.460938 C 264.753906 301.15625 265.738281 300.800781 266.707031 300.398438 C 267.675781 299.996094 268.621094 299.546875 269.546875 299.050781 C 270.472656 298.558594 271.367188 298.015625 272.242188 297.433594 C 273.113281 296.851562 273.953125 296.226562 274.761719 295.558594 C 275.574219 294.890625 276.351562 294.1875 277.089844 293.445312 C 277.832031 292.703125 278.535156 291.925781 279.203125 291.113281 C 279.867188 290.300781 280.492188 289.460938 281.074219 288.585938 C 281.65625 287.714844 282.195312 286.8125 282.6875 285.886719 C 283.183594 284.960938 283.632812 284.015625 284.035156 283.042969 C 284.4375 282.074219 284.789062 281.085938 285.09375 280.082031 C 285.398438 279.078125 285.652344 278.058594 285.859375 277.03125 C 286.066406 276 286.21875 274.964844 286.324219 273.917969 C 286.425781 272.875 286.480469 271.824219 286.480469 270.777344 L 286.480469 179.667969 C 280.984375 182.855469 275.164062 185.246094 269.011719 186.832031 L 269.011719 270.777344 C 269.011719 271.734375 268.917969 272.679688 268.730469 273.617188 C 268.542969 274.558594 268.269531 275.46875 267.902344 276.351562 C 267.535156 277.238281 267.085938 278.078125 266.554688 278.871094 C 266.023438 279.667969 265.421875 280.402344 264.746094 281.082031 C 264.070312 281.757812 263.335938 282.363281 262.542969 282.894531 C 261.746094 283.425781 260.90625 283.875 260.027344 284.242188 C 259.144531 284.609375 258.234375 284.886719 257.296875 285.070312 C 256.359375 285.257812 255.414062 285.355469 254.457031 285.355469 L 108.898438 285.355469 C 107.941406 285.355469 106.996094 285.257812 106.058594 285.070312 C 105.121094 284.886719 104.210938 284.609375 103.328125 284.242188 C 102.445312 283.875 101.609375 283.425781 100.8125 282.894531 C 100.019531 282.363281 99.285156 281.757812 98.609375 281.082031 C 97.933594 280.402344 97.332031 279.667969 96.800781 278.871094 C 96.269531 278.078125 95.820312 277.238281 95.453125 276.351562 C 95.085938 275.46875 94.8125 274.558594 94.625 273.617188 C 94.4375 272.679688 94.34375 271.734375 94.34375 270.777344 L 94.34375 154.148438 L 191.128906 154.148438 C 189.589844 151.503906 188.230469 148.769531 187.050781 145.949219 C 185.871094 143.125 184.878906 140.234375 184.082031 137.28125 C 183.285156 134.328125 182.683594 131.332031 182.28125 128.300781 C 181.878906 125.265625 181.675781 122.21875 181.675781 119.15625 C 181.675781 116.097656 181.878906 113.050781 182.28125 110.015625 C 182.683594 106.984375 183.285156 103.988281 184.082031 101.035156 C 184.878906 98.082031 185.871094 95.191406 187.050781 92.367188 C 188.230469 89.546875 189.589844 86.8125 191.128906 84.167969 Z M 100.164062 84.167969 "/></g></g></svg>