<svg xmlns="http://www.w3.org/2000/svg" xmlns:xlink="http://www.w3.org/1999/xlink" width="500" zoomAndPan="magnify" viewBox="0 0 375 374.999991" height="500" preserveAspectRatio="xMidYMid meet" version="1.2"><defs><clipPath id="b173b8da46"><path d="M 51.351562 71.039062 L 334 71.039062 L 334 312 L 51.351562 312 Z M 51.351562 71.039062 "/></clipPath></defs><g id="d0fd14b8db"><g clip-rule="nonzero" clip-path="url(#b173b8da46)"><path style=" stroke:none;fill-rule:nonzero;fill:#000000;fill-opacity:1;" d="M 301.449219 144.417969 L 230.988281 144.417969 L 230.988281 102.84375 C 230.988281 101.796875 230.933594 100.753906 230.832031 99.710938 C 230.726562 98.667969 230.574219 97.636719 230.367188 96.609375 C 230.160156 95.582031 229.90625 94.566406 229.601562 93.566406 C 229.296875 92.566406 228.941406 91.582031 228.542969 90.613281 C 228.140625 89.644531 227.691406 88.699219 227.195312 87.777344 C 226.703125 86.855469 226.164062 85.957031 225.578125 85.085938 C 224.996094 84.21875 224.375 83.378906 223.707031 82.566406 C 223.042969 81.757812 222.339844 80.984375 221.597656 80.242188 C 220.855469 79.503906 220.082031 78.800781 219.269531 78.136719 C 218.460938 77.472656 217.617188 76.847656 216.746094 76.265625 C 215.875 75.6875 214.976562 75.148438 214.050781 74.652344 C 213.128906 74.160156 212.179688 73.710938 211.210938 73.3125 C 210.242188 72.910156 209.257812 72.558594 208.253906 72.253906 C 207.25 71.949219 206.234375 71.691406 205.207031 71.488281 C 204.179688 71.28125 203.144531 71.128906 202.101562 71.023438 C 201.058594 70.921875 200.011719 70.867188 198.960938 70.867188 L 83.664062 70.867188 C 82.617188 70.867188 81.570312 70.921875 80.527344 71.023438 C 79.484375 71.128906 78.449219 71.28125 77.421875 71.488281 C 76.390625 71.691406 75.375 71.949219 74.375 72.253906 C 73.371094 72.558594 72.382812 72.910156 71.414062 73.3125 C 70.445312 73.710938 69.5 74.160156 68.574219 74.652344 C 67.652344 75.148438 66.753906 75.6875 65.882812 76.265625 C 65.011719 76.847656 64.167969 77.472656 63.359375 78.136719 C 62.546875 78.800781 61.773438 79.503906 61.03125 80.242188 C 60.289062 80.984375 59.585938 81.757812 58.921875 82.566406 C 58.253906 83.378906 57.628906 84.21875 57.046875 85.085938 C 56.464844 85.957031 55.925781 86.855469 55.433594 87.777344 C 54.9375 88.699219 54.488281 89.644531 54.085938 90.613281 C 53.683594 91.582031 53.332031 92.566406 53.027344 93.566406 C 52.722656 94.566406 52.464844 95.582031 52.261719 96.609375 C 52.054688 97.636719 51.902344 98.667969 51.796875 99.710938 C 51.691406 100.753906 51.640625 101.796875 51.640625 102.84375 L 51.640625 179.59375 C 51.640625 180.640625 51.691406 181.683594 51.796875 182.726562 C 51.902344 183.769531 52.054688 184.800781 52.261719 185.828125 C 52.464844 186.855469 52.722656 187.871094 53.027344 188.871094 C 53.332031 189.875 53.683594 190.859375 54.085938 191.824219 C 54.488281 192.792969 54.9375 193.738281 55.433594 194.660156 C 55.925781 195.582031 56.464844 196.480469 57.046875 197.351562 C 57.628906 198.21875 58.253906 199.058594 58.921875 199.871094 C 59.585938 200.679688 60.289062 201.453125 61.03125 202.195312 C 61.773438 202.933594 62.546875 203.636719 63.359375 204.300781 C 64.167969 204.964844 65.011719 205.589844 65.882812 206.171875 C 66.753906 206.753906 67.652344 207.289062 68.574219 207.785156 C 69.5 208.277344 70.445312 208.726562 71.414062 209.125 C 72.382812 209.527344 73.371094 209.882812 74.375 210.1875 C 75.375 210.492188 76.390625 210.746094 77.421875 210.949219 C 78.449219 211.15625 79.484375 211.308594 80.527344 211.414062 C 81.570312 211.515625 82.617188 211.570312 83.664062 211.570312 L 83.664062 224.933594 C 83.664062 226.199219 83.84375 227.433594 84.210938 228.640625 C 84.578125 229.847656 85.109375 230.976562 85.8125 232.027344 C 86.515625 233.074219 87.355469 234 88.332031 234.796875 C 89.3125 235.597656 90.386719 236.238281 91.554688 236.71875 C 92.726562 237.207031 93.945312 237.515625 95.210938 237.640625 C 96.476562 237.769531 97.734375 237.707031 98.980469 237.460938 C 100.230469 237.210938 101.414062 236.789062 102.535156 236.1875 C 103.65625 235.589844 104.664062 234.835938 105.558594 233.9375 C 105.789062 233.710938 106 233.46875 106.1875 233.207031 L 122.132812 211.570312 L 154.125 211.570312 L 154.125 253.144531 C 154.125 254.191406 154.179688 255.234375 154.28125 256.277344 C 154.386719 257.320312 154.539062 258.355469 154.746094 259.378906 C 154.953125 260.40625 155.207031 261.421875 155.511719 262.421875 C 155.816406 263.425781 156.171875 264.410156 156.574219 265.375 C 156.972656 266.34375 157.421875 267.289062 157.917969 268.210938 C 158.414062 269.136719 158.949219 270.03125 159.535156 270.902344 C 160.117188 271.773438 160.742188 272.613281 161.40625 273.421875 C 162.070312 274.230469 162.773438 275.003906 163.515625 275.746094 C 164.257812 276.484375 165.035156 277.1875 165.84375 277.851562 C 166.65625 278.515625 167.496094 279.140625 168.367188 279.722656 C 169.238281 280.304688 170.136719 280.84375 171.0625 281.335938 C 171.984375 281.828125 172.933594 282.277344 173.902344 282.679688 C 174.871094 283.078125 175.855469 283.433594 176.859375 283.738281 C 177.863281 284.042969 178.878906 284.296875 179.90625 284.503906 C 180.933594 284.707031 181.96875 284.863281 183.011719 284.964844 C 184.058594 285.070312 185.101562 285.121094 186.152344 285.121094 L 257.160156 285.121094 L 279.582031 307.507812 C 280.476562 308.398438 281.484375 309.144531 282.601562 309.738281 C 283.71875 310.335938 284.894531 310.753906 286.136719 311 C 287.378906 311.25 288.632812 311.308594 289.890625 311.183594 C 291.152344 311.0625 292.367188 310.757812 293.535156 310.273438 C 294.707031 309.789062 295.78125 309.144531 296.757812 308.34375 C 297.738281 307.542969 298.578125 306.617188 299.285156 305.566406 C 299.988281 304.515625 300.523438 303.382812 300.890625 302.175781 C 301.257812 300.964844 301.445312 299.726562 301.445312 298.464844 L 301.445312 285.121094 C 302.492188 285.121094 303.539062 285.070312 304.582031 284.964844 C 305.625 284.863281 306.660156 284.707031 307.691406 284.503906 C 308.71875 284.296875 309.734375 284.042969 310.738281 283.738281 C 311.742188 283.433594 312.726562 283.078125 313.695312 282.679688 C 314.664062 282.277344 315.609375 281.828125 316.535156 281.335938 C 317.457031 280.84375 318.355469 280.304688 319.230469 279.722656 C 320.101562 279.140625 320.941406 278.515625 321.753906 277.851562 C 322.5625 277.1875 323.339844 276.484375 324.078125 275.746094 C 324.820312 275.003906 325.523438 274.230469 326.191406 273.421875 C 326.855469 272.613281 327.480469 271.773438 328.0625 270.902344 C 328.644531 270.03125 329.183594 269.136719 329.679688 268.210938 C 330.171875 267.289062 330.621094 266.34375 331.023438 265.375 C 331.425781 264.410156 331.777344 263.425781 332.082031 262.421875 C 332.390625 261.421875 332.644531 260.40625 332.851562 259.378906 C 333.054688 258.355469 333.210938 257.320312 333.3125 256.277344 C 333.417969 255.234375 333.46875 254.191406 333.472656 253.144531 L 333.472656 176.398438 C 333.46875 175.351562 333.417969 174.304688 333.3125 173.261719 C 333.210938 172.222656 333.054688 171.1875 332.851562 170.160156 C 332.644531 169.132812 332.390625 168.121094 332.085938 167.117188 C 331.78125 166.117188 331.425781 165.132812 331.023438 164.164062 C 330.621094 163.199219 330.175781 162.253906 329.679688 161.328125 C 329.183594 160.40625 328.648438 159.511719 328.0625 158.640625 C 327.480469 157.769531 326.855469 156.929688 326.191406 156.121094 C 325.527344 155.3125 324.824219 154.535156 324.082031 153.796875 C 323.339844 153.054688 322.566406 152.351562 321.753906 151.6875 C 320.945312 151.023438 320.101562 150.402344 319.230469 149.820312 C 318.359375 149.238281 317.460938 148.699219 316.535156 148.207031 C 315.613281 147.710938 314.667969 147.265625 313.699219 146.863281 C 312.730469 146.460938 311.742188 146.109375 310.738281 145.804688 C 309.738281 145.5 308.722656 145.246094 307.691406 145.039062 C 306.664062 144.832031 305.628906 144.679688 304.585938 144.574219 C 303.542969 144.472656 302.496094 144.417969 301.449219 144.417969 Z M 118.898438 198.78125 C 117.878906 198.78125 116.914062 199.007812 116.007812 199.46875 C 115.097656 199.925781 114.339844 200.566406 113.738281 201.386719 L 96.476562 224.792969 L 96.476562 205.175781 C 96.476562 204.753906 96.433594 204.339844 96.351562 203.925781 C 96.269531 203.515625 96.148438 203.117188 95.988281 202.726562 C 95.828125 202.339844 95.628906 201.972656 95.398438 201.621094 C 95.164062 201.273438 94.898438 200.949219 94.601562 200.652344 C 94.304688 200.355469 93.980469 200.089844 93.628906 199.859375 C 93.28125 199.625 92.910156 199.425781 92.523438 199.265625 C 92.132812 199.105469 91.734375 198.984375 91.320312 198.902344 C 90.910156 198.820312 90.492188 198.78125 90.070312 198.78125 L 83.664062 198.78125 C 83.035156 198.777344 82.410156 198.746094 81.78125 198.6875 C 81.15625 198.625 80.535156 198.53125 79.917969 198.40625 C 79.300781 198.285156 78.691406 198.132812 78.089844 197.949219 C 77.488281 197.765625 76.894531 197.554688 76.316406 197.3125 C 75.734375 197.074219 75.167969 196.804688 74.613281 196.507812 C 74.058594 196.210938 73.519531 195.890625 72.996094 195.539062 C 72.472656 195.191406 71.96875 194.816406 71.480469 194.417969 C 70.996094 194.019531 70.527344 193.597656 70.082031 193.152344 C 69.640625 192.710938 69.21875 192.246094 68.816406 191.757812 C 68.417969 191.273438 68.042969 190.769531 67.695312 190.246094 C 67.34375 189.726562 67.023438 189.1875 66.726562 188.632812 C 66.429688 188.078125 66.160156 187.511719 65.917969 186.933594 C 65.675781 186.351562 65.464844 185.761719 65.28125 185.160156 C 65.097656 184.558594 64.945312 183.949219 64.824219 183.335938 C 64.699219 182.71875 64.605469 182.097656 64.542969 181.472656 C 64.480469 180.847656 64.449219 180.222656 64.449219 179.59375 L 64.449219 102.84375 C 64.449219 102.214844 64.480469 101.589844 64.542969 100.964844 C 64.605469 100.339844 64.699219 99.71875 64.824219 99.101562 C 64.945312 98.488281 65.097656 97.878906 65.28125 97.277344 C 65.464844 96.675781 65.675781 96.085938 65.917969 95.503906 C 66.160156 94.925781 66.429688 94.359375 66.726562 93.804688 C 67.023438 93.25 67.34375 92.710938 67.695312 92.191406 C 68.042969 91.667969 68.417969 91.164062 68.816406 90.679688 C 69.21875 90.191406 69.640625 89.726562 70.082031 89.285156 C 70.527344 88.839844 70.996094 88.417969 71.480469 88.019531 C 71.96875 87.621094 72.472656 87.246094 72.996094 86.898438 C 73.519531 86.546875 74.058594 86.226562 74.613281 85.929688 C 75.167969 85.632812 75.734375 85.363281 76.316406 85.125 C 76.894531 84.882812 77.488281 84.671875 78.089844 84.488281 C 78.691406 84.304688 79.300781 84.152344 79.917969 84.03125 C 80.535156 83.90625 81.15625 83.8125 81.78125 83.753906 C 82.410156 83.691406 83.035156 83.660156 83.664062 83.65625 L 198.960938 83.65625 C 199.589844 83.660156 200.21875 83.691406 200.84375 83.753906 C 201.472656 83.8125 202.09375 83.90625 202.710938 84.03125 C 203.328125 84.152344 203.9375 84.304688 204.539062 84.488281 C 205.140625 84.671875 205.730469 84.882812 206.3125 85.125 C 206.894531 85.363281 207.460938 85.632812 208.015625 85.929688 C 208.570312 86.226562 209.109375 86.546875 209.632812 86.898438 C 210.15625 87.246094 210.660156 87.621094 211.148438 88.019531 C 211.632812 88.417969 212.097656 88.839844 212.542969 89.285156 C 212.988281 89.726562 213.410156 90.191406 213.808594 90.679688 C 214.210938 91.164062 214.582031 91.667969 214.933594 92.191406 C 215.28125 92.710938 215.605469 93.25 215.902344 93.804688 C 216.199219 94.359375 216.46875 94.925781 216.710938 95.503906 C 216.949219 96.085938 217.164062 96.675781 217.347656 97.277344 C 217.527344 97.878906 217.683594 98.488281 217.804688 99.101562 C 217.929688 99.71875 218.023438 100.339844 218.082031 100.964844 C 218.144531 101.589844 218.175781 102.214844 218.179688 102.84375 L 218.179688 144.417969 L 186.152344 144.417969 C 182.742188 144.425781 179.421875 144.96875 176.191406 146.046875 C 172.957031 147.125 169.976562 148.683594 167.246094 150.71875 L 147.144531 106.59375 C 146.890625 106.035156 146.5625 105.523438 146.160156 105.058594 C 145.757812 104.59375 145.300781 104.195312 144.78125 103.863281 C 144.265625 103.53125 143.710938 103.277344 143.121094 103.105469 C 142.53125 102.929688 141.929688 102.84375 141.3125 102.84375 C 140.699219 102.84375 140.097656 102.929688 139.507812 103.105469 C 138.917969 103.277344 138.363281 103.53125 137.847656 103.863281 C 137.328125 104.195312 136.871094 104.59375 136.46875 105.058594 C 136.066406 105.523438 135.738281 106.035156 135.484375 106.59375 L 103.457031 176.945312 C 103.28125 177.328125 103.148438 177.722656 103.050781 178.132812 C 102.957031 178.542969 102.902344 178.957031 102.886719 179.375 C 102.871094 179.796875 102.898438 180.210938 102.96875 180.628906 C 103.035156 181.042969 103.144531 181.445312 103.292969 181.839844 C 103.441406 182.230469 103.625 182.605469 103.847656 182.964844 C 104.066406 183.320312 104.324219 183.652344 104.609375 183.960938 C 104.898438 184.265625 105.210938 184.542969 105.554688 184.789062 C 105.894531 185.03125 106.257812 185.242188 106.640625 185.414062 C 107.480469 185.800781 108.359375 185.992188 109.285156 185.988281 C 109.898438 185.988281 110.503906 185.902344 111.09375 185.730469 C 111.683594 185.554688 112.238281 185.300781 112.753906 184.96875 C 113.273438 184.636719 113.730469 184.238281 114.132812 183.773438 C 114.535156 183.308594 114.863281 182.796875 115.117188 182.238281 L 125.054688 160.40625 L 157.585938 160.40625 L 158.039062 161.398438 C 156.773438 163.699219 155.808594 166.117188 155.144531 168.660156 C 154.484375 171.199219 154.140625 173.78125 154.125 176.40625 L 154.125 198.78125 Z M 151.761719 147.613281 L 130.882812 147.613281 L 141.3125 124.691406 Z M 320.664062 253.144531 C 320.664062 253.773438 320.632812 254.398438 320.570312 255.023438 C 320.507812 255.648438 320.414062 256.269531 320.289062 256.886719 C 320.167969 257.503906 320.015625 258.109375 319.832031 258.710938 C 319.648438 259.3125 319.4375 259.902344 319.195312 260.484375 C 318.953125 261.0625 318.683594 261.628906 318.386719 262.183594 C 318.089844 262.738281 317.769531 263.277344 317.417969 263.796875 C 317.070312 264.320312 316.695312 264.824219 316.292969 265.308594 C 315.894531 265.796875 315.472656 266.261719 315.027344 266.703125 C 314.582031 267.148438 314.117188 267.570312 313.632812 267.96875 C 313.144531 268.367188 312.640625 268.742188 312.117188 269.089844 C 311.59375 269.441406 311.054688 269.761719 310.5 270.058594 C 309.945312 270.355469 309.378906 270.625 308.796875 270.863281 C 308.214844 271.105469 307.625 271.316406 307.023438 271.5 C 306.421875 271.683594 305.8125 271.835938 305.195312 271.957031 C 304.578125 272.082031 303.957031 272.175781 303.332031 272.238281 C 302.703125 272.300781 302.078125 272.332031 301.449219 272.332031 L 295.042969 272.332031 C 294.621094 272.332031 294.207031 272.371094 293.792969 272.453125 C 293.378906 272.535156 292.980469 272.65625 292.589844 272.816406 C 292.203125 272.976562 291.832031 273.175781 291.484375 273.410156 C 291.132812 273.640625 290.808594 273.90625 290.511719 274.203125 C 290.214844 274.5 289.949219 274.824219 289.714844 275.171875 C 289.480469 275.523438 289.285156 275.890625 289.125 276.277344 C 288.964844 276.667969 288.839844 277.066406 288.757812 277.480469 C 288.679688 277.890625 288.636719 278.308594 288.636719 278.726562 L 288.636719 298.464844 L 264.339844 274.203125 C 263.742188 273.605469 263.050781 273.140625 262.265625 272.816406 C 261.480469 272.492188 260.664062 272.332031 259.816406 272.332031 L 186.152344 272.332031 C 185.523438 272.332031 184.894531 272.300781 184.269531 272.238281 C 183.644531 272.175781 183.019531 272.082031 182.402344 271.957031 C 181.789062 271.835938 181.179688 271.683594 180.574219 271.5 C 179.972656 271.316406 179.382812 271.105469 178.800781 270.863281 C 178.21875 270.625 177.652344 270.355469 177.097656 270.058594 C 176.542969 269.761719 176.003906 269.441406 175.480469 269.089844 C 174.957031 268.742188 174.453125 268.367188 173.96875 267.96875 C 173.480469 267.570312 173.015625 267.148438 172.570312 266.703125 C 172.125 266.261719 171.703125 265.796875 171.304688 265.308594 C 170.90625 264.824219 170.53125 264.320312 170.179688 263.796875 C 169.832031 263.277344 169.507812 262.738281 169.210938 262.183594 C 168.914062 261.628906 168.644531 261.0625 168.40625 260.484375 C 168.164062 259.902344 167.953125 259.3125 167.769531 258.710938 C 167.585938 258.109375 167.433594 257.503906 167.308594 256.886719 C 167.183594 256.269531 167.09375 255.648438 167.03125 255.023438 C 166.96875 254.398438 166.9375 253.773438 166.933594 253.144531 L 166.933594 176.398438 C 166.9375 175.769531 166.96875 175.140625 167.03125 174.515625 C 167.09375 173.890625 167.183594 173.269531 167.308594 172.65625 C 167.429688 172.039062 167.585938 171.429688 167.765625 170.828125 C 167.949219 170.226562 168.164062 169.636719 168.402344 169.058594 C 168.644531 168.476562 168.914062 167.910156 169.210938 167.355469 C 169.507812 166.800781 169.832031 166.265625 170.179688 165.742188 C 170.53125 165.21875 170.90625 164.714844 171.304688 164.230469 C 171.703125 163.746094 172.125 163.28125 172.570312 162.835938 C 173.015625 162.390625 173.480469 161.96875 173.964844 161.570312 C 174.453125 161.171875 174.957031 160.796875 175.480469 160.449219 C 176.003906 160.101562 176.542969 159.777344 177.097656 159.480469 C 177.652344 159.183594 178.21875 158.917969 178.800781 158.675781 C 179.382812 158.433594 179.972656 158.222656 180.574219 158.039062 C 181.175781 157.859375 181.785156 157.703125 182.402344 157.582031 C 183.019531 157.457031 183.640625 157.367188 184.269531 157.304688 C 184.894531 157.242188 185.523438 157.210938 186.152344 157.210938 L 301.449219 157.210938 C 302.078125 157.210938 302.703125 157.242188 303.332031 157.304688 C 303.957031 157.367188 304.578125 157.457031 305.195312 157.582031 C 305.8125 157.703125 306.421875 157.859375 307.023438 158.039062 C 307.625 158.222656 308.21875 158.433594 308.796875 158.675781 C 309.378906 158.917969 309.949219 159.183594 310.503906 159.480469 C 311.058594 159.777344 311.597656 160.101562 312.117188 160.449219 C 312.640625 160.796875 313.148438 161.171875 313.632812 161.570312 C 314.121094 161.96875 314.585938 162.390625 315.03125 162.835938 C 315.472656 163.28125 315.898438 163.746094 316.296875 164.230469 C 316.695312 164.714844 317.070312 165.21875 317.417969 165.742188 C 317.769531 166.265625 318.09375 166.800781 318.390625 167.355469 C 318.6875 167.910156 318.953125 168.476562 319.195312 169.058594 C 319.4375 169.636719 319.648438 170.226562 319.832031 170.828125 C 320.015625 171.429688 320.167969 172.039062 320.292969 172.65625 C 320.414062 173.269531 320.507812 173.890625 320.570312 174.515625 C 320.632812 175.140625 320.664062 175.769531 320.664062 176.398438 Z M 320.664062 253.144531 "/></g><path style=" stroke:none;fill-rule:nonzero;fill:#000000;fill-opacity:1;" d="M 275.828125 192.382812 L 250.203125 192.382812 L 250.203125 179.59375 C 250.203125 179.171875 250.164062 178.757812 250.082031 178.34375 C 250 177.933594 249.878906 177.535156 249.71875 177.144531 C 249.554688 176.757812 249.359375 176.390625 249.125 176.039062 C 248.890625 175.691406 248.625 175.367188 248.328125 175.070312 C 248.03125 174.773438 247.707031 174.507812 247.359375 174.273438 C 247.007812 174.042969 246.640625 173.84375 246.25 173.683594 C 245.863281 173.523438 245.460938 173.402344 245.050781 173.320312 C 244.636719 173.238281 244.21875 173.195312 243.800781 173.195312 C 243.378906 173.195312 242.960938 173.238281 242.550781 173.320312 C 242.136719 173.402344 241.738281 173.523438 241.347656 173.683594 C 240.960938 173.84375 240.589844 174.042969 240.242188 174.273438 C 239.890625 174.507812 239.566406 174.773438 239.269531 175.070312 C 238.972656 175.367188 238.707031 175.691406 238.472656 176.039062 C 238.238281 176.390625 238.042969 176.757812 237.882812 177.144531 C 237.722656 177.535156 237.597656 177.933594 237.515625 178.34375 C 237.433594 178.757812 237.394531 179.171875 237.394531 179.59375 L 237.394531 192.382812 L 211.773438 192.382812 C 211.351562 192.382812 210.9375 192.425781 210.523438 192.507812 C 210.109375 192.589844 209.710938 192.710938 209.320312 192.871094 C 208.933594 193.03125 208.5625 193.230469 208.214844 193.460938 C 207.863281 193.695312 207.539062 193.960938 207.242188 194.257812 C 206.945312 194.554688 206.679688 194.878906 206.445312 195.226562 C 206.214844 195.574219 206.015625 195.945312 205.855469 196.332031 C 205.695312 196.71875 205.574219 197.121094 205.492188 197.53125 C 205.410156 197.945312 205.367188 198.359375 205.367188 198.78125 C 205.367188 199.199219 205.410156 199.617188 205.492188 200.027344 C 205.574219 200.4375 205.695312 200.839844 205.855469 201.226562 C 206.015625 201.617188 206.214844 201.984375 206.445312 202.332031 C 206.679688 202.683594 206.945312 203.003906 207.242188 203.300781 C 207.539062 203.597656 207.863281 203.863281 208.214844 204.097656 C 208.5625 204.332031 208.933594 204.527344 209.320312 204.6875 C 209.710938 204.847656 210.109375 204.96875 210.523438 205.050781 C 210.9375 205.132812 211.351562 205.175781 211.773438 205.175781 L 259.300781 205.175781 C 258.914062 207.867188 258.28125 210.503906 257.410156 213.082031 C 256.535156 215.660156 255.433594 218.136719 254.105469 220.515625 C 252.777344 222.890625 251.246094 225.128906 249.507812 227.222656 C 247.769531 229.320312 245.851562 231.242188 243.761719 232.984375 C 238.773438 228.820312 234.882812 223.804688 232.085938 217.941406 C 231.90625 217.5625 231.691406 217.207031 231.4375 216.867188 C 231.1875 216.53125 230.90625 216.222656 230.59375 215.941406 C 230.28125 215.660156 229.945312 215.410156 229.585938 215.195312 C 229.226562 214.980469 228.847656 214.800781 228.449219 214.660156 C 228.054688 214.519531 227.648438 214.417969 227.230469 214.359375 C 226.816406 214.296875 226.398438 214.277344 225.976562 214.296875 C 225.558594 214.320312 225.144531 214.382812 224.738281 214.484375 C 224.328125 214.585938 223.933594 214.726562 223.554688 214.90625 C 223.175781 215.085938 222.816406 215.300781 222.480469 215.554688 C 222.140625 215.804688 221.832031 216.085938 221.550781 216.394531 C 221.269531 216.707031 221.019531 217.042969 220.804688 217.402344 C 220.589844 217.761719 220.410156 218.140625 220.269531 218.535156 C 220.128906 218.933594 220.027344 219.335938 219.964844 219.753906 C 219.902344 220.167969 219.882812 220.585938 219.90625 221.003906 C 219.925781 221.425781 219.988281 221.835938 220.089844 222.246094 C 220.191406 222.652344 220.335938 223.046875 220.515625 223.425781 C 223.519531 229.640625 227.519531 235.125 232.527344 239.882812 C 226.777344 242.335938 220.773438 243.5625 214.519531 243.554688 C 214.105469 243.554688 213.695312 243.597656 213.289062 243.683594 C 212.882812 243.765625 212.488281 243.890625 212.109375 244.050781 C 211.726562 244.214844 211.363281 244.414062 211.023438 244.648438 C 210.683594 244.886719 210.367188 245.152344 210.078125 245.449219 C 209.792969 245.746094 209.535156 246.070312 209.3125 246.421875 C 209.089844 246.769531 208.90625 247.136719 208.753906 247.523438 C 208.605469 247.910156 208.496094 248.308594 208.425781 248.714844 C 208.359375 249.125 208.328125 249.535156 208.34375 249.949219 C 208.355469 250.375 208.410156 250.796875 208.503906 251.210938 C 208.597656 251.625 208.730469 252.027344 208.90625 252.417969 C 209.078125 252.808594 209.285156 253.175781 209.53125 253.527344 C 209.773438 253.875 210.050781 254.199219 210.355469 254.492188 C 210.664062 254.789062 210.996094 255.054688 211.355469 255.285156 C 211.710938 255.515625 212.089844 255.710938 212.484375 255.871094 C 212.882812 256.027344 213.289062 256.148438 213.707031 256.226562 C 214.128906 256.308594 214.550781 256.347656 214.976562 256.34375 C 220.066406 256.34375 225.066406 255.675781 229.976562 254.339844 C 234.886719 253.003906 239.539062 251.050781 243.925781 248.476562 C 248.355469 251.042969 253.042969 252.988281 257.984375 254.324219 C 262.929688 255.65625 267.960938 256.332031 273.078125 256.34375 C 273.496094 256.34375 273.90625 256.300781 274.3125 256.214844 C 274.71875 256.128906 275.109375 256.007812 275.492188 255.84375 C 275.875 255.679688 276.234375 255.480469 276.574219 255.246094 C 276.917969 255.011719 277.230469 254.746094 277.519531 254.449219 C 277.808594 254.148438 278.0625 253.824219 278.285156 253.476562 C 278.507812 253.128906 278.695312 252.757812 278.84375 252.375 C 278.992188 251.988281 279.101562 251.589844 279.171875 251.179688 C 279.242188 250.773438 279.269531 250.363281 279.257812 249.949219 C 279.242188 249.523438 279.191406 249.101562 279.09375 248.6875 C 279 248.269531 278.867188 247.867188 278.695312 247.480469 C 278.523438 247.089844 278.3125 246.71875 278.070312 246.371094 C 277.824219 246.019531 277.550781 245.699219 277.242188 245.402344 C 276.933594 245.105469 276.601562 244.84375 276.246094 244.613281 C 275.886719 244.378906 275.507812 244.183594 275.113281 244.027344 C 274.71875 243.867188 274.308594 243.75 273.890625 243.667969 C 273.472656 243.589844 273.046875 243.550781 272.621094 243.554688 C 266.566406 243.53125 260.761719 242.324219 255.199219 239.933594 C 257.566406 237.632812 259.71875 235.148438 261.65625 232.480469 C 263.597656 229.8125 265.292969 226.996094 266.742188 224.035156 C 268.195312 221.074219 269.382812 218.007812 270.308594 214.84375 C 271.230469 211.675781 271.875 208.457031 272.242188 205.179688 L 275.824219 205.179688 C 276.242188 205.179688 276.660156 205.136719 277.074219 205.054688 C 277.484375 204.972656 277.886719 204.851562 278.273438 204.691406 C 278.664062 204.53125 279.03125 204.335938 279.382812 204.101562 C 279.730469 203.867188 280.054688 203.601562 280.351562 203.304688 C 280.648438 203.007812 280.914062 202.6875 281.148438 202.335938 C 281.382812 201.988281 281.578125 201.617188 281.742188 201.230469 C 281.902344 200.84375 282.023438 200.441406 282.105469 200.03125 C 282.1875 199.617188 282.226562 199.203125 282.226562 198.785156 C 282.226562 198.363281 282.1875 197.949219 282.105469 197.535156 C 282.023438 197.125 281.902344 196.722656 281.742188 196.335938 C 281.578125 195.949219 281.382812 195.578125 281.148438 195.230469 C 280.914062 194.878906 280.648438 194.558594 280.351562 194.261719 C 280.054688 193.964844 279.730469 193.699219 279.382812 193.464844 C 279.03125 193.230469 278.664062 193.035156 278.273438 192.875 C 277.886719 192.714844 277.484375 192.59375 277.074219 192.511719 C 276.660156 192.429688 276.242188 192.386719 275.824219 192.386719 Z M 275.828125 192.382812 "/></g></svg>