<svg xmlns="http://www.w3.org/2000/svg" xmlns:xlink="http://www.w3.org/1999/xlink" width="500" zoomAndPan="magnify" viewBox="0 0 375 374.999991" height="500" preserveAspectRatio="xMidYMid meet" version="1.2"><defs><clipPath id="10c600dfe1"><path d="M 51.441406 51.441406 L 222 51.441406 L 222 323.691406 L 51.441406 323.691406 Z M 51.441406 51.441406 "/></clipPath><clipPath id="feb54807e1"><path d="M 202 123 L 323.691406 123 L 323.691406 216 L 202 216 Z M 202 123 "/></clipPath></defs><g id="51d43423e7"><g clip-rule="nonzero" clip-path="url(#10c600dfe1)"><path style=" stroke:none;fill-rule:nonzero;fill:#000000;fill-opacity:1;" d="M 204.308594 107.566406 L 204.308594 68.175781 L 111.574219 68.175781 L 169.34375 87.742188 C 172.832031 88.933594 175.128906 92.167969 175.128906 95.828125 L 175.128906 270.234375 L 204.308594 270.234375 L 204.308594 230.84375 C 204.308594 226.082031 208.050781 222.335938 212.816406 222.335938 C 217.496094 222.335938 221.324219 226.082031 221.324219 230.84375 L 221.324219 278.742188 C 221.324219 283.421875 217.496094 287.25 212.816406 287.25 L 175.128906 287.25 L 175.128906 314.902344 C 175.128906 317.625 173.851562 320.261719 171.640625 321.792969 C 170.109375 322.898438 168.40625 323.410156 166.621094 323.410156 C 165.769531 323.410156 164.832031 323.238281 163.898438 322.984375 L 57.210938 286.828125 C 57.125 286.742188 57.039062 286.65625 56.867188 286.65625 C 56.613281 286.484375 56.359375 286.316406 56.101562 286.230469 C 55.421875 285.890625 54.914062 285.464844 54.316406 285.039062 C 54.0625 284.785156 53.890625 284.53125 53.636719 284.273438 C 53.210938 283.765625 52.785156 283.253906 52.53125 282.574219 C 52.359375 282.316406 52.191406 282.0625 52.019531 281.722656 C 51.679688 280.785156 51.425781 279.765625 51.425781 278.746094 L 51.425781 59.667969 C 51.425781 58.648438 51.679688 57.625 52.019531 56.691406 C 52.105469 56.519531 52.191406 56.351562 52.273438 56.179688 C 52.613281 55.328125 53.125 54.5625 53.804688 53.796875 C 53.976562 53.710938 54.0625 53.542969 54.230469 53.457031 C 54.488281 53.203125 54.742188 52.945312 54.996094 52.777344 C 55.167969 52.605469 55.507812 52.605469 55.679688 52.519531 C 56.359375 52.097656 57.125 51.753906 57.976562 51.585938 C 58.398438 51.414062 58.824219 51.332031 59.25 51.332031 C 59.507812 51.246094 59.675781 51.160156 59.933594 51.160156 L 212.816406 51.160156 C 217.496094 51.160156 221.324219 54.988281 221.324219 59.667969 L 221.324219 107.566406 C 221.324219 112.332031 217.496094 116.074219 212.816406 116.074219 C 208.050781 116.074219 204.308594 112.332031 204.308594 107.566406 Z M 204.308594 107.566406 "/></g><g clip-rule="nonzero" clip-path="url(#feb54807e1)"><path style=" stroke:none;fill-rule:nonzero;fill:#000000;fill-opacity:1;" d="M 322.992188 172.582031 C 323 172.558594 323.027344 172.550781 323.035156 172.523438 C 323.46875 171.503906 323.714844 170.378906 323.714844 169.199219 C 323.714844 168.015625 323.46875 166.890625 323.035156 165.871094 C 323.027344 165.84375 323 165.835938 322.992188 165.8125 C 322.550781 164.800781 321.929688 163.898438 321.15625 163.132812 C 321.136719 163.113281 321.128906 163.089844 321.113281 163.070312 L 282.367188 125.695312 C 278.992188 122.445312 273.613281 122.53125 270.339844 125.910156 C 267.070312 129.289062 267.171875 134.679688 270.550781 137.941406 L 294.125 160.679688 L 211.394531 160.679688 C 206.691406 160.679688 202.886719 164.492188 202.886719 169.1875 C 202.886719 173.886719 206.691406 177.695312 211.394531 177.695312 L 294.125 177.695312 L 270.550781 200.4375 C 267.171875 203.695312 267.070312 209.089844 270.339844 212.46875 C 272.007812 214.203125 274.234375 215.070312 276.464844 215.070312 C 278.589844 215.070312 280.71875 214.28125 282.367188 212.691406 L 321.113281 175.316406 C 321.128906 175.296875 321.136719 175.273438 321.15625 175.253906 C 321.921875 174.496094 322.550781 173.597656 322.992188 172.582031 Z M 322.992188 172.582031 "/></g></g></svg>