<svg xmlns="http://www.w3.org/2000/svg" xmlns:xlink="http://www.w3.org/1999/xlink" width="500" zoomAndPan="magnify" viewBox="0 0 375 374.999991" height="500" preserveAspectRatio="xMidYMid meet" version="1.2"><defs><clipPath id="48c8d54b1d"><path d="M 238 35.488281 L 313 35.488281 L 313 110 L 238 110 Z M 238 35.488281 "/></clipPath><clipPath id="6cfb008a22"><path d="M 262 153 L 326.820312 153 L 326.820312 217 L 262 217 Z M 262 153 "/></clipPath></defs><g id="789fe21005"><path style=" stroke:none;fill-rule:nonzero;fill:#231f20;fill-opacity:1;" d="M 195.402344 110.109375 C 195.402344 110.109375 192.976562 125.699219 189.464844 129.277344 C 185.847656 132.949219 169.902344 135.667969 169.902344 135.667969 C 169.902344 135.667969 185.464844 138.488281 189.03125 142.058594 C 192.597656 145.628906 195.402344 161.222656 195.402344 161.222656 C 195.402344 161.222656 198.222656 145.632812 201.785156 142.070312 C 205.347656 138.507812 220.914062 135.683594 220.914062 135.683594 C 220.914062 135.683594 205.1875 133.011719 201.785156 129.289062 C 198.5625 125.753906 195.402344 110.109375 195.402344 110.109375 Z M 195.402344 110.109375 "/><g clip-rule="nonzero" clip-path="url(#48c8d54b1d)"><path style=" stroke:none;fill-rule:nonzero;fill:#231f20;fill-opacity:1;" d="M 275.636719 35.488281 C 275.636719 35.488281 272.148438 57.921875 267.097656 63.066406 C 261.890625 68.34375 238.945312 72.261719 238.945312 72.261719 C 238.945312 72.261719 261.351562 76.308594 266.472656 81.453125 C 271.59375 86.601562 275.636719 109.027344 275.636719 109.027344 C 275.636719 109.027344 279.6875 86.589844 284.816406 81.449219 C 289.941406 76.308594 312.332031 72.253906 312.332031 72.253906 C 312.332031 72.253906 289.703125 68.414062 284.816406 63.0625 C 280.175781 58 275.636719 35.488281 275.636719 35.488281 Z M 275.636719 35.488281 "/></g><g clip-rule="nonzero" clip-path="url(#6cfb008a22)"><path style=" stroke:none;fill-rule:nonzero;fill:#231f20;fill-opacity:1;" d="M 294.421875 153.390625 C 294.421875 153.390625 291.417969 172.742188 287.042969 177.179688 C 282.558594 181.730469 262.769531 185.109375 262.769531 185.109375 C 262.769531 185.109375 282.082031 188.605469 286.503906 193.039062 C 290.925781 197.46875 294.421875 216.824219 294.421875 216.824219 C 294.421875 216.824219 297.910156 197.46875 302.335938 193.039062 C 306.757812 188.605469 326.078125 185.109375 326.078125 185.109375 C 326.078125 185.109375 306.507812 181.867188 302.335938 177.179688 C 297.710938 171.992188 294.421875 153.390625 294.421875 153.390625 Z M 294.421875 153.390625 "/></g><path style=" stroke:none;fill-rule:nonzero;fill:#000000;fill-opacity:1;" d="M 156.929688 213.339844 C 155.699219 211.847656 154.5 210.324219 153.332031 208.777344 C 152.167969 207.230469 151.035156 205.660156 149.9375 204.0625 C 148.84375 202.464844 147.78125 200.84375 146.757812 199.199219 C 145.730469 197.554688 144.742188 195.886719 143.792969 194.199219 C 142.839844 192.511719 141.925781 190.800781 141.050781 189.074219 C 140.171875 187.34375 139.335938 185.597656 138.535156 183.832031 C 137.738281 182.066406 136.976562 180.28125 136.257812 178.484375 C 135.535156 176.683594 134.855469 174.871094 134.214844 173.039062 C 133.574219 171.210938 132.976562 169.367188 132.417969 167.511719 C 131.855469 165.65625 131.339844 163.789062 130.863281 161.910156 C 130.386719 160.027344 129.949219 158.140625 129.558594 156.242188 C 129.164062 154.34375 128.8125 152.4375 128.503906 150.523438 C 128.195312 148.609375 127.925781 146.6875 127.703125 144.761719 C 127.476562 142.835938 127.296875 140.90625 127.15625 138.972656 C 127.015625 137.039062 126.917969 135.105469 126.867188 133.167969 C 126.8125 131.226562 126.800781 129.289062 126.832031 127.351562 C 126.863281 125.414062 126.9375 123.476562 127.054688 121.539062 C 127.171875 119.605469 127.332031 117.671875 127.53125 115.746094 C 127.734375 113.816406 127.980469 111.894531 128.265625 109.976562 C 128.554688 108.058594 128.882812 106.148438 129.253906 104.246094 C 129.625 102.34375 130.039062 100.449219 130.492188 98.5625 C 130.945312 96.679688 131.441406 94.804688 131.980469 92.941406 C 132.515625 91.082031 133.09375 89.230469 133.714844 87.394531 C 134.332031 85.554688 134.992188 83.734375 135.691406 81.925781 C 136.390625 80.117188 137.128906 78.328125 137.910156 76.550781 C 138.6875 74.777344 139.503906 73.019531 140.359375 71.28125 C 141.214844 69.542969 142.109375 67.824219 143.042969 66.125 C 143.972656 64.425781 144.941406 62.746094 145.949219 61.089844 C 146.953125 59.433594 147.996094 57.800781 149.074219 56.191406 C 150.152344 54.578125 151.265625 52.992188 152.414062 51.433594 C 153.558594 49.871094 154.742188 48.335938 155.957031 46.828125 C 157.171875 45.320312 158.421875 43.839844 159.703125 42.386719 C 156.753906 43.109375 153.832031 43.925781 150.933594 44.835938 C 148.039062 45.746094 145.171875 46.746094 142.339844 47.835938 C 139.503906 48.925781 136.710938 50.105469 133.949219 51.371094 C 131.191406 52.640625 128.472656 53.992188 125.800781 55.433594 C 123.125 56.871094 120.5 58.394531 117.921875 60 C 115.34375 61.605469 112.820312 63.292969 110.347656 65.058594 C 107.878906 66.824219 105.464844 68.664062 103.109375 70.585938 C 100.753906 72.503906 98.460938 74.492188 96.230469 76.558594 C 94 78.621094 91.839844 80.753906 89.742188 82.953125 C 87.648438 85.15625 85.625 87.417969 83.671875 89.75 C 81.71875 92.078125 79.84375 94.464844 78.039062 96.914062 C 76.238281 99.359375 74.515625 101.863281 72.871094 104.421875 C 71.226562 106.976562 69.664062 109.582031 68.1875 112.238281 C 66.707031 114.894531 65.3125 117.59375 64.003906 120.339844 C 62.691406 123.082031 61.472656 125.867188 60.335938 128.6875 C 59.203125 131.507812 58.160156 134.363281 57.207031 137.25 C 56.25 140.136719 55.390625 143.054688 54.621094 145.996094 C 53.847656 148.9375 53.171875 151.902344 52.589844 154.886719 C 52.007812 157.871094 51.519531 160.871094 51.125 163.886719 C 50.730469 166.902344 50.433594 169.929688 50.230469 172.964844 C 50.027344 176 49.917969 179.035156 49.90625 182.078125 C 49.894531 185.121094 49.980469 188.160156 50.160156 191.195312 C 50.339844 194.230469 50.613281 197.257812 50.984375 200.277344 C 51.355469 203.296875 51.824219 206.300781 52.382812 209.289062 C 52.945312 212.277344 53.597656 215.246094 54.347656 218.195312 C 55.09375 221.144531 55.933594 224.066406 56.867188 226.960938 C 57.796875 229.855469 58.820312 232.714844 59.933594 235.546875 C 61.042969 238.375 62.246094 241.167969 63.535156 243.921875 C 64.820312 246.675781 66.195312 249.386719 67.65625 252.054688 C 69.113281 254.722656 70.65625 257.339844 72.28125 259.910156 C 73.90625 262.476562 75.609375 264.992188 77.394531 267.453125 C 79.175781 269.914062 81.035156 272.316406 82.96875 274.660156 C 84.90625 277.003906 86.910156 279.285156 88.992188 281.503906 C 91.070312 283.71875 93.214844 285.867188 95.429688 287.949219 C 97.644531 290.027344 99.921875 292.039062 102.261719 293.972656 C 104.601562 295.910156 107 297.769531 109.460938 299.554688 C 111.917969 301.339844 114.429688 303.042969 116.996094 304.671875 C 119.5625 306.296875 122.175781 307.839844 124.835938 309.296875 C 127.5 310.757812 130.207031 312.132812 132.957031 313.421875 C 135.707031 314.710938 138.492188 315.910156 141.320312 317.023438 C 144.144531 318.132812 147 319.15625 149.890625 320.085938 C 152.78125 321.015625 155.695312 321.855469 158.640625 322.601562 C 161.582031 323.347656 164.542969 324 167.527344 324.558594 C 170.511719 325.117188 173.511719 325.582031 176.523438 325.949219 C 179.535156 326.320312 182.558594 326.59375 185.589844 326.769531 C 188.617188 326.949219 191.652344 327.03125 194.6875 327.015625 C 197.722656 327 200.753906 326.890625 203.78125 326.683594 C 206.808594 326.476562 209.828125 326.175781 212.839844 325.777344 C 215.847656 325.378906 218.839844 324.886719 221.820312 324.300781 C 224.796875 323.710938 227.753906 323.03125 230.691406 322.257812 C 233.625 321.480469 236.53125 320.613281 239.414062 319.65625 C 242.292969 318.699219 245.140625 317.648438 247.957031 316.511719 C 250.769531 315.371094 253.546875 314.144531 256.285156 312.828125 C 259.019531 311.515625 261.714844 310.113281 264.363281 308.628906 C 267.011719 307.144531 269.609375 305.574219 272.160156 303.925781 C 274.710938 302.277344 277.207031 300.546875 279.644531 298.738281 C 282.085938 296.929688 284.46875 295.046875 286.789062 293.089844 C 289.113281 291.128906 291.371094 289.097656 293.566406 286.996094 C 295.757812 284.894531 297.886719 282.726562 299.941406 280.488281 C 302 278.253906 303.984375 275.953125 305.898438 273.59375 C 307.808594 271.230469 309.644531 268.808594 311.40625 266.332031 C 313.164062 263.851562 314.84375 261.320312 316.445312 258.738281 C 318.042969 256.152344 319.5625 253.519531 320.996094 250.839844 C 322.429688 248.15625 323.777344 245.433594 325.039062 242.667969 C 323.375 243.65625 321.6875 244.609375 319.980469 245.519531 C 318.273438 246.433594 316.546875 247.308594 314.804688 248.148438 C 313.058594 248.984375 311.292969 249.78125 309.515625 250.542969 C 307.734375 251.300781 305.9375 252.019531 304.125 252.699219 C 302.3125 253.378906 300.484375 254.019531 298.644531 254.617188 C 296.804688 255.214844 294.953125 255.773438 293.085938 256.289062 C 291.222656 256.808594 289.347656 257.28125 287.460938 257.714844 C 285.574219 258.148438 283.679688 258.539062 281.777344 258.890625 C 279.871094 259.238281 277.960938 259.546875 276.046875 259.8125 C 274.128906 260.078125 272.207031 260.300781 270.28125 260.480469 C 268.351562 260.660156 266.421875 260.796875 264.492188 260.890625 C 262.558594 260.984375 260.625 261.035156 258.6875 261.042969 C 256.753906 261.054688 254.820312 261.019531 252.886719 260.941406 C 250.953125 260.863281 249.019531 260.746094 247.09375 260.582031 C 245.164062 260.417969 243.242188 260.214844 241.320312 259.964844 C 239.402344 259.71875 237.488281 259.429688 235.582031 259.097656 C 233.675781 258.761719 231.777344 258.386719 229.890625 257.972656 C 228 257.554688 226.121094 257.097656 224.25 256.597656 C 222.378906 256.097656 220.523438 255.554688 218.675781 254.972656 C 216.832031 254.390625 215 253.769531 213.179688 253.105469 C 211.363281 252.441406 209.558594 251.738281 207.773438 250.996094 C 205.984375 250.25 204.214844 249.46875 202.460938 248.648438 C 200.710938 247.824219 198.976562 246.964844 197.261719 246.066406 C 195.546875 245.167969 193.851562 244.234375 192.179688 243.257812 C 190.503906 242.285156 188.851562 241.277344 187.222656 240.230469 C 185.59375 239.183594 183.992188 238.101562 182.410156 236.980469 C 180.828125 235.863281 179.273438 234.710938 177.742188 233.523438 C 176.210938 232.339844 174.707031 231.117188 173.230469 229.863281 C 171.753906 228.613281 170.308594 227.328125 168.886719 226.007812 C 167.46875 224.691406 166.078125 223.34375 164.714844 221.964844 C 163.355469 220.585938 162.027344 219.175781 160.730469 217.738281 C 159.429688 216.300781 158.164062 214.835938 156.929688 213.339844 Z M 156.929688 213.339844 "/></g></svg>