<svg xmlns="http://www.w3.org/2000/svg" xmlns:xlink="http://www.w3.org/1999/xlink" width="500" zoomAndPan="magnify" viewBox="0 0 375 374.999991" height="500" preserveAspectRatio="xMidYMid meet" version="1.2"><defs><clipPath id="2a53520667"><path d="M 65.355469 65.355469 L 309.855469 65.355469 L 309.855469 309.855469 L 65.355469 309.855469 Z M 65.355469 65.355469 "/></clipPath></defs><g id="c910dc15d6"><g clip-rule="nonzero" clip-path="url(#2a53520667)"><path style=" stroke:none;fill-rule:nonzero;fill:#333333;fill-opacity:1;" d="M 187.605469 65.355469 C 120.101562 65.355469 65.355469 120.101562 65.355469 187.605469 C 65.355469 255.109375 120.101562 309.855469 187.605469 309.855469 C 255.109375 309.855469 309.855469 255.109375 309.855469 187.605469 C 309.855469 120.101562 255.109375 65.355469 187.605469 65.355469 Z M 187.605469 129.136719 C 210.992188 129.136719 230.125 148.273438 230.125 171.660156 C 230.125 195.046875 210.992188 214.179688 187.605469 214.179688 C 164.21875 214.179688 145.082031 195.046875 145.082031 171.660156 C 145.082031 148.273438 164.21875 129.136719 187.605469 129.136719 Z M 187.605469 304.539062 C 156.777344 304.539062 128.074219 292.847656 105.75 271.054688 C 120.632812 239.695312 152.523438 219.496094 187.605469 219.496094 C 222.683594 219.496094 254.578125 239.695312 269.460938 271.054688 C 247.136719 292.847656 218.433594 304.539062 187.605469 304.539062 Z M 187.605469 304.539062 "/></g></g></svg>