<svg xmlns="http://www.w3.org/2000/svg" xmlns:xlink="http://www.w3.org/1999/xlink" width="500" zoomAndPan="magnify" viewBox="0 0 375 374.999991" height="500" preserveAspectRatio="xMidYMid meet" version="1.2"><defs><clipPath id="c97162703c"><path d="M 81.121094 94.683594 L 294.121094 94.683594 L 294.121094 133 L 81.121094 133 Z M 81.121094 94.683594 "/></clipPath><clipPath id="9d940fb67c"><path d="M 81.121094 168 L 294.121094 168 L 294.121094 207 L 81.121094 207 Z M 81.121094 168 "/></clipPath><clipPath id="84f74279f3"><path d="M 81.121094 242 L 294.121094 242 L 294.121094 280.683594 L 81.121094 280.683594 Z M 81.121094 242 "/></clipPath></defs><g id="f870b16250"><rect x="0" width="375" y="0" height="374.999991" style="fill:#ffffff;fill-opacity:1;stroke:none;"/><rect x="0" width="375" y="0" height="374.999991" style="fill:#ffffff;fill-opacity:1;stroke:none;"/><g clip-rule="nonzero" clip-path="url(#c97162703c)"><path style=" stroke:none;fill-rule:nonzero;fill:#000000;fill-opacity:1;" d="M 100.023438 132.554688 L 275.214844 132.554688 C 285.65625 132.554688 294.121094 124.082031 294.121094 113.636719 C 294.121094 103.1875 285.65625 94.714844 275.214844 94.714844 L 100.023438 94.714844 C 89.585938 94.714844 81.121094 103.183594 81.121094 113.636719 C 81.121094 124.085938 89.585938 132.554688 100.023438 132.554688 Z M 100.023438 132.554688 "/></g><g clip-rule="nonzero" clip-path="url(#9d940fb67c)"><path style=" stroke:none;fill-rule:nonzero;fill:#000000;fill-opacity:1;" d="M 275.214844 168.761719 L 100.023438 168.761719 C 89.585938 168.761719 81.121094 177.234375 81.121094 187.683594 C 81.121094 198.132812 89.585938 206.605469 100.023438 206.605469 L 275.214844 206.605469 C 285.65625 206.605469 294.121094 198.132812 294.121094 187.683594 C 294.121094 177.234375 285.65625 168.761719 275.214844 168.761719 Z M 275.214844 168.761719 "/></g><g clip-rule="nonzero" clip-path="url(#84f74279f3)"><path style=" stroke:none;fill-rule:nonzero;fill:#000000;fill-opacity:1;" d="M 275.214844 242.8125 L 100.023438 242.8125 C 89.585938 242.8125 81.121094 251.28125 81.121094 261.730469 C 81.121094 272.183594 89.585938 280.652344 100.023438 280.652344 L 275.214844 280.652344 C 285.65625 280.652344 294.121094 272.179688 294.121094 261.730469 C 294.121094 251.285156 285.65625 242.8125 275.214844 242.8125 Z M 275.214844 242.8125 "/></g></g></svg>