<svg xmlns="http://www.w3.org/2000/svg" xmlns:xlink="http://www.w3.org/1999/xlink" width="500" zoomAndPan="magnify" viewBox="0 0 375 374.999991" height="500" preserveAspectRatio="xMidYMid meet" version="1.2"><defs><clipPath id="4dc57320e0"><path d="M 43 41 L 332.160156 41 L 332.160156 334 L 43 334 Z M 43 41 "/></clipPath></defs><g id="1a5826ac86"><g clip-rule="nonzero" clip-path="url(#4dc57320e0)"><path style=" stroke:none;fill-rule:nonzero;fill:#ffffff;fill-opacity:1;" d="M 105.25 256.109375 C 105.917969 256.777344 106.648438 257.378906 107.4375 257.902344 C 108.226562 258.429688 109.058594 258.875 109.933594 259.234375 C 110.808594 259.597656 111.710938 259.871094 112.640625 260.058594 C 113.570312 260.242188 114.507812 260.335938 115.457031 260.335938 C 116.40625 260.335938 117.34375 260.242188 118.273438 260.058594 C 119.203125 259.871094 120.105469 259.597656 120.980469 259.234375 C 121.859375 258.875 122.691406 258.429688 123.476562 257.902344 C 124.265625 257.378906 124.996094 256.777344 125.667969 256.109375 C 126.339844 255.429688 126.941406 254.691406 127.46875 253.894531 C 127.996094 253.101562 128.441406 252.257812 128.804688 251.375 C 129.171875 250.492188 129.445312 249.582031 129.628906 248.644531 C 129.816406 247.707031 129.910156 246.757812 129.910156 245.804688 C 129.910156 244.847656 129.816406 243.902344 129.628906 242.964844 C 129.445312 242.027344 129.171875 241.117188 128.804688 240.230469 C 128.441406 239.347656 127.996094 238.507812 127.46875 237.710938 C 126.941406 236.914062 126.339844 236.175781 125.667969 235.5 L 92.574219 202.019531 L 231.03125 202.019531 C 231.988281 202.019531 232.929688 201.925781 233.867188 201.742188 C 234.800781 201.554688 235.710938 201.277344 236.589844 200.914062 C 237.472656 200.550781 238.308594 200.101562 239.101562 199.570312 C 239.894531 199.042969 240.628906 198.441406 241.304688 197.765625 C 241.976562 197.089844 242.578125 196.359375 243.109375 195.566406 C 243.640625 194.773438 244.085938 193.933594 244.453125 193.054688 C 244.816406 192.171875 245.09375 191.265625 245.277344 190.328125 C 245.464844 189.394531 245.558594 188.449219 245.558594 187.496094 C 245.558594 186.542969 245.464844 185.597656 245.277344 184.664062 C 245.09375 183.726562 244.816406 182.820312 244.453125 181.9375 C 244.085938 181.058594 243.640625 180.21875 243.109375 179.425781 C 242.578125 178.632812 241.976562 177.898438 241.304688 177.226562 C 240.628906 176.550781 239.894531 175.949219 239.101562 175.417969 C 238.308594 174.890625 237.472656 174.441406 236.589844 174.078125 C 235.710938 173.710938 234.800781 173.4375 233.867188 173.25 C 232.929688 173.066406 231.988281 172.972656 231.03125 172.972656 L 92.574219 172.972656 L 125.667969 139.492188 C 126.339844 138.816406 126.941406 138.078125 127.46875 137.28125 C 127.996094 136.484375 128.441406 135.644531 128.804688 134.761719 C 129.171875 133.875 129.445312 132.964844 129.628906 132.027344 C 129.816406 131.089844 129.910156 130.144531 129.910156 129.1875 C 129.910156 128.230469 129.816406 127.285156 129.628906 126.347656 C 129.445312 125.410156 129.171875 124.5 128.804688 123.617188 C 128.441406 122.730469 127.996094 121.890625 127.46875 121.09375 C 126.941406 120.300781 126.339844 119.5625 125.667969 118.882812 C 124.996094 118.210938 124.265625 117.613281 123.476562 117.089844 C 122.691406 116.5625 121.859375 116.117188 120.980469 115.753906 C 120.105469 115.394531 119.203125 115.121094 118.273438 114.933594 C 117.34375 114.75 116.40625 114.65625 115.457031 114.65625 C 114.507812 114.65625 113.570312 114.75 112.640625 114.933594 C 111.710938 115.121094 110.808594 115.394531 109.933594 115.753906 C 109.058594 116.117188 108.226562 116.5625 107.4375 117.089844 C 106.648438 117.613281 105.917969 118.210938 105.25 118.882812 L 47.460938 177.132812 C 47.035156 177.59375 46.574219 178.019531 46.152344 178.558594 C 45.582031 179.332031 45.070312 180.140625 44.609375 180.984375 C 44.117188 182 43.742188 183.054688 43.488281 184.15625 C 43.234375 185.253906 43.109375 186.367188 43.109375 187.496094 C 43.109375 188.625 43.234375 189.738281 43.488281 190.835938 C 43.742188 191.9375 44.117188 192.992188 44.609375 194.007812 C 45.070312 194.851562 45.582031 195.660156 46.152344 196.433594 C 46.574219 196.972656 47.035156 197.398438 47.460938 197.859375 Z M 45.148438 194.546875 Z M 173.285156 304.035156 C 172.359375 304.082031 171.445312 304.214844 170.542969 304.4375 C 169.644531 304.660156 168.773438 304.964844 167.929688 305.351562 C 167.089844 305.738281 166.289062 306.203125 165.535156 306.742188 C 164.78125 307.28125 164.085938 307.886719 163.449219 308.558594 C 162.808594 309.234375 162.238281 309.960938 161.738281 310.738281 C 161.238281 311.519531 160.816406 312.339844 160.472656 313.203125 C 160.128906 314.0625 159.871094 314.949219 159.695312 315.859375 C 159.519531 316.769531 159.433594 317.6875 159.433594 318.617188 C 159.433594 319.542969 159.519531 320.460938 159.695312 321.371094 C 159.871094 322.285156 160.128906 323.167969 160.472656 324.03125 C 160.816406 324.890625 161.238281 325.710938 161.738281 326.492188 C 162.238281 327.273438 162.808594 328 163.449219 328.671875 C 164.085938 329.34375 164.78125 329.949219 165.535156 330.488281 C 166.289062 331.03125 167.089844 331.492188 167.929688 331.878906 C 168.773438 332.269531 169.644531 332.574219 170.542969 332.792969 C 171.445312 333.015625 172.359375 333.152344 173.285156 333.199219 L 271.5625 333.199219 C 290.015625 333.199219 299.300781 333.199219 308.585938 328.460938 C 310.257812 327.605469 311.871094 326.644531 313.417969 325.578125 C 314.964844 324.511719 316.433594 323.34375 317.828125 322.082031 C 319.21875 320.816406 320.523438 319.46875 321.734375 318.03125 C 322.949219 316.59375 324.058594 315.082031 325.070312 313.5 C 326.082031 311.914062 326.984375 310.269531 327.777344 308.566406 C 328.570312 306.859375 329.246094 305.109375 329.804688 303.316406 C 330.367188 301.519531 330.804688 299.695312 331.121094 297.84375 C 331.4375 295.992188 331.628906 294.125 331.699219 292.246094 C 332.125 286.738281 332.125 280.457031 332.125 271.980469 L 332.125 103.011719 C 332.125 84.285156 332.125 75.039062 327.421875 65.679688 C 326.613281 63.988281 325.691406 62.363281 324.660156 60.800781 C 323.628906 59.234375 322.496094 57.75 321.261719 56.335938 C 320.027344 54.925781 318.707031 53.605469 317.292969 52.375 C 315.882812 51.144531 314.390625 50.015625 312.824219 48.988281 C 311.261719 47.957031 309.632812 47.039062 307.941406 46.230469 C 306.25 45.425781 304.515625 44.734375 302.730469 44.164062 C 300.945312 43.589844 299.132812 43.140625 297.285156 42.816406 C 295.441406 42.492188 293.582031 42.289062 291.710938 42.21875 C 286.125 41.792969 279.882812 41.792969 271.601562 41.792969 L 173.285156 41.792969 C 172.359375 41.839844 171.445312 41.976562 170.542969 42.199219 C 169.644531 42.417969 168.773438 42.722656 167.929688 43.109375 C 167.089844 43.5 166.289062 43.960938 165.535156 44.5 C 164.78125 45.042969 164.085938 45.648438 163.449219 46.320312 C 162.808594 46.992188 162.238281 47.71875 161.738281 48.5 C 161.238281 49.28125 160.816406 50.101562 160.472656 50.960938 C 160.128906 51.824219 159.871094 52.707031 159.695312 53.617188 C 159.519531 54.53125 159.433594 55.449219 159.433594 56.375 C 159.433594 57.300781 159.519531 58.222656 159.695312 59.132812 C 159.871094 60.042969 160.128906 60.929688 160.472656 61.789062 C 160.816406 62.648438 161.238281 63.472656 161.738281 64.25 C 162.238281 65.03125 162.808594 65.757812 163.449219 66.429688 C 164.085938 67.101562 164.78125 67.710938 165.535156 68.25 C 166.289062 68.789062 167.089844 69.253906 167.929688 69.640625 C 168.773438 70.027344 169.644531 70.332031 170.542969 70.554688 C 171.445312 70.773438 172.359375 70.910156 173.285156 70.957031 L 271.5625 70.957031 C 279.265625 70.957031 285.199219 70.957031 289.359375 71.304688 C 291.476562 71.328125 293.515625 71.726562 295.484375 72.5 C 296.824219 73.191406 298.019531 74.078125 299.070312 75.15625 C 300.183594 76.277344 301.054688 77.558594 301.6875 79.007812 C 303.34375 82.089844 303.34375 89.027344 303.34375 103.125 L 303.34375 271.980469 C 303.34375 279.917969 303.34375 285.851562 303 290.050781 C 302.964844 292.152344 302.53125 294.167969 301.6875 296.097656 C 301.054688 297.546875 300.183594 298.832031 299.070312 299.949219 C 298.019531 301.03125 296.824219 301.917969 295.484375 302.609375 C 292.328125 304.148438 285.429688 304.148438 271.5625 304.148438 Z M 173.285156 304.035156 "/></g></g></svg>