<svg xmlns="http://www.w3.org/2000/svg" xmlns:xlink="http://www.w3.org/1999/xlink" width="500" zoomAndPan="magnify" viewBox="0 0 375 374.999991" height="500" preserveAspectRatio="xMidYMid meet" version="1.2"><defs><clipPath id="8f901d2313"><path d="M 56.25 179 L 180 179 L 180 318.75 L 56.25 318.75 Z M 56.25 179 "/></clipPath><clipPath id="46d91160af"><path d="M 195 56.25 L 318.75 56.25 L 318.75 196 L 195 196 Z M 195 56.25 "/></clipPath><clipPath id="e097ddca4b"><path d="M 56.25 56.25 L 180 56.25 L 180 155 L 56.25 155 Z M 56.25 56.25 "/></clipPath><clipPath id="72fef4aaf5"><path d="M 195 220 L 318.75 220 L 318.75 318.75 L 195 318.75 Z M 195 220 "/></clipPath></defs><g id="8cb337ced4"><g clip-rule="nonzero" clip-path="url(#8f901d2313)"><path style=" stroke:none;fill-rule:nonzero;fill:#000000;fill-opacity:1;" d="M 154.6875 179.296875 L 80.859375 179.296875 C 67.289062 179.296875 56.25 190.335938 56.25 203.90625 L 56.25 294.140625 C 56.25 307.710938 67.289062 318.75 80.859375 318.75 L 154.6875 318.75 C 168.257812 318.75 179.296875 307.710938 179.296875 294.140625 L 179.296875 203.90625 C 179.296875 190.335938 168.257812 179.296875 154.6875 179.296875 Z M 154.6875 179.296875 "/></g><g clip-rule="nonzero" clip-path="url(#46d91160af)"><path style=" stroke:none;fill-rule:nonzero;fill:#000000;fill-opacity:1;" d="M 294.140625 56.25 L 220.3125 56.25 C 206.742188 56.25 195.703125 67.289062 195.703125 80.859375 L 195.703125 171.09375 C 195.703125 184.664062 206.742188 195.703125 220.3125 195.703125 L 294.140625 195.703125 C 307.710938 195.703125 318.75 184.664062 318.75 171.09375 L 318.75 80.859375 C 318.75 67.289062 307.710938 56.25 294.140625 56.25 Z M 294.140625 56.25 "/></g><g clip-rule="nonzero" clip-path="url(#e097ddca4b)"><path style=" stroke:none;fill-rule:nonzero;fill:#000000;fill-opacity:1;" d="M 154.6875 56.25 L 80.859375 56.25 C 67.289062 56.25 56.25 67.289062 56.25 80.859375 L 56.25 130.078125 C 56.25 143.648438 67.289062 154.6875 80.859375 154.6875 L 154.6875 154.6875 C 168.257812 154.6875 179.296875 143.648438 179.296875 130.078125 L 179.296875 80.859375 C 179.296875 67.289062 168.257812 56.25 154.6875 56.25 Z M 154.6875 56.25 "/></g><g clip-rule="nonzero" clip-path="url(#72fef4aaf5)"><path style=" stroke:none;fill-rule:nonzero;fill:#000000;fill-opacity:1;" d="M 294.140625 220.3125 L 220.3125 220.3125 C 206.742188 220.3125 195.703125 231.351562 195.703125 244.921875 L 195.703125 294.140625 C 195.703125 307.710938 206.742188 318.75 220.3125 318.75 L 294.140625 318.75 C 307.710938 318.75 318.75 307.710938 318.75 294.140625 L 318.75 244.921875 C 318.75 231.351562 307.710938 220.3125 294.140625 220.3125 Z M 294.140625 220.3125 "/></g></g></svg>