<svg xmlns="http://www.w3.org/2000/svg" xmlns:xlink="http://www.w3.org/1999/xlink" width="500" zoomAndPan="magnify" viewBox="0 0 375 374.999991" height="500" preserveAspectRatio="xMidYMid meet" version="1.2"><defs><clipPath id="40d06ac14b"><path d="M 78.347656 78.347656 L 296.59375 78.347656 L 296.59375 296.59375 L 78.347656 296.59375 Z M 78.347656 78.347656 "/></clipPath><clipPath id="a47fb3653a"><path d="M 143 78.347656 L 296.59375 78.347656 L 296.59375 231.691406 L 143 231.691406 Z M 143 78.347656 "/></clipPath></defs><g id="cb23ef979a"><g clip-rule="nonzero" clip-path="url(#40d06ac14b)"><path style=" stroke:none;fill-rule:nonzero;fill:#000000;fill-opacity:1;" d="M 270.695312 262.269531 C 270.695312 266.90625 266.921875 270.695312 262.269531 270.695312 L 112.671875 270.695312 C 108.03125 270.695312 104.257812 266.90625 104.257812 262.269531 L 104.257812 112.671875 C 104.257812 108.03125 108.03125 104.257812 112.671875 104.257812 L 198.160156 104.257812 L 198.160156 78.347656 L 112.671875 78.347656 C 93.863281 78.347656 78.542969 93.542969 78.347656 112.308594 L 78.347656 262.269531 C 78.347656 281.0625 93.515625 296.371094 112.253906 296.59375 L 262.269531 296.59375 C 281.117188 296.59375 296.46875 281.324219 296.59375 262.519531 L 296.59375 176.777344 L 270.695312 176.777344 L 270.695312 262.269531 "/></g><g clip-rule="nonzero" clip-path="url(#a47fb3653a)"><path style=" stroke:none;fill-rule:nonzero;fill:#000000;fill-opacity:1;" d="M 219.53125 78.347656 L 219.53125 104.257812 L 252.378906 104.257812 L 143.34375 213.289062 L 161.664062 231.59375 L 270.695312 122.574219 L 270.695312 155.410156 L 296.59375 155.410156 L 296.59375 78.347656 L 219.53125 78.347656 "/></g></g></svg>