<svg xmlns="http://www.w3.org/2000/svg" xmlns:xlink="http://www.w3.org/1999/xlink" width="500" zoomAndPan="magnify" viewBox="0 0 375 374.999991" height="500" preserveAspectRatio="xMidYMid meet" version="1.2"><defs><clipPath id="32656d330a"><path d="M 87.375 87.375 L 287.625 87.375 L 287.625 287.625 L 87.375 287.625 Z M 87.375 87.375 "/></clipPath></defs><g id="03d0a5dd14"><g clip-rule="nonzero" clip-path="url(#32656d330a)"><path style=" stroke:none;fill-rule:nonzero;fill:#000000;fill-opacity:1;" d="M 254.25 87.375 L 120.75 87.375 C 102.347656 87.375 87.375 102.347656 87.375 120.75 L 87.375 254.25 C 87.375 272.652344 102.347656 287.625 120.75 287.625 L 254.25 287.625 C 272.652344 287.625 287.625 272.652344 287.625 254.25 L 287.625 120.75 C 287.625 102.347656 272.652344 87.375 254.25 87.375 Z M 274.273438 254.25 C 274.273438 265.292969 265.292969 274.273438 254.25 274.273438 L 120.75 274.273438 C 109.707031 274.273438 100.722656 265.292969 100.722656 254.25 L 100.722656 120.75 C 100.722656 109.707031 109.707031 100.722656 120.75 100.722656 L 254.25 100.722656 C 265.292969 100.722656 274.273438 109.707031 274.273438 120.75 Z M 274.273438 254.25 "/></g><path style=" stroke:none;fill-rule:nonzero;fill:#000000;fill-opacity:1;" d="M 222.425781 180.824219 L 194.175781 180.824219 L 194.175781 152.574219 C 194.175781 148.882812 191.1875 145.898438 187.5 145.898438 C 183.808594 145.898438 180.824219 148.882812 180.824219 152.574219 L 180.824219 180.824219 L 152.574219 180.824219 C 148.882812 180.824219 145.898438 183.808594 145.898438 187.5 C 145.898438 191.1875 148.882812 194.175781 152.574219 194.175781 L 180.824219 194.175781 L 180.824219 222.425781 C 180.824219 226.113281 183.808594 229.101562 187.5 229.101562 C 191.1875 229.101562 194.175781 226.113281 194.175781 222.425781 L 194.175781 194.175781 L 222.425781 194.175781 C 226.113281 194.175781 229.101562 191.1875 229.101562 187.5 C 229.101562 183.808594 226.113281 180.824219 222.425781 180.824219 Z M 222.425781 180.824219 "/></g></svg>