<svg xmlns="http://www.w3.org/2000/svg" xmlns:xlink="http://www.w3.org/1999/xlink" width="500" zoomAndPan="magnify" viewBox="0 0 375 374.999991" height="500" preserveAspectRatio="xMidYMid meet" version="1.2"><defs><clipPath id="4e7db5b8c3"><path d="M 116.21875 65 L 258 65 L 258 312 L 116.21875 312 Z M 116.21875 65 "/></clipPath></defs><g id="8581856501"><g clip-rule="nonzero" clip-path="url(#4e7db5b8c3)"><path style=" stroke:none;fill-rule:nonzero;fill:#000000;fill-opacity:1;" d="M 158.613281 188.472656 L 251.855469 95.296875 C 252.265625 94.886719 252.652344 94.460938 253.019531 94.011719 C 253.386719 93.5625 253.730469 93.101562 254.050781 92.617188 C 254.375 92.136719 254.671875 91.640625 254.945312 91.128906 C 255.214844 90.617188 255.464844 90.097656 255.683594 89.5625 C 255.90625 89.027344 256.101562 88.480469 256.269531 87.925781 C 256.4375 87.371094 256.578125 86.8125 256.691406 86.242188 C 256.804688 85.675781 256.886719 85.101562 256.945312 84.527344 C 257 83.949219 257.03125 83.371094 257.03125 82.792969 C 257.03125 82.214844 257 81.636719 256.945312 81.058594 C 256.886719 80.484375 256.804688 79.910156 256.691406 79.34375 C 256.578125 78.773438 256.4375 78.214844 256.269531 77.660156 C 256.101562 77.105469 255.90625 76.558594 255.683594 76.023438 C 255.464844 75.488281 255.214844 74.96875 254.945312 74.457031 C 254.671875 73.945312 254.375 73.449219 254.050781 72.96875 C 253.730469 72.484375 253.386719 72.019531 253.019531 71.574219 C 252.652344 71.125 252.265625 70.695312 251.855469 70.289062 C 251.445312 69.878906 251.019531 69.488281 250.570312 69.121094 C 250.125 68.753906 249.660156 68.410156 249.179688 68.089844 C 248.699219 67.765625 248.203125 67.46875 247.691406 67.195312 C 247.183594 66.921875 246.660156 66.675781 246.125 66.453125 C 245.589844 66.230469 245.046875 66.039062 244.492188 65.871094 C 243.9375 65.699219 243.378906 65.558594 242.8125 65.449219 C 242.242188 65.335938 241.671875 65.25 241.097656 65.191406 C 240.519531 65.136719 239.945312 65.109375 239.363281 65.109375 C 238.785156 65.109375 238.210938 65.136719 237.632812 65.191406 C 237.058594 65.25 236.484375 65.335938 235.917969 65.449219 C 235.351562 65.558594 234.789062 65.699219 234.238281 65.871094 C 233.683594 66.039062 233.140625 66.230469 232.605469 66.453125 C 232.070312 66.675781 231.546875 66.921875 231.039062 67.195312 C 230.527344 67.46875 230.03125 67.765625 229.550781 68.089844 C 229.070312 68.410156 228.605469 68.753906 228.160156 69.121094 C 227.710938 69.488281 227.285156 69.878906 226.875 70.289062 L 121.320312 175.964844 C 120.90625 176.375 120.515625 176.800781 120.148438 177.25 C 119.777344 177.695312 119.433594 178.160156 119.109375 178.640625 C 118.785156 179.121094 118.488281 179.617188 118.214844 180.128906 C 117.9375 180.640625 117.691406 181.164062 117.46875 181.699219 C 117.246094 182.234375 117.050781 182.777344 116.878906 183.332031 C 116.710938 183.886719 116.570312 184.449219 116.457031 185.015625 C 116.34375 185.585938 116.257812 186.160156 116.199219 186.734375 C 116.144531 187.3125 116.113281 187.890625 116.113281 188.472656 C 116.113281 189.050781 116.144531 189.628906 116.199219 190.207031 C 116.257812 190.785156 116.34375 191.355469 116.457031 191.925781 C 116.570312 192.492188 116.710938 193.054688 116.878906 193.609375 C 117.050781 194.164062 117.246094 194.710938 117.46875 195.246094 C 117.691406 195.78125 117.9375 196.304688 118.214844 196.8125 C 118.488281 197.324219 118.785156 197.820312 119.109375 198.300781 C 119.433594 198.78125 119.777344 199.246094 120.148438 199.695312 C 120.515625 200.140625 120.90625 200.566406 121.320312 200.976562 L 226.875 306.65625 C 227.28125 307.066406 227.710938 307.457031 228.15625 307.828125 C 228.601562 308.195312 229.066406 308.542969 229.546875 308.867188 C 230.027344 309.191406 230.523438 309.488281 231.03125 309.761719 C 231.542969 310.039062 232.066406 310.285156 232.597656 310.511719 C 233.132812 310.734375 233.679688 310.929688 234.230469 311.097656 C 234.785156 311.265625 235.347656 311.410156 235.914062 311.523438 C 236.484375 311.636719 237.054688 311.722656 237.632812 311.777344 C 238.207031 311.835938 238.785156 311.863281 239.363281 311.863281 C 239.945312 311.863281 240.523438 311.835938 241.097656 311.777344 C 241.675781 311.722656 242.246094 311.636719 242.816406 311.523438 C 243.382812 311.410156 243.945312 311.265625 244.496094 311.097656 C 245.050781 310.929688 245.597656 310.734375 246.128906 310.511719 C 246.664062 310.285156 247.1875 310.039062 247.699219 309.761719 C 248.207031 309.488281 248.703125 309.191406 249.183594 308.867188 C 249.664062 308.542969 250.128906 308.195312 250.574219 307.828125 C 251.019531 307.457031 251.449219 307.066406 251.855469 306.65625 C 252.265625 306.246094 252.65625 305.820312 253.027344 305.371094 C 253.394531 304.925781 253.742188 304.460938 254.066406 303.980469 C 254.386719 303.5 254.6875 303.003906 254.960938 302.492188 C 255.234375 301.980469 255.484375 301.457031 255.707031 300.921875 C 255.929688 300.386719 256.125 299.84375 256.292969 299.289062 C 256.464844 298.734375 256.605469 298.171875 256.71875 297.601562 C 256.832031 297.035156 256.917969 296.460938 256.972656 295.886719 C 257.03125 295.308594 257.058594 294.730469 257.058594 294.148438 C 257.058594 293.570312 257.03125 292.992188 256.972656 292.414062 C 256.917969 291.835938 256.832031 291.265625 256.71875 290.695312 C 256.605469 290.128906 256.464844 289.566406 256.292969 289.011719 C 256.125 288.457031 255.929688 287.910156 255.707031 287.375 C 255.484375 286.839844 255.234375 286.316406 254.960938 285.808594 C 254.6875 285.296875 254.386719 284.800781 254.066406 284.320312 C 253.742188 283.839844 253.394531 283.375 253.027344 282.925781 C 252.65625 282.480469 252.265625 282.050781 251.855469 281.644531 Z M 158.613281 188.472656 "/></g></g></svg>