<svg xmlns="http://www.w3.org/2000/svg" xmlns:xlink="http://www.w3.org/1999/xlink" width="500" zoomAndPan="magnify" viewBox="0 0 375 374.999991" height="500" preserveAspectRatio="xMidYMid meet" version="1.2"><defs><clipPath id="30eae72006"><path d="M 117 65 L 258.714844 65 L 258.714844 312 L 117 312 Z M 117 65 "/></clipPath></defs><g id="927740df8d"><g clip-rule="nonzero" clip-path="url(#30eae72006)"><path style=" stroke:none;fill-rule:nonzero;fill:#000000;fill-opacity:1;" d="M 216.378906 188.472656 L 123.136719 95.296875 C 122.726562 94.886719 122.339844 94.460938 121.972656 94.011719 C 121.605469 93.5625 121.261719 93.101562 120.941406 92.617188 C 120.617188 92.136719 120.320312 91.640625 120.046875 91.128906 C 119.777344 90.617188 119.527344 90.097656 119.308594 89.5625 C 119.085938 89.027344 118.890625 88.480469 118.722656 87.925781 C 118.554688 87.371094 118.414062 86.8125 118.300781 86.242188 C 118.1875 85.675781 118.105469 85.101562 118.046875 84.527344 C 117.992188 83.949219 117.960938 83.371094 117.960938 82.792969 C 117.960938 82.214844 117.992188 81.636719 118.046875 81.058594 C 118.105469 80.484375 118.1875 79.910156 118.300781 79.34375 C 118.414062 78.773438 118.554688 78.214844 118.722656 77.660156 C 118.890625 77.105469 119.085938 76.558594 119.308594 76.023438 C 119.527344 75.488281 119.777344 74.96875 120.046875 74.457031 C 120.320312 73.945312 120.617188 73.449219 120.941406 72.96875 C 121.261719 72.484375 121.605469 72.019531 121.972656 71.574219 C 122.339844 71.125 122.726562 70.695312 123.136719 70.289062 C 123.546875 69.878906 123.972656 69.488281 124.421875 69.121094 C 124.867188 68.753906 125.332031 68.410156 125.8125 68.089844 C 126.292969 67.765625 126.789062 67.46875 127.300781 67.195312 C 127.808594 66.921875 128.332031 66.675781 128.867188 66.453125 C 129.402344 66.230469 129.945312 66.039062 130.5 65.871094 C 131.054688 65.699219 131.613281 65.558594 132.179688 65.449219 C 132.75 65.335938 133.320312 65.25 133.894531 65.191406 C 134.472656 65.136719 135.046875 65.109375 135.628906 65.109375 C 136.207031 65.109375 136.78125 65.136719 137.359375 65.191406 C 137.933594 65.25 138.507812 65.335938 139.074219 65.449219 C 139.640625 65.558594 140.203125 65.699219 140.753906 65.871094 C 141.308594 66.039062 141.851562 66.230469 142.386719 66.453125 C 142.921875 66.675781 143.445312 66.921875 143.953125 67.195312 C 144.464844 67.46875 144.960938 67.765625 145.441406 68.089844 C 145.921875 68.410156 146.386719 68.753906 146.832031 69.121094 C 147.28125 69.488281 147.707031 69.878906 148.117188 70.289062 L 253.671875 175.964844 C 254.085938 176.375 254.476562 176.800781 254.84375 177.25 C 255.214844 177.695312 255.558594 178.160156 255.882812 178.640625 C 256.207031 179.121094 256.503906 179.617188 256.777344 180.128906 C 257.054688 180.640625 257.300781 181.164062 257.523438 181.699219 C 257.746094 182.234375 257.941406 182.777344 258.113281 183.332031 C 258.28125 183.886719 258.421875 184.449219 258.535156 185.015625 C 258.648438 185.585938 258.734375 186.160156 258.792969 186.734375 C 258.847656 187.3125 258.878906 187.890625 258.878906 188.472656 C 258.878906 189.050781 258.847656 189.628906 258.792969 190.207031 C 258.734375 190.785156 258.648438 191.355469 258.535156 191.925781 C 258.421875 192.492188 258.28125 193.054688 258.113281 193.609375 C 257.941406 194.164062 257.746094 194.710938 257.523438 195.246094 C 257.300781 195.78125 257.054688 196.304688 256.777344 196.8125 C 256.503906 197.324219 256.207031 197.820312 255.882812 198.300781 C 255.558594 198.78125 255.214844 199.246094 254.84375 199.695312 C 254.476562 200.140625 254.085938 200.566406 253.671875 200.976562 L 148.117188 306.65625 C 147.710938 307.066406 147.28125 307.457031 146.835938 307.828125 C 146.390625 308.195312 145.925781 308.542969 145.445312 308.867188 C 144.964844 309.191406 144.46875 309.488281 143.960938 309.761719 C 143.449219 310.039062 142.925781 310.285156 142.394531 310.511719 C 141.859375 310.734375 141.3125 310.929688 140.761719 311.097656 C 140.207031 311.265625 139.644531 311.410156 139.078125 311.523438 C 138.507812 311.636719 137.9375 311.722656 137.359375 311.777344 C 136.785156 311.835938 136.207031 311.863281 135.628906 311.863281 C 135.046875 311.863281 134.46875 311.835938 133.894531 311.777344 C 133.316406 311.722656 132.746094 311.636719 132.175781 311.523438 C 131.609375 311.410156 131.046875 311.265625 130.496094 311.097656 C 129.941406 310.929688 129.394531 310.734375 128.863281 310.511719 C 128.328125 310.285156 127.804688 310.039062 127.292969 309.761719 C 126.785156 309.488281 126.289062 309.191406 125.808594 308.867188 C 125.328125 308.542969 124.863281 308.195312 124.417969 307.828125 C 123.972656 307.457031 123.542969 307.066406 123.136719 306.65625 C 122.726562 306.246094 122.335938 305.820312 121.964844 305.371094 C 121.597656 304.925781 121.25 304.460938 120.925781 303.980469 C 120.605469 303.5 120.304688 303.003906 120.03125 302.492188 C 119.757812 301.980469 119.507812 301.457031 119.285156 300.921875 C 119.0625 300.386719 118.867188 299.84375 118.699219 299.289062 C 118.527344 298.734375 118.386719 298.171875 118.273438 297.601562 C 118.160156 297.035156 118.074219 296.460938 118.019531 295.886719 C 117.960938 295.308594 117.933594 294.730469 117.933594 294.148438 C 117.933594 293.570312 117.960938 292.992188 118.019531 292.414062 C 118.074219 291.835938 118.160156 291.265625 118.273438 290.695312 C 118.386719 290.128906 118.527344 289.566406 118.699219 289.011719 C 118.867188 288.457031 119.0625 287.910156 119.285156 287.375 C 119.507812 286.839844 119.757812 286.316406 120.03125 285.808594 C 120.304688 285.296875 120.605469 284.800781 120.925781 284.320312 C 121.25 283.839844 121.597656 283.375 121.964844 282.925781 C 122.335938 282.480469 122.726562 282.050781 123.136719 281.644531 Z M 216.378906 188.472656 "/></g></g></svg>