<svg xmlns="http://www.w3.org/2000/svg" xmlns:xlink="http://www.w3.org/1999/xlink" width="500" zoomAndPan="magnify" viewBox="0 0 375 374.999991" height="500" preserveAspectRatio="xMidYMid meet" version="1.2"><defs><clipPath id="623d119700"><path d="M 62 83 L 292 83 L 292 313.4375 L 62 313.4375 Z M 62 83 "/></clipPath></defs><g id="e77c25fd53"><g clip-rule="nonzero" clip-path="url(#623d119700)"><path style=" stroke:none;fill-rule:nonzero;fill:#000000;fill-opacity:1;" d="M 115.015625 83.671875 C 85.808594 83.671875 62.027344 107.5 62.027344 136.664062 L 62.027344 260.308594 C 62.027344 289.519531 85.808594 313.300781 115.015625 313.300781 L 238.660156 313.300781 C 267.871094 313.300781 291.652344 289.519531 291.652344 260.308594 L 291.652344 207.316406 C 291.652344 202.441406 287.695312 198.484375 282.820312 198.484375 C 277.945312 198.484375 273.988281 202.441406 273.988281 207.316406 L 273.988281 260.308594 C 273.988281 280.042969 258.394531 295.636719 238.660156 295.636719 L 115.015625 295.636719 C 95.328125 295.636719 79.691406 280.042969 79.691406 260.308594 L 79.691406 136.664062 C 79.691406 116.976562 95.328125 101.335938 115.015625 101.335938 L 168.007812 101.335938 C 172.882812 101.335938 176.839844 97.378906 176.839844 92.503906 C 176.839844 87.628906 172.882812 83.671875 168.007812 83.671875 Z M 115.015625 83.671875 "/></g><path style=" stroke:none;fill-rule:nonzero;fill:#000000;fill-opacity:1;" d="M 241.511719 77.601562 L 139.027344 180.085938 C 137.648438 181.464844 136.773438 183.261719 136.542969 185.148438 L 129.828125 234.457031 C 129.046875 240.160156 133.832031 245.035156 139.582031 244.4375 L 189.949219 238.828125 C 191.972656 238.597656 193.8125 237.722656 195.238281 236.296875 L 297.722656 133.859375 C 313.179688 118.355469 313.179688 93.101562 297.722656 77.601562 C 282.542969 61.777344 256.371094 63.203125 241.511719 77.601562 Z M 285.210938 90.113281 C 293.953125 98.851562 293.953125 112.558594 285.210938 121.347656 L 275.828125 130.730469 L 244.640625 99.496094 L 253.980469 90.113281 C 264.238281 79.855469 276.886719 81.789062 285.210938 90.113281 Z M 232.128906 111.960938 L 263.363281 143.195312 L 184.933594 221.625 L 148.871094 225.625 L 153.609375 190.484375 Z M 232.128906 111.960938 "/></g></svg>