<svg xmlns="http://www.w3.org/2000/svg" xmlns:xlink="http://www.w3.org/1999/xlink" width="500" zoomAndPan="magnify" viewBox="0 0 375 374.999991" height="500" preserveAspectRatio="xMidYMid meet" version="1.0"><defs><clipPath id="f7d03b83f3"><path d="M 162 57.109375 L 213 57.109375 L 213 180 L 162 180 Z M 162 57.109375 " clip-rule="nonzero"/></clipPath><clipPath id="a749fadecf"><path d="M 36.886719 218 L 337.636719 218 L 337.636719 318.109375 L 36.886719 318.109375 Z M 36.886719 218 " clip-rule="nonzero"/></clipPath></defs><path fill="#141414" d="M 200.203125 239.304688 L 258.371094 169.855469 C 267.589844 158.859375 259.757812 142.101562 245.429688 142.101562 L 129.089844 142.101562 C 114.765625 142.101562 106.929688 158.859375 116.148438 169.855469 L 174.320312 239.304688 C 181.070312 247.359375 193.449219 247.359375 200.203125 239.304688 Z M 200.203125 239.304688 " fill-opacity="1" fill-rule="nonzero"/><g clip-path="url(#f7d03b83f3)"><path fill="#141414" d="M 212.496094 179.683594 L 162.027344 179.683594 L 162.027344 63.472656 C 162.027344 59.964844 166.011719 57.109375 170.945312 57.109375 L 203.578125 57.109375 C 208.511719 57.109375 212.496094 59.964844 212.496094 63.472656 Z M 212.496094 179.683594 " fill-opacity="1" fill-rule="nonzero"/></g><g clip-path="url(#a749fadecf)"><path fill="#141414" d="M 288.453125 318.109375 L 86.070312 318.109375 C 58.976562 318.109375 36.902344 296.070312 36.902344 268.921875 L 36.902344 231.167969 C 36.902344 224.238281 42.484375 218.652344 49.410156 218.652344 C 56.335938 218.652344 61.917969 224.238281 61.917969 231.167969 L 61.917969 268.921875 C 61.917969 282.257812 72.738281 293.082031 86.070312 293.082031 L 288.453125 293.082031 C 301.785156 293.082031 312.605469 282.257812 312.605469 268.921875 L 312.605469 231.167969 C 312.605469 224.238281 318.1875 218.652344 325.113281 218.652344 C 332.035156 218.652344 337.621094 224.238281 337.621094 231.167969 L 337.621094 268.921875 C 337.621094 296.027344 315.546875 318.109375 288.453125 318.109375 Z M 288.453125 318.109375 " fill-opacity="1" fill-rule="nonzero"/></g></svg>