<svg xmlns="http://www.w3.org/2000/svg" xmlns:xlink="http://www.w3.org/1999/xlink" width="500" zoomAndPan="magnify" viewBox="0 0 375 374.999991" height="500" preserveAspectRatio="xMidYMid meet" version="1.0"><defs><clipPath id="3ddf4e9548"><path d="M 104 71.328125 L 198 71.328125 L 198 165 L 104 165 Z M 104 71.328125 " clip-rule="nonzero"/></clipPath></defs><path fill="#000000" d="M 218.429688 204.363281 C 214.886719 188.746094 204.300781 176.046875 190.335938 169.53125 C 179.363281 178.019531 165.667969 183.003906 150.878906 183.003906 C 136.070312 183.003906 122.375 177.996094 111.398438 169.578125 C 95.933594 176.851562 84.59375 191.738281 82.410156 209.664062 L 77.40625 251.285156 C 76.800781 256.710938 80.273438 261.769531 85.566406 262.9375 C 106.15625 267.339844 128.082031 269.652344 150.855469 269.652344 C 155.664062 269.652344 160.472656 269.53125 165.230469 269.359375 L 168.703125 260.019531 C 170.960938 253.914062 174.554688 248.246094 179.191406 243.671875 Z M 218.429688 204.363281 " fill-opacity="1" fill-rule="nonzero"/><g clip-path="url(#3ddf4e9548)"><path fill="#000000" d="M 150.878906 164.6875 C 176.617188 164.6875 197.476562 143.792969 197.476562 118.007812 C 197.476562 92.25 176.59375 71.328125 150.878906 71.328125 C 125.167969 71.328125 104.308594 92.222656 104.308594 118.007812 C 104.285156 143.769531 125.144531 164.6875 150.878906 164.6875 Z M 150.878906 164.6875 " fill-opacity="1" fill-rule="nonzero"/></g><path fill="#000000" d="M 185.84375 266.367188 L 175.550781 294.171875 C 173.730469 299.0625 178.488281 303.828125 183.394531 302.027344 L 211.144531 291.714844 C 213.210938 290.9375 215.128906 289.867188 216.949219 288.625 L 188.90625 260.53125 C 187.667969 262.355469 186.597656 264.277344 185.84375 266.367188 Z M 185.84375 266.367188 " fill-opacity="1" fill-rule="nonzero"/><path fill="#000000" d="M 294.769531 199.863281 L 277.507812 182.566406 C 274.324219 179.382812 269.152344 179.382812 265.972656 182.566406 L 201.457031 247.222656 L 230.253906 276.074219 L 294.769531 211.441406 C 297.949219 208.230469 297.949219 203.074219 294.769531 199.863281 Z M 294.769531 199.863281 " fill-opacity="1" fill-rule="nonzero"/></svg>