<svg xmlns="http://www.w3.org/2000/svg" xmlns:xlink="http://www.w3.org/1999/xlink" width="500" zoomAndPan="magnify" viewBox="0 0 375 374.999991" height="500" preserveAspectRatio="xMidYMid meet" version="1.2"><defs><clipPath id="109729813a"><path d="M 66 61.160156 L 307 61.160156 L 307 313.910156 L 66 313.910156 Z M 66 61.160156 "/></clipPath></defs><g id="0d44f6b85e"><g clip-rule="nonzero" clip-path="url(#109729813a)"><path style=" stroke:none;fill-rule:nonzero;fill:#000000;fill-opacity:1;" d="M 66.210938 65.515625 L 66.210938 309.550781 C 66.210938 309.835938 66.238281 310.121094 66.292969 310.402344 C 66.351562 310.679688 66.433594 310.953125 66.542969 311.21875 C 66.652344 311.484375 66.785156 311.734375 66.945312 311.972656 C 67.101562 312.210938 67.285156 312.429688 67.484375 312.632812 C 67.6875 312.835938 67.90625 313.015625 68.144531 313.175781 C 68.382812 313.332031 68.632812 313.46875 68.898438 313.578125 C 69.160156 313.6875 69.433594 313.769531 69.714844 313.824219 C 69.996094 313.878906 70.277344 313.910156 70.5625 313.910156 L 262.09375 313.910156 C 262.382812 313.910156 262.664062 313.878906 262.945312 313.824219 C 263.226562 313.769531 263.496094 313.6875 263.761719 313.578125 C 264.023438 313.46875 264.277344 313.332031 264.511719 313.175781 C 264.75 313.015625 264.972656 312.835938 265.171875 312.632812 C 265.375 312.429688 265.554688 312.210938 265.714844 311.972656 C 265.875 311.734375 266.007812 311.484375 266.117188 311.21875 C 266.226562 310.953125 266.308594 310.679688 266.363281 310.402344 C 266.421875 310.121094 266.449219 309.835938 266.449219 309.550781 L 266.449219 236.601562 L 298.398438 187.535156 L 303.449219 179.820312 C 303.769531 179.328125 304.0625 178.824219 304.332031 178.304688 C 304.601562 177.785156 304.84375 177.253906 305.0625 176.710938 C 305.28125 176.167969 305.472656 175.613281 305.632812 175.054688 C 305.796875 174.492188 305.933594 173.921875 306.042969 173.347656 C 306.148438 172.769531 306.230469 172.191406 306.28125 171.609375 C 306.332031 171.027344 306.351562 170.441406 306.347656 169.855469 C 306.339844 169.269531 306.304688 168.6875 306.242188 168.105469 C 306.179688 167.523438 306.085938 166.945312 305.96875 166.371094 C 305.847656 165.800781 305.699219 165.234375 305.523438 164.675781 C 305.351562 164.117188 305.148438 163.566406 304.917969 163.03125 C 304.691406 162.492188 304.433594 161.964844 304.152344 161.453125 C 303.875 160.9375 303.570312 160.4375 303.238281 159.957031 C 302.910156 159.472656 302.558594 159.003906 302.183594 158.554688 C 301.808594 158.105469 301.410156 157.675781 300.992188 157.265625 C 300.578125 156.855469 300.140625 156.46875 299.683594 156.101562 C 299.230469 155.734375 298.757812 155.390625 298.269531 155.066406 L 297.3125 154.457031 C 296.820312 154.136719 296.316406 153.839844 295.796875 153.570312 C 295.28125 153.296875 294.75 153.054688 294.207031 152.835938 C 293.664062 152.617188 293.113281 152.421875 292.550781 152.257812 C 291.988281 152.09375 291.421875 151.957031 290.84375 151.847656 C 290.269531 151.738281 289.691406 151.660156 289.109375 151.609375 C 288.527344 151.554688 287.941406 151.535156 287.355469 151.539062 C 286.769531 151.546875 286.1875 151.578125 285.605469 151.644531 C 285.023438 151.707031 284.445312 151.796875 283.875 151.917969 C 283.300781 152.039062 282.734375 152.1875 282.179688 152.363281 C 281.621094 152.539062 281.070312 152.742188 280.53125 152.96875 C 279.996094 153.199219 279.46875 153.457031 278.957031 153.738281 C 278.441406 154.019531 277.945312 154.324219 277.460938 154.65625 C 276.980469 154.988281 276.511719 155.339844 276.066406 155.714844 C 275.617188 156.09375 275.1875 156.492188 274.777344 156.910156 C 274.367188 157.328125 273.980469 157.765625 273.613281 158.222656 C 273.25 158.679688 272.90625 159.152344 272.585938 159.644531 L 268.625 165.746094 L 266.359375 169.230469 L 266.359375 96.980469 C 266.34375 95.832031 265.9375 94.84375 265.140625 94.015625 L 233.671875 62.421875 C 232.863281 61.578125 231.875 61.15625 230.710938 61.160156 L 70.433594 61.160156 C 70.152344 61.167969 69.875 61.203125 69.601562 61.265625 C 69.328125 61.324219 69.0625 61.414062 68.808594 61.527344 C 68.550781 61.640625 68.308594 61.777344 68.078125 61.9375 C 67.847656 62.097656 67.632812 62.277344 67.4375 62.480469 C 67.242188 62.679688 67.070312 62.898438 66.917969 63.136719 C 66.761719 63.371094 66.632812 63.617188 66.527344 63.878906 C 66.425781 64.136719 66.34375 64.40625 66.289062 64.683594 C 66.238281 64.957031 66.210938 65.234375 66.210938 65.515625 Z M 244.683594 254.597656 L 227.925781 243.617188 L 273.371094 173.851562 L 290.128906 184.832031 Z M 225.488281 252.070312 L 237.542969 259.960938 L 224.09375 267.367188 Z M 292.742188 161.386719 L 293.699219 161.996094 C 294.21875 162.335938 294.699219 162.71875 295.144531 163.152344 C 295.589844 163.585938 295.988281 164.058594 296.339844 164.570312 C 296.6875 165.082031 296.984375 165.625 297.230469 166.195312 C 297.472656 166.765625 297.660156 167.355469 297.789062 167.960938 C 297.914062 168.570312 297.980469 169.183594 297.988281 169.804688 C 297.992188 170.425781 297.9375 171.039062 297.824219 171.652344 C 297.707031 172.261719 297.535156 172.855469 297.300781 173.429688 C 297.066406 174.003906 296.78125 174.550781 296.441406 175.070312 L 294.699219 177.726562 L 277.941406 166.789062 L 279.679688 164.089844 C 280.023438 163.570312 280.410156 163.09375 280.84375 162.652344 C 281.28125 162.210938 281.753906 161.816406 282.265625 161.46875 C 282.777344 161.121094 283.320312 160.828125 283.890625 160.585938 C 284.460938 160.34375 285.046875 160.164062 285.652344 160.035156 C 286.257812 159.910156 286.871094 159.847656 287.492188 159.839844 C 288.109375 159.835938 288.722656 159.890625 289.332031 160.007812 C 289.9375 160.125 290.527344 160.296875 291.101562 160.53125 C 291.675781 160.761719 292.222656 161.046875 292.742188 161.386719 Z M 253.5625 94.320312 L 233.453125 94.320312 L 233.453125 74.230469 Z M 74.65625 69.570312 L 225.007812 69.570312 L 225.007812 98.589844 C 225.007812 98.878906 225.035156 99.160156 225.089844 99.441406 C 225.148438 99.722656 225.230469 99.996094 225.339844 100.257812 C 225.449219 100.523438 225.582031 100.773438 225.742188 101.011719 C 225.898438 101.25 226.082031 101.46875 226.28125 101.671875 C 226.484375 101.875 226.703125 102.054688 226.941406 102.214844 C 227.179688 102.375 227.429688 102.507812 227.695312 102.617188 C 227.957031 102.726562 228.230469 102.808594 228.511719 102.867188 C 228.792969 102.921875 229.074219 102.949219 229.359375 102.949219 L 258.046875 102.949219 L 258.046875 182.085938 L 218.523438 242.398438 C 218.394531 242.632812 218.292969 242.878906 218.21875 243.136719 C 218.109375 243.40625 218.023438 243.683594 217.957031 243.964844 L 215.171875 274.6875 C 215.109375 275.460938 215.25 276.199219 215.582031 276.898438 C 215.917969 277.601562 216.402344 278.171875 217.042969 278.609375 C 217.714844 279 218.441406 279.195312 219.21875 279.195312 C 219.996094 279.195312 220.722656 279 221.394531 278.609375 L 247.816406 264.054688 C 248.25 263.835938 248.613281 263.53125 248.90625 263.140625 L 249.125 262.878906 L 257.828125 249.804688 L 257.828125 305.496094 L 74.65625 305.496094 Z M 74.65625 69.570312 "/></g><path style=" stroke:none;fill-rule:nonzero;fill:#000000;fill-opacity:1;" d="M 101.816406 123.824219 L 232.40625 124.257812 C 232.730469 124.339844 233.054688 124.382812 233.386719 124.390625 C 233.714844 124.394531 234.042969 124.363281 234.367188 124.296875 C 234.691406 124.226562 235.003906 124.121094 235.300781 123.984375 C 235.601562 123.84375 235.882812 123.671875 236.144531 123.46875 C 236.40625 123.261719 236.640625 123.03125 236.847656 122.777344 C 237.054688 122.519531 237.234375 122.242188 237.378906 121.941406 C 237.523438 121.644531 237.632812 121.335938 237.707031 121.011719 C 237.78125 120.691406 237.820312 120.363281 237.820312 120.03125 C 237.820312 119.699219 237.78125 119.375 237.707031 119.050781 C 237.632812 118.726562 237.523438 118.417969 237.378906 118.121094 C 237.234375 117.824219 237.054688 117.546875 236.847656 117.289062 C 236.640625 117.03125 236.40625 116.800781 236.144531 116.597656 C 235.882812 116.390625 235.601562 116.21875 235.300781 116.082031 C 235.003906 115.941406 234.691406 115.835938 234.367188 115.769531 C 234.042969 115.699219 233.714844 115.667969 233.386719 115.675781 C 233.054688 115.679688 232.730469 115.722656 232.40625 115.804688 L 101.816406 115.414062 C 101.496094 115.324219 101.167969 115.273438 100.832031 115.261719 C 100.5 115.25 100.167969 115.277344 99.839844 115.339844 C 99.511719 115.40625 99.195312 115.507812 98.890625 115.644531 C 98.582031 115.78125 98.296875 115.953125 98.03125 116.15625 C 97.765625 116.359375 97.527344 116.589844 97.316406 116.847656 C 97.101562 117.105469 96.921875 117.386719 96.773438 117.6875 C 96.625 117.988281 96.515625 118.300781 96.4375 118.625 C 96.363281 118.953125 96.324219 119.28125 96.324219 119.617188 C 96.324219 119.953125 96.363281 120.28125 96.4375 120.609375 C 96.515625 120.933594 96.625 121.25 96.773438 121.546875 C 96.921875 121.847656 97.101562 122.128906 97.316406 122.386719 C 97.527344 122.644531 97.765625 122.875 98.03125 123.078125 C 98.296875 123.28125 98.582031 123.453125 98.890625 123.589844 C 99.195312 123.730469 99.511719 123.828125 99.839844 123.894531 C 100.167969 123.957031 100.5 123.984375 100.832031 123.972656 C 101.167969 123.960938 101.496094 123.910156 101.816406 123.824219 Z M 101.816406 123.824219 "/><path style=" stroke:none;fill-rule:nonzero;fill:#000000;fill-opacity:1;" d="M 101.816406 163.785156 L 232.40625 164.21875 C 232.695312 164.21875 232.976562 164.191406 233.257812 164.136719 C 233.539062 164.078125 233.808594 163.996094 234.074219 163.886719 C 234.335938 163.777344 234.589844 163.644531 234.828125 163.484375 C 235.0625 163.324219 235.285156 163.144531 235.484375 162.941406 C 235.6875 162.742188 235.867188 162.519531 236.027344 162.28125 C 236.1875 162.042969 236.320312 161.792969 236.429688 161.527344 C 236.539062 161.265625 236.621094 160.992188 236.675781 160.710938 C 236.734375 160.429688 236.761719 160.148438 236.761719 159.863281 C 236.761719 159.574219 236.734375 159.292969 236.675781 159.011719 C 236.621094 158.730469 236.539062 158.457031 236.429688 158.195312 C 236.320312 157.929688 236.1875 157.679688 236.027344 157.441406 C 235.867188 157.203125 235.6875 156.984375 235.484375 156.78125 C 235.285156 156.578125 235.0625 156.398438 234.824219 156.238281 C 234.589844 156.078125 234.335938 155.945312 234.074219 155.835938 C 233.808594 155.726562 233.539062 155.644531 233.257812 155.585938 C 232.976562 155.53125 232.695312 155.503906 232.40625 155.503906 L 101.816406 155.066406 C 101.496094 154.980469 101.167969 154.929688 100.832031 154.917969 C 100.5 154.90625 100.167969 154.933594 99.839844 154.996094 C 99.511719 155.0625 99.195312 155.164062 98.890625 155.300781 C 98.582031 155.4375 98.296875 155.609375 98.03125 155.8125 C 97.765625 156.015625 97.527344 156.246094 97.316406 156.503906 C 97.101562 156.761719 96.921875 157.042969 96.773438 157.34375 C 96.625 157.644531 96.515625 157.957031 96.4375 158.28125 C 96.363281 158.609375 96.324219 158.9375 96.324219 159.273438 C 96.324219 159.609375 96.363281 159.9375 96.4375 160.265625 C 96.515625 160.589844 96.625 160.902344 96.773438 161.203125 C 96.921875 161.503906 97.101562 161.785156 97.316406 162.042969 C 97.527344 162.300781 97.765625 162.53125 98.03125 162.734375 C 98.296875 162.9375 98.582031 163.109375 98.890625 163.246094 C 99.195312 163.382812 99.511719 163.484375 99.839844 163.550781 C 100.167969 163.613281 100.5 163.640625 100.832031 163.628906 C 101.167969 163.617188 101.496094 163.566406 101.816406 163.480469 Z M 101.816406 163.785156 "/><path style=" stroke:none;fill-rule:nonzero;fill:#000000;fill-opacity:1;" d="M 205.507812 195.769531 L 101.816406 195.332031 C 101.496094 195.253906 101.171875 195.210938 100.839844 195.203125 C 100.507812 195.199219 100.183594 195.230469 99.859375 195.296875 C 99.535156 195.367188 99.222656 195.46875 98.921875 195.609375 C 98.625 195.75 98.34375 195.921875 98.082031 196.125 C 97.820312 196.328125 97.585938 196.558594 97.378906 196.816406 C 97.171875 197.074219 96.992188 197.351562 96.847656 197.648438 C 96.703125 197.945312 96.59375 198.257812 96.519531 198.578125 C 96.445312 198.902344 96.40625 199.230469 96.40625 199.5625 C 96.40625 199.890625 96.445312 200.21875 96.519531 200.542969 C 96.59375 200.863281 96.703125 201.175781 96.847656 201.472656 C 96.992188 201.769531 97.171875 202.046875 97.378906 202.304688 C 97.585938 202.5625 97.820312 202.792969 98.082031 202.996094 C 98.34375 203.199219 98.625 203.371094 98.921875 203.511719 C 99.222656 203.652344 99.535156 203.753906 99.859375 203.824219 C 100.183594 203.894531 100.507812 203.925781 100.839844 203.917969 C 101.171875 203.910156 101.496094 203.867188 101.816406 203.789062 L 205.507812 204.179688 C 205.828125 204.269531 206.15625 204.316406 206.492188 204.328125 C 206.828125 204.339844 207.15625 204.316406 207.484375 204.25 C 207.8125 204.1875 208.128906 204.085938 208.4375 203.949219 C 208.742188 203.8125 209.027344 203.640625 209.292969 203.4375 C 209.558594 203.234375 209.796875 203.003906 210.007812 202.742188 C 210.222656 202.484375 210.402344 202.207031 210.550781 201.90625 C 210.699219 201.605469 210.8125 201.292969 210.886719 200.964844 C 210.960938 200.640625 211 200.308594 211 199.976562 C 211 199.640625 210.960938 199.308594 210.886719 198.984375 C 210.8125 198.65625 210.699219 198.34375 210.550781 198.042969 C 210.402344 197.742188 210.222656 197.464844 210.007812 197.207031 C 209.796875 196.945312 209.558594 196.714844 209.292969 196.511719 C 209.027344 196.308594 208.742188 196.140625 208.4375 196 C 208.128906 195.863281 207.8125 195.761719 207.484375 195.699219 C 207.15625 195.632812 206.828125 195.609375 206.492188 195.621094 C 206.15625 195.632812 205.828125 195.683594 205.507812 195.769531 Z M 205.507812 195.769531 "/><path style=" stroke:none;fill-rule:nonzero;fill:#000000;fill-opacity:1;" d="M 191.621094 257.257812 L 103.601562 256.691406 C 103.140625 256.816406 102.714844 257.011719 102.316406 257.28125 C 101.917969 257.546875 101.578125 257.871094 101.285156 258.25 C 100.996094 258.628906 100.773438 259.046875 100.621094 259.5 C 100.46875 259.953125 100.390625 260.417969 100.390625 260.894531 C 100.390625 261.375 100.46875 261.839844 100.621094 262.292969 C 100.773438 262.746094 100.996094 263.164062 101.285156 263.542969 C 101.578125 263.921875 101.917969 264.246094 102.316406 264.511719 C 102.714844 264.78125 103.140625 264.976562 103.601562 265.101562 L 191.707031 265.539062 C 192.027344 265.617188 192.355469 265.660156 192.683594 265.667969 C 193.015625 265.671875 193.34375 265.640625 193.667969 265.574219 C 193.992188 265.503906 194.300781 265.402344 194.601562 265.261719 C 194.902344 265.121094 195.183594 264.949219 195.445312 264.746094 C 195.703125 264.542969 195.9375 264.3125 196.148438 264.054688 C 196.355469 263.796875 196.53125 263.519531 196.675781 263.222656 C 196.824219 262.925781 196.933594 262.613281 197.007812 262.292969 C 197.082031 261.96875 197.117188 261.640625 197.117188 261.308594 C 197.117188 260.980469 197.082031 260.652344 197.007812 260.328125 C 196.933594 260.007812 196.824219 259.695312 196.675781 259.398438 C 196.53125 259.101562 196.355469 258.824219 196.148438 258.566406 C 195.9375 258.308594 195.703125 258.078125 195.445312 257.875 C 195.183594 257.671875 194.902344 257.5 194.601562 257.359375 C 194.300781 257.21875 193.992188 257.117188 193.667969 257.046875 C 193.34375 256.976562 193.015625 256.945312 192.683594 256.953125 C 192.355469 256.960938 192.027344 257.003906 191.707031 257.082031 Z M 191.621094 257.257812 "/></g></svg>