<svg xmlns="http://www.w3.org/2000/svg" xmlns:xlink="http://www.w3.org/1999/xlink" width="500" zoomAndPan="magnify" viewBox="0 0 375 374.999991" height="500" preserveAspectRatio="xMidYMid meet" version="1.2"><g id="e02026514d"><path style=" stroke:none;fill-rule:nonzero;fill:#040606;fill-opacity:1;" d="M 163.238281 127.863281 L 163.238281 102.96875 C 163.238281 95.5 154.53125 91.765625 149.554688 96.742188 L 63.726562 173.921875 C 56.261719 180.144531 56.261719 192.59375 63.726562 198.820312 L 149.554688 278.484375 C 154.53125 283.46875 163.238281 279.730469 163.238281 272.261719 L 163.238281 239.898438 C 163.238281 230.265625 171.148438 222.46875 180.773438 222.472656 C 249.109375 222.492188 283.910156 241.152344 303.796875 259.816406 C 310.019531 264.792969 318.726562 258.566406 316.238281 251.097656 C 288.871094 183.882812 232.894531 150.269531 180.652344 145.292969 C 170.703125 145.292969 163.238281 137.824219 163.238281 127.863281 "/></g></svg>