<svg xmlns="http://www.w3.org/2000/svg" xmlns:xlink="http://www.w3.org/1999/xlink" width="500" zoomAndPan="magnify" viewBox="0 0 375 374.999991" height="500" preserveAspectRatio="xMidYMid meet" version="1.2"><defs><clipPath id="e5ba28004a"><path d="M 79.464844 75.253906 L 294 75.253906 L 294 298 L 79.464844 298 Z M 79.464844 75.253906 "/></clipPath></defs><g id="dfb2610951"><g clip-rule="nonzero" clip-path="url(#e5ba28004a)"><path style=" stroke:none;fill-rule:evenodd;fill:#000000;fill-opacity:1;" d="M 170.535156 75.253906 C 146.390625 75.253906 123.234375 84.839844 106.160156 101.898438 C 89.085938 118.960938 79.496094 142.097656 79.496094 166.226562 C 79.496094 190.355469 89.085938 213.492188 106.160156 230.554688 C 123.234375 247.613281 146.390625 257.199219 170.535156 257.199219 C 185.691406 257.117188 200.589844 253.257812 213.875 245.964844 L 258.574219 291.375 C 266.464844 299.390625 279.277344 299.5 287.300781 291.613281 C 295.324219 283.726562 295.429688 270.921875 287.539062 262.902344 L 244.386719 219.0625 C 255.488281 203.671875 261.496094 185.199219 261.574219 166.226562 C 261.574219 142.097656 251.980469 118.960938 234.90625 101.898438 C 217.835938 84.839844 194.679688 75.253906 170.535156 75.253906 Z M 171.574219 101.707031 C 187.707031 101.707031 203.179688 108.410156 214.589844 120.34375 C 225.996094 132.277344 232.40625 148.464844 232.40625 165.34375 C 232.363281 183.632812 224.804688 201.023438 211.648438 213.070312 C 211.355469 213.328125 211.066406 213.59375 210.78125 213.871094 C 210.625 214.027344 210.472656 214.191406 210.320312 214.351562 C 199.425781 223.792969 185.722656 228.964844 171.574219 228.976562 C 155.441406 228.976562 139.96875 222.273438 128.5625 210.339844 C 117.152344 198.40625 110.746094 182.21875 110.746094 165.34375 C 110.746094 148.464844 117.152344 132.277344 128.5625 120.34375 C 139.96875 108.410156 155.441406 101.707031 171.574219 101.707031 Z M 171.574219 101.707031 "/></g></g></svg>