<svg xmlns="http://www.w3.org/2000/svg" xmlns:xlink="http://www.w3.org/1999/xlink" width="500" zoomAndPan="magnify" viewBox="0 0 375 374.999991" height="500" preserveAspectRatio="xMidYMid meet" version="1.2"><defs><clipPath id="aaf0915c55"><path d="M 63.464844 63.464844 L 311.714844 63.464844 L 311.714844 311.714844 L 63.464844 311.714844 Z M 63.464844 63.464844 "/></clipPath></defs><g id="fb6df0d7fd"><g clip-rule="nonzero" clip-path="url(#aaf0915c55)"><path style=" stroke:none;fill-rule:nonzero;fill:#000000;fill-opacity:1;" d="M 187.589844 77.253906 C 248.546875 77.253906 297.921875 126.628906 297.921875 187.589844 C 297.921875 248.546875 248.546875 297.921875 187.589844 297.921875 C 126.628906 297.921875 77.253906 248.546875 77.253906 187.589844 C 77.253906 126.628906 126.628906 77.253906 187.589844 77.253906 M 187.589844 63.464844 C 118.90625 63.464844 63.464844 118.90625 63.464844 187.589844 C 63.464844 256.269531 118.90625 311.714844 187.589844 311.714844 C 256.269531 311.714844 311.714844 256.269531 311.714844 187.589844 C 311.714844 118.90625 255.996094 63.464844 187.589844 63.464844 Z M 187.589844 63.464844 "/></g><path style=" stroke:none;fill-rule:evenodd;fill:#000000;fill-opacity:1;" d="M 252.410156 156.972656 L 178.761719 232.273438 C 177.105469 233.929688 174.625 235.03125 171.867188 235.03125 C 169.109375 235.03125 166.902344 233.929688 164.96875 232.273438 L 123.320312 189.796875 C 121.664062 188.140625 120.5625 185.65625 120.5625 182.898438 C 120.5625 177.382812 124.972656 172.96875 130.214844 172.96875 C 132.972656 172.96875 135.179688 174.074219 137.109375 175.726562 L 171.867188 211.308594 L 238.894531 142.902344 C 240.546875 141.25 243.03125 140.144531 245.789062 140.144531 C 251.03125 140.144531 255.445312 144.558594 255.445312 150.074219 C 255.167969 152.832031 254.0625 155.316406 252.410156 156.972656 Z M 252.410156 156.972656 "/></g></svg>