<svg xmlns="http://www.w3.org/2000/svg" xmlns:xlink="http://www.w3.org/1999/xlink" width="500" zoomAndPan="magnify" viewBox="0 0 375 374.999991" height="500" preserveAspectRatio="xMidYMid meet" version="1.2"><defs><clipPath id="70993120f1"><path d="M 29.351562 29.351562 L 345.851562 29.351562 L 345.851562 345.851562 L 29.351562 345.851562 Z M 29.351562 29.351562 "/></clipPath><clipPath id="e2952d6173"><path d="M 138 75 L 273 75 L 273 345.851562 L 138 345.851562 Z M 138 75 "/></clipPath><clipPath id="1047370453"><path d="M 128 65 L 283 65 L 283 345.851562 L 128 345.851562 Z M 128 65 "/></clipPath></defs><g id="21de833e29"><g clip-rule="nonzero" clip-path="url(#70993120f1)"><path style="fill-rule:nonzero;fill:#4267b2;fill-opacity:1;stroke-width:1;stroke-linecap:butt;stroke-linejoin:miter;stroke:#4267b2;stroke-opacity:1;stroke-miterlimit:10;" d="M 462.700079 234.600447 C 462.700079 238.23487 462.612105 241.869293 462.430659 245.503716 C 462.254711 249.132641 461.985291 252.761565 461.627897 256.379493 C 461.276001 259.997421 460.830633 263.604352 460.297291 267.205785 C 459.763949 270.80172 459.142633 274.381159 458.427845 277.949602 C 457.718555 281.518044 456.92679 285.064493 456.041552 288.588949 C 455.156315 292.118903 454.188601 295.621365 453.132914 299.101834 C 452.077227 302.582302 450.933566 306.035279 449.712928 309.455266 C 448.486791 312.880751 447.178179 316.273245 445.787091 319.63275 C 444.396003 322.992254 442.92244 326.31327 441.366401 329.601296 C 439.810362 332.889322 438.177346 336.138859 436.461854 339.344409 C 434.746363 342.549959 432.959392 345.717021 431.089946 348.834597 C 429.215002 351.952173 427.274077 355.025762 425.250676 358.049866 C 423.232774 361.07397 421.137895 364.04309 418.971537 366.962725 C 416.805179 369.887858 414.567342 372.752509 412.263525 375.562177 C 409.954209 378.371844 407.578913 381.126528 405.137636 383.82073 C 402.69636 386.514931 400.189103 389.148651 397.621364 391.71639 C 395.048126 394.289627 392.414407 396.796884 389.720205 399.238161 C 387.026003 401.679438 384.27132 404.054734 381.461652 406.364049 C 378.651985 408.667867 375.787334 410.905704 372.8622 413.072062 C 369.942565 415.23842 366.973445 417.333299 363.949341 419.351201 C 360.925238 421.374601 357.851648 423.315526 354.734072 425.184972 C 351.616496 427.054418 348.449434 428.846887 345.243884 430.562379 C 342.038334 432.277871 338.788797 433.910887 335.500771 435.466926 C 332.212746 437.022964 328.89173 438.496528 325.532225 439.887616 C 322.172721 441.278703 318.780226 442.587316 315.354741 443.813452 C 311.934755 445.034091 308.481778 446.177752 305.001309 447.233439 C 301.52084 448.289126 298.018378 449.256839 294.488424 450.142077 C 290.963969 451.021816 287.41752 451.81908 283.849077 452.52837 C 280.280634 453.23766 276.701195 453.858976 273.105261 454.392318 C 269.503828 454.931158 265.896897 455.371028 262.278969 455.728422 C 258.661041 456.085816 255.037614 456.355236 251.403191 456.531184 C 247.768768 456.71263 244.134345 456.800604 240.499922 456.800604 C 236.865499 456.800604 233.231076 456.71263 229.596653 456.531184 C 225.967729 456.355236 222.338804 456.085816 218.720876 455.728422 C 215.102948 455.371028 211.496017 454.931158 207.894584 454.392318 C 204.29865 453.858976 200.71921 453.23766 197.150768 452.52837 C 193.582325 451.81908 190.035876 451.021816 186.51142 450.142077 C 182.981466 449.256839 179.479004 448.289126 175.998536 447.233439 C 172.518067 446.177752 169.06509 445.034091 165.645103 443.813452 C 162.219619 442.587316 158.827124 441.278703 155.467619 439.887616 C 152.108115 438.496528 148.787099 437.022964 145.499073 435.466926 C 142.211048 433.910887 138.96151 432.277871 135.75596 430.562379 C 132.55041 428.846887 129.383349 427.054418 126.265772 425.184972 C 123.148196 423.315526 120.074607 421.374601 117.050503 419.351201 C 114.026399 417.333299 111.057279 415.23842 108.137644 413.072062 C 105.212511 410.905704 102.34786 408.667867 99.538192 406.364049 C 96.728525 404.054734 93.973841 401.679438 91.27964 399.238161 C 88.585438 396.796884 85.951718 394.289627 83.378481 391.71639 C 80.810742 389.148651 78.303485 386.514931 75.862208 383.82073 C 73.420932 381.126528 71.045635 378.371844 68.73632 375.562177 C 66.432502 372.752509 64.194666 369.887858 62.028308 366.962725 C 59.861949 364.04309 57.76707 361.07397 55.749168 358.049866 C 53.725768 355.025762 51.784843 351.952173 49.915397 348.834597 C 48.040452 345.717021 46.253482 342.549959 44.53799 339.344409 C 42.822499 336.138859 41.189483 332.889322 39.633444 329.601296 C 38.077405 326.31327 36.603841 322.992254 35.212754 319.63275 C 33.821666 316.273245 32.513054 312.880751 31.286917 309.455266 C 30.066279 306.035279 28.922617 302.582302 27.86693 299.101834 C 26.811243 295.621365 25.84353 292.118903 24.958292 288.588949 C 24.073055 285.064493 23.281289 281.518044 22.571999 277.949602 C 21.86271 274.381159 21.235895 270.80172 20.702553 267.205785 C 20.169211 263.604352 19.723843 259.997421 19.371948 256.379493 C 19.014553 252.761565 18.745133 249.132641 18.569185 245.503716 C 18.387739 241.869293 18.299765 238.23487 18.299765 234.600447 C 18.299765 230.966024 18.387739 227.331601 18.569185 223.697178 C 18.745133 220.062755 19.014553 216.439328 19.371948 212.821401 C 19.723843 209.203473 20.169211 205.591043 20.702553 201.995109 C 21.235895 198.399174 21.86271 194.819735 22.571999 191.251292 C 23.281289 187.68285 24.073055 184.136401 24.958292 180.611945 C 25.84353 177.081991 26.811243 173.579529 27.86693 170.09906 C 28.922617 166.618592 30.066279 163.165615 31.286917 159.745628 C 32.513054 156.320143 33.821666 152.927648 35.212754 149.568144 C 36.603841 146.208639 38.077405 142.882125 39.633444 139.599598 C 41.189483 136.311572 42.822499 133.062035 44.53799 129.856485 C 46.253482 126.650935 48.040452 123.483873 49.915397 120.366297 C 51.784843 117.248721 53.725768 114.175132 55.749168 111.151028 C 57.76707 108.126924 59.861949 105.157804 62.028308 102.238169 C 64.194666 99.313036 66.432502 96.448385 68.73632 93.638717 C 71.045635 90.82905 73.420932 88.074366 75.862208 85.380164 C 78.303485 82.685963 80.810742 80.052243 83.378481 77.479006 C 85.951718 74.911266 88.585438 72.404009 91.27964 69.962733 C 93.973841 67.515958 96.728525 65.14616 99.538192 62.836844 C 102.34786 60.527529 105.212511 58.29519 108.137644 56.128832 C 111.057279 53.962474 114.026399 51.867595 117.050503 49.849693 C 120.074607 47.826292 123.148196 45.879869 126.265772 44.010423 C 129.383349 42.140977 132.55041 40.354007 135.75596 38.638515 C 138.96151 36.923023 142.211048 35.290007 145.499073 33.733968 C 148.787099 32.177929 152.108115 30.704366 155.467619 29.313278 C 158.827124 27.92219 162.219619 26.613578 165.645103 25.387442 C 169.06509 24.161305 172.518067 23.023142 175.998536 21.967455 C 179.479004 20.911768 182.981466 19.944055 186.51142 19.058817 C 190.035876 18.173579 193.582325 17.376315 197.150768 16.667026 C 200.71921 15.957736 204.29865 15.33642 207.894584 14.803078 C 211.496017 14.269736 215.102948 13.824368 218.720876 13.472472 C 222.338804 13.115078 225.967729 12.845658 229.596653 12.66971 C 233.231076 12.488264 236.865499 12.40029 240.499922 12.40029 C 244.134345 12.40029 247.768768 12.488264 251.403191 12.66971 C 255.037614 12.845658 258.661041 13.115078 262.278969 13.472472 C 265.896897 13.824368 269.503828 14.269736 273.105261 14.803078 C 276.701195 15.33642 280.280634 15.957736 283.849077 16.667026 C 287.41752 17.376315 290.963969 18.173579 294.488424 19.058817 C 298.018378 19.944055 301.52084 20.911768 305.001309 21.967455 C 308.481778 23.023142 311.934755 24.161305 315.354741 25.387442 C 318.780226 26.613578 322.172721 27.92219 325.532225 29.313278 C 328.89173 30.704366 332.212746 32.177929 335.500771 33.733968 C 338.788797 35.290007 342.038334 36.923023 345.243884 38.638515 C 348.449434 40.354007 351.616496 42.140977 354.734072 44.010423 C 357.851648 45.879869 360.925238 47.826292 363.949341 49.849693 C 366.973445 51.867595 369.942565 53.962474 372.8622 56.128832 C 375.787334 58.29519 378.651985 60.527529 381.461652 62.836844 C 384.27132 65.14616 387.026003 67.515958 389.720205 69.962733 C 392.414407 72.404009 395.048126 74.911266 397.621364 77.479006 C 400.189103 80.052243 402.69636 82.685963 405.137636 85.380164 C 407.578913 88.074366 409.954209 90.82905 412.263525 93.638717 C 414.567342 96.448385 416.805179 99.313036 418.971537 102.238169 C 421.137895 105.157804 423.232774 108.126924 425.250676 111.151028 C 427.274077 114.175132 429.215002 117.248721 431.089946 120.366297 C 432.959392 123.483873 434.746363 126.650935 436.461854 129.856485 C 438.177346 133.062035 439.810362 136.311572 441.366401 139.599598 C 442.92244 142.882125 444.396003 146.208639 445.787091 149.568144 C 447.178179 152.927648 448.486791 156.320143 449.712928 159.745628 C 450.933566 163.165615 452.077227 166.618592 453.132914 170.09906 C 454.188601 173.579529 455.156315 177.081991 456.041552 180.611945 C 456.92679 184.136401 457.718555 187.68285 458.427845 191.251292 C 459.142633 194.819735 459.763949 198.399174 460.297291 201.995109 C 460.830633 205.591043 461.276001 209.203473 461.627897 212.821401 C 461.985291 216.439328 462.254711 220.062755 462.430659 223.697178 C 462.612105 227.331601 462.700079 230.966024 462.700079 234.600447 Z M 462.700079 234.600447 " transform="matrix(0.710438,0,0,0.710438,16.741344,20.897397)"/></g><g clip-rule="nonzero" clip-path="url(#e2952d6173)"><path style=" stroke:none;fill-rule:nonzero;fill:#ffffff;fill-opacity:1;" d="M 224.6875 76.3125 C 212.113281 78.585938 207.777344 80.714844 200.53125 84.835938 C 192.789062 89.242188 187.386719 93.859375 183.695312 97.625 C 171.617188 110.128906 168.917969 121.78125 166.644531 130.800781 C 163.234375 144.085938 163.589844 156.589844 163.589844 156.589844 L 163.589844 166.324219 L 138.226562 166.324219 L 138.226562 210.441406 L 163.589844 210.441406 L 163.589844 343.648438 C 171.402344 344.855469 179.429688 345.496094 187.601562 345.496094 C 199.679688 345.496094 211.472656 344.148438 222.769531 341.589844 L 222.769531 210.441406 L 261.34375 210.441406 L 261.34375 166.324219 L 222.769531 166.324219 L 222.769531 156.945312 C 222.769531 156.945312 222.769531 155.242188 222.769531 155.027344 C 222.769531 154.816406 222.769531 154.53125 222.769531 154.316406 C 222.769531 152.398438 222.839844 149.558594 223.265625 147.070312 C 224.332031 140.605469 226.535156 135.5625 230.226562 131.085938 C 234.492188 125.972656 239.464844 123.769531 245.003906 122.917969 C 258.714844 120.785156 270.15625 125.542969 270.15625 125.542969 L 272.285156 79.152344 C 272.285156 79.152344 263.691406 76.382812 249.480469 75.386719 C 239.464844 74.675781 230.582031 75.246094 224.6875 76.3125 Z M 224.6875 76.3125 "/></g><g clip-rule="nonzero" clip-path="url(#1047370453)"><path style="fill:none;stroke-width:1;stroke-linecap:butt;stroke-linejoin:miter;stroke:#ffffff;stroke-opacity:1;stroke-miterlimit:10;" d="M 292.701454 78.001351 C 275.002198 81.201403 268.899007 84.198015 258.699529 89.998796 C 247.801759 96.200958 240.197512 102.700032 235.001552 108.000461 C 218.000589 125.600746 214.201215 142.002386 211.001163 154.698124 C 206.201086 173.398083 206.701438 190.998367 206.701438 190.998367 L 206.701438 204.700307 L 171.000517 204.700307 L 171.000517 266.798906 L 206.701438 266.798906 L 206.701438 454.298845 C 217.698179 455.997842 228.997331 456.899575 240.499922 456.899575 C 257.500885 456.899575 274.100466 455.002637 290.001754 451.401204 L 290.001754 266.798906 L 344.298164 266.798906 L 344.298164 204.700307 L 290.001754 204.700307 L 290.001754 191.498719 C 290.001754 191.498719 290.001754 189.101429 290.001754 188.799019 C 290.001754 188.502107 290.001754 188.100726 290.001754 187.798315 C 290.001754 185.098615 290.100724 181.1013 290.700047 177.598838 C 292.201102 168.499034 295.302183 161.400638 300.498143 155.099505 C 306.502364 147.902138 313.50179 144.801057 321.29848 143.602412 C 340.597761 140.600301 356.702489 147.297317 356.702489 147.297317 L 359.699101 81.998666 C 359.699101 81.998666 347.602685 78.100322 327.599613 76.698237 C 313.50179 75.697534 300.998495 76.500296 292.701454 78.001351 Z M 292.701454 78.001351 " transform="matrix(0.710438,0,0,0.710438,16.741344,20.897397)"/></g></g></svg>