<svg xmlns="http://www.w3.org/2000/svg" xmlns:xlink="http://www.w3.org/1999/xlink" width="500" zoomAndPan="magnify" viewBox="0 0 375 374.999991" height="500" preserveAspectRatio="xMidYMid meet" version="1.0"><path fill="#2a8fe6" d="M 66.769531 66.769531 C 133.539062 0 241.632812 0 308.230469 66.769531 C 375 133.539062 375 241.632812 308.230469 308.230469 C 241.460938 375 133.367188 375 66.769531 308.230469 C 0 241.632812 0 133.367188 66.769531 66.769531 " fill-opacity="1" fill-rule="evenodd"/><path fill="#2f9df0" d="M 217.042969 55.15625 L 197.917969 74.28125 L 182.378906 58.742188 L 178.109375 63.011719 L 173.839844 58.742188 L 160.691406 71.890625 L 155.394531 66.597656 L 144.980469 77.015625 L 134.5625 66.597656 L 68.648438 132.511719 L 74.28125 138.148438 L 59.253906 153.175781 L 73.601562 167.519531 L 59.253906 181.863281 L 64.890625 187.5 L 59.253906 193.136719 L 69.160156 203.039062 L 64.71875 207.480469 L 72.574219 215.335938 L 66.085938 221.824219 L 83.675781 251.535156 L 83.503906 256.660156 L 99.214844 272.710938 L 93.921875 289.277344 L 160.519531 355.875 C 169.226562 357.242188 178.109375 357.921875 187.328125 357.921875 C 187.5 357.921875 187.671875 357.921875 188.011719 357.921875 C 282.273438 357.921875 358.265625 281.589844 358.265625 187.5 C 358.265625 178.960938 357.582031 170.59375 356.386719 162.398438 L 271.003906 77.015625 L 254.953125 93.066406 L 217.042969 55.15625 " fill-opacity="1" fill-rule="nonzero"/><path fill="#ffffff" d="M 190.402344 33.128906 C 198.941406 40.128906 207.480469 47.132812 215.847656 54.132812 C 220.628906 58.058594 220.628906 61.304688 216.019531 65.230469 C 208.84375 71.210938 201.84375 77.355469 194.671875 83.332031 C 193.988281 84.015625 193.304688 84.699219 192.453125 85.039062 C 191.257812 85.722656 189.71875 86.40625 188.695312 86.066406 C 187.839844 85.722656 187.160156 83.84375 187.160156 82.648438 C 186.988281 78.894531 187.160156 75.136719 187.160156 70.695312 C 181.695312 71.210938 176.398438 71.210938 171.449219 72.0625 C 130.292969 78.894531 100.410156 101.09375 82.308594 138.660156 C 72.746094 158.640625 69.671875 179.984375 72.746094 202.1875 C 77.1875 234.972656 92.894531 261.269531 119.535156 280.910156 C 142.589844 297.8125 168.546875 304.984375 197.234375 302.9375 C 213.628906 301.742188 228.996094 296.960938 243.339844 289.277344 C 245.902344 287.910156 249.144531 286.886719 251.878906 287.054688 C 256.660156 287.226562 260.417969 291.152344 261.441406 295.59375 C 262.464844 300.546875 260.417969 305.5 255.804688 307.71875 C 247.609375 311.644531 239.582031 315.746094 231.046875 318.648438 C 198.429688 329.40625 166.15625 328.039062 134.5625 315.0625 C 107.410156 303.960938 86.238281 285.519531 70.527344 260.757812 C 59.425781 243.167969 52.59375 224.042969 50.375 203.382812 C 47.300781 175.203125 51.914062 148.222656 65.402344 122.949219 C 83.164062 89.652344 109.972656 67.109375 145.832031 55.328125 C 157.445312 51.570312 169.226562 49.523438 181.351562 49.007812 C 183.058594 49.007812 184.9375 48.839844 186.816406 48.667969 C 186.816406 45.082031 186.644531 41.835938 186.816406 38.421875 C 186.988281 36.542969 186.816406 34.835938 187.328125 33.128906 C 187.671875 32.273438 189.71875 32.445312 190.402344 33.128906 Z M 190.402344 33.128906 " fill-opacity="1" fill-rule="nonzero"/><path fill="#ffffff" d="M 213.96875 257 C 219.089844 259.222656 219.089844 259.222656 217.214844 264.34375 C 216.53125 266.5625 215.675781 268.785156 214.992188 271.175781 C 213.796875 274.589844 213.113281 274.933594 209.527344 273.734375 C 184.085938 265.027344 158.640625 256.488281 133.195312 247.78125 C 128.585938 246.242188 123.804688 244.535156 119.195312 243 C 116.632812 242.144531 116.121094 240.777344 116.972656 238.386719 C 117.828125 235.828125 118.851562 233.09375 119.707031 230.53125 C 121.242188 225.921875 121.585938 225.75 126.535156 227.289062 C 126.878906 226.433594 127.21875 225.410156 127.5625 224.554688 C 129.269531 219.605469 130.976562 214.480469 132.683594 209.359375 C 135.246094 201.503906 140.710938 197.0625 148.734375 195.355469 C 156.933594 193.648438 165.128906 191.769531 173.15625 189.890625 C 176.570312 189.207031 178.109375 184.085938 176.058594 181.351562 C 169.910156 173.839844 163.761719 166.324219 157.445312 158.980469 C 153.859375 154.714844 153.003906 149.761719 154.714844 144.636719 C 156.933594 137.808594 159.324219 130.976562 161.542969 124.144531 C 161.886719 122.949219 162.226562 121.753906 162.566406 120.558594 C 161.714844 120.21875 161.03125 119.878906 160.347656 119.707031 C 158.46875 119.023438 157.785156 117.65625 158.46875 115.949219 C 159.664062 112.363281 160.859375 108.949219 162.054688 105.363281 C 162.910156 102.800781 164.789062 103.140625 166.667969 103.824219 C 177.59375 107.582031 188.523438 111.167969 199.28125 114.925781 C 218.410156 121.414062 237.363281 127.902344 256.488281 134.390625 C 260.246094 135.757812 260.585938 136.441406 259.390625 140.199219 C 258.710938 142.246094 258.027344 144.296875 257.34375 146.34375 C 255.636719 151.46875 255.636719 151.46875 250.171875 150.273438 C 248.121094 156.25 246.074219 162.226562 244.023438 168.203125 C 243.167969 170.421875 242.484375 172.644531 241.460938 174.863281 C 238.386719 180.667969 233.265625 183.742188 227.117188 184.9375 C 219.089844 186.644531 211.234375 188.523438 203.210938 190.230469 C 199.113281 191.085938 197.40625 196.039062 200.136719 199.28125 C 206.113281 206.453125 212.089844 213.796875 218.238281 220.96875 C 222.164062 225.410156 222.847656 230.363281 221.140625 235.828125 C 218.75 243 216.359375 250 213.96875 257 Z M 205.257812 254.269531 C 207.480469 247.78125 209.359375 241.632812 211.75 235.484375 C 213.285156 231.386719 212.601562 228.3125 209.699219 225.066406 C 203.039062 217.554688 196.722656 209.527344 190.230469 201.84375 C 188.695312 199.964844 188.355469 198.085938 189.035156 195.695312 C 190.0625 192.792969 191.085938 190.0625 191.941406 186.988281 C 192.792969 184.085938 194.5 182.71875 197.574219 182.035156 C 206.796875 180.15625 216.1875 177.9375 225.410156 175.886719 C 230.191406 174.863281 233.09375 172.300781 234.632812 167.691406 C 236.679688 161.542969 238.730469 155.394531 240.777344 149.25 C 240.949219 148.566406 241.121094 147.882812 241.460938 146.859375 C 218.066406 139.003906 195.011719 130.976562 171.449219 123.121094 C 168.886719 130.804688 166.496094 138.320312 163.761719 145.664062 C 162.566406 149.078125 163.082031 151.808594 165.472656 154.542969 C 171.789062 161.886719 177.765625 169.570312 184.253906 176.742188 C 186.988281 179.816406 187.671875 182.71875 185.964844 186.304688 C 185.109375 188.355469 184.425781 190.402344 183.914062 192.453125 C 183.058594 195.695312 181.183594 197.234375 177.765625 197.917969 C 168.375 199.796875 159.152344 202.015625 149.933594 204.0625 C 146.859375 204.746094 143.785156 205.941406 142.589844 209.015625 C 139.6875 215.847656 137.464844 222.847656 134.90625 230.019531 C 158.640625 238.386719 181.695312 246.242188 205.257812 254.269531 Z M 205.257812 254.269531 " fill-opacity="1" fill-rule="nonzero"/><path fill="#ffffff" d="M 267.589844 277.152344 C 267.589844 269.636719 276.980469 259.734375 283.46875 259.5625 C 287.738281 259.390625 291.15625 261.269531 293.546875 265.027344 C 295.765625 268.953125 295.9375 273.054688 293.375 276.640625 C 291.15625 279.714844 288.421875 282.785156 285.519531 285.175781 C 282.105469 288.082031 278.003906 288.421875 274.078125 286.371094 C 269.636719 284.152344 267.589844 280.738281 267.589844 277.152344 Z M 267.589844 277.152344 " fill-opacity="1" fill-rule="nonzero"/><path fill="#ffffff" d="M 292.179688 239.582031 C 293.203125 235.144531 294.910156 229.851562 298.667969 225.75 C 302.082031 221.996094 307.71875 221.480469 311.988281 224.214844 C 316.257812 226.777344 318.476562 231.898438 316.941406 236.679688 C 315.746094 240.09375 314.378906 243.683594 312.5 246.753906 C 310.109375 251.023438 304.816406 252.730469 300.203125 251.367188 C 295.253906 249.828125 292.007812 245.558594 292.179688 239.582031 Z M 292.179688 239.582031 " fill-opacity="1" fill-rule="nonzero"/><path fill="#ffffff" d="M 325.992188 194.160156 C 325.820312 196.210938 325.648438 198.257812 325.476562 200.308594 C 324.625 206.113281 319.671875 210.210938 313.867188 209.871094 C 308.058594 209.527344 303.621094 204.917969 303.621094 198.941406 C 303.621094 195.867188 303.789062 192.621094 304.132812 189.550781 C 304.984375 183.402344 310.109375 179.472656 315.914062 179.816406 C 321.722656 180.328125 326.160156 185.109375 326.160156 191.085938 C 325.992188 192.28125 325.992188 193.136719 325.992188 194.160156 Z M 325.992188 194.160156 " fill-opacity="1" fill-rule="nonzero"/><path fill="#ffffff" d="M 274.417969 84.871094 C 274.417969 93.238281 265.199219 98.703125 257.855469 94.433594 C 254.953125 92.726562 252.21875 90.847656 249.660156 88.628906 C 245.21875 84.871094 244.535156 78.722656 247.78125 73.941406 C 251.023438 69.332031 257 67.792969 261.953125 70.527344 C 265.027344 72.234375 267.929688 74.28125 270.664062 76.503906 C 273.394531 78.722656 274.417969 81.625 274.417969 84.871094 Z M 274.417969 84.871094 " fill-opacity="1" fill-rule="nonzero"/><path fill="#ffffff" d="M 277.492188 109.972656 C 277.835938 105.363281 280.394531 101.261719 284.664062 99.554688 C 288.933594 97.847656 293.886719 98.703125 296.960938 102.289062 C 299.179688 104.851562 301.398438 107.753906 303.109375 110.828125 C 306.011719 115.609375 304.472656 121.925781 300.035156 125 C 295.421875 128.414062 289.105469 127.902344 285.347656 123.464844 C 283.128906 120.902344 281.078125 117.828125 279.199219 114.925781 C 278.175781 113.558594 278.003906 111.679688 277.492188 109.972656 Z M 277.492188 109.972656 " fill-opacity="1" fill-rule="nonzero"/><path fill="#ffffff" d="M 297.8125 149.417969 C 297.984375 142.757812 301.742188 138.320312 307.035156 137.296875 C 311.816406 136.441406 317.109375 139.003906 318.988281 143.613281 C 320.355469 146.859375 321.378906 150.273438 321.890625 153.6875 C 323.085938 159.835938 319.5 164.960938 313.695312 166.496094 C 307.890625 167.863281 302.425781 164.789062 300.546875 158.980469 C 299.179688 155.226562 298.328125 151.640625 297.8125 149.417969 Z M 297.8125 149.417969 " fill-opacity="1" fill-rule="nonzero"/></svg>