<svg xmlns="http://www.w3.org/2000/svg" xmlns:xlink="http://www.w3.org/1999/xlink" width="500" zoomAndPan="magnify" viewBox="0 0 375 374.999991" height="500" preserveAspectRatio="xMidYMid meet" version="1.2"><defs><clipPath id="cbea70b987"><path d="M 107 324 L 145 324 L 145 335.0625 L 107 335.0625 Z M 107 324 "/></clipPath><clipPath id="83b524b346"><path d="M 242 323 L 280 323 L 280 335.0625 L 242 335.0625 Z M 242 323 "/></clipPath></defs><g id="c7a74e0d39"><path style=" stroke:none;fill-rule:nonzero;fill:#d8f0fb;fill-opacity:1;" d="M 0.0234375 -0.0351562 L 375.019531 -0.0351562 L 375.019531 374.957031 L 0.0234375 374.957031 Z M 0.0234375 -0.0351562 "/><path style=" stroke:none;fill-rule:evenodd;fill:#b0e2f4;fill-opacity:1;" d="M 374.972656 210.601562 L 374.972656 250.125 C 372.21875 251.039062 369.226562 251.535156 366.101562 251.535156 C 358.386719 251.535156 351.5 248.5 346.96875 243.757812 C 342.339844 251.023438 333.34375 255.945312 323.003906 255.945312 C 312.042969 255.945312 302.59375 250.410156 298.261719 242.425781 C 294.726562 244.429688 290.488281 245.601562 285.925781 245.601562 C 281.765625 245.601562 277.875 244.625 274.535156 242.925781 C 270.382812 252.179688 259.90625 258.742188 247.648438 258.742188 C 238.375 258.742188 230.125 254.988281 224.859375 249.148438 C 220.335938 253.539062 213.71875 256.300781 206.347656 256.300781 C 197.730469 256.300781 190.140625 252.511719 185.714844 246.777344 C 179.195312 254.050781 168.945312 258.742188 157.414062 258.742188 C 151.21875 258.742188 145.390625 257.390625 140.3125 255.011719 C 135.699219 258.886719 129.371094 261.28125 122.390625 261.28125 C 112.210938 261.28125 103.410156 256.179688 99.292969 248.800781 C 93.96875 253.234375 86.710938 255.96875 78.699219 255.96875 C 68.601562 255.96875 59.679688 251.621094 54.355469 244.988281 C 50.261719 249.4375 43.910156 252.292969 36.785156 252.292969 C 30.527344 252.292969 24.867188 250.085938 20.804688 246.535156 C 15.988281 250.125 9.695312 252.292969 2.8125 252.292969 C 1.871094 252.292969 0.941406 252.253906 0.0273438 252.179688 L 0.0273438 205.351562 C 0.941406 205.265625 1.871094 205.230469 2.8125 205.230469 C 12.625 205.230469 21.242188 209.640625 26.101562 216.28125 C 29.273438 214.800781 32.914062 213.953125 36.785156 213.953125 C 42.8125 213.953125 48.289062 216 52.316406 219.324219 C 57.164062 211.054688 67.15625 205.378906 78.699219 205.378906 C 91.515625 205.378906 102.421875 212.382812 106.507812 222.164062 C 110.875 219.195312 116.386719 217.425781 122.390625 217.425781 C 122.933594 217.425781 123.464844 217.441406 123.992188 217.464844 C 129.058594 205.871094 142.113281 197.617188 157.414062 197.617188 C 173.117188 197.617188 186.453125 206.308594 191.214844 218.394531 C 195.398438 215.613281 200.648438 213.953125 206.347656 213.953125 C 213.183594 213.953125 219.371094 216.332031 223.839844 220.175781 C 229.03125 213.667969 237.753906 209.390625 247.648438 209.390625 C 255.191406 209.390625 262.066406 211.875 267.203125 215.945312 C 271.199219 210.71875 278.09375 207.261719 285.925781 207.261719 C 293.554688 207.261719 300.292969 210.53125 304.324219 215.523438 C 309.210938 211.597656 315.773438 209.1875 323.003906 209.1875 C 332.171875 209.1875 340.292969 213.070312 345.238281 219.011719 C 349.621094 213.105469 357.324219 209.1875 366.101562 209.1875 C 369.226562 209.1875 372.21875 209.6875 374.972656 210.601562 Z M 374.972656 210.601562 "/><path style=" stroke:none;fill-rule:evenodd;fill:#8aad3e;fill-opacity:1;" d="M 375.019531 258.917969 L 375.019531 224.691406 C 368.953125 220.101562 361.394531 217.378906 353.203125 217.378906 C 338.683594 217.378906 326.167969 225.925781 320.394531 238.257812 C 316.699219 234.988281 311.839844 233.003906 306.515625 233.003906 C 296.296875 233.003906 287.785156 240.320312 285.933594 250 C 280.882812 241.425781 271.554688 235.671875 260.882812 235.671875 C 251.828125 235.671875 243.738281 239.8125 238.410156 246.308594 C 235.105469 241.167969 229.335938 237.765625 222.773438 237.765625 C 215.847656 237.765625 209.804688 241.558594 206.613281 247.175781 C 203.828125 240.425781 197.183594 235.671875 189.425781 235.671875 C 185.257812 235.671875 181.40625 237.042969 178.308594 239.363281 C 173.167969 235.378906 166.710938 233.003906 159.703125 233.003906 C 153.605469 233.003906 147.925781 234.800781 143.167969 237.890625 C 138.925781 232.042969 132.039062 228.238281 124.261719 228.238281 C 113.53125 228.238281 104.496094 235.476562 101.765625 245.335938 C 97.332031 240.894531 91.207031 238.148438 84.4375 238.148438 C 78.40625 238.148438 72.882812 240.332031 68.617188 243.945312 C 65.734375 240.40625 61.34375 238.148438 56.425781 238.148438 C 50.230469 238.148438 44.871094 241.734375 42.308594 246.945312 C 38.410156 242.707031 32.816406 240.054688 26.605469 240.054688 C 19.410156 240.054688 13.046875 243.613281 9.179688 249.070312 C 6.785156 246.777344 3.574219 245.324219 0.0234375 245.207031 L 0.0234375 258.917969 L 199.152344 284.550781 Z M 375.019531 258.917969 "/><path style=" stroke:none;fill-rule:evenodd;fill:#a4c839;fill-opacity:1;" d="M 375.019531 240.886719 L 375.019531 298.667969 C 368.953125 303.257812 361.394531 305.980469 353.203125 305.980469 C 338.683594 305.980469 326.167969 297.433594 320.394531 285.101562 C 316.699219 288.371094 311.839844 290.355469 306.515625 290.355469 C 296.296875 290.355469 287.785156 283.039062 285.933594 273.359375 C 280.882812 281.933594 271.554688 287.691406 260.882812 287.691406 C 251.828125 287.691406 243.738281 283.546875 238.410156 277.050781 C 235.105469 282.191406 229.335938 285.59375 222.773438 285.59375 C 215.847656 285.59375 209.804688 281.800781 206.613281 276.183594 C 203.828125 282.9375 197.183594 287.691406 189.425781 287.691406 C 185.257812 287.691406 181.40625 286.316406 178.308594 283.996094 C 173.167969 287.980469 166.710938 290.355469 159.703125 290.355469 C 153.605469 290.355469 147.925781 288.558594 143.167969 285.46875 C 138.925781 291.316406 132.039062 295.121094 124.261719 295.121094 C 113.53125 295.121094 104.496094 287.882812 101.765625 278.023438 C 97.332031 282.464844 91.207031 285.210938 84.4375 285.210938 C 78.40625 285.210938 72.882812 283.03125 68.617188 279.414062 C 65.734375 282.953125 61.34375 285.210938 56.425781 285.210938 C 50.230469 285.210938 44.871094 281.625 42.308594 276.414062 C 38.410156 280.652344 32.816406 283.304688 26.605469 283.304688 C 19.410156 283.304688 13.046875 279.742188 9.179688 274.285156 C 6.785156 276.585938 3.574219 278.035156 0.0234375 278.152344 L 0.0234375 250.351562 C 2.738281 250.441406 5.253906 251.308594 7.355469 252.738281 C 10.796875 245.574219 18.125 240.625 26.605469 240.625 C 36.574219 240.625 44.945312 247.460938 47.289062 256.699219 C 49.863281 254.855469 53.019531 253.773438 56.425781 253.773438 C 57.9375 253.773438 59.398438 253.984375 60.78125 254.382812 C 63.578125 243.9375 73.105469 236.242188 84.4375 236.242188 C 95.925781 236.242188 105.566406 244.160156 108.207031 254.835938 C 112.390625 250.871094 118.039062 248.4375 124.261719 248.4375 C 126.664062 248.4375 128.984375 248.800781 131.167969 249.476562 C 135.441406 237.859375 146.601562 229.574219 159.703125 229.574219 C 173.199219 229.574219 184.640625 238.375 188.605469 250.550781 C 188.878906 250.539062 189.152344 250.53125 189.425781 250.53125 C 196.355469 250.53125 202.394531 254.324219 205.589844 259.945312 C 208.371094 253.191406 215.015625 248.4375 222.773438 248.4375 C 226.445312 248.4375 229.867188 249.5 232.746094 251.335938 C 235.980469 238.820312 247.351562 229.574219 260.882812 229.574219 C 276.269531 229.574219 288.859375 241.53125 289.871094 256.660156 C 293.703125 251.660156 299.734375 248.4375 306.515625 248.4375 C 311.964844 248.4375 316.921875 250.511719 320.648438 253.917969 C 326.53125 241.871094 338.894531 233.574219 353.203125 233.574219 C 361.394531 233.574219 368.953125 236.296875 375.019531 240.886719 Z M 375.019531 240.886719 "/><path style=" stroke:none;fill-rule:nonzero;fill:#c4da5b;fill-opacity:1;" d="M 0.0234375 264.441406 L 375.019531 264.441406 L 375.019531 374.957031 L 0.0234375 374.957031 Z M 0.0234375 264.441406 "/><path style=" stroke:none;fill-rule:evenodd;fill:#ffffff;fill-opacity:1;" d="M 343.964844 40.71875 L 343.390625 40.816406 L 333.351562 42.507812 L 331.835938 46.699219 C 330.136719 51.382812 326.078125 54.8125 321.175781 55.710938 C 316.28125 56.617188 311.269531 54.851562 308.011719 51.082031 L 307.0625 52.796875 C 303.527344 59.15625 296.765625 63.039062 289.492188 62.878906 C 282.21875 62.714844 275.632812 58.542969 272.378906 52.035156 L 270.664062 53.371094 C 266.503906 56.609375 260.929688 57.394531 256.027344 55.433594 C 251.125 53.476562 247.628906 49.066406 246.851562 43.839844 L 226.902344 40.816406 L 226.191406 40.710938 L 226.765625 40.613281 L 236.804688 38.921875 L 238.324219 34.730469 C 240.03125 30.046875 244.078125 26.617188 248.980469 25.71875 C 253.882812 24.8125 258.890625 26.578125 262.144531 30.347656 L 263.097656 28.632812 C 266.628906 22.273438 273.398438 18.394531 280.664062 18.550781 C 287.9375 18.710938 294.523438 22.886719 297.777344 29.398438 L 299.492188 28.058594 C 303.664062 24.820312 309.230469 24.035156 314.128906 26 C 319.03125 27.953125 322.53125 32.367188 323.308594 37.59375 L 343.253906 40.613281 Z M 343.964844 40.71875 "/><path style=" stroke:none;fill-rule:evenodd;fill:#ffffff;fill-opacity:1;" d="M 128.917969 101.703125 L 128.542969 101.769531 L 121.976562 102.875 L 120.984375 105.617188 C 119.871094 108.679688 117.21875 110.925781 114.011719 111.511719 C 110.808594 112.105469 107.527344 110.949219 105.398438 108.484375 L 104.773438 109.605469 C 102.460938 113.765625 98.039062 116.304688 93.28125 116.203125 C 88.523438 116.09375 84.214844 113.367188 82.082031 109.105469 L 80.960938 109.980469 C 78.238281 112.101562 74.59375 112.613281 71.382812 111.328125 C 68.175781 110.050781 65.890625 107.164062 65.378906 103.742188 L 52.328125 101.765625 L 51.867188 101.699219 L 52.242188 101.632812 L 58.808594 100.527344 L 59.800781 97.785156 C 60.917969 94.71875 63.566406 92.476562 66.773438 91.890625 C 69.980469 91.296875 73.257812 92.453125 75.386719 94.917969 L 76.011719 93.796875 C 78.324219 89.636719 82.75 87.097656 87.503906 87.199219 C 92.261719 87.304688 96.570312 90.035156 98.703125 94.296875 L 99.824219 93.421875 C 102.550781 91.300781 106.191406 90.789062 109.398438 92.074219 C 112.605469 93.351562 114.894531 96.238281 115.402344 99.65625 L 128.453125 101.632812 Z M 128.917969 101.703125 "/><path style=" stroke:none;fill-rule:evenodd;fill:#ffffff;fill-opacity:1;" d="M 37.59375 41.867188 L 38.304688 41.972656 L 36.960938 41.972656 Z M 37.59375 41.867188 "/><path style=" stroke:none;fill-rule:evenodd;fill:#ffffff;fill-opacity:1;" d="M 156 41.972656 L 154.792969 41.972656 L 155.367188 41.875 Z M 156 41.972656 "/><path style=" stroke:none;fill-rule:nonzero;fill:#3a95f9;fill-opacity:1;" d="M 81.769531 160.824219 L 136.546875 166.746094 C 137.085938 166.804688 137.621094 166.886719 138.15625 167 C 138.6875 167.109375 139.214844 167.25 139.734375 167.410156 C 140.253906 167.574219 140.761719 167.761719 141.265625 167.976562 C 141.765625 168.1875 142.253906 168.425781 142.730469 168.6875 C 143.207031 168.949219 143.671875 169.234375 144.121094 169.539062 C 144.570312 169.847656 145.003906 170.175781 145.421875 170.523438 C 145.839844 170.875 146.238281 171.242188 146.621094 171.632812 C 147 172.019531 147.363281 172.429688 147.703125 172.851562 C 148.046875 173.277344 148.367188 173.71875 148.664062 174.171875 C 148.960938 174.628906 149.238281 175.097656 149.488281 175.582031 C 149.742188 176.0625 149.96875 176.558594 150.171875 177.0625 C 150.375 177.570312 150.554688 178.082031 150.707031 178.605469 C 150.859375 179.128906 150.988281 179.65625 151.089844 180.191406 C 151.191406 180.730469 151.265625 181.269531 151.3125 181.808594 C 151.359375 182.351562 151.382812 182.898438 151.378906 183.441406 C 151.371094 183.988281 151.339844 184.53125 151.28125 185.070312 L 145.464844 239.058594 C 145.40625 239.597656 145.320312 240.136719 145.207031 240.671875 C 145.097656 241.203125 144.960938 241.730469 144.796875 242.25 C 144.636719 242.769531 144.445312 243.28125 144.234375 243.78125 C 144.019531 244.285156 143.785156 244.773438 143.523438 245.25 C 143.261719 245.730469 142.976562 246.195312 142.671875 246.644531 C 142.367188 247.09375 142.039062 247.527344 141.6875 247.945312 C 141.339844 248.363281 140.96875 248.765625 140.582031 249.144531 C 140.195312 249.527344 139.789062 249.890625 139.363281 250.230469 C 138.941406 250.574219 138.5 250.894531 138.042969 251.191406 C 137.589844 251.488281 137.121094 251.765625 136.636719 252.019531 C 136.15625 252.269531 135.664062 252.5 135.15625 252.703125 C 134.652344 252.90625 134.140625 253.085938 133.617188 253.238281 C 133.09375 253.390625 132.566406 253.519531 132.03125 253.621094 C 131.496094 253.722656 130.960938 253.796875 130.417969 253.84375 C 129.875 253.890625 129.332031 253.914062 128.789062 253.910156 C 128.242188 253.902344 127.699219 253.871094 127.160156 253.8125 L 72.382812 247.894531 C 71.84375 247.835938 71.304688 247.75 70.773438 247.640625 C 70.238281 247.527344 69.714844 247.390625 69.195312 247.226562 C 68.675781 247.066406 68.164062 246.875 67.664062 246.664062 C 67.164062 246.449219 66.675781 246.214844 66.195312 245.953125 C 65.71875 245.691406 65.257812 245.40625 64.804688 245.097656 C 64.355469 244.792969 63.921875 244.464844 63.503906 244.113281 C 63.089844 243.765625 62.6875 243.394531 62.308594 243.007812 C 61.925781 242.617188 61.566406 242.210938 61.222656 241.785156 C 60.882812 241.363281 60.5625 240.921875 60.265625 240.464844 C 59.96875 240.011719 59.691406 239.542969 59.441406 239.058594 C 59.1875 238.574219 58.960938 238.082031 58.757812 237.574219 C 58.554688 237.070312 58.375 236.554688 58.222656 236.035156 C 58.066406 235.511719 57.941406 234.980469 57.839844 234.445312 C 57.738281 233.910156 57.664062 233.371094 57.617188 232.828125 C 57.566406 232.285156 57.546875 231.742188 57.550781 231.199219 C 57.554688 230.652344 57.585938 230.109375 57.644531 229.566406 L 63.464844 175.582031 C 63.523438 175.039062 63.609375 174.503906 63.71875 173.96875 C 63.832031 173.4375 63.96875 172.910156 64.128906 172.390625 C 64.292969 171.867188 64.480469 171.359375 64.695312 170.855469 C 64.90625 170.355469 65.144531 169.867188 65.40625 169.386719 C 65.667969 168.910156 65.949219 168.445312 66.257812 167.996094 C 66.5625 167.542969 66.890625 167.109375 67.238281 166.691406 C 67.589844 166.273438 67.957031 165.875 68.347656 165.492188 C 68.734375 165.113281 69.140625 164.75 69.566406 164.40625 C 69.988281 164.066406 70.429688 163.746094 70.882812 163.449219 C 71.339844 163.148438 71.808594 162.875 72.289062 162.621094 C 72.773438 162.371094 73.265625 162.140625 73.769531 161.9375 C 74.273438 161.734375 74.789062 161.554688 75.3125 161.402344 C 75.832031 161.25 76.363281 161.121094 76.894531 161.019531 C 77.429688 160.917969 77.96875 160.84375 78.511719 160.796875 C 79.054688 160.746094 79.597656 160.726562 80.140625 160.730469 C 80.683594 160.734375 81.226562 160.765625 81.769531 160.824219 Z M 81.769531 160.824219 "/><path style=" stroke:none;fill-rule:nonzero;fill:#ff9e71;fill-opacity:1;" d="M 158.085938 210.53125 C 167.613281 217.25 190.253906 233.816406 190.253906 233.816406 C 190.253906 233.816406 185.910156 245.746094 181.15625 247.609375 C 161.804688 239.285156 140.753906 230.363281 139.386719 222.332031 C 137.609375 211.898438 152.050781 206.273438 158.085938 210.53125 Z M 158.085938 210.53125 "/><path style=" stroke:none;fill-rule:nonzero;fill:#ff9e71;fill-opacity:1;" d="M 181.984375 233.097656 C 185.6875 233.503906 192.113281 232.648438 194.324219 231.242188 C 196.539062 229.832031 198.984375 236.046875 193.476562 237.789062 C 187.972656 239.527344 183.550781 244.207031 180.957031 239.382812 C 178.359375 234.558594 180.179688 231.019531 181.984375 233.097656 Z M 181.984375 233.097656 "/><path style=" stroke:none;fill-rule:nonzero;fill:#ff9e71;fill-opacity:1;" d="M 192.011719 237.035156 C 194.921875 237.742188 197.675781 238.054688 200.75 238.957031 C 203.824219 239.859375 203.972656 244.253906 198.125 243.417969 C 192.28125 242.582031 186.273438 241.546875 186.273438 241.546875 C 186.273438 241.546875 186.554688 235.265625 192.011719 237.035156 Z M 192.011719 237.035156 "/><path style=" stroke:none;fill-rule:nonzero;fill:#ff9e71;fill-opacity:1;" d="M 189.980469 239.773438 C 192.726562 241.027344 197.597656 242.660156 200.476562 244.144531 C 203.355469 245.625 202.804688 249.984375 197.191406 248.035156 C 191.574219 246.082031 183.621094 243.109375 183.621094 243.109375 C 183.621094 243.109375 184.894531 236.972656 189.980469 239.773438 Z M 189.980469 239.773438 "/><path style=" stroke:none;fill-rule:nonzero;fill:#ff9e71;fill-opacity:1;" d="M 189.769531 243.527344 C 192.238281 245.347656 194.691406 246.746094 197.25 248.816406 C 199.804688 250.890625 198.496094 255.054688 193.34375 251.933594 C 188.191406 248.8125 182.949219 245.441406 182.949219 245.441406 C 182.949219 245.441406 185.285156 239.683594 189.765625 243.527344 Z M 189.769531 243.527344 "/><path style=" stroke:none;fill-rule:nonzero;fill:#ff9e71;fill-opacity:1;" d="M 184.171875 243.691406 C 186.210938 246.078125 188.316406 248.039062 190.390625 250.6875 C 192.460938 253.339844 190.351562 257.089844 185.960938 252.78125 C 181.574219 248.476562 177.152344 243.90625 177.152344 243.90625 C 177.152344 243.90625 180.582031 238.847656 184.171875 243.691406 Z M 184.171875 243.691406 "/><path style="fill:none;stroke-width:13;stroke-linecap:round;stroke-linejoin:round;stroke:#56302c;stroke-opacity:1;stroke-miterlimit:4;" d="M 1105.27446 1049.183819 C 1103.059762 1053.743001 1099.330933 1057.557367 1094.811141 1059.859528 C 1090.268751 1062.184259 1085.003193 1062.974217 1080.008823 1062.093978 " transform="matrix(0.172851,0,0,0.173071,2.350776,56.248672)"/><path style="fill:none;stroke-width:13;stroke-linecap:round;stroke-linejoin:round;stroke:#56302c;stroke-opacity:1;stroke-miterlimit:4;" d="M 1120.867742 1079.473039 C 1112.257538 1094.143675 1098.042793 1105.428779 1081.839339 1110.484506 " transform="matrix(0.172851,0,0,0.173071,2.350776,56.248672)"/><path style=" stroke:none;fill-rule:nonzero;fill:#ff9e71;fill-opacity:1;" d="M 82.066406 168.09375 C 72.761719 163.703125 66.460938 160.257812 56.964844 155.269531 C 46.613281 149.835938 32.148438 165.085938 41.878906 172.476562 C 53.140625 181.023438 74.984375 189.460938 74.984375 189.460938 C 74.984375 189.460938 95.308594 174.339844 82.066406 168.09375 Z M 82.066406 168.09375 "/><path style=" stroke:none;fill-rule:nonzero;fill:#ffffff;fill-opacity:1;" d="M 98.46875 168.707031 C 98.46875 168.707031 88.40625 169.433594 65.359375 156.25 C 53.484375 169.992188 51.933594 189.191406 51.933594 189.191406 L 84.640625 199.339844 C 84.640625 199.339844 99.488281 178.597656 98.46875 168.707031 Z M 98.46875 168.707031 "/><path style=" stroke:none;fill-rule:nonzero;fill:#ff9e71;fill-opacity:1;" d="M 53.699219 153.457031 C 44.675781 146.074219 22.648438 128.691406 22.648438 128.691406 C 22.648438 128.691406 12.339844 136.089844 11.828125 141.175781 C 25.039062 157.597656 39.28125 175.503906 47.375 174.664062 C 57.890625 173.570312 59.417969 158.132812 53.699219 153.453125 Z M 53.699219 153.457031 "/><path style=" stroke:none;fill-rule:nonzero;fill:#ff9e71;fill-opacity:1;" d="M 25.566406 136.476562 C 24.179688 133.011719 23.273438 126.585938 24.035156 124.074219 C 24.796875 121.558594 18.160156 120.875 17.964844 126.652344 C 17.769531 132.429688 14.457031 137.949219 19.796875 139.15625 C 25.136719 140.363281 28.050781 137.65625 25.566406 136.476562 Z M 25.566406 136.476562 "/><path style=" stroke:none;fill-rule:nonzero;fill:#ff9e71;fill-opacity:1;" d="M 19.082031 127.863281 C 17.621094 125.246094 16.578125 122.671875 14.882812 119.953125 C 13.191406 117.230469 8.925781 118.269531 11.300781 123.683594 C 13.675781 129.09375 16.289062 134.613281 16.289062 134.613281 C 16.289062 134.613281 22.253906 132.648438 19.082031 127.863281 Z M 19.082031 127.863281 "/><path style=" stroke:none;fill-rule:nonzero;fill:#ff9e71;fill-opacity:1;" d="M 16.996094 130.558594 C 15.050781 128.246094 12.167969 123.988281 9.96875 121.609375 C 7.769531 119.230469 3.722656 120.9375 7.109375 125.824219 C 10.496094 130.714844 15.496094 137.589844 15.496094 137.589844 C 15.496094 137.589844 21.058594 134.707031 16.996094 130.558594 Z M 16.996094 130.558594 "/><path style=" stroke:none;fill-rule:nonzero;fill:#ff9e71;fill-opacity:1;" d="M 13.441406 131.773438 C 11.027344 129.878906 9.023438 127.886719 6.34375 125.980469 C 3.660156 124.070312 0.00390625 126.457031 4.390625 130.585938 C 8.777344 134.714844 13.429688 138.863281 13.429688 138.863281 C 13.429688 138.863281 18.34375 135.0625 13.441406 131.773438 Z M 13.441406 131.773438 "/><path style=" stroke:none;fill-rule:nonzero;fill:#ff9e71;fill-opacity:1;" d="M 14.785156 137.214844 C 11.945312 135.890625 9.492188 134.382812 6.386719 133.097656 C 3.277344 131.8125 0.238281 134.859375 5.5625 137.929688 C 10.882812 141.003906 16.46875 144.039062 16.46875 144.039062 C 16.46875 144.039062 20.410156 139.371094 14.785156 137.214844 Z M 14.785156 137.214844 "/><path style="fill:none;stroke-width:13;stroke-linecap:round;stroke-linejoin:round;stroke:#56302c;stroke-opacity:1;stroke-miterlimit:4;" d="M 90.196995 407.287089 C 86.40037 410.65005 83.733693 415.276943 82.739338 420.264959 C 81.722385 425.230405 82.377755 430.534404 84.569854 435.116156 " transform="matrix(0.172851,0,0,0.173071,2.350776,56.248672)"/><path style="fill:none;stroke-width:13;stroke-linecap:round;stroke-linejoin:round;stroke:#56302c;stroke-opacity:1;stroke-miterlimit:4;" d="M 56.840931 400.425745 C 45.021675 412.658798 37.993399 429.360753 37.473623 446.35612 " transform="matrix(0.172851,0,0,0.173071,2.350776,56.248672)"/><path style=" stroke:none;fill-rule:nonzero;fill:#ff9e71;fill-opacity:1;" d="M 147.851562 189.933594 C 152.746094 198.992188 154.320312 204.5 160.320312 214.542969 C 166.320312 224.582031 147.933594 237.230469 142.511719 226.269531 C 137.089844 215.3125 126.9375 198.203125 126.9375 198.203125 C 126.9375 198.203125 140.882812 177.042969 147.851562 189.933594 Z M 147.851562 189.933594 "/><path style=" stroke:none;fill-rule:nonzero;fill:#ffffff;fill-opacity:1;" d="M 140.9375 179.070312 C 140.9375 179.070312 148.507812 183.84375 158.910156 208.296875 C 143.898438 218.507812 124.675781 217.824219 124.675781 217.824219 C 124.675781 217.824219 116.710938 173.667969 140.9375 179.070312 Z M 140.9375 179.070312 "/><path style=" stroke:none;fill-rule:nonzero;fill:#ff9e71;fill-opacity:1;" d="M 131.910156 329.140625 L 108.667969 329.140625 L 107.5625 315.667969 L 103.308594 263.910156 L 130.761719 263.910156 L 131.671875 315.667969 Z M 131.910156 329.140625 "/><path style=" stroke:none;fill-rule:nonzero;fill:#ff9e71;fill-opacity:1;" d="M 91.367188 268.699219 L 81.105469 287.421875 L 52.40625 298.925781 L 37.960938 304.714844 L 29.707031 282.957031 L 44.226562 276.023438 L 64.082031 266.539062 L 81.617188 243.007812 Z M 91.367188 268.699219 "/><path style=" stroke:none;fill-rule:nonzero;fill:#c11a1a;fill-opacity:1;" d="M 139.261719 293.039062 C 126.992188 296.054688 111.808594 296.777344 96.910156 294.558594 L 94.6875 276.023438 C 94.6875 276.023438 90.425781 284.234375 80.71875 290.878906 C 66.699219 286.480469 54.089844 279.015625 45.921875 267.875 L 50.402344 260.667969 L 66.375 234.976562 L 136.226562 234.976562 L 138.832031 284.84375 Z M 139.261719 293.039062 "/><path style=" stroke:none;fill-rule:nonzero;fill:#ffffff;fill-opacity:1;" d="M 140.957031 237.847656 C 138.972656 256.261719 60.140625 247.734375 62.125 229.324219 C 62.582031 228.714844 63.007812 227.96875 63.398438 227.109375 C 64.558594 224.566406 65.460938 221.011719 66.21875 216.910156 C 69.265625 200.378906 69.917969 175.019531 75.414062 171.984375 C 76.960938 171.128906 78.800781 170.453125 80.757812 169.925781 C 83.84375 169.09375 87.226562 168.617188 90.210938 168.34375 C 91.507812 168.226562 92.730469 168.148438 93.820312 168.097656 C 96.675781 167.960938 98.621094 168.003906 98.621094 168.003906 L 117.179688 170.011719 C 117.179688 170.011719 119.144531 170.378906 121.960938 171.058594 C 123.117188 171.335938 124.414062 171.664062 125.777344 172.039062 C 128.746094 172.855469 132.035156 173.894531 134.851562 175.117188 C 137.914062 176.441406 140.425781 177.980469 141.371094 179.671875 C 143.375 183.265625 140.757812 208.761719 140.101562 224.8125 C 139.925781 229.179688 139.890625 232.851562 140.140625 235.1875 C 140.292969 236.644531 140.554688 237.585938 140.957031 237.847656 Z M 140.957031 237.847656 "/><path style=" stroke:none;fill-rule:nonzero;fill:#3a95f9;fill-opacity:1;" d="M 140.140625 235.1875 C 134.382812 234.164062 127.621094 231.277344 125.972656 223.648438 C 124.433594 216.535156 124.457031 202.53125 124.878906 190.191406 C 124.96875 187.484375 125.082031 184.859375 125.199219 182.402344 C 125.285156 180.609375 125.375 178.90625 125.460938 177.328125 C 125.574219 175.339844 125.679688 173.554688 125.777344 172.039062 C 128.746094 172.855469 132.035156 173.894531 134.851562 175.117188 C 134.761719 177.171875 134.660156 179.664062 134.5625 182.414062 C 134.480469 184.84375 134.398438 187.476562 134.332031 190.191406 C 134.023438 203.039062 134.054688 217.722656 135.632812 221.457031 C 136.441406 223.363281 138.1875 224.371094 140.101562 224.8125 C 139.925781 229.179688 139.890625 232.851562 140.140625 235.1875 Z M 140.140625 235.1875 "/><path style=" stroke:none;fill-rule:nonzero;fill:#3a95f9;fill-opacity:1;" d="M 90.210938 168.34375 C 89.984375 170.84375 89.691406 173.902344 89.339844 177.28125 C 89.085938 179.726562 88.796875 182.335938 88.480469 185.027344 C 87.027344 197.285156 84.9375 211.136719 82.339844 217.933594 C 79.019531 226.625 69.539062 227.558594 63.398438 227.109375 C 64.558594 224.566406 65.460938 221.011719 66.21875 216.910156 C 68.808594 217.167969 71.667969 216.65625 73.121094 214.300781 C 75.25 210.851562 77.5 196.339844 79.132812 183.59375 C 79.480469 180.898438 79.796875 178.28125 80.082031 175.867188 C 80.335938 173.695312 80.5625 171.6875 80.757812 169.925781 C 83.84375 169.09375 87.226562 168.617188 90.210938 168.34375 Z M 90.210938 168.34375 "/><path style="fill:none;stroke-width:8;stroke-linecap:round;stroke-linejoin:round;stroke:#56302c;stroke-opacity:1;stroke-miterlimit:4;" d="M 521.068757 657.41014 C 518.62807 732.907487 564.029379 746.923587 564.029379 746.923587 L 598.312001 716.97292 " transform="matrix(0.172851,0,0,0.173071,2.350776,56.248672)"/><path style="fill:none;stroke-width:8;stroke-linecap:round;stroke-linejoin:round;stroke:#56302c;stroke-opacity:1;stroke-miterlimit:4;" d="M 716.165575 687.270526 C 695.939506 760.036878 648.413894 759.833746 648.413894 759.833746 L 624.639789 720.990417 " transform="matrix(0.172851,0,0,0.173071,2.350776,56.248672)"/><path style=" stroke:none;fill-rule:nonzero;fill:#c11a1a;fill-opacity:1;" d="M 106.324219 182.574219 L 102.03125 186.644531 L 104.023438 191.773438 L 92.882812 220.265625 L 100.4375 232.613281 L 111.40625 222.628906 L 109.492188 192.613281 L 112.453125 188.242188 L 109.285156 183.027344 Z M 106.324219 182.574219 "/><path style=" stroke:none;fill-rule:nonzero;fill:#56302c;fill-opacity:1;" d="M 158.964844 143.378906 C 161.722656 132.75 161.050781 121.980469 164.273438 116 C 186.441406 74.867188 117.832031 40.335938 78.132812 78.898438 C 78.132812 78.898438 56.257812 76.085938 57.941406 110.386719 C 58.316406 118.074219 65.050781 137.375 65.050781 137.375 Z M 158.964844 143.378906 "/><path style=" stroke:none;fill-rule:nonzero;fill:#c11a1a;fill-opacity:1;" d="M 99.644531 159.355469 L 118.277344 160.546875 L 117.714844 169.355469 C 117.386719 174.503906 112.945312 178.414062 107.804688 178.085938 C 102.664062 177.757812 98.757812 173.3125 99.085938 168.164062 Z M 99.644531 159.355469 "/><path style=" stroke:none;fill-rule:nonzero;fill:#ff9e71;fill-opacity:1;" d="M 113.808594 79.730469 C 115.316406 79.828125 116.816406 79.996094 118.308594 80.234375 C 119.800781 80.476562 121.277344 80.785156 122.738281 81.164062 C 124.199219 81.546875 125.640625 81.996094 127.054688 82.511719 C 128.472656 83.03125 129.859375 83.613281 131.21875 84.261719 C 132.574219 84.914062 133.898438 85.625 135.183594 86.402344 C 136.46875 87.175781 137.714844 88.011719 138.917969 88.90625 C 140.121094 89.800781 141.273438 90.75 142.378906 91.753906 C 143.488281 92.757812 144.542969 93.808594 145.542969 94.914062 C 146.542969 96.019531 147.484375 97.167969 148.371094 98.359375 C 149.253906 99.554688 150.078125 100.789062 150.835938 102.058594 C 151.597656 103.332031 152.292969 104.636719 152.921875 105.972656 C 153.550781 107.308594 154.109375 108.675781 154.601562 110.066406 C 155.09375 111.457031 155.511719 112.867188 155.859375 114.296875 C 156.210938 115.726562 156.484375 117.167969 156.6875 118.625 C 156.890625 120.078125 157.019531 121.542969 157.074219 123.007812 C 157.128906 124.476562 157.109375 125.941406 157.015625 127.40625 C 156.921875 128.875 156.757812 130.328125 156.515625 131.777344 C 156.273438 133.226562 155.960938 134.660156 155.574219 136.078125 C 155.191406 137.496094 154.734375 138.894531 154.207031 140.265625 C 153.679688 141.640625 153.082031 142.988281 152.421875 144.304688 C 151.757812 145.621094 151.027344 146.902344 150.234375 148.148438 C 149.441406 149.394531 148.585938 150.601562 147.671875 151.765625 C 146.753906 152.929688 145.78125 154.046875 144.753906 155.121094 C 143.726562 156.191406 142.644531 157.210938 141.511719 158.179688 C 140.378906 159.144531 139.199219 160.058594 137.972656 160.914062 C 136.75 161.769531 135.484375 162.5625 134.175781 163.296875 C 132.871094 164.03125 131.53125 164.699219 130.15625 165.304688 C 128.78125 165.910156 127.378906 166.449219 125.953125 166.921875 C 124.523438 167.394531 123.070312 167.796875 121.601562 168.128906 C 120.132812 168.460938 118.648438 168.722656 117.148438 168.914062 C 115.652344 169.105469 114.148438 169.226562 112.636719 169.273438 C 111.125 169.320312 109.617188 169.296875 108.109375 169.199219 C 106.601562 169.105469 105.101562 168.9375 103.609375 168.695312 C 102.117188 168.457031 100.640625 168.148438 99.179688 167.765625 C 97.71875 167.386719 96.277344 166.9375 94.863281 166.421875 C 93.445312 165.902344 92.058594 165.320312 90.699219 164.667969 C 89.34375 164.019531 88.019531 163.308594 86.734375 162.53125 C 85.449219 161.757812 84.203125 160.921875 83 160.027344 C 81.796875 159.132812 80.644531 158.183594 79.539062 157.179688 C 78.429688 156.175781 77.375 155.121094 76.375 154.019531 C 75.375 152.914062 74.433594 151.765625 73.546875 150.570312 C 72.664062 149.378906 71.839844 148.144531 71.082031 146.875 C 70.320312 145.601562 69.625 144.296875 68.996094 142.960938 C 68.367188 141.621094 67.808594 140.257812 67.316406 138.867188 C 66.824219 137.476562 66.40625 136.066406 66.058594 134.636719 C 65.707031 133.207031 65.433594 131.765625 65.230469 130.308594 C 65.027344 128.851562 64.898438 127.390625 64.84375 125.921875 C 64.789062 124.457031 64.808594 122.988281 64.902344 121.523438 C 64.996094 120.058594 65.160156 118.601562 65.402344 117.152344 C 65.644531 115.707031 65.957031 114.273438 66.34375 112.855469 C 66.726562 111.433594 67.183594 110.039062 67.710938 108.664062 C 68.238281 107.292969 68.835938 105.945312 69.496094 104.628906 C 70.160156 103.3125 70.890625 102.03125 71.683594 100.785156 C 72.476562 99.539062 73.332031 98.332031 74.246094 97.167969 C 75.164062 96.003906 76.136719 94.882812 77.164062 93.8125 C 78.191406 92.742188 79.273438 91.722656 80.40625 90.753906 C 81.539062 89.785156 82.71875 88.875 83.945312 88.019531 C 85.167969 87.164062 86.433594 86.371094 87.742188 85.636719 C 89.046875 84.902344 90.386719 84.234375 91.761719 83.628906 C 93.136719 83.023438 94.539062 82.484375 95.964844 82.011719 C 97.394531 81.539062 98.847656 81.136719 100.316406 80.804688 C 101.785156 80.472656 103.269531 80.207031 104.769531 80.015625 C 106.265625 79.824219 107.769531 79.707031 109.28125 79.660156 C 110.792969 79.609375 112.300781 79.636719 113.808594 79.730469 Z M 113.808594 79.730469 "/><path style=" stroke:none;fill-rule:nonzero;fill:#56302c;fill-opacity:1;" d="M 150.726562 113.890625 C 143.269531 134.875 156.8125 140.253906 156.8125 140.253906 C 156.8125 140.253906 163.777344 132.730469 163.027344 117.839844 C 162.28125 102.953125 146.394531 75.070312 112.75 75.6875 C 79.109375 76.304688 58.355469 111.082031 64.625 135.917969 C 83.511719 133.988281 76.839844 110.132812 75.5625 105.617188 C 83.191406 110.960938 93.617188 110.414062 89.773438 97.335938 C 92.964844 102.648438 103.195312 109.636719 110.722656 108.382812 C 115.542969 107.582031 112.320312 96.867188 112.320312 96.867188 C 112.320312 96.867188 119.414062 108.679688 131.078125 109.6875 C 138.828125 110.355469 137.644531 101.78125 137.644531 101.78125 C 139.746094 109.546875 146.09375 113.246094 150.726562 113.890625 Z M 150.726562 113.890625 "/><path style=" stroke:none;fill-rule:nonzero;fill:#ff9e71;fill-opacity:1;" d="M 148.109375 133.234375 C 159.554688 126.605469 166.746094 135.890625 165.660156 144.480469 C 164.710938 151.964844 151.171875 161.773438 141 148.425781 C 130.832031 135.074219 148.109375 133.234375 148.109375 133.234375 Z M 148.109375 133.234375 "/><path style=" stroke:none;fill-rule:nonzero;fill:#c11a1a;fill-opacity:1;" d="M 149.09375 140.070312 C 151.46875 143.390625 149.089844 147.851562 149.089844 147.851562 C 155.683594 148.847656 161.40625 144.171875 157.988281 139.773438 C 154.570312 135.375 149.09375 140.070312 149.09375 140.070312 Z M 149.09375 140.070312 "/><path style=" stroke:none;fill-rule:nonzero;fill:#ff9e71;fill-opacity:1;" d="M 75.085938 128.566406 C 64.574219 120.53125 56.261719 128.824219 56.25 137.484375 C 56.242188 145.027344 68.421875 156.484375 80.207031 144.539062 C 91.988281 132.59375 75.085938 128.566406 75.085938 128.566406 Z M 75.085938 128.566406 "/><path style=" stroke:none;fill-rule:nonzero;fill:#c11a1a;fill-opacity:1;" d="M 73.242188 135.21875 C 70.460938 138.210938 72.257812 142.9375 72.257812 142.9375 C 65.589844 143.085938 60.507812 137.71875 64.457031 133.792969 C 68.40625 129.863281 73.242188 135.21875 73.242188 135.21875 Z M 73.242188 135.21875 "/><path style=" stroke:none;fill-rule:nonzero;fill:#ffffff;fill-opacity:1;" d="M 104.355469 125.984375 C 104.355469 126.5625 104.296875 127.136719 104.183594 127.703125 C 104.070312 128.273438 103.902344 128.824219 103.683594 129.359375 C 103.460938 129.894531 103.1875 130.40625 102.867188 130.886719 C 102.546875 131.367188 102.179688 131.8125 101.773438 132.222656 C 101.363281 132.632812 100.917969 133 100.4375 133.320312 C 99.953125 133.644531 99.445312 133.914062 98.910156 134.136719 C 98.375 134.359375 97.824219 134.527344 97.257812 134.640625 C 96.691406 134.753906 96.117188 134.808594 95.539062 134.808594 C 94.960938 134.808594 94.386719 134.753906 93.816406 134.640625 C 93.25 134.527344 92.699219 134.359375 92.164062 134.136719 C 91.628906 133.914062 91.121094 133.644531 90.640625 133.320312 C 90.160156 133 89.714844 132.632812 89.304688 132.222656 C 88.894531 131.8125 88.53125 131.367188 88.207031 130.886719 C 87.886719 130.40625 87.617188 129.894531 87.394531 129.359375 C 87.171875 128.824219 87.003906 128.273438 86.890625 127.703125 C 86.777344 127.136719 86.722656 126.5625 86.722656 125.984375 C 86.722656 125.402344 86.777344 124.828125 86.890625 124.261719 C 87.003906 123.691406 87.171875 123.140625 87.394531 122.605469 C 87.617188 122.070312 87.886719 121.558594 88.207031 121.078125 C 88.53125 120.597656 88.894531 120.152344 89.304688 119.742188 C 89.714844 119.332031 90.160156 118.964844 90.640625 118.644531 C 91.121094 118.320312 91.628906 118.050781 92.164062 117.828125 C 92.699219 117.605469 93.25 117.4375 93.816406 117.324219 C 94.386719 117.210938 94.960938 117.15625 95.539062 117.15625 C 96.117188 117.15625 96.691406 117.210938 97.257812 117.324219 C 97.824219 117.4375 98.375 117.605469 98.910156 117.828125 C 99.445312 118.050781 99.953125 118.320312 100.4375 118.644531 C 100.917969 118.964844 101.363281 119.332031 101.773438 119.742188 C 102.179688 120.152344 102.546875 120.597656 102.867188 121.078125 C 103.1875 121.558594 103.460938 122.070312 103.683594 122.605469 C 103.902344 123.140625 104.070312 123.691406 104.183594 124.261719 C 104.296875 124.828125 104.355469 125.402344 104.355469 125.984375 Z M 104.355469 125.984375 "/><path style=" stroke:none;fill-rule:nonzero;fill:#56302c;fill-opacity:1;" d="M 103.589844 126.203125 C 103.589844 126.597656 103.554688 126.988281 103.476562 127.375 C 103.398438 127.761719 103.285156 128.140625 103.132812 128.503906 C 102.984375 128.867188 102.796875 129.214844 102.578125 129.542969 C 102.359375 129.871094 102.113281 130.175781 101.832031 130.453125 C 101.554688 130.730469 101.25 130.980469 100.925781 131.199219 C 100.597656 131.417969 100.25 131.605469 99.886719 131.753906 C 99.523438 131.90625 99.148438 132.019531 98.761719 132.097656 C 98.375 132.175781 97.984375 132.214844 97.589844 132.214844 C 97.195312 132.214844 96.804688 132.175781 96.417969 132.097656 C 96.03125 132.019531 95.65625 131.90625 95.292969 131.753906 C 94.929688 131.605469 94.582031 131.417969 94.253906 131.199219 C 93.929688 130.980469 93.625 130.730469 93.347656 130.453125 C 93.066406 130.175781 92.820312 129.871094 92.601562 129.542969 C 92.382812 129.214844 92.195312 128.867188 92.046875 128.503906 C 91.894531 128.140625 91.78125 127.761719 91.703125 127.375 C 91.625 126.988281 91.589844 126.597656 91.589844 126.203125 C 91.589844 125.808594 91.625 125.417969 91.703125 125.03125 C 91.78125 124.644531 91.894531 124.269531 92.046875 123.90625 C 92.195312 123.539062 92.382812 123.195312 92.601562 122.867188 C 92.820312 122.539062 93.066406 122.234375 93.347656 121.953125 C 93.625 121.675781 93.929688 121.425781 94.253906 121.207031 C 94.582031 120.988281 94.929688 120.804688 95.292969 120.652344 C 95.65625 120.5 96.03125 120.386719 96.417969 120.308594 C 96.804688 120.234375 97.195312 120.195312 97.589844 120.195312 C 97.984375 120.195312 98.375 120.234375 98.761719 120.308594 C 99.148438 120.386719 99.523438 120.5 99.886719 120.652344 C 100.25 120.804688 100.597656 120.988281 100.925781 121.207031 C 101.25 121.425781 101.554688 121.675781 101.832031 121.953125 C 102.113281 122.234375 102.359375 122.539062 102.578125 122.867188 C 102.796875 123.195312 102.984375 123.539062 103.132812 123.90625 C 103.285156 124.269531 103.398438 124.644531 103.476562 125.03125 C 103.554688 125.417969 103.589844 125.808594 103.589844 126.203125 Z M 103.589844 126.203125 "/><path style=" stroke:none;fill-rule:nonzero;fill:#ffffff;fill-opacity:1;" d="M 138.332031 129.65625 C 138.332031 130.234375 138.277344 130.808594 138.164062 131.378906 C 138.050781 131.945312 137.882812 132.5 137.660156 133.035156 C 137.441406 133.570312 137.167969 134.078125 136.847656 134.5625 C 136.523438 135.042969 136.160156 135.488281 135.75 135.898438 C 135.339844 136.308594 134.894531 136.675781 134.414062 136.996094 C 133.933594 137.316406 133.425781 137.589844 132.890625 137.8125 C 132.355469 138.035156 131.804688 138.199219 131.238281 138.3125 C 130.667969 138.425781 130.097656 138.484375 129.515625 138.484375 C 128.9375 138.484375 128.363281 138.425781 127.796875 138.3125 C 127.230469 138.199219 126.679688 138.035156 126.144531 137.8125 C 125.609375 137.589844 125.101562 137.316406 124.621094 136.996094 C 124.136719 136.675781 123.691406 136.308594 123.285156 135.898438 C 122.875 135.488281 122.507812 135.042969 122.1875 134.5625 C 121.867188 134.078125 121.59375 133.570312 121.371094 133.035156 C 121.152344 132.5 120.984375 131.945312 120.871094 131.378906 C 120.757812 130.808594 120.703125 130.234375 120.703125 129.65625 C 120.703125 129.078125 120.757812 128.503906 120.871094 127.933594 C 120.984375 127.367188 121.152344 126.8125 121.371094 126.277344 C 121.59375 125.742188 121.867188 125.234375 122.1875 124.753906 C 122.507812 124.269531 122.875 123.824219 123.285156 123.414062 C 123.691406 123.003906 124.136719 122.640625 124.621094 122.316406 C 125.101562 121.996094 125.609375 121.722656 126.144531 121.503906 C 126.679688 121.28125 127.230469 121.113281 127.796875 121 C 128.363281 120.886719 128.9375 120.832031 129.515625 120.832031 C 130.097656 120.832031 130.667969 120.886719 131.238281 121 C 131.804688 121.113281 132.355469 121.28125 132.890625 121.503906 C 133.425781 121.722656 133.933594 121.996094 134.414062 122.316406 C 134.894531 122.640625 135.339844 123.003906 135.75 123.414062 C 136.160156 123.824219 136.523438 124.269531 136.847656 124.753906 C 137.167969 125.234375 137.441406 125.742188 137.660156 126.277344 C 137.882812 126.8125 138.050781 127.367188 138.164062 127.933594 C 138.277344 128.503906 138.332031 129.078125 138.332031 129.65625 Z M 138.332031 129.65625 "/><path style=" stroke:none;fill-rule:nonzero;fill:#56302c;fill-opacity:1;" d="M 133.46875 129.433594 C 133.46875 129.828125 133.429688 130.21875 133.351562 130.609375 C 133.273438 130.996094 133.160156 131.371094 133.011719 131.734375 C 132.859375 132.097656 132.675781 132.445312 132.457031 132.773438 C 132.238281 133.101562 131.988281 133.40625 131.710938 133.683594 C 131.429688 133.964844 131.128906 134.210938 130.800781 134.429688 C 130.472656 134.652344 130.125 134.835938 129.761719 134.988281 C 129.398438 135.136719 129.023438 135.25 128.636719 135.328125 C 128.25 135.40625 127.859375 135.445312 127.464844 135.445312 C 127.070312 135.445312 126.679688 135.40625 126.292969 135.328125 C 125.90625 135.25 125.53125 135.136719 125.167969 134.988281 C 124.804688 134.835938 124.457031 134.652344 124.132812 134.429688 C 123.804688 134.210938 123.5 133.964844 123.222656 133.683594 C 122.941406 133.40625 122.695312 133.101562 122.476562 132.773438 C 122.257812 132.445312 122.070312 132.097656 121.921875 131.734375 C 121.769531 131.371094 121.65625 130.996094 121.578125 130.609375 C 121.503906 130.21875 121.464844 129.828125 121.464844 129.433594 C 121.464844 129.039062 121.503906 128.648438 121.578125 128.261719 C 121.65625 127.875 121.769531 127.5 121.921875 127.136719 C 122.070312 126.769531 122.257812 126.425781 122.476562 126.097656 C 122.695312 125.769531 122.941406 125.464844 123.222656 125.1875 C 123.5 124.90625 123.804688 124.65625 124.132812 124.4375 C 124.457031 124.21875 124.804688 124.035156 125.167969 123.882812 C 125.53125 123.734375 125.90625 123.617188 126.292969 123.542969 C 126.679688 123.464844 127.070312 123.425781 127.464844 123.425781 C 127.859375 123.425781 128.25 123.464844 128.636719 123.542969 C 129.023438 123.617188 129.398438 123.734375 129.761719 123.882812 C 130.125 124.035156 130.472656 124.21875 130.800781 124.4375 C 131.128906 124.65625 131.429688 124.90625 131.710938 125.1875 C 131.988281 125.464844 132.238281 125.769531 132.457031 126.097656 C 132.675781 126.425781 132.859375 126.769531 133.011719 127.136719 C 133.160156 127.5 133.273438 127.875 133.351562 128.261719 C 133.429688 128.648438 133.46875 129.039062 133.46875 129.433594 Z M 133.46875 129.433594 "/><path style="fill:none;stroke-width:13;stroke-linecap:round;stroke-linejoin:round;stroke:#56302c;stroke-opacity:1;stroke-miterlimit:4;" d="M 571.532234 321.85885 C 546.289196 289.199758 504.119538 295.519416 488.142073 319.488978 " transform="matrix(0.172851,0,0,0.173071,2.350776,56.248672)"/><path style="fill:none;stroke-width:13;stroke-linecap:round;stroke-linejoin:round;stroke:#56302c;stroke-opacity:1;stroke-miterlimit:4;" d="M 721.340736 338.019119 C 752.97928 311.521694 792.821245 326.688874 803.307163 353.547422 " transform="matrix(0.172851,0,0,0.173071,2.350776,56.248672)"/><path style="fill:none;stroke-width:13;stroke-linecap:round;stroke-linejoin:round;stroke:#c11a1a;stroke-opacity:1;stroke-miterlimit:4;" d="M 618.402476 463.780321 C 632.187841 457.21239 642.470368 464.367146 646.018404 468.790907 " transform="matrix(0.172851,0,0,0.173071,2.350776,56.248672)"/><path style=" stroke:none;fill-rule:nonzero;fill:#56302c;fill-opacity:1;" d="M 119.199219 155.402344 C 116.808594 156.398438 113.722656 156.902344 109.992188 156.578125 C 106.015625 156.238281 102.949219 155.132812 100.75 153.648438 C 95.753906 150.28125 95.226562 144.949219 98.667969 142.050781 C 98.875 141.917969 99.140625 141.796875 99.460938 141.683594 C 103.9375 140.105469 118.816406 140.5625 123.089844 143.726562 C 123.300781 143.882812 123.484375 144.046875 123.640625 144.214844 C 126.636719 147.777344 124.914062 153.011719 119.199219 155.402344 Z M 119.199219 155.402344 "/><path style=" stroke:none;fill-rule:nonzero;fill:#ffffff;fill-opacity:1;" d="M 123.085938 143.726562 C 120.902344 145.875 116.070312 147.035156 110.636719 146.445312 C 105.597656 145.902344 101.382812 144 99.457031 141.683594 C 103.9375 140.105469 118.816406 140.5625 123.085938 143.726562 Z M 123.085938 143.726562 "/><path style=" stroke:none;fill-rule:nonzero;fill:#c11a1a;fill-opacity:1;" d="M 119.199219 155.402344 C 116.808594 156.398438 113.722656 156.902344 109.992188 156.578125 C 106.015625 156.238281 102.949219 155.132812 100.75 153.648438 C 102.613281 150.125 106.488281 147.914062 110.6875 148.367188 C 114.890625 148.824219 118.058594 151.683594 119.199219 155.402344 Z M 119.199219 155.402344 "/><path style=" stroke:none;fill-rule:nonzero;fill:#ffffff;fill-opacity:1;" d="M 44.226562 276.023438 L 52.40625 298.925781 L 37.960938 304.714844 L 29.707031 282.957031 Z M 44.226562 276.023438 "/><path style=" stroke:none;fill-rule:nonzero;fill:#ffffff;fill-opacity:1;" d="M 131.910156 329.140625 L 108.667969 329.140625 L 107.5625 315.667969 L 131.671875 315.667969 Z M 131.910156 329.140625 "/><g clip-rule="nonzero" clip-path="url(#cbea70b987)"><path style=" stroke:none;fill-rule:nonzero;fill:#56302c;fill-opacity:1;" d="M 107.664062 325.855469 L 107.664062 335.027344 L 144.828125 335.027344 L 131.882812 324.207031 Z M 107.664062 325.855469 "/></g><path style=" stroke:none;fill-rule:nonzero;fill:#56302c;fill-opacity:1;" d="M 32.417969 280.851562 L 23.855469 284.113281 L 37.054688 318.894531 L 42.5625 302.933594 Z M 32.417969 280.851562 "/><path style=" stroke:none;fill-rule:nonzero;fill:#3a95f9;fill-opacity:1;" d="M 251.808594 161.460938 L 306.902344 161.460938 C 307.445312 161.460938 307.988281 161.488281 308.53125 161.542969 C 309.070312 161.59375 309.609375 161.675781 310.144531 161.78125 C 310.675781 161.886719 311.203125 162.019531 311.726562 162.179688 C 312.246094 162.335938 312.757812 162.519531 313.261719 162.726562 C 313.761719 162.9375 314.253906 163.167969 314.734375 163.425781 C 315.214844 163.683594 315.679688 163.964844 316.132812 164.265625 C 316.585938 164.570312 317.023438 164.894531 317.441406 165.238281 C 317.863281 165.585938 318.265625 165.949219 318.652344 166.335938 C 319.035156 166.71875 319.402344 167.125 319.746094 167.542969 C 320.089844 167.964844 320.414062 168.402344 320.71875 168.855469 C 321.019531 169.308594 321.300781 169.777344 321.554688 170.257812 C 321.8125 170.738281 322.046875 171.230469 322.253906 171.734375 C 322.460938 172.234375 322.644531 172.75 322.800781 173.269531 C 322.960938 173.792969 323.09375 174.320312 323.199219 174.855469 C 323.304688 175.386719 323.382812 175.925781 323.4375 176.46875 C 323.492188 177.011719 323.519531 177.554688 323.519531 178.097656 L 323.519531 232.398438 C 323.519531 232.945312 323.492188 233.488281 323.4375 234.03125 C 323.382812 234.570312 323.304688 235.109375 323.199219 235.644531 C 323.09375 236.179688 322.960938 236.707031 322.800781 237.226562 C 322.644531 237.75 322.460938 238.261719 322.253906 238.765625 C 322.046875 239.269531 321.8125 239.761719 321.554688 240.242188 C 321.300781 240.722656 321.019531 241.1875 320.71875 241.640625 C 320.414062 242.09375 320.089844 242.53125 319.746094 242.953125 C 319.402344 243.375 319.035156 243.777344 318.652344 244.164062 C 318.265625 244.546875 317.863281 244.914062 317.441406 245.257812 C 317.023438 245.605469 316.585938 245.929688 316.132812 246.230469 C 315.679688 246.535156 315.214844 246.816406 314.734375 247.070312 C 314.253906 247.328125 313.761719 247.5625 313.261719 247.769531 C 312.757812 247.976562 312.246094 248.160156 311.726562 248.320312 C 311.203125 248.476562 310.675781 248.609375 310.144531 248.714844 C 309.609375 248.824219 309.070312 248.902344 308.53125 248.957031 C 307.988281 249.007812 307.445312 249.035156 306.902344 249.035156 L 251.808594 249.035156 C 251.261719 249.035156 250.71875 249.007812 250.179688 248.957031 C 249.636719 248.902344 249.097656 248.824219 248.566406 248.714844 C 248.03125 248.609375 247.503906 248.476562 246.984375 248.320312 C 246.464844 248.160156 245.953125 247.976562 245.449219 247.769531 C 244.945312 247.5625 244.453125 247.328125 243.976562 247.070312 C 243.496094 246.816406 243.027344 246.535156 242.574219 246.230469 C 242.125 245.929688 241.6875 245.605469 241.265625 245.257812 C 240.84375 244.914062 240.441406 244.546875 240.058594 244.164062 C 239.671875 243.777344 239.308594 243.375 238.964844 242.953125 C 238.617188 242.53125 238.292969 242.09375 237.992188 241.640625 C 237.6875 241.1875 237.410156 240.722656 237.152344 240.242188 C 236.898438 239.761719 236.664062 239.269531 236.457031 238.765625 C 236.246094 238.261719 236.066406 237.75 235.90625 237.226562 C 235.75 236.707031 235.617188 236.179688 235.511719 235.644531 C 235.40625 235.109375 235.324219 234.570312 235.269531 234.03125 C 235.21875 233.488281 235.191406 232.945312 235.191406 232.398438 L 235.191406 178.097656 C 235.191406 177.554688 235.21875 177.011719 235.269531 176.46875 C 235.324219 175.925781 235.40625 175.386719 235.511719 174.855469 C 235.617188 174.320312 235.75 173.792969 235.90625 173.269531 C 236.066406 172.75 236.246094 172.234375 236.457031 171.734375 C 236.664062 171.230469 236.898438 170.738281 237.152344 170.257812 C 237.410156 169.777344 237.6875 169.308594 237.992188 168.855469 C 238.292969 168.402344 238.617188 167.964844 238.964844 167.542969 C 239.308594 167.125 239.671875 166.71875 240.058594 166.335938 C 240.441406 165.949219 240.84375 165.585938 241.265625 165.238281 C 241.6875 164.894531 242.125 164.570312 242.574219 164.265625 C 243.027344 163.964844 243.496094 163.683594 243.976562 163.425781 C 244.453125 163.167969 244.945312 162.9375 245.449219 162.726562 C 245.953125 162.519531 246.464844 162.335938 246.984375 162.179688 C 247.503906 162.019531 248.03125 161.886719 248.566406 161.78125 C 249.097656 161.675781 249.636719 161.59375 250.179688 161.542969 C 250.71875 161.488281 251.261719 161.460938 251.808594 161.460938 Z M 251.808594 161.460938 "/><path style=" stroke:none;fill-rule:nonzero;fill:#ff9e71;fill-opacity:1;" d="M 231.523438 219.597656 C 223.558594 228.113281 204.046875 248.28125 204.046875 248.28125 C 204.046875 248.28125 192.84375 242.324219 191.660156 237.347656 C 202.566406 219.3125 211.855469 205.105469 220.5 201.296875 C 230.171875 197.035156 236.570312 214.199219 231.523438 219.597656 Z M 231.523438 219.597656 "/><path style=" stroke:none;fill-rule:nonzero;fill:#ff9e71;fill-opacity:1;" d="M 199.828125 238.289062 C 198.085938 238.9375 197.398438 239.941406 197.289062 241.214844 C 196.636719 240.773438 196.035156 240.515625 195.835938 240.441406 C 199.964844 237.59375 195.878906 233.890625 195.878906 233.890625 C 195.878906 233.890625 190.746094 237.644531 185.878906 241.402344 C 181.011719 245.15625 184.433594 247.769531 187.339844 246.082031 C 187.769531 245.832031 188.179688 245.578125 188.582031 245.328125 C 187.652344 246.449219 186.667969 247.644531 185.695312 248.839844 C 181.898438 253.515625 185.839844 255.390625 188.242188 253.144531 C 188.828125 252.59375 189.375 252.042969 189.898438 251.496094 C 189.597656 252.078125 189.304688 252.648438 189.023438 253.191406 C 186.316406 258.492188 190.554688 259.640625 192.417969 256.992188 C 192.679688 256.621094 192.949219 256.210938 193.222656 255.773438 C 192.367188 260.484375 196.277344 260.714844 197.511719 257.976562 C 198.492188 255.792969 199.128906 253.742188 199.84375 251.683594 C 201.226562 256.476562 207.070312 254.949219 206.03125 252.671875 C 204.945312 250.28125 204.988281 243.792969 205.902344 240.175781 C 208.207031 238.671875 204.960938 236.382812 199.828125 238.289062 Z M 195.210938 240.828125 C 195.386719 240.730469 195.554688 240.628906 195.707031 240.527344 C 195.648438 240.636719 195.546875 240.824219 195.410156 241.078125 C 195.34375 240.992188 195.277344 240.910156 195.210938 240.832031 Z M 195.210938 240.828125 "/><path style="fill:none;stroke-width:8;stroke-linecap:round;stroke-linejoin:round;stroke:#56302c;stroke-opacity:1;stroke-miterlimit:4;" d="M 1090.743329 1047.807036 C 1081.794141 1054.510388 1071.692406 1062.139119 1061.771463 1069.79042 C 1033.613159 1091.50296 1053.409848 1106.60243 1070.223473 1096.829529 C 1072.709359 1095.407606 1075.08225 1093.940543 1077.409943 1092.473479 C 1072.03139 1098.951129 1066.336452 1105.880183 1060.709312 1112.764097 C 1038.743123 1139.803206 1061.545473 1150.636906 1075.443833 1137.636466 C 1078.833677 1134.454067 1081.997531 1131.294238 1085.025792 1128.111838 C 1083.285672 1131.474799 1081.59075 1134.77005 1079.963625 1137.929879 C 1064.302546 1168.535082 1088.822417 1175.170723 1099.602121 1159.868122 C 1101.116251 1157.723952 1102.675579 1155.35408 1104.257507 1152.826217 C 1099.308334 1180.068458 1121.929893 1181.400101 1129.071164 1165.578385 C 1134.743503 1152.961638 1138.427133 1141.112278 1142.562743 1129.195208 C 1150.562775 1156.888854 1184.370818 1148.086473 1178.359495 1134.928041 C 1175.105245 1127.750715 1173.591114 1114.23116 1173.636312 1099.921648 " transform="matrix(0.172851,0,0,0.173071,2.350776,56.248672)"/><path style=" stroke:none;fill-rule:nonzero;fill:#ff9e71;fill-opacity:1;" d="M 254.761719 200.324219 C 246.914062 206.980469 241.847656 209.652344 233.265625 217.59375 C 224.683594 225.535156 208.550781 210.113281 218.148438 202.550781 C 227.746094 194.988281 242.382812 181.527344 242.382812 181.527344 C 242.382812 181.527344 265.929688 190.847656 254.761719 200.324219 Z M 254.761719 200.324219 "/><path style=" stroke:none;fill-rule:nonzero;fill:#ffffff;fill-opacity:1;" d="M 263.960938 191.316406 C 263.960938 191.316406 260.847656 199.714844 239.082031 214.929688 C 226.019531 202.316406 221.191406 190.738281 221.191406 190.738281 C 221.191406 190.738281 238.386719 177.269531 247.636719 174.125 C 259.53125 170.082031 264.136719 177.339844 263.960938 191.316406 Z M 263.960938 191.316406 "/><path style=" stroke:none;fill-rule:nonzero;fill:#ff9e71;fill-opacity:1;" d="M 337.453125 209.410156 C 345.128906 218.1875 363.238281 239.628906 363.238281 239.628906 C 363.238281 239.628906 356.210938 250.199219 351.148438 250.886719 C 334.300781 238.234375 315.941406 224.597656 316.5 216.46875 C 317.226562 205.910156 332.585938 203.847656 337.453125 209.410156 Z M 337.453125 209.410156 "/><path style=" stroke:none;fill-rule:nonzero;fill:#ff9e71;fill-opacity:1;" d="M 355.371094 236.976562 C 358.875 238.246094 365.320312 238.929688 367.800781 238.082031 C 370.285156 237.234375 371.195312 243.851562 365.4375 244.246094 C 359.679688 244.636719 354.28125 248.140625 352.894531 242.839844 C 351.507812 237.539062 354.105469 234.53125 355.371094 236.976562 Z M 355.371094 236.976562 "/><path style=" stroke:none;fill-rule:nonzero;fill:#ff9e71;fill-opacity:1;" d="M 364.191406 243.171875 C 366.851562 244.542969 369.453125 245.496094 372.230469 247.097656 C 375.003906 248.699219 374.113281 253.003906 368.628906 250.8125 C 363.144531 248.621094 357.550781 246.199219 357.550781 246.199219 C 357.550781 246.199219 359.304688 240.164062 364.191406 243.171875 Z M 364.191406 243.171875 "/><path style=" stroke:none;fill-rule:nonzero;fill:#ff9e71;fill-opacity:1;" d="M 361.570312 245.347656 C 363.945312 247.21875 368.296875 249.953125 370.746094 252.074219 C 373.195312 254.191406 371.632812 258.300781 366.632812 255.078125 C 361.636719 251.859375 354.605469 247.09375 354.605469 247.09375 C 354.605469 247.09375 357.289062 241.429688 361.570312 245.347656 Z M 361.570312 245.347656 "/><path style=" stroke:none;fill-rule:nonzero;fill:#ff9e71;fill-opacity:1;" d="M 360.480469 248.949219 C 362.453125 251.300781 364.507812 253.238281 366.507812 255.855469 C 368.503906 258.472656 366.25 262.210938 361.976562 257.964844 C 357.703125 253.71875 353.40625 249.207031 353.40625 249.207031 C 353.40625 249.207031 357.027344 244.160156 360.480469 248.949219 Z M 360.480469 248.949219 "/><path style=" stroke:none;fill-rule:nonzero;fill:#ff9e71;fill-opacity:1;" d="M 355.003906 247.789062 C 356.421875 250.585938 358.007812 252.992188 359.398438 256.054688 C 360.792969 259.117188 357.855469 262.265625 354.605469 257.046875 C 351.351562 251.824219 348.128906 246.339844 348.128906 246.339844 C 348.128906 246.339844 352.652344 242.234375 355.003906 247.789062 Z M 355.003906 247.789062 "/><path style="fill:none;stroke-width:13;stroke-linecap:round;stroke-linejoin:round;stroke:#56302c;stroke-opacity:1;stroke-miterlimit:4;" d="M 2100.080658 1086.402093 C 2096.849006 1090.306739 2092.306616 1093.150585 2087.380042 1094.324236 C 2082.43087 1095.497887 2077.120115 1095.023913 2072.464729 1092.992594 " transform="matrix(0.172851,0,0,0.173071,2.350776,56.248672)"/><path style="fill:none;stroke-width:13;stroke-linecap:round;stroke-linejoin:round;stroke:#56302c;stroke-opacity:1;stroke-miterlimit:4;" d="M 2108.080689 1119.490019 C 2096.261433 1131.723072 2079.809391 1139.329232 2062.837572 1140.435172 " transform="matrix(0.172851,0,0,0.173071,2.350776,56.248672)"/><path style=" stroke:none;fill-rule:nonzero;fill:#ff9e71;fill-opacity:1;" d="M 320.597656 184.347656 C 326.4375 192.828125 328.59375 198.136719 335.636719 207.476562 C 342.675781 216.8125 325.753906 231.363281 319.1875 221.046875 C 312.621094 210.734375 300.695312 194.820312 300.695312 194.820312 C 300.695312 194.820312 312.289062 172.28125 320.597656 184.347656 Z M 320.597656 184.347656 "/><path style=" stroke:none;fill-rule:nonzero;fill:#ffffff;fill-opacity:1;" d="M 312.558594 174.289062 C 312.558594 174.289062 320.597656 178.222656 333.5625 201.414062 C 319.734375 213.183594 300.546875 214.570312 300.546875 214.570312 C 300.546875 214.570312 287.894531 171.527344 312.558594 174.289062 Z M 312.558594 174.289062 "/><path style=" stroke:none;fill-rule:nonzero;fill:#ff9e71;fill-opacity:1;" d="M 332.46875 317.628906 L 310.605469 325.515625 L 304.152344 311.351562 L 283.476562 265.96875 L 309.304688 256.648438 L 327.273438 303.949219 Z M 332.46875 317.628906 "/><path style=" stroke:none;fill-rule:nonzero;fill:#ff9e71;fill-opacity:1;" d="M 278.417969 329.140625 L 255.175781 329.140625 L 253.902344 314.285156 L 249.585938 263.894531 L 277.035156 263.894531 L 278.105469 314.285156 Z M 278.417969 329.140625 "/><path style=" stroke:none;fill-rule:nonzero;fill:#c11a1a;fill-opacity:1;" d="M 328.683594 281.894531 C 307.25 296.605469 271.8125 300.066406 242.214844 293.042969 L 242.578125 284.691406 L 242.769531 280.273438 L 242.945312 276.25 L 244.734375 234.980469 L 314.585938 234.980469 L 324.382812 267.574219 L 325.542969 271.4375 L 326.59375 274.933594 Z M 328.683594 281.894531 "/><path style=" stroke:none;fill-rule:nonzero;fill:#ffffff;fill-opacity:1;" d="M 319.152344 232.726562 C 319.152344 251.246094 239.863281 251.246094 239.863281 232.726562 C 240.035156 232.4375 240.199219 232.121094 240.351562 231.777344 C 241.46875 229.316406 242.113281 225.589844 242.5 221.1875 C 243.964844 204.460938 241.660156 177.992188 246.925781 174.289062 C 247.519531 173.871094 248.167969 173.476562 248.859375 173.109375 C 251.527344 171.679688 254.804688 170.609375 257.957031 169.824219 C 260.855469 169.097656 263.65625 168.613281 265.777344 168.300781 C 268.066406 167.96875 269.570312 167.839844 269.570312 167.839844 L 288.238281 167.839844 C 288.238281 167.839844 289.746094 167.957031 292.035156 168.234375 C 294.375 168.511719 297.523438 168.953125 300.703125 169.601562 C 304.082031 170.289062 307.496094 171.203125 310.003906 172.398438 C 311.496094 173.113281 312.671875 173.921875 313.324219 174.84375 C 315.601562 178.058594 315.820312 201.738281 316.773438 217.808594 C 317.027344 222.007812 317.328125 225.683594 317.726562 228.34375 C 318.101562 230.832031 318.5625 232.425781 319.152344 232.726562 Z M 319.152344 232.726562 "/><path style=" stroke:none;fill-rule:nonzero;fill:#3a95f9;fill-opacity:1;" d="M 317.726562 228.34375 C 312.128906 227.503906 305.816406 224.886719 303.839844 217.757812 C 301.898438 210.742188 301.128906 196.757812 300.847656 184.417969 C 300.785156 181.707031 300.75 179.082031 300.726562 176.625 C 300.703125 174.0625 300.699219 171.6875 300.703125 169.601562 C 304.082031 170.289062 307.496094 171.203125 310.003906 172.398438 C 310.023438 173.5625 310.046875 174.800781 310.078125 176.097656 C 310.128906 178.527344 310.199219 181.164062 310.289062 183.878906 C 310.707031 196.722656 311.574219 211.382812 313.363281 215.019531 C 314.078125 216.472656 315.335938 217.339844 316.773438 217.808594 C 317.027344 222.007812 317.328125 225.683594 317.726562 228.34375 Z M 317.726562 228.34375 "/><path style=" stroke:none;fill-rule:nonzero;fill:#3a95f9;fill-opacity:1;" d="M 257.660156 219.839844 C 255.695312 228.921875 246.488281 231.289062 240.351562 231.777344 C 241.46875 229.316406 242.113281 225.589844 242.5 221.1875 C 244.800781 220.890625 247.050781 219.894531 248 217.648438 C 249.578125 213.917969 249.613281 199.234375 249.300781 186.382812 C 249.234375 183.667969 249.152344 181.035156 249.070312 178.605469 C 249 176.617188 248.929688 174.761719 248.859375 173.109375 C 251.527344 171.679688 254.804688 170.609375 257.957031 169.824219 C 258.109375 172.289062 258.277344 175.285156 258.4375 178.597656 C 258.550781 181.050781 258.664062 183.675781 258.757812 186.382812 C 259.175781 198.722656 259.203125 212.730469 257.660156 219.839844 Z M 257.660156 219.839844 "/><path style="fill:none;stroke-width:8;stroke-linecap:round;stroke-linejoin:round;stroke:#56302c;stroke-opacity:1;stroke-miterlimit:4;" d="M 1505.027455 659.418888 C 1514.02184 734.419691 1561.027676 741.416456 1561.027676 741.416456 L 1590.383725 706.613194 " transform="matrix(0.172851,0,0,0.173071,2.350776,56.248672)"/><path style="fill:none;stroke-width:8;stroke-linecap:round;stroke-linejoin:round;stroke:#56302c;stroke-opacity:1;stroke-miterlimit:4;" d="M 1702.384168 659.418888 C 1693.389782 734.419691 1646.383946 741.416456 1646.383946 741.416456 L 1617.027898 706.613194 " transform="matrix(0.172851,0,0,0.173071,2.350776,56.248672)"/><path style=" stroke:none;fill-rule:nonzero;fill:#c11a1a;fill-opacity:1;" d="M 278.136719 180.671875 L 274.507812 185.347656 L 277.25 190.117188 L 270.542969 219.96875 L 279.878906 231.027344 L 289.210938 219.496094 L 282.785156 190.117188 L 285.050781 185.347656 L 281.132812 180.671875 Z M 278.136719 180.671875 "/><path style=" stroke:none;fill-rule:nonzero;fill:#56302c;fill-opacity:1;" d="M 266.019531 71.226562 C 263.53125 55.476562 227.960938 48.074219 215.546875 69.679688 C 200.871094 95.230469 228.414062 116.769531 192.449219 129.984375 C 236.675781 151.4375 245.914062 127.179688 241.40625 99.433594 C 256.117188 97.148438 276.972656 73.277344 266.023438 71.226562 Z M 266.019531 71.226562 "/><path style=" stroke:none;fill-rule:nonzero;fill:#ffffff;fill-opacity:1;" d="M 253.914062 59.730469 C 254.96875 59.792969 256.003906 59.957031 257.027344 60.21875 C 258.046875 60.480469 259.03125 60.832031 259.984375 61.277344 C 260.933594 61.722656 261.828125 62.253906 262.667969 62.871094 C 263.511719 63.484375 264.28125 64.171875 264.984375 64.929688 C 265.683594 65.691406 266.300781 66.507812 266.835938 67.382812 C 267.367188 68.257812 267.808594 69.175781 268.15625 70.132812 C 268.5 71.089844 268.746094 72.070312 268.890625 73.074219 C 269.035156 74.078125 269.078125 75.082031 269.015625 76.09375 C 268.953125 77.101562 268.789062 78.09375 268.523438 79.074219 C 268.253906 80.050781 267.890625 80.992188 267.433594 81.902344 C 266.972656 82.808594 266.421875 83.664062 265.785156 84.46875 C 265.148438 85.269531 264.4375 86.007812 263.648438 86.675781 C 262.859375 87.34375 262.007812 87.929688 261.097656 88.4375 C 260.1875 88.941406 259.234375 89.359375 258.238281 89.6875 C 257.242188 90.011719 256.21875 90.242188 255.171875 90.375 C 254.128906 90.507812 253.078125 90.542969 252.023438 90.476562 C 250.972656 90.414062 249.933594 90.25 248.914062 89.988281 C 247.890625 89.730469 246.90625 89.375 245.957031 88.929688 C 245.007812 88.484375 244.113281 87.953125 243.269531 87.339844 C 242.429688 86.722656 241.65625 86.035156 240.957031 85.277344 C 240.253906 84.515625 239.636719 83.699219 239.105469 82.824219 C 238.570312 81.949219 238.128906 81.03125 237.785156 80.074219 C 237.4375 79.117188 237.195312 78.136719 237.050781 77.132812 C 236.90625 76.132812 236.863281 75.125 236.925781 74.117188 C 236.988281 73.105469 237.152344 72.113281 237.417969 71.136719 C 237.683594 70.15625 238.046875 69.214844 238.507812 68.308594 C 238.96875 67.398438 239.515625 66.542969 240.152344 65.742188 C 240.789062 64.9375 241.503906 64.203125 242.292969 63.535156 C 243.082031 62.867188 243.929688 62.277344 244.839844 61.773438 C 245.75 61.265625 246.707031 60.847656 247.703125 60.523438 C 248.699219 60.195312 249.71875 59.964844 250.765625 59.832031 C 251.8125 59.699219 252.859375 59.664062 253.914062 59.730469 Z M 253.914062 59.730469 "/><path style=" stroke:none;fill-rule:nonzero;fill:#56302c;fill-opacity:1;" d="M 335.40625 110.738281 C 335.535156 133.394531 327.582031 143.164062 327.582031 143.164062 C 298.757812 147.398438 265.160156 147.871094 235.570312 144.085938 C 235.570312 144.085938 222.171875 138.863281 222.015625 111.382812 C 221.859375 83.902344 247.117188 61.480469 278.429688 61.304688 C 309.738281 61.125 335.25 83.257812 335.40625 110.738281 Z M 335.40625 110.738281 "/><path style=" stroke:none;fill-rule:nonzero;fill:#c11a1a;fill-opacity:1;" d="M 269.667969 158.84375 L 288.335938 158.738281 L 288.386719 167.5625 C 288.414062 172.722656 284.257812 176.933594 279.105469 176.964844 C 273.957031 176.992188 269.75 172.828125 269.71875 167.671875 Z M 269.667969 158.84375 "/><path style=" stroke:none;fill-rule:nonzero;fill:#ff9e71;fill-opacity:1;" d="M 324.875 122.632812 C 324.882812 124.097656 324.820312 125.5625 324.679688 127.027344 C 324.539062 128.488281 324.328125 129.941406 324.039062 131.382812 C 323.753906 132.824219 323.394531 134.246094 322.964844 135.65625 C 322.53125 137.0625 322.03125 138.445312 321.460938 139.804688 C 320.890625 141.164062 320.253906 142.492188 319.546875 143.792969 C 318.84375 145.089844 318.074219 146.355469 317.242188 147.578125 C 316.410156 148.804688 315.515625 149.988281 314.5625 151.128906 C 313.613281 152.269531 312.605469 153.359375 311.542969 154.40625 C 310.480469 155.449219 309.367188 156.441406 308.203125 157.378906 C 307.039062 158.316406 305.832031 159.195312 304.578125 160.019531 C 303.328125 160.84375 302.039062 161.605469 300.707031 162.304688 C 299.378906 163.003906 298.019531 163.636719 296.625 164.207031 C 295.230469 164.777344 293.8125 165.28125 292.371094 165.714844 C 290.925781 166.148438 289.464844 166.515625 287.980469 166.808594 C 286.5 167.105469 285.007812 167.328125 283.507812 167.480469 C 282.003906 167.632812 280.496094 167.714844 278.984375 167.722656 C 277.472656 167.730469 275.964844 167.667969 274.457031 167.53125 C 272.953125 167.398438 271.460938 167.191406 269.976562 166.914062 C 268.492188 166.636719 267.023438 166.285156 265.574219 165.871094 C 264.128906 165.453125 262.703125 164.964844 261.304688 164.410156 C 259.902344 163.859375 258.535156 163.238281 257.199219 162.554688 C 255.859375 161.871094 254.5625 161.125 253.300781 160.316406 C 252.039062 159.507812 250.820312 158.640625 249.648438 157.714844 C 248.472656 156.792969 247.351562 155.8125 246.273438 154.78125 C 245.199219 153.75 244.179688 152.667969 243.214844 151.539062 C 242.25 150.410156 241.34375 149.238281 240.496094 148.023438 C 239.648438 146.804688 238.867188 145.554688 238.144531 144.261719 C 237.425781 142.972656 236.773438 141.648438 236.1875 140.296875 C 235.601562 138.945312 235.085938 137.566406 234.636719 136.164062 C 234.191406 134.761719 233.816406 133.339844 233.511719 131.902344 C 233.210938 130.464844 232.980469 129.015625 232.824219 127.554688 C 232.667969 126.097656 232.582031 124.632812 232.574219 123.164062 C 232.566406 121.695312 232.632812 120.230469 232.773438 118.769531 C 232.914062 117.308594 233.125 115.855469 233.410156 114.414062 C 233.699219 112.972656 234.058594 111.546875 234.488281 110.140625 C 234.917969 108.734375 235.417969 107.347656 235.988281 105.988281 C 236.558594 104.628906 237.199219 103.300781 237.902344 102 C 238.609375 100.703125 239.378906 99.441406 240.210938 98.214844 C 241.042969 96.988281 241.933594 95.808594 242.886719 94.667969 C 243.839844 93.527344 244.847656 92.433594 245.910156 91.390625 C 246.972656 90.34375 248.085938 89.355469 249.25 88.417969 C 250.410156 87.476562 251.621094 86.597656 252.871094 85.773438 C 254.125 84.953125 255.414062 84.191406 256.742188 83.492188 C 258.074219 82.792969 259.433594 82.15625 260.828125 81.585938 C 262.21875 81.015625 263.636719 80.515625 265.082031 80.082031 C 266.527344 79.644531 267.988281 79.28125 269.46875 78.984375 C 270.949219 78.691406 272.441406 78.46875 273.945312 78.316406 C 275.449219 78.164062 276.957031 78.082031 278.46875 78.074219 C 279.980469 78.0625 281.488281 78.128906 282.992188 78.261719 C 284.496094 78.398438 285.992188 78.605469 287.476562 78.882812 C 288.960938 79.160156 290.425781 79.507812 291.875 79.925781 C 293.324219 80.34375 294.75 80.828125 296.148438 81.382812 C 297.546875 81.9375 298.917969 82.554688 300.253906 83.238281 C 301.589844 83.925781 302.890625 84.671875 304.152344 85.480469 C 305.414062 86.289062 306.628906 87.152344 307.804688 88.078125 C 308.976562 89.003906 310.101562 89.980469 311.175781 91.011719 C 312.25 92.046875 313.273438 93.125 314.238281 94.253906 C 315.203125 95.382812 316.109375 96.558594 316.957031 97.773438 C 317.800781 98.988281 318.585938 100.242188 319.304688 101.53125 C 320.023438 102.824219 320.679688 104.144531 321.265625 105.496094 C 321.851562 106.851562 322.367188 108.226562 322.8125 109.628906 C 323.261719 111.03125 323.636719 112.453125 323.9375 113.890625 C 324.242188 115.328125 324.472656 116.777344 324.628906 118.238281 C 324.785156 119.699219 324.867188 121.164062 324.875 122.632812 Z M 324.875 122.632812 "/><path style=" stroke:none;fill-rule:nonzero;fill:#56302c;fill-opacity:1;" d="M 280.316406 89.445312 C 280.316406 89.445312 292.121094 108.726562 318.175781 110.621094 C 312.191406 132.070312 325.550781 135.472656 325.550781 135.472656 C 325.550781 135.472656 331.972656 127.484375 330.195312 112.683594 C 328.417969 97.882812 310.632812 71.167969 277.117188 74.125 C 243.601562 77.078125 221.566406 113.234375 229.539062 137.578125 C 248.25 134.339844 240.722656 115.882812 239.136719 111.46875 C 260.394531 109.453125 275.695312 103.226562 280.316406 89.449219 Z M 280.316406 89.445312 "/><path style=" stroke:none;fill-rule:nonzero;fill:#ff9e71;fill-opacity:1;" d="M 316.382812 129.078125 C 327.339844 121.667969 335.160156 130.429688 334.667969 139.074219 C 334.238281 146.605469 321.414062 157.332031 310.34375 144.722656 C 299.273438 132.113281 316.382812 129.078125 316.382812 129.078125 Z M 316.382812 129.078125 "/><path style=" stroke:none;fill-rule:nonzero;fill:#c11a1a;fill-opacity:1;" d="M 317.835938 135.824219 C 320.4375 138.972656 318.371094 143.585938 318.371094 143.585938 C 325.015625 144.125 330.402344 139.0625 326.6875 134.910156 C 322.972656 130.761719 317.835938 135.824219 317.835938 135.824219 Z M 317.835938 135.824219 "/><path style=" stroke:none;fill-rule:nonzero;fill:#ff9e71;fill-opacity:1;" d="M 243.207031 129.492188 C 232.167969 122.210938 224.449219 131.0625 225.039062 139.699219 C 225.550781 147.226562 238.496094 157.804688 249.425781 145.070312 C 260.351562 132.335938 243.207031 129.492188 243.207031 129.492188 Z M 243.207031 129.492188 "/><path style=" stroke:none;fill-rule:nonzero;fill:#c11a1a;fill-opacity:1;" d="M 241.832031 136.257812 C 239.265625 139.4375 241.382812 144.027344 241.382812 144.027344 C 234.742188 144.640625 229.300781 139.636719 232.96875 135.445312 C 236.636719 131.253906 241.832031 136.257812 241.832031 136.257812 Z M 241.832031 136.257812 "/><path style=" stroke:none;fill-rule:nonzero;fill:#ffffff;fill-opacity:1;" d="M 271.582031 125.4375 C 271.582031 126.019531 271.523438 126.59375 271.414062 127.160156 C 271.300781 127.730469 271.132812 128.28125 270.910156 128.816406 C 270.6875 129.351562 270.417969 129.859375 270.097656 130.34375 C 269.773438 130.824219 269.410156 131.269531 269 131.679688 C 268.589844 132.089844 268.144531 132.457031 267.664062 132.777344 C 267.183594 133.101562 266.675781 133.371094 266.140625 133.59375 C 265.605469 133.816406 265.054688 133.984375 264.484375 134.097656 C 263.917969 134.210938 263.34375 134.265625 262.765625 134.265625 C 262.1875 134.265625 261.613281 134.210938 261.046875 134.097656 C 260.480469 133.984375 259.925781 133.816406 259.394531 133.59375 C 258.859375 133.371094 258.351562 133.101562 257.867188 132.777344 C 257.386719 132.457031 256.941406 132.089844 256.53125 131.679688 C 256.125 131.269531 255.757812 130.824219 255.4375 130.34375 C 255.113281 129.859375 254.84375 129.351562 254.621094 128.816406 C 254.398438 128.28125 254.234375 127.730469 254.121094 127.160156 C 254.007812 126.59375 253.949219 126.019531 253.949219 125.4375 C 253.949219 124.859375 254.007812 124.285156 254.121094 123.71875 C 254.234375 123.148438 254.398438 122.597656 254.621094 122.0625 C 254.84375 121.527344 255.113281 121.015625 255.4375 120.535156 C 255.757812 120.054688 256.125 119.609375 256.53125 119.199219 C 256.941406 118.789062 257.386719 118.421875 257.867188 118.101562 C 258.351562 117.777344 258.859375 117.507812 259.394531 117.285156 C 259.925781 117.0625 260.480469 116.894531 261.046875 116.78125 C 261.613281 116.667969 262.1875 116.613281 262.765625 116.613281 C 263.34375 116.613281 263.917969 116.667969 264.484375 116.78125 C 265.054688 116.894531 265.605469 117.0625 266.140625 117.285156 C 266.675781 117.507812 267.183594 117.777344 267.664062 118.101562 C 268.144531 118.421875 268.589844 118.789062 269 119.199219 C 269.410156 119.609375 269.773438 120.054688 270.097656 120.535156 C 270.417969 121.015625 270.6875 121.527344 270.910156 122.0625 C 271.132812 122.597656 271.300781 123.148438 271.414062 123.71875 C 271.523438 124.285156 271.582031 124.859375 271.582031 125.4375 Z M 271.582031 125.4375 "/><path style=" stroke:none;fill-rule:nonzero;fill:#56302c;fill-opacity:1;" d="M 270.828125 125.4375 C 270.828125 125.832031 270.792969 126.222656 270.714844 126.609375 C 270.636719 127 270.523438 127.375 270.371094 127.738281 C 270.222656 128.101562 270.039062 128.449219 269.816406 128.777344 C 269.597656 129.105469 269.351562 129.410156 269.070312 129.6875 C 268.792969 129.96875 268.488281 130.214844 268.164062 130.433594 C 267.835938 130.65625 267.488281 130.839844 267.125 130.992188 C 266.761719 131.140625 266.386719 131.253906 266 131.332031 C 265.613281 131.410156 265.222656 131.449219 264.828125 131.449219 C 264.433594 131.449219 264.042969 131.410156 263.65625 131.332031 C 263.269531 131.253906 262.894531 131.140625 262.53125 130.992188 C 262.167969 130.839844 261.820312 130.65625 261.492188 130.433594 C 261.167969 130.214844 260.863281 129.96875 260.585938 129.6875 C 260.304688 129.410156 260.058594 129.105469 259.839844 128.777344 C 259.621094 128.449219 259.433594 128.101562 259.285156 127.738281 C 259.132812 127.375 259.019531 127 258.941406 126.609375 C 258.867188 126.222656 258.828125 125.832031 258.828125 125.4375 C 258.828125 125.042969 258.867188 124.652344 258.941406 124.265625 C 259.019531 123.878906 259.132812 123.503906 259.285156 123.140625 C 259.433594 122.773438 259.621094 122.429688 259.839844 122.101562 C 260.058594 121.773438 260.304688 121.46875 260.585938 121.191406 C 260.863281 120.910156 261.167969 120.660156 261.492188 120.441406 C 261.820312 120.222656 262.167969 120.039062 262.53125 119.886719 C 262.894531 119.738281 263.269531 119.621094 263.65625 119.546875 C 264.042969 119.46875 264.433594 119.429688 264.828125 119.429688 C 265.222656 119.429688 265.613281 119.46875 266 119.546875 C 266.386719 119.621094 266.761719 119.738281 267.125 119.886719 C 267.488281 120.039062 267.835938 120.222656 268.164062 120.441406 C 268.488281 120.660156 268.792969 120.910156 269.070312 121.191406 C 269.351562 121.46875 269.597656 121.773438 269.816406 122.101562 C 270.039062 122.429688 270.222656 122.773438 270.371094 123.140625 C 270.523438 123.503906 270.636719 123.878906 270.714844 124.265625 C 270.792969 124.652344 270.828125 125.042969 270.828125 125.4375 Z M 270.828125 125.4375 "/><path style=" stroke:none;fill-rule:nonzero;fill:#ffffff;fill-opacity:1;" d="M 305.757812 125.4375 C 305.757812 126.019531 305.703125 126.59375 305.589844 127.160156 C 305.476562 127.730469 305.308594 128.28125 305.085938 128.816406 C 304.863281 129.351562 304.59375 129.859375 304.273438 130.34375 C 303.949219 130.824219 303.585938 131.269531 303.175781 131.679688 C 302.765625 132.089844 302.320312 132.457031 301.839844 132.777344 C 301.359375 133.101562 300.851562 133.371094 300.316406 133.59375 C 299.78125 133.816406 299.230469 133.984375 298.660156 134.097656 C 298.09375 134.210938 297.519531 134.265625 296.941406 134.265625 C 296.363281 134.265625 295.789062 134.210938 295.222656 134.097656 C 294.65625 133.984375 294.105469 133.816406 293.570312 133.59375 C 293.035156 133.371094 292.527344 133.101562 292.042969 132.777344 C 291.5625 132.457031 291.117188 132.089844 290.707031 131.679688 C 290.300781 131.269531 289.933594 130.824219 289.613281 130.34375 C 289.289062 129.859375 289.019531 129.351562 288.796875 128.816406 C 288.578125 128.28125 288.410156 127.730469 288.296875 127.160156 C 288.183594 126.59375 288.125 126.019531 288.125 125.4375 C 288.125 124.859375 288.183594 124.285156 288.296875 123.71875 C 288.410156 123.148438 288.578125 122.597656 288.796875 122.0625 C 289.019531 121.527344 289.289062 121.015625 289.613281 120.535156 C 289.933594 120.054688 290.300781 119.609375 290.707031 119.199219 C 291.117188 118.789062 291.5625 118.421875 292.042969 118.101562 C 292.527344 117.777344 293.035156 117.507812 293.570312 117.285156 C 294.105469 117.0625 294.65625 116.894531 295.222656 116.78125 C 295.789062 116.667969 296.363281 116.613281 296.941406 116.613281 C 297.519531 116.613281 298.09375 116.667969 298.660156 116.78125 C 299.230469 116.894531 299.78125 117.0625 300.316406 117.285156 C 300.851562 117.507812 301.359375 117.777344 301.839844 118.101562 C 302.320312 118.421875 302.765625 118.789062 303.175781 119.199219 C 303.585938 119.609375 303.949219 120.054688 304.273438 120.535156 C 304.59375 121.015625 304.863281 121.527344 305.085938 122.0625 C 305.308594 122.597656 305.476562 123.148438 305.589844 123.71875 C 305.703125 124.285156 305.757812 124.859375 305.757812 125.4375 Z M 305.757812 125.4375 "/><path style=" stroke:none;fill-rule:nonzero;fill:#56302c;fill-opacity:1;" d="M 300.882812 125.4375 C 300.882812 125.832031 300.84375 126.222656 300.765625 126.609375 C 300.6875 127 300.574219 127.375 300.425781 127.738281 C 300.273438 128.101562 300.089844 128.449219 299.871094 128.777344 C 299.652344 129.105469 299.402344 129.410156 299.125 129.6875 C 298.84375 129.96875 298.542969 130.214844 298.214844 130.433594 C 297.886719 130.65625 297.539062 130.839844 297.175781 130.992188 C 296.8125 131.140625 296.4375 131.253906 296.050781 131.332031 C 295.664062 131.410156 295.273438 131.449219 294.878906 131.449219 C 294.484375 131.449219 294.097656 131.410156 293.710938 131.332031 C 293.324219 131.253906 292.949219 131.140625 292.582031 130.992188 C 292.21875 130.839844 291.875 130.65625 291.546875 130.433594 C 291.21875 130.214844 290.914062 129.96875 290.636719 129.6875 C 290.359375 129.410156 290.109375 129.105469 289.890625 128.777344 C 289.671875 128.449219 289.488281 128.101562 289.335938 127.738281 C 289.183594 127.375 289.070312 127 288.992188 126.609375 C 288.917969 126.222656 288.878906 125.832031 288.878906 125.4375 C 288.878906 125.042969 288.917969 124.652344 288.992188 124.265625 C 289.070312 123.878906 289.183594 123.503906 289.335938 123.140625 C 289.488281 122.773438 289.671875 122.429688 289.890625 122.101562 C 290.109375 121.773438 290.359375 121.46875 290.636719 121.191406 C 290.914062 120.910156 291.21875 120.660156 291.546875 120.441406 C 291.875 120.222656 292.21875 120.039062 292.582031 119.886719 C 292.949219 119.738281 293.324219 119.621094 293.710938 119.546875 C 294.097656 119.46875 294.484375 119.429688 294.878906 119.429688 C 295.273438 119.429688 295.664062 119.46875 296.050781 119.546875 C 296.4375 119.621094 296.8125 119.738281 297.175781 119.886719 C 297.539062 120.039062 297.886719 120.222656 298.214844 120.441406 C 298.542969 120.660156 298.84375 120.910156 299.125 121.191406 C 299.402344 121.46875 299.652344 121.773438 299.871094 122.101562 C 300.089844 122.429688 300.273438 122.773438 300.425781 123.140625 C 300.574219 123.503906 300.6875 123.878906 300.765625 124.265625 C 300.84375 124.652344 300.882812 125.042969 300.882812 125.4375 Z M 300.882812 125.4375 "/><path style="fill:none;stroke-width:13;stroke-linecap:round;stroke-linejoin:round;stroke:#56302c;stroke-opacity:1;stroke-miterlimit:4;" d="M 1530.089701 315.697183 C 1501.502017 285.949648 1460.258916 296.760778 1446.948129 322.310254 " transform="matrix(0.172851,0,0,0.173071,2.350776,56.248672)"/><path style="fill:none;stroke-width:13;stroke-linecap:round;stroke-linejoin:round;stroke:#56302c;stroke-opacity:1;stroke-miterlimit:4;" d="M 1680.802162 315.697183 C 1709.389846 285.949648 1750.632947 296.760778 1763.943734 322.310254 " transform="matrix(0.172851,0,0,0.173071,2.350776,56.248672)"/><path style="fill:none;stroke-width:13;stroke-linecap:round;stroke-linejoin:round;stroke:#c11a1a;stroke-opacity:1;stroke-miterlimit:4;" d="M 1591.943053 459.785394 C 1604.960054 451.77297 1615.943148 457.776645 1619.943164 461.771572 " transform="matrix(0.172851,0,0,0.173071,2.350776,56.248672)"/><path style=" stroke:none;fill-rule:nonzero;fill:#56302c;fill-opacity:1;" d="M 288.007812 151.449219 C 285.601562 152.84375 282.703125 153.777344 279.871094 153.777344 C 277.039062 153.777344 274.132812 152.851562 271.75 151.464844 C 267.078125 148.746094 264.304688 144.253906 267.339844 141.488281 C 267.886719 141.105469 268.917969 140.753906 270.269531 140.457031 C 275.234375 139.363281 284.488281 138.992188 289.570312 140.265625 C 290.796875 140.574219 291.78125 140.976562 292.402344 141.488281 C 295.480469 144.296875 292.664062 148.742188 288.007812 151.449219 Z M 288.007812 151.449219 "/><path style=" stroke:none;fill-rule:nonzero;fill:#ffffff;fill-opacity:1;" d="M 289.570312 140.265625 C 288.722656 142.640625 284.707031 144.4375 279.882812 144.4375 C 275.058594 144.4375 271.257812 142.734375 270.269531 140.457031 C 275.234375 139.363281 284.488281 138.992188 289.570312 140.265625 Z M 289.570312 140.265625 "/><path style=" stroke:none;fill-rule:nonzero;fill:#c11a1a;fill-opacity:1;" d="M 288.007812 151.449219 C 285.601562 152.84375 282.703125 153.777344 279.871094 153.777344 C 277.039062 153.777344 274.132812 152.851562 271.75 151.464844 C 272.871094 148.488281 276.085938 146.339844 279.882812 146.339844 C 283.675781 146.339844 286.882812 148.480469 288.007812 151.449219 Z M 288.007812 151.449219 "/><path style=" stroke:none;fill-rule:nonzero;fill:#ffffff;fill-opacity:1;" d="M 278.105469 314.285156 L 278.417969 329.140625 L 255.175781 329.140625 L 253.902344 314.285156 Z M 278.105469 314.285156 "/><path style=" stroke:none;fill-rule:nonzero;fill:#ffffff;fill-opacity:1;" d="M 332.46875 317.628906 L 310.605469 325.515625 L 304.152344 311.351562 L 327.273438 303.949219 Z M 332.46875 317.628906 "/><path style=" stroke:none;fill-rule:nonzero;fill:#56302c;fill-opacity:1;" d="M 308.546875 322.765625 L 311.652344 331.394531 L 346.617188 318.78125 L 330.773438 312.992188 Z M 308.546875 322.765625 "/><g clip-rule="nonzero" clip-path="url(#83b524b346)"><path style=" stroke:none;fill-rule:nonzero;fill:#56302c;fill-opacity:1;" d="M 279.421875 325.855469 L 279.421875 335.027344 L 242.257812 335.027344 L 254.1875 323.777344 Z M 279.421875 325.855469 "/></g><path style=" stroke:none;fill-rule:nonzero;fill:#3a95f9;fill-opacity:1;" d="M 315.371094 92.617188 C 315.726562 92.75 316.042969 92.945312 316.316406 93.203125 C 316.59375 93.460938 316.808594 93.765625 316.96875 94.109375 C 317.125 94.453125 317.207031 94.816406 317.222656 95.191406 C 317.234375 95.570312 317.175781 95.9375 317.042969 96.292969 L 315.648438 100.019531 C 315.515625 100.375 315.320312 100.691406 315.0625 100.96875 C 314.804688 101.246094 314.503906 101.460938 314.160156 101.617188 C 313.8125 101.773438 313.453125 101.859375 313.074219 101.875 C 312.695312 101.886719 312.332031 101.828125 311.976562 101.695312 C 311.621094 101.5625 311.308594 101.363281 311.03125 101.105469 C 310.753906 100.847656 310.539062 100.546875 310.382812 100.203125 C 310.222656 99.855469 310.140625 99.496094 310.125 99.117188 C 310.113281 98.738281 310.171875 98.371094 310.304688 98.019531 L 311.699219 94.289062 C 311.832031 93.933594 312.027344 93.621094 312.285156 93.34375 C 312.542969 93.066406 312.847656 92.847656 313.191406 92.691406 C 313.535156 92.535156 313.894531 92.449219 314.273438 92.4375 C 314.652344 92.425781 315.015625 92.484375 315.371094 92.617188 Z M 315.371094 92.617188 "/><path style=" stroke:none;fill-rule:nonzero;fill:#3a95f9;fill-opacity:1;" d="M 308.285156 87.597656 C 308.636719 87.730469 308.953125 87.925781 309.230469 88.183594 C 309.507812 88.445312 309.722656 88.746094 309.878906 89.089844 C 310.035156 89.433594 310.121094 89.796875 310.132812 90.175781 C 310.148438 90.554688 310.085938 90.917969 309.953125 91.273438 L 308.558594 95.003906 C 308.425781 95.355469 308.230469 95.671875 307.972656 95.949219 C 307.714844 96.226562 307.414062 96.441406 307.070312 96.601562 C 306.726562 96.757812 306.367188 96.839844 305.988281 96.855469 C 305.609375 96.867188 305.242188 96.808594 304.890625 96.675781 C 304.535156 96.542969 304.21875 96.347656 303.941406 96.089844 C 303.667969 95.828125 303.449219 95.527344 303.292969 95.183594 C 303.136719 94.839844 303.050781 94.476562 303.039062 94.097656 C 303.027344 93.71875 303.085938 93.355469 303.21875 93 L 304.613281 89.269531 C 304.746094 88.917969 304.941406 88.601562 305.199219 88.324219 C 305.457031 88.046875 305.757812 87.832031 306.101562 87.671875 C 306.445312 87.515625 306.808594 87.433594 307.183594 87.417969 C 307.5625 87.40625 307.929688 87.464844 308.285156 87.597656 Z M 308.285156 87.597656 "/></g></svg>