<svg xmlns="http://www.w3.org/2000/svg" xmlns:xlink="http://www.w3.org/1999/xlink" width="500" zoomAndPan="magnify" viewBox="0 0 375 374.999991" height="500" preserveAspectRatio="xMidYMid meet" version="1.2"><defs><clipPath id="efbc988313"><path d="M 89.398438 89.398438 L 285.898438 89.398438 L 285.898438 285.898438 L 89.398438 285.898438 Z M 89.398438 89.398438 "/></clipPath></defs><g id="04d87c6da3"><g clip-rule="nonzero" clip-path="url(#efbc988313)"><path style=" stroke:none;fill-rule:evenodd;fill:#000000;fill-opacity:1;" d="M 187.648438 89.398438 C 241.878906 89.398438 285.898438 133.421875 285.898438 187.648438 C 285.898438 241.878906 241.878906 285.898438 187.648438 285.898438 C 133.421875 285.898438 89.398438 241.878906 89.398438 187.648438 C 89.398438 133.421875 133.421875 89.398438 187.648438 89.398438 Z M 187.648438 103.4375 C 141.171875 103.4375 103.4375 141.171875 103.4375 187.648438 C 103.4375 234.128906 141.171875 271.863281 187.648438 271.863281 C 234.128906 271.863281 271.863281 234.128906 271.863281 187.648438 C 271.863281 141.171875 234.128906 103.4375 187.648438 103.4375 Z M 196.070312 227.882812 C 194.085938 230.535156 190.960938 232.09375 187.648438 232.09375 C 184.335938 232.09375 181.214844 230.535156 179.230469 227.882812 L 137.121094 171.742188 C 134.730469 168.554688 134.34375 164.289062 136.125 160.722656 C 137.90625 157.152344 141.558594 154.898438 145.542969 154.898438 L 229.757812 154.898438 C 233.742188 154.898438 237.394531 157.152344 239.175781 160.722656 C 240.957031 164.289062 240.570312 168.554688 238.179688 171.742188 Z M 152.5625 168.933594 L 187.648438 215.722656 L 222.738281 168.933594 Z M 152.5625 168.933594 "/></g></g></svg>