<svg xmlns="http://www.w3.org/2000/svg" xmlns:xlink="http://www.w3.org/1999/xlink" width="500" zoomAndPan="magnify" viewBox="0 0 375 374.999991" height="500" preserveAspectRatio="xMidYMid meet" version="1.2"><defs><clipPath id="30c4cbc0a5"><path d="M 117 49.261719 L 318 49.261719 L 318 247 L 117 247 Z M 117 49.261719 "/></clipPath><clipPath id="0e8610246f"><path d="M 44.621094 122 L 256 122 L 256 325 L 44.621094 325 Z M 44.621094 122 "/></clipPath></defs><g id="7b06805ae3"><g clip-rule="nonzero" clip-path="url(#30c4cbc0a5)"><path style=" stroke:none;fill-rule:nonzero;fill:#000000;fill-opacity:1;" d="M 306.375 100.726562 C 305.28125 98.804688 304.121094 96.921875 302.902344 95.078125 C 301.6875 93.230469 300.40625 91.429688 299.070312 89.667969 C 297.734375 87.90625 296.339844 86.191406 294.890625 84.523438 C 293.441406 82.851562 291.9375 81.234375 290.378906 79.664062 C 288.824219 78.09375 287.21875 76.574219 285.5625 75.109375 C 283.90625 73.644531 282.203125 72.238281 280.453125 70.886719 C 278.707031 69.53125 276.914062 68.238281 275.082031 67.003906 C 273.246094 65.769531 271.375 64.597656 269.464844 63.488281 C 267.554688 62.375 265.609375 61.328125 263.628906 60.347656 C 261.648438 59.363281 259.640625 58.445312 257.601562 57.597656 C 255.558594 56.746094 253.496094 55.964844 251.402344 55.25 C 249.3125 54.535156 247.199219 53.890625 245.066406 53.3125 C 242.933594 52.738281 240.78125 52.234375 238.613281 51.800781 C 236.449219 51.367188 234.269531 51.003906 232.078125 50.714844 C 229.886719 50.425781 227.691406 50.207031 225.484375 50.0625 C 223.28125 49.917969 221.074219 49.84375 218.863281 49.84375 C 216.652344 49.84375 214.445312 49.917969 212.242188 50.0625 C 210.035156 50.207031 207.839844 50.425781 205.648438 50.714844 C 203.457031 51.003906 201.277344 51.367188 199.113281 51.800781 C 196.945312 52.234375 194.792969 52.738281 192.660156 53.3125 C 190.527344 53.890625 188.414062 54.535156 186.324219 55.25 C 184.230469 55.964844 182.167969 56.746094 180.125 57.597656 C 178.085938 58.445312 176.078125 59.363281 174.097656 60.347656 C 172.117188 61.328125 170.171875 62.375 168.261719 63.488281 C 166.351562 64.597656 164.480469 65.769531 162.644531 67.003906 C 160.8125 68.238281 159.019531 69.53125 157.273438 70.886719 C 155.523438 72.238281 153.820312 73.644531 152.164062 75.109375 C 150.507812 76.574219 148.902344 78.09375 147.347656 79.664062 C 145.789062 81.234375 144.285156 82.851562 142.835938 84.523438 C 141.386719 86.191406 139.992188 87.90625 138.65625 89.667969 C 137.320312 91.429688 136.042969 93.230469 134.824219 95.078125 C 133.605469 96.921875 132.445312 98.804688 131.351562 100.726562 L 131.351562 101.277344 C 126.046875 110.214844 122.234375 119.75 119.902344 129.878906 C 118.5625 136.535156 117.890625 143.257812 117.890625 150.050781 C 117.894531 158.695312 118.996094 167.195312 121.199219 175.554688 C 123.40625 183.914062 126.636719 191.851562 130.894531 199.375 C 131.742188 200.730469 132.625 202.0625 133.535156 203.378906 C 134.449219 204.691406 135.390625 205.984375 136.363281 207.253906 C 137.335938 208.519531 138.339844 209.765625 139.375 210.988281 C 140.40625 212.207031 141.46875 213.402344 142.558594 214.574219 C 143.648438 215.746094 144.761719 216.890625 145.90625 218.007812 C 147.050781 219.125 148.222656 220.214844 149.417969 221.273438 C 150.613281 222.335938 151.832031 223.367188 153.078125 224.371094 C 154.324219 225.375 155.589844 226.347656 156.882812 227.292969 C 158.171875 228.234375 159.484375 229.148438 160.820312 230.027344 C 162.15625 230.910156 163.507812 231.757812 164.882812 232.574219 C 166.257812 233.386719 167.652344 234.171875 169.066406 234.921875 C 170.476562 235.671875 171.90625 236.386719 173.351562 237.066406 C 174.796875 237.75 176.257812 238.394531 177.734375 239.007812 C 179.210938 239.621094 180.703125 240.195312 182.207031 240.738281 C 183.710938 241.277344 185.226562 241.78125 186.757812 242.25 C 188.285156 242.71875 189.824219 243.152344 191.371094 243.546875 C 192.921875 243.941406 194.476562 244.300781 196.042969 244.621094 C 197.609375 244.941406 199.183594 245.226562 200.761719 245.472656 C 202.339844 245.71875 203.925781 245.925781 205.515625 246.097656 C 207.101562 246.269531 208.695312 246.402344 210.289062 246.496094 C 211.886719 246.589844 213.484375 246.648438 215.082031 246.667969 C 216.679688 246.6875 218.277344 246.667969 219.875 246.609375 C 221.472656 246.550781 223.066406 246.457031 224.660156 246.324219 C 226.253906 246.191406 227.839844 246.019531 229.425781 245.808594 C 231.011719 245.601562 232.589844 245.355469 234.160156 245.070312 C 235.734375 244.785156 237.300781 244.464844 238.859375 244.105469 C 240.414062 243.746094 241.964844 243.351562 243.503906 242.917969 C 245.042969 242.484375 246.570312 242.015625 248.085938 241.511719 C 249.601562 241.007812 251.105469 240.464844 252.597656 239.886719 C 254.085938 239.3125 255.5625 238.699219 257.023438 238.050781 C 258.488281 237.402344 259.933594 236.722656 261.359375 236.007812 C 262.789062 235.289062 264.203125 234.539062 265.59375 233.757812 C 266.988281 232.972656 268.363281 232.15625 269.71875 231.308594 C 271.074219 230.460938 272.40625 229.578125 273.71875 228.667969 C 275.03125 227.753906 276.324219 226.8125 277.589844 225.835938 C 278.859375 224.863281 280.101562 223.859375 281.324219 222.824219 C 282.542969 221.792969 283.738281 220.730469 284.910156 219.640625 C 286.078125 218.550781 287.222656 217.433594 288.339844 216.289062 C 289.457031 215.144531 290.542969 213.972656 291.605469 212.777344 C 292.667969 211.582031 293.699219 210.359375 294.703125 209.113281 C 295.703125 207.867188 296.675781 206.597656 297.621094 205.308594 C 298.5625 204.015625 299.472656 202.703125 300.355469 201.367188 C 301.234375 200.03125 302.082031 198.675781 302.898438 197.300781 C 303.714844 195.921875 304.496094 194.527344 305.246094 193.117188 C 305.996094 191.703125 306.710938 190.273438 307.394531 188.824219 C 308.074219 187.378906 308.722656 185.914062 309.332031 184.4375 C 309.945312 182.960938 310.523438 181.46875 311.0625 179.960938 C 311.605469 178.457031 312.109375 176.9375 312.578125 175.410156 C 313.046875 173.878906 313.480469 172.339844 313.875 170.789062 C 314.269531 169.238281 314.628906 167.679688 314.949219 166.113281 C 315.273438 164.546875 315.554688 162.972656 315.800781 161.390625 C 316.050781 159.8125 316.257812 158.226562 316.429688 156.636719 C 316.601562 155.042969 316.734375 153.449219 316.828125 151.851562 C 316.925781 150.257812 316.984375 148.65625 317.003906 147.058594 C 317.023438 145.457031 317.003906 143.859375 316.945312 142.261719 C 316.890625 140.660156 316.796875 139.0625 316.664062 137.46875 C 316.53125 135.875 316.359375 134.285156 316.152344 132.699219 C 315.945312 131.113281 315.699219 129.53125 315.414062 127.957031 C 315.132812 126.382812 314.8125 124.816406 314.453125 123.257812 C 314.097656 121.695312 313.703125 120.148438 313.269531 118.605469 C 312.839844 117.066406 312.371094 115.535156 311.867188 114.019531 C 311.363281 112.5 310.824219 110.996094 310.246094 109.5 C 309.671875 108.007812 309.0625 106.53125 308.414062 105.066406 C 307.769531 103.605469 307.089844 102.15625 306.375 100.726562 Z M 292.453125 186.722656 L 269.921875 186.722656 C 271.867188 177.648438 273.085938 168.480469 273.585938 159.21875 L 301.0625 159.21875 C 299.816406 168.894531 296.949219 178.0625 292.453125 186.722656 Z M 137.855469 133.546875 C 139.289062 126.519531 141.609375 119.796875 144.816406 113.378906 L 167.347656 113.378906 C 165.402344 122.449219 164.183594 131.617188 163.683594 140.882812 L 136.207031 140.882812 C 137.03125 138.40625 137.398438 135.929688 137.855469 133.546875 Z M 227.792969 95.042969 L 227.792969 70.5625 C 231.839844 73.710938 235.359375 77.367188 238.351562 81.53125 C 241.34375 85.695312 243.6875 90.199219 245.378906 95.042969 Z M 251.238281 113.378906 C 253.402344 122.425781 254.746094 131.59375 255.269531 140.882812 L 227.792969 140.882812 L 227.792969 113.378906 Z M 209.476562 70.5625 L 209.476562 95.042969 L 191.890625 95.042969 C 193.582031 90.199219 195.925781 85.695312 198.917969 81.53125 C 201.910156 77.367188 205.429688 73.710938 209.476562 70.5625 Z M 209.476562 113.378906 L 209.476562 140.882812 L 182 140.882812 C 182.460938 131.597656 183.746094 122.429688 185.847656 113.378906 Z M 136.757812 159.21875 L 164.230469 159.21875 C 164.640625 168.476562 165.769531 177.644531 167.621094 186.722656 L 144.90625 186.722656 C 140.558594 178.039062 137.839844 168.871094 136.757812 159.21875 Z M 182.550781 159.21875 L 210.023438 159.21875 L 210.023438 186.722656 L 186.03125 186.722656 C 183.867188 177.675781 182.523438 168.507812 182 159.21875 Z M 210.023438 205.058594 L 210.023438 229.535156 C 205.875 226.425781 202.257812 222.789062 199.171875 218.621094 C 196.085938 214.457031 193.660156 209.933594 191.890625 205.058594 Z M 228.34375 229.535156 L 228.34375 205.058594 L 245.925781 205.058594 C 244.160156 209.933594 241.734375 214.457031 238.644531 218.621094 C 235.558594 222.789062 231.941406 226.425781 227.792969 229.535156 Z M 227.792969 186.722656 L 227.792969 159.21875 L 255.269531 159.21875 C 254.804688 168.5 253.523438 177.667969 251.421875 186.722656 Z M 273.585938 140.882812 C 273.175781 131.625 272.046875 122.457031 270.199219 113.378906 L 292.636719 113.378906 C 296.984375 122.0625 299.703125 131.230469 300.789062 140.882812 Z M 280.179688 95.042969 L 264.886719 95.042969 C 262.761719 88.683594 260.074219 82.570312 256.824219 76.707031 C 265.628906 81.417969 273.320312 87.53125 279.90625 95.042969 Z M 180.441406 76.707031 C 177.199219 82.570312 174.511719 88.683594 172.382812 95.042969 L 157.363281 95.042969 C 163.957031 87.546875 171.652344 81.433594 180.441406 76.707031 Z M 157.363281 205.058594 L 172.382812 205.058594 C 174.507812 211.417969 177.195312 217.527344 180.441406 223.394531 C 171.640625 218.679688 163.945312 212.570312 157.363281 205.058594 Z M 256.734375 223.394531 C 260.015625 217.53125 262.730469 211.421875 264.886719 205.058594 L 280.089844 205.058594 C 273.421875 212.597656 265.636719 218.707031 256.734375 223.394531 Z M 256.734375 223.394531 "/></g><g clip-rule="nonzero" clip-path="url(#0e8610246f)"><path style=" stroke:none;fill-rule:nonzero;fill:#000000;fill-opacity:1;" d="M 251.605469 255.023438 C 249.554688 255.667969 247.492188 256.253906 245.40625 256.777344 C 243.324219 257.300781 241.226562 257.761719 239.117188 258.164062 C 237.007812 258.5625 234.886719 258.902344 232.753906 259.179688 C 230.625 259.453125 228.488281 259.667969 226.347656 259.820312 C 224.203125 259.96875 222.058594 260.058594 219.910156 260.082031 C 217.761719 260.109375 215.617188 260.070312 213.46875 259.96875 C 211.324219 259.867188 209.183594 259.703125 207.046875 259.476562 C 204.910156 259.25 202.785156 258.960938 200.664062 258.609375 C 198.546875 258.257812 196.4375 257.84375 194.34375 257.371094 C 192.25 256.894531 190.171875 256.359375 188.105469 255.761719 C 186.042969 255.164062 184 254.507812 181.972656 253.789062 C 179.949219 253.074219 177.945312 252.296875 175.96875 251.460938 C 173.988281 250.625 172.035156 249.734375 170.105469 248.785156 C 168.179688 247.835938 166.28125 246.832031 164.414062 245.769531 C 162.546875 244.710938 160.710938 243.59375 158.90625 242.425781 C 157.101562 241.257812 155.335938 240.039062 153.605469 238.765625 C 151.871094 237.492188 150.179688 236.171875 148.527344 234.800781 C 146.871094 233.425781 145.257812 232.007812 143.6875 230.542969 C 142.117188 229.074219 140.589844 227.566406 139.105469 226.007812 C 137.625 224.453125 136.1875 222.855469 134.800781 221.214844 C 133.410156 219.574219 132.070312 217.894531 130.78125 216.175781 C 129.488281 214.457031 128.25 212.703125 127.0625 210.910156 C 125.875 209.121094 124.742188 207.292969 123.660156 205.4375 C 122.578125 203.578125 121.554688 201.691406 120.582031 199.773438 C 119.613281 197.855469 118.699219 195.910156 117.84375 193.9375 C 116.988281 191.964844 116.1875 189.96875 115.449219 187.949219 C 114.710938 185.933594 114.03125 183.894531 113.410156 181.835938 C 112.789062 179.777344 112.230469 177.699219 111.730469 175.609375 C 111.234375 173.519531 110.796875 171.414062 110.421875 169.296875 C 110.046875 167.179688 109.734375 165.054688 109.480469 162.917969 C 109.230469 160.78125 109.042969 158.640625 108.917969 156.496094 C 108.792969 154.347656 108.730469 152.199219 108.730469 150.050781 C 108.734375 142.640625 109.46875 135.308594 110.929688 128.046875 C 110.929688 126.214844 111.84375 124.378906 112.300781 122.546875 L 72.097656 122.546875 C 71.195312 122.546875 70.296875 122.589844 69.402344 122.679688 C 68.507812 122.765625 67.617188 122.898438 66.734375 123.074219 C 65.851562 123.25 64.980469 123.46875 64.121094 123.730469 C 63.257812 123.992188 62.414062 124.292969 61.582031 124.640625 C 60.75 124.984375 59.9375 125.367188 59.144531 125.792969 C 58.351562 126.21875 57.578125 126.679688 56.832031 127.179688 C 56.082031 127.683594 55.359375 128.21875 54.664062 128.789062 C 53.96875 129.359375 53.304688 129.964844 52.667969 130.601562 C 52.03125 131.238281 51.425781 131.90625 50.855469 132.601562 C 50.285156 133.296875 49.75 134.019531 49.25 134.769531 C 48.75 135.519531 48.289062 136.289062 47.863281 137.085938 C 47.441406 137.878906 47.054688 138.691406 46.710938 139.523438 C 46.367188 140.355469 46.0625 141.203125 45.804688 142.066406 C 45.542969 142.929688 45.324219 143.800781 45.148438 144.683594 C 44.972656 145.566406 44.839844 146.457031 44.753906 147.355469 C 44.664062 148.25 44.621094 149.148438 44.621094 150.050781 L 44.621094 260.066406 C 44.617188 260.914062 44.652344 261.761719 44.726562 262.609375 C 44.800781 263.457031 44.914062 264.296875 45.066406 265.132812 C 45.21875 265.96875 45.410156 266.796875 45.640625 267.613281 C 45.871094 268.429688 46.136719 269.238281 46.441406 270.03125 C 46.742188 270.824219 47.082031 271.601562 47.460938 272.363281 C 47.835938 273.125 48.246094 273.867188 48.691406 274.589844 C 49.132812 275.316406 49.613281 276.015625 50.121094 276.695312 C 50.628906 277.375 51.171875 278.03125 51.742188 278.660156 C 52.3125 279.289062 52.910156 279.890625 53.535156 280.464844 C 54.160156 281.039062 54.8125 281.582031 55.488281 282.097656 C 56.164062 282.609375 56.863281 283.089844 57.582031 283.539062 C 58.304688 283.988281 59.042969 284.402344 59.800781 284.78125 C 60.5625 285.164062 61.335938 285.507812 62.128906 285.816406 C 62.917969 286.125 63.722656 286.394531 64.539062 286.628906 C 65.355469 286.863281 66.179688 287.058594 67.011719 287.214844 C 67.847656 287.371094 68.6875 287.488281 69.53125 287.570312 L 62.9375 312.875 C 62.691406 313.765625 62.582031 314.675781 62.613281 315.601562 C 62.640625 316.523438 62.808594 317.425781 63.109375 318.300781 C 63.410156 319.175781 63.835938 319.988281 64.382812 320.734375 C 64.929688 321.480469 65.574219 322.128906 66.320312 322.679688 C 67.0625 323.230469 67.871094 323.65625 68.742188 323.964844 C 69.617188 324.269531 70.515625 324.4375 71.441406 324.472656 C 72.363281 324.503906 73.273438 324.398438 74.164062 324.15625 C 75.058594 323.914062 75.894531 323.546875 76.675781 323.050781 L 138.679688 287.570312 L 227.792969 287.570312 C 228.691406 287.570312 229.589844 287.523438 230.484375 287.4375 C 231.382812 287.347656 232.269531 287.214844 233.152344 287.039062 C 234.035156 286.863281 234.90625 286.648438 235.769531 286.386719 C 236.628906 286.125 237.476562 285.820312 238.308594 285.476562 C 239.140625 285.132812 239.953125 284.746094 240.746094 284.320312 C 241.539062 283.898438 242.308594 283.433594 243.058594 282.933594 C 243.804688 282.433594 244.527344 281.898438 245.222656 281.328125 C 245.917969 280.753906 246.585938 280.152344 247.222656 279.515625 C 247.859375 278.875 248.460938 278.210938 249.03125 277.515625 C 249.601562 276.816406 250.136719 276.09375 250.636719 275.347656 C 251.136719 274.597656 251.601562 273.824219 252.023438 273.03125 C 252.449219 272.238281 252.832031 271.421875 253.175781 270.589844 C 253.523438 269.757812 253.824219 268.910156 254.085938 268.050781 C 254.347656 267.1875 254.566406 266.316406 254.742188 265.429688 C 254.917969 264.546875 255.046875 263.65625 255.136719 262.761719 C 255.226562 261.863281 255.269531 260.964844 255.269531 260.066406 L 255.269531 253.648438 Z M 251.605469 255.023438 "/></g></g></svg>