<svg xmlns="http://www.w3.org/2000/svg" xmlns:xlink="http://www.w3.org/1999/xlink" width="500" zoomAndPan="magnify" viewBox="0 0 375 374.999991" height="500" preserveAspectRatio="xMidYMid meet" version="1.2"><defs><clipPath id="4f4f960b9f"><path d="M 87 66.289062 L 100 66.289062 L 100 99 L 87 99 Z M 87 66.289062 "/></clipPath><clipPath id="d2a82969cb"><path d="M 15.160156 133 L 48 133 L 48 145 L 15.160156 145 Z M 15.160156 133 "/></clipPath><clipPath id="36a843ab5d"><path d="M 219 165 L 341 165 L 341 308.539062 L 219 308.539062 Z M 219 165 "/></clipPath><clipPath id="03ee410acc"><path d="M 326 176 L 360.160156 176 L 360.160156 215 L 326 215 Z M 326 176 "/></clipPath></defs><g id="49c122d4f5"><g clip-rule="nonzero" clip-path="url(#4f4f960b9f)"><path style=" stroke:none;fill-rule:nonzero;fill:#000000;fill-opacity:1;" d="M 89.730469 96.925781 C 90.753906 97.945312 92.246094 98.496094 93.820312 98.496094 C 93.859375 98.496094 93.898438 98.496094 93.9375 98.496094 C 95.589844 98.457031 97.085938 97.828125 98.109375 96.769531 C 98.933594 95.90625 99.40625 94.765625 99.367188 93.628906 L 99.050781 71.089844 C 99.050781 69.910156 98.539062 68.8125 97.675781 67.949219 C 96.613281 66.925781 95.117188 66.339844 93.46875 66.378906 C 91.855469 66.378906 90.320312 67.003906 89.296875 68.027344 C 88.433594 68.890625 87.960938 70.027344 88 71.207031 L 88.316406 93.746094 C 88.394531 94.921875 88.867188 96.0625 89.730469 96.925781 Z M 89.730469 96.925781 "/></g><path style=" stroke:none;fill-rule:nonzero;fill:#000000;fill-opacity:1;" d="M 93.546875 191.4375 C 91.933594 191.4375 90.398438 192.027344 89.375 193.085938 C 88.511719 193.953125 88.039062 195.089844 88.078125 196.269531 L 88.394531 218.804688 C 88.394531 219.984375 88.90625 221.082031 89.769531 221.949219 C 90.792969 222.96875 92.289062 223.519531 93.859375 223.519531 C 93.898438 223.519531 93.9375 223.519531 93.976562 223.519531 C 95.628906 223.480469 97.125 222.851562 98.148438 221.789062 C 98.972656 220.925781 99.445312 219.789062 99.40625 218.648438 L 99.089844 196.109375 C 99.050781 193.519531 96.613281 191.4375 93.546875 191.4375 Z M 93.546875 191.4375 "/><path style=" stroke:none;fill-rule:nonzero;fill:#000000;fill-opacity:1;" d="M 141.015625 175.183594 C 139.167969 173.257812 135.980469 173.414062 133.742188 175.535156 L 133.703125 175.574219 C 131.5 177.734375 131.222656 180.914062 133.03125 182.800781 L 148.605469 199.171875 C 149.472656 200.078125 150.652344 200.507812 151.871094 200.507812 C 153.25 200.507812 154.703125 199.960938 155.882812 198.820312 C 157.0625 197.722656 157.769531 196.269531 157.808594 194.816406 C 157.851562 193.558594 157.417969 192.421875 156.589844 191.554688 Z M 141.015625 175.183594 "/><path style=" stroke:none;fill-rule:nonzero;fill:#000000;fill-opacity:1;" d="M 49.890625 173.964844 C 48.671875 173.964844 47.53125 174.4375 46.703125 175.300781 L 30.894531 191.359375 C 30.066406 192.183594 29.59375 193.324219 29.636719 194.539062 C 29.636719 196.03125 30.304688 197.523438 31.484375 198.664062 C 32.664062 199.800781 34.15625 200.390625 35.574219 200.390625 C 36.753906 200.390625 37.855469 200 38.71875 199.171875 L 54.609375 183.035156 C 55.433594 182.210938 55.90625 181.070312 55.867188 179.855469 C 55.867188 178.402344 55.199219 176.910156 54.019531 175.769531 C 52.878906 174.59375 51.382812 173.964844 49.890625 173.964844 Z M 49.890625 173.964844 "/><g clip-rule="nonzero" clip-path="url(#d2a82969cb)"><path style=" stroke:none;fill-rule:nonzero;fill:#000000;fill-opacity:1;" d="M 47.371094 138.742188 C 47.371094 137.09375 46.742188 135.5625 45.679688 134.542969 C 44.816406 133.71875 43.714844 133.246094 42.535156 133.246094 L 19.960938 133.207031 C 17.285156 133.207031 15.160156 135.640625 15.160156 138.703125 C 15.160156 141.765625 17.246094 144.203125 19.960938 144.203125 L 42.574219 144.242188 C 45.289062 144.242188 47.371094 141.804688 47.371094 138.742188 Z M 47.371094 138.742188 "/></g><path style=" stroke:none;fill-rule:nonzero;fill:#000000;fill-opacity:1;" d="M 170.710938 134.660156 C 169.84375 133.796875 168.742188 133.285156 167.5625 133.285156 L 144.949219 133.050781 L 144.910156 133.050781 C 142.234375 133.050781 140.113281 135.445312 140.113281 138.507812 C 140.074219 140.117188 140.664062 141.648438 141.683594 142.710938 C 142.550781 143.574219 143.652344 144.082031 144.832031 144.082031 L 167.445312 144.320312 L 167.484375 144.320312 C 170.160156 144.320312 172.285156 141.925781 172.285156 138.863281 C 172.285156 137.25 171.734375 135.71875 170.710938 134.660156 Z M 170.710938 134.660156 "/><path style=" stroke:none;fill-rule:nonzero;fill:#000000;fill-opacity:1;" d="M 128.550781 107.921875 C 129.730469 109.136719 131.261719 109.765625 132.71875 109.765625 C 133.859375 109.765625 134.960938 109.375 135.824219 108.546875 L 152.1875 92.960938 C 154.113281 91.113281 153.957031 87.933594 151.832031 85.695312 L 151.792969 85.65625 C 149.628906 83.457031 146.445312 83.183594 144.554688 84.988281 L 128.195312 100.578125 C 126.269531 102.460938 126.425781 105.683594 128.550781 107.921875 Z M 128.550781 107.921875 "/><path style=" stroke:none;fill-rule:nonzero;fill:#000000;fill-opacity:1;" d="M 51.816406 108.746094 C 52.601562 109.609375 53.703125 110.121094 54.925781 110.160156 C 55.003906 110.160156 55.082031 110.160156 55.121094 110.160156 C 56.535156 110.160156 57.992188 109.570312 59.132812 108.46875 C 60.3125 107.332031 61.019531 105.878906 61.058594 104.386719 C 61.097656 103.167969 60.667969 102.03125 59.878906 101.207031 L 44.382812 84.832031 C 43.597656 83.96875 42.496094 83.457031 41.277344 83.417969 C 39.78125 83.339844 38.25 83.96875 37.066406 85.105469 C 35.886719 86.246094 35.179688 87.699219 35.140625 89.191406 C 35.101562 90.40625 35.535156 91.546875 36.320312 92.371094 Z M 51.816406 108.746094 "/><path style=" stroke:none;fill-rule:nonzero;fill:#000000;fill-opacity:1;" d="M 93.703125 183.78125 C 72.230469 183.78125 54.804688 166.347656 54.804688 144.949219 C 54.804688 123.546875 72.269531 106.113281 93.703125 106.113281 C 115.175781 106.113281 132.601562 123.546875 132.601562 144.949219 C 132.601562 166.347656 115.136719 183.78125 93.703125 183.78125 Z M 93.703125 117.855469 C 78.757812 117.855469 66.605469 129.988281 66.605469 144.910156 C 66.605469 159.828125 78.757812 171.960938 93.703125 171.960938 C 108.648438 171.960938 120.800781 159.828125 120.800781 144.910156 C 120.800781 129.988281 108.648438 117.855469 93.703125 117.855469 Z M 93.703125 117.855469 "/><g clip-rule="nonzero" clip-path="url(#36a843ab5d)"><path style=" stroke:none;fill-rule:nonzero;fill:#000000;fill-opacity:1;" d="M 290.625 308.488281 C 290.117188 308.488281 289.605469 308.488281 289.09375 308.488281 C 270.570312 308.097656 253.105469 300.675781 240.007812 287.601562 C 226.480469 274.132812 219.046875 256.1875 219.046875 237.105469 C 219.046875 218.019531 226.480469 200.078125 240.007812 186.609375 C 256.292969 170.351562 279.574219 162.890625 302.308594 166.660156 C 304.511719 167.015625 306.320312 168.625 306.988281 170.746094 C 307.65625 172.867188 307.027344 175.222656 305.414062 176.753906 C 304.707031 177.421875 304.078125 178.007812 303.410156 178.675781 C 292.121094 189.945312 285.90625 204.90625 285.90625 220.847656 C 285.90625 236.789062 292.121094 251.75 303.410156 263.019531 C 312.296875 271.894531 323.546875 277.664062 335.855469 279.667969 C 338.097656 280.023438 339.90625 281.632812 340.574219 283.792969 C 341.203125 285.949219 340.574219 288.308594 338.882812 289.839844 C 325.628906 301.851562 308.523438 308.488281 290.625 308.488281 Z M 288.738281 177.460938 C 273.675781 177.929688 259.164062 184.09375 248.347656 194.894531 C 237.058594 206.164062 230.84375 221.164062 230.84375 237.066406 C 230.84375 253.007812 237.058594 267.96875 248.347656 279.195312 C 259.320312 290.152344 273.871094 296.316406 289.328125 296.671875 C 300.8125 296.90625 311.945312 293.921875 321.539062 288.070312 C 311.628906 284.578125 302.621094 278.882812 295.03125 271.304688 C 281.503906 257.796875 274.070312 239.851562 274.070312 220.808594 C 274.070312 204.90625 279.222656 189.867188 288.738281 177.460938 Z M 288.738281 177.460938 "/></g><g clip-rule="nonzero" clip-path="url(#03ee410acc)"><path style=" stroke:none;fill-rule:nonzero;fill:#000000;fill-opacity:1;" d="M 359.492188 194.933594 C 355.875 193.792969 349.699219 191.515625 348.519531 190.300781 C 347.222656 188.964844 344.863281 181.816406 343.683594 177.617188 C 343.566406 177.183594 343.171875 176.871094 342.699219 176.910156 C 342.226562 176.910156 341.875 177.261719 341.753906 177.695312 C 340.890625 182.015625 339.082031 189.316406 337.941406 190.613281 C 336.957031 191.675781 330.820312 193.792969 326.769531 194.972656 C 326.339844 195.089844 326.0625 195.484375 326.0625 195.914062 C 326.0625 196.347656 326.339844 196.738281 326.769531 196.855469 C 330.820312 198.035156 337.625 200.390625 338.765625 201.609375 C 339.867188 202.863281 341.714844 209.617188 342.582031 213.546875 C 342.699219 213.976562 343.09375 214.292969 343.523438 214.332031 C 343.996094 214.332031 344.390625 214.015625 344.46875 213.585938 C 345.492188 209.382812 347.617188 202.195312 348.992188 200.785156 C 350.054688 199.683594 355.953125 197.800781 359.414062 196.855469 C 359.847656 196.738281 360.121094 196.347656 360.121094 195.914062 C 360.160156 195.445312 359.886719 195.050781 359.492188 194.933594 Z M 359.492188 194.933594 "/></g><path style=" stroke:none;fill-rule:nonzero;fill:#000000;fill-opacity:1;" d="M 333.769531 230.507812 C 330.507812 229.527344 326.613281 228.113281 326.023438 227.484375 C 325.316406 226.777344 323.898438 222.617188 322.878906 218.964844 C 322.757812 218.53125 322.328125 218.21875 321.894531 218.257812 C 321.421875 218.296875 321.066406 218.609375 320.949219 219.082031 C 320.28125 222.695312 319.21875 227.011719 318.589844 227.679688 C 318 228.308594 313.792969 229.644531 310.253906 230.46875 C 309.820312 230.585938 309.503906 230.980469 309.503906 231.410156 C 309.503906 231.882812 309.820312 232.273438 310.253906 232.351562 C 314.066406 233.335938 318.511719 234.789062 319.101562 235.414062 C 319.691406 236.082031 320.871094 240.089844 321.578125 243.425781 C 321.695312 243.859375 322.089844 244.210938 322.523438 244.210938 C 322.996094 244.210938 323.386719 243.898438 323.46875 243.425781 C 324.136719 240.402344 325.433594 235.769531 326.21875 234.945312 C 326.730469 234.355469 330.507812 233.136719 333.652344 232.390625 C 334.085938 232.273438 334.402344 231.921875 334.402344 231.449219 C 334.402344 230.980469 334.203125 230.625 333.769531 230.507812 Z M 333.769531 230.507812 "/><path style=" stroke:none;fill-rule:nonzero;fill:#000000;fill-opacity:1;" d="M 210.433594 280.296875 C 207.089844 279.316406 201.976562 277.507812 201.152344 276.683594 C 200.207031 275.742188 198.398438 270.167969 197.375 266.476562 C 197.257812 266.042969 196.824219 265.730469 196.394531 265.769531 C 195.921875 265.769531 195.566406 266.121094 195.449219 266.554688 C 194.621094 270.992188 193.324219 276.054688 192.578125 276.878906 C 191.871094 277.664062 186.835938 279.277344 182.589844 280.257812 C 182.15625 280.375 181.839844 280.769531 181.839844 281.199219 C 181.839844 281.671875 182.15625 282.0625 182.589844 282.140625 C 187.148438 283.28125 192.5 285.046875 193.246094 285.832031 C 194.074219 286.734375 195.488281 291.996094 196.234375 295.414062 C 196.3125 295.847656 196.746094 296.199219 197.179688 296.199219 C 197.652344 296.199219 198.042969 295.886719 198.125 295.414062 C 198.871094 292.035156 200.445312 286.304688 201.464844 285.203125 C 202.09375 284.5 206.578125 283.046875 210.355469 282.140625 C 210.789062 282.023438 211.101562 281.671875 211.101562 281.199219 C 211.140625 280.808594 210.867188 280.414062 210.433594 280.296875 Z M 210.433594 280.296875 "/><path style=" stroke:none;fill-rule:nonzero;fill:#000000;fill-opacity:1;" d="M 116.003906 305.386719 C 114.625 305.386719 113.25 304.996094 112.03125 304.132812 C 108.921875 301.933594 108.175781 297.652344 110.378906 294.550781 L 244.019531 105.683594 C 246.222656 102.582031 250.511719 101.835938 253.617188 104.03125 C 256.722656 106.230469 257.472656 110.511719 255.269531 113.613281 L 121.628906 302.480469 C 120.289062 304.367188 118.167969 305.386719 116.003906 305.386719 Z M 116.003906 305.386719 "/></g></svg>