<svg xmlns="http://www.w3.org/2000/svg" xmlns:xlink="http://www.w3.org/1999/xlink" width="500" zoomAndPan="magnify" viewBox="0 0 375 374.999991" height="500" preserveAspectRatio="xMidYMid meet" version="1.2"><defs><clipPath id="c9cbe10165"><path d="M 60.355469 60.355469 L 314.605469 60.355469 L 314.605469 314.605469 L 60.355469 314.605469 Z M 60.355469 60.355469 "/></clipPath></defs><g id="f85a7aa02b"><path style=" stroke:none;fill-rule:nonzero;fill:#000000;fill-opacity:1;" d="M 187.480469 186.847656 C 186.410156 186.847656 185.339844 186.792969 184.273438 186.6875 C 183.207031 186.582031 182.148438 186.425781 181.097656 186.21875 C 180.046875 186.007812 179.011719 185.75 177.984375 185.4375 C 176.960938 185.125 175.953125 184.765625 174.960938 184.355469 C 173.972656 183.945312 173.003906 183.488281 172.058594 182.984375 C 171.113281 182.476562 170.195312 181.929688 169.304688 181.332031 C 168.414062 180.738281 167.554688 180.101562 166.726562 179.421875 C 165.898438 178.742188 165.105469 178.023438 164.347656 177.265625 C 163.589844 176.507812 162.871094 175.714844 162.191406 174.886719 C 161.511719 174.058594 160.875 173.199219 160.28125 172.304688 C 159.683594 171.414062 159.136719 170.496094 158.628906 169.554688 C 158.125 168.609375 157.667969 167.640625 157.257812 166.652344 C 156.847656 165.660156 156.488281 164.652344 156.175781 163.628906 C 155.863281 162.601562 155.605469 161.5625 155.394531 160.511719 C 155.1875 159.460938 155.03125 158.402344 154.925781 157.335938 C 154.820312 156.273438 154.765625 155.203125 154.765625 154.132812 C 154.765625 153.058594 154.820312 151.992188 154.925781 150.925781 C 155.03125 149.859375 155.1875 148.800781 155.394531 147.75 C 155.605469 146.699219 155.863281 145.660156 156.175781 144.632812 C 156.488281 143.609375 156.847656 142.601562 157.257812 141.613281 C 157.667969 140.621094 158.125 139.65625 158.628906 138.710938 C 159.136719 137.765625 159.683594 136.847656 160.28125 135.957031 C 160.875 135.066406 161.511719 134.207031 162.191406 133.378906 C 162.871094 132.550781 163.589844 131.757812 164.347656 131 C 165.105469 130.242188 165.898438 129.523438 166.726562 128.84375 C 167.554688 128.164062 168.414062 127.523438 169.304688 126.929688 C 170.195312 126.335938 171.113281 125.785156 172.058594 125.277344 C 173.003906 124.773438 173.972656 124.316406 174.960938 123.90625 C 175.953125 123.496094 176.960938 123.136719 177.984375 122.824219 C 179.011719 122.515625 180.046875 122.253906 181.097656 122.046875 C 182.148438 121.835938 183.207031 121.679688 184.273438 121.574219 C 185.339844 121.46875 186.410156 121.417969 187.480469 121.417969 C 230.863281 123.203125 230.863281 185.058594 187.480469 186.847656 Z M 187.480469 186.847656 "/><path style=" stroke:none;fill-rule:nonzero;fill:#000000;fill-opacity:1;" d="M 254.660156 224.546875 C 255.171875 225.203125 255.640625 225.894531 256.058594 226.617188 C 256.476562 227.339844 256.84375 228.089844 257.15625 228.863281 C 257.46875 229.636719 257.730469 230.425781 257.933594 231.238281 C 258.136719 232.046875 258.28125 232.867188 258.371094 233.695312 C 258.460938 234.527344 258.492188 235.359375 258.46875 236.195312 C 258.441406 237.027344 258.359375 237.855469 258.214844 238.679688 C 258.074219 239.503906 257.875 240.3125 257.621094 241.109375 C 257.367188 241.902344 257.0625 242.675781 256.699219 243.429688 C 256.335938 244.183594 255.925781 244.90625 255.460938 245.601562 C 255 246.296875 254.492188 246.957031 253.9375 247.578125 C 253.382812 248.203125 252.789062 248.789062 252.152344 249.328125 C 251.515625 249.871094 250.847656 250.367188 250.140625 250.8125 C 249.4375 251.261719 248.707031 251.660156 247.945312 252.003906 C 247.1875 252.351562 246.40625 252.644531 245.605469 252.882812 C 244.804688 253.121094 243.992188 253.300781 243.167969 253.425781 C 242.339844 253.550781 241.511719 253.617188 240.675781 253.625 L 134.289062 253.625 C 133.453125 253.617188 132.621094 253.554688 131.792969 253.429688 C 130.96875 253.304688 130.15625 253.125 129.351562 252.890625 C 128.550781 252.652344 127.769531 252.359375 127.011719 252.015625 C 126.25 251.667969 125.515625 251.273438 124.8125 250.824219 C 124.105469 250.375 123.433594 249.882812 122.800781 249.339844 C 122.164062 248.796875 121.566406 248.214844 121.011719 247.589844 C 120.457031 246.964844 119.949219 246.304688 119.484375 245.609375 C 119.019531 244.914062 118.609375 244.191406 118.246094 243.4375 C 117.882812 242.683594 117.578125 241.910156 117.320312 241.113281 C 117.066406 240.320312 116.871094 239.507812 116.730469 238.683594 C 116.585938 237.863281 116.503906 237.03125 116.480469 236.195312 C 116.453125 235.363281 116.484375 234.527344 116.574219 233.699219 C 116.667969 232.867188 116.8125 232.046875 117.019531 231.238281 C 117.222656 230.425781 117.484375 229.636719 117.800781 228.859375 C 118.113281 228.085938 118.480469 227.339844 118.902344 226.617188 C 119.320312 225.894531 119.789062 225.203125 120.304688 224.546875 C 134.964844 206.191406 160.070312 195.226562 187.480469 195.226562 C 214.894531 195.226562 240 206.191406 254.660156 224.546875 Z M 254.660156 224.546875 "/><g clip-rule="nonzero" clip-path="url(#c9cbe10165)"><path style=" stroke:none;fill-rule:nonzero;fill:#000000;fill-opacity:1;" d="M 187.480469 60.355469 C 185.402344 60.355469 183.320312 60.40625 181.242188 60.507812 C 179.164062 60.613281 177.089844 60.765625 175.019531 60.96875 C 172.949219 61.171875 170.886719 61.425781 168.828125 61.734375 C 166.769531 62.039062 164.722656 62.394531 162.679688 62.800781 C 160.640625 63.207031 158.609375 63.660156 156.59375 64.167969 C 154.574219 64.671875 152.570312 65.226562 150.578125 65.832031 C 148.589844 66.433594 146.613281 67.085938 144.65625 67.789062 C 142.695312 68.488281 140.753906 69.238281 138.832031 70.035156 C 136.910156 70.828125 135.007812 71.671875 133.128906 72.5625 C 131.246094 73.453125 129.390625 74.386719 127.554688 75.367188 C 125.71875 76.347656 123.910156 77.375 122.125 78.441406 C 120.34375 79.511719 118.585938 80.625 116.855469 81.78125 C 115.125 82.9375 113.425781 84.132812 111.753906 85.375 C 110.082031 86.613281 108.441406 87.894531 106.835938 89.210938 C 105.226562 90.53125 103.652344 91.890625 102.109375 93.289062 C 100.566406 94.683594 99.0625 96.121094 97.589844 97.589844 C 96.121094 99.0625 94.683594 100.566406 93.289062 102.109375 C 91.890625 103.652344 90.53125 105.226562 89.210938 106.835938 C 87.894531 108.441406 86.613281 110.082031 85.375 111.753906 C 84.132812 113.425781 82.9375 115.125 81.78125 116.855469 C 80.625 118.585938 79.511719 120.34375 78.441406 122.125 C 77.375 123.910156 76.347656 125.71875 75.367188 127.554688 C 74.386719 129.390625 73.453125 131.246094 72.5625 133.128906 C 71.671875 135.007812 70.828125 136.910156 70.035156 138.832031 C 69.238281 140.753906 68.488281 142.695312 67.789062 144.65625 C 67.085938 146.613281 66.433594 148.589844 65.832031 150.578125 C 65.226562 152.570312 64.671875 154.574219 64.167969 156.59375 C 63.660156 158.609375 63.207031 160.640625 62.800781 162.679688 C 62.394531 164.722656 62.039062 166.769531 61.734375 168.828125 C 61.425781 170.886719 61.171875 172.949219 60.96875 175.019531 C 60.765625 177.089844 60.613281 179.164062 60.507812 181.242188 C 60.40625 183.320312 60.355469 185.402344 60.355469 187.480469 C 60.355469 189.5625 60.40625 191.640625 60.507812 193.71875 C 60.613281 195.796875 60.765625 197.871094 60.96875 199.941406 C 61.171875 202.011719 61.425781 204.078125 61.734375 206.132812 C 62.039062 208.191406 62.394531 210.242188 62.800781 212.28125 C 63.207031 214.324219 63.660156 216.351562 64.167969 218.371094 C 64.671875 220.386719 65.226562 222.394531 65.832031 224.382812 C 66.433594 226.375 67.085938 228.351562 67.789062 230.308594 C 68.488281 232.269531 69.238281 234.207031 70.035156 236.128906 C 70.828125 238.050781 71.671875 239.953125 72.5625 241.835938 C 73.453125 243.714844 74.386719 245.574219 75.367188 247.40625 C 76.347656 249.242188 77.375 251.050781 78.441406 252.835938 C 79.511719 254.621094 80.625 256.378906 81.78125 258.109375 C 82.9375 259.839844 84.132812 261.539062 85.375 263.210938 C 86.613281 264.882812 87.894531 266.519531 89.210938 268.128906 C 90.53125 269.738281 91.890625 271.3125 93.289062 272.855469 C 94.683594 274.394531 96.121094 275.902344 97.589844 277.371094 C 99.0625 278.84375 100.566406 280.277344 102.109375 281.675781 C 103.652344 283.070312 105.226562 284.429688 106.835938 285.75 C 108.441406 287.070312 110.082031 288.351562 111.753906 289.589844 C 113.425781 290.828125 115.125 292.027344 116.855469 293.183594 C 118.585938 294.339844 120.34375 295.449219 122.125 296.519531 C 123.910156 297.589844 125.71875 298.613281 127.554688 299.597656 C 129.390625 300.578125 131.246094 301.511719 133.128906 302.402344 C 135.007812 303.289062 136.910156 304.132812 138.832031 304.929688 C 140.753906 305.726562 142.695312 306.472656 144.65625 307.175781 C 146.613281 307.875 148.589844 308.527344 150.578125 309.132812 C 152.570312 309.738281 154.574219 310.292969 156.59375 310.796875 C 158.609375 311.300781 160.640625 311.757812 162.679688 312.164062 C 164.722656 312.570312 166.769531 312.925781 168.828125 313.230469 C 170.886719 313.535156 172.949219 313.789062 175.019531 313.996094 C 177.089844 314.199219 179.164062 314.351562 181.242188 314.453125 C 183.320312 314.554688 185.402344 314.605469 187.480469 314.605469 C 189.5625 314.605469 191.640625 314.554688 193.71875 314.453125 C 195.796875 314.351562 197.871094 314.199219 199.941406 313.996094 C 202.011719 313.789062 204.078125 313.535156 206.132812 313.230469 C 208.191406 312.925781 210.242188 312.570312 212.28125 312.164062 C 214.324219 311.757812 216.351562 311.300781 218.371094 310.796875 C 220.386719 310.292969 222.394531 309.738281 224.382812 309.132812 C 226.375 308.527344 228.351562 307.875 230.308594 307.175781 C 232.269531 306.472656 234.207031 305.726562 236.128906 304.929688 C 238.050781 304.132812 239.953125 303.289062 241.835938 302.402344 C 243.714844 301.511719 245.574219 300.578125 247.40625 299.597656 C 249.242188 298.613281 251.050781 297.589844 252.835938 296.519531 C 254.621094 295.449219 256.378906 294.339844 258.109375 293.183594 C 259.839844 292.027344 261.539062 290.828125 263.210938 289.589844 C 264.882812 288.351562 266.519531 287.070312 268.128906 285.75 C 269.738281 284.429688 271.3125 283.070312 272.855469 281.675781 C 274.394531 280.277344 275.902344 278.84375 277.371094 277.371094 C 278.84375 275.902344 280.277344 274.394531 281.675781 272.855469 C 283.070312 271.3125 284.429688 269.738281 285.75 268.128906 C 287.070312 266.519531 288.351562 264.882812 289.589844 263.210938 C 290.828125 261.539062 292.027344 259.839844 293.183594 258.109375 C 294.339844 256.378906 295.449219 254.621094 296.519531 252.835938 C 297.589844 251.050781 298.613281 249.242188 299.597656 247.40625 C 300.578125 245.574219 301.511719 243.714844 302.402344 241.835938 C 303.289062 239.953125 304.132812 238.050781 304.929688 236.128906 C 305.726562 234.207031 306.472656 232.269531 307.175781 230.308594 C 307.875 228.351562 308.527344 226.375 309.132812 224.382812 C 309.738281 222.394531 310.292969 220.386719 310.796875 218.371094 C 311.300781 216.351562 311.757812 214.324219 312.164062 212.28125 C 312.570312 210.242188 312.925781 208.191406 313.230469 206.132812 C 313.535156 204.078125 313.789062 202.011719 313.996094 199.941406 C 314.199219 197.871094 314.351562 195.796875 314.453125 193.71875 C 314.554688 191.640625 314.605469 189.5625 314.605469 187.480469 C 314.605469 185.402344 314.554688 183.320312 314.453125 181.242188 C 314.351562 179.167969 314.195312 177.09375 313.992188 175.023438 C 313.789062 172.953125 313.535156 170.886719 313.230469 168.828125 C 312.921875 166.769531 312.566406 164.722656 312.160156 162.683594 C 311.753906 160.640625 311.300781 158.613281 310.792969 156.59375 C 310.289062 154.574219 309.734375 152.570312 309.128906 150.582031 C 308.523438 148.589844 307.871094 146.617188 307.171875 144.65625 C 306.46875 142.699219 305.722656 140.757812 304.925781 138.835938 C 304.128906 136.914062 303.285156 135.011719 302.398438 133.132812 C 301.507812 131.25 300.570312 129.394531 299.589844 127.558594 C 298.609375 125.722656 297.585938 123.914062 296.515625 122.128906 C 295.445312 120.34375 294.332031 118.589844 293.175781 116.859375 C 292.019531 115.128906 290.824219 113.429688 289.585938 111.757812 C 288.34375 110.085938 287.066406 108.445312 285.746094 106.839844 C 284.425781 105.230469 283.066406 103.65625 281.671875 102.113281 C 280.273438 100.574219 278.839844 99.066406 277.367188 97.59375 C 275.898438 96.125 274.390625 94.691406 272.847656 93.292969 C 271.308594 91.894531 269.734375 90.539062 268.125 89.21875 C 266.515625 87.898438 264.875 86.617188 263.207031 85.378906 C 261.535156 84.140625 259.835938 82.941406 258.105469 81.785156 C 256.375 80.628906 254.617188 79.515625 252.832031 78.449219 C 251.050781 77.378906 249.238281 76.351562 247.40625 75.371094 C 245.570312 74.390625 243.710938 73.457031 241.832031 72.566406 C 239.949219 71.675781 238.050781 70.832031 236.128906 70.039062 C 234.207031 69.242188 232.265625 68.492188 230.304688 67.792969 C 228.347656 67.089844 226.375 66.4375 224.382812 65.835938 C 222.390625 65.230469 220.386719 64.675781 218.367188 64.167969 C 216.351562 63.664062 214.320312 63.207031 212.28125 62.800781 C 210.242188 62.394531 208.191406 62.039062 206.132812 61.734375 C 204.074219 61.429688 202.011719 61.175781 199.941406 60.96875 C 197.871094 60.765625 195.796875 60.613281 193.71875 60.511719 C 191.640625 60.40625 189.5625 60.355469 187.480469 60.355469 Z M 264.3125 247.152344 C 263.785156 248.261719 263.179688 249.328125 262.5 250.351562 C 261.820312 251.375 261.070312 252.347656 260.253906 253.265625 C 259.433594 254.183594 258.558594 255.042969 257.617188 255.835938 C 256.679688 256.628906 255.691406 257.355469 254.648438 258.007812 C 253.609375 258.664062 252.527344 259.242188 251.402344 259.742188 C 250.28125 260.242188 249.128906 260.664062 247.945312 261.003906 C 246.765625 261.339844 245.566406 261.59375 244.347656 261.761719 C 243.128906 261.929688 241.90625 262.011719 240.675781 262.007812 L 134.289062 262.007812 C 133.0625 262 131.839844 261.90625 130.628906 261.726562 C 129.414062 261.542969 128.21875 261.28125 127.042969 260.933594 C 125.867188 260.589844 124.71875 260.160156 123.601562 259.65625 C 122.484375 259.148438 121.410156 258.566406 120.371094 257.910156 C 119.335938 257.25 118.351562 256.527344 117.417969 255.730469 C 116.484375 254.9375 115.609375 254.082031 114.792969 253.164062 C 113.980469 252.246094 113.230469 251.277344 112.550781 250.257812 C 111.871094 249.234375 111.265625 248.171875 110.734375 247.066406 C 110.203125 245.960938 109.753906 244.824219 109.378906 243.65625 C 109.007812 242.488281 108.71875 241.296875 108.511719 240.089844 C 108.304688 238.878906 108.183594 237.660156 108.148438 236.4375 C 108.109375 235.210938 108.160156 233.988281 108.292969 232.769531 C 108.429688 231.546875 108.648438 230.34375 108.949219 229.15625 C 109.25 227.964844 109.636719 226.804688 110.097656 225.667969 C 110.5625 224.535156 111.105469 223.4375 111.722656 222.378906 C 112.339844 221.316406 113.03125 220.304688 113.789062 219.34375 C 117.085938 215.40625 120.699219 211.78125 124.628906 208.472656 C 128.554688 205.160156 132.738281 202.214844 137.179688 199.628906 C 141.617188 197.046875 146.246094 194.863281 151.0625 193.085938 C 155.882812 191.304688 160.816406 189.953125 165.871094 189.03125 C 164.390625 188.113281 162.976562 187.105469 161.625 186.011719 C 160.273438 184.914062 159 183.738281 157.796875 182.476562 C 156.59375 181.21875 155.476562 179.890625 154.445312 178.488281 C 153.410156 177.089844 152.46875 175.628906 151.621094 174.109375 C 150.773438 172.589844 150.027344 171.023438 149.375 169.410156 C 148.726562 167.796875 148.183594 166.148438 147.742188 164.464844 C 147.300781 162.78125 146.96875 161.074219 146.746094 159.347656 C 146.523438 157.625 146.410156 155.890625 146.40625 154.152344 C 148.667969 99.644531 226.292969 99.6875 228.558594 154.152344 C 228.554688 155.890625 228.441406 157.625 228.214844 159.351562 C 227.992188 161.078125 227.660156 162.785156 227.21875 164.46875 C 226.777344 166.152344 226.230469 167.804688 225.582031 169.417969 C 224.929688 171.035156 224.179688 172.601562 223.332031 174.121094 C 222.480469 175.640625 221.539062 177.101562 220.503906 178.5 C 219.46875 179.898438 218.347656 181.230469 217.144531 182.488281 C 215.9375 183.746094 214.660156 184.921875 213.304688 186.015625 C 211.953125 187.109375 210.535156 188.117188 209.054688 189.03125 C 234.519531 193.796875 278.019531 217.832031 264.3125 247.152344 Z M 264.3125 247.152344 "/></g></g></svg>