<svg xmlns="http://www.w3.org/2000/svg" xmlns:xlink="http://www.w3.org/1999/xlink" width="500" zoomAndPan="magnify" viewBox="0 0 375 374.999991" height="500" preserveAspectRatio="xMidYMid meet" version="1.2"><defs><clipPath id="b661a8a1ac"><path d="M 57.65625 52.597656 L 315 52.597656 L 315 321 L 57.65625 321 Z M 57.65625 52.597656 "/></clipPath></defs><g id="59aa165bfd"><g clip-rule="nonzero" clip-path="url(#b661a8a1ac)"><path style=" stroke:none;fill-rule:evenodd;fill:#000000;fill-opacity:1;" d="M 167.070312 52.597656 C 138.0625 52.597656 110.242188 64.136719 89.730469 84.679688 C 69.21875 105.21875 57.695312 133.078125 57.695312 162.128906 C 57.695312 191.179688 69.21875 219.039062 89.730469 239.582031 C 110.242188 260.121094 138.0625 271.664062 167.070312 271.664062 C 185.277344 271.566406 203.175781 266.917969 219.136719 258.136719 L 272.839844 312.808594 C 282.320312 322.464844 297.710938 322.589844 307.351562 313.09375 C 316.992188 303.601562 317.117188 288.183594 307.636719 278.53125 L 255.792969 225.746094 C 269.132812 207.214844 276.351562 184.972656 276.441406 162.128906 C 276.441406 133.078125 264.917969 105.21875 244.40625 84.679688 C 223.894531 64.136719 196.074219 52.597656 167.070312 52.597656 Z M 168.316406 84.445312 C 187.699219 84.445312 206.289062 92.519531 219.992188 106.886719 C 233.699219 121.257812 241.398438 140.746094 241.398438 161.066406 C 241.351562 183.085938 232.265625 204.023438 216.460938 218.53125 C 216.109375 218.84375 215.761719 219.164062 215.421875 219.496094 C 215.230469 219.683594 215.050781 219.878906 214.867188 220.070312 C 201.777344 231.4375 185.316406 237.664062 168.316406 237.683594 C 148.9375 237.683594 130.347656 229.609375 116.640625 215.242188 C 102.9375 200.875 95.238281 181.386719 95.238281 161.066406 C 95.238281 140.746094 102.9375 121.257812 116.640625 106.886719 C 130.347656 92.519531 148.9375 84.445312 168.316406 84.445312 Z M 168.316406 84.445312 "/></g></g></svg>