<svg xmlns="http://www.w3.org/2000/svg" xmlns:xlink="http://www.w3.org/1999/xlink" width="500" zoomAndPan="magnify" viewBox="0 0 375 374.999991" height="500" preserveAspectRatio="xMidYMid meet" version="1.2"><defs><clipPath id="58e02e0796"><path d="M 17 94 L 358 94 L 358 312.796875 L 17 312.796875 Z M 17 94 "/></clipPath><clipPath id="e8a740428c"><path d="M 88 62.296875 L 181 62.296875 L 181 270 L 88 270 Z M 88 62.296875 "/></clipPath></defs><g id="c931f7fe25"><g clip-rule="nonzero" clip-path="url(#58e02e0796)"><path style=" stroke:none;fill-rule:nonzero;fill:#000000;fill-opacity:1;" d="M 345.097656 94.445312 L 334.183594 94.445312 C 334.304688 94.929688 334.367188 273.070312 334.367188 273.070312 C 334.363281 273.515625 334.316406 273.957031 334.21875 274.394531 C 334.121094 274.828125 333.976562 275.25 333.785156 275.652344 C 333.59375 276.058594 333.359375 276.433594 333.085938 276.789062 C 332.8125 277.140625 332.503906 277.457031 332.15625 277.742188 C 331.8125 278.027344 331.441406 278.269531 331.042969 278.46875 C 330.644531 278.671875 330.230469 278.828125 329.796875 278.9375 C 329.363281 279.046875 328.925781 279.109375 328.476562 279.121094 C 328.03125 279.136719 327.589844 279.097656 327.152344 279.015625 C 325.9375 277.925781 239.027344 264.101562 186.933594 291.207031 C 129.476562 264.449219 48.160156 280.847656 48.046875 281.867188 C 47.601562 281.96875 47.152344 282.019531 46.695312 282.023438 C 46.234375 282.023438 45.785156 281.976562 45.335938 281.875 C 44.890625 281.777344 44.460938 281.628906 44.046875 281.433594 C 43.632812 281.238281 43.246094 281 42.886719 280.714844 C 42.527344 280.433594 42.203125 280.117188 41.914062 279.761719 C 41.625 279.40625 41.378906 279.023438 41.175781 278.617188 C 40.96875 278.207031 40.8125 277.777344 40.707031 277.335938 C 40.597656 276.890625 40.539062 276.4375 40.53125 275.980469 L 40.53125 94.445312 L 29.863281 94.445312 C 29.066406 94.445312 28.277344 94.527344 27.5 94.683594 C 26.71875 94.839844 25.960938 95.070312 25.226562 95.378906 C 24.492188 95.683594 23.792969 96.058594 23.132812 96.5 C 22.472656 96.941406 21.859375 97.445312 21.296875 98.007812 C 20.734375 98.570312 20.234375 99.183594 19.792969 99.84375 C 19.347656 100.503906 18.976562 101.203125 18.667969 101.9375 C 18.363281 102.671875 18.132812 103.429688 17.976562 104.210938 C 17.820312 104.992188 17.738281 105.78125 17.738281 106.574219 L 17.738281 292.238281 C 17.738281 293.03125 17.8125 293.820312 17.96875 294.601562 C 18.125 295.382812 18.355469 296.144531 18.660156 296.878906 C 18.964844 297.613281 19.335938 298.3125 19.78125 298.976562 C 20.222656 299.640625 20.722656 300.25 21.289062 300.816406 C 21.851562 301.378906 22.460938 301.882812 23.125 302.324219 C 23.785156 302.765625 24.484375 303.140625 25.222656 303.445312 C 25.957031 303.75 26.714844 303.980469 27.496094 304.132812 C 28.277344 304.289062 29.066406 304.367188 29.863281 304.367188 L 171.351562 304.367188 C 171.820312 304.988281 172.324219 305.578125 172.863281 306.140625 C 173.398438 306.703125 173.96875 307.230469 174.566406 307.726562 C 175.164062 308.222656 175.789062 308.683594 176.441406 309.105469 C 177.089844 309.53125 177.765625 309.914062 178.460938 310.261719 C 179.15625 310.609375 179.871094 310.914062 180.601562 311.175781 C 181.332031 311.441406 182.074219 311.660156 182.832031 311.839844 C 183.589844 312.015625 184.351562 312.148438 185.125 312.238281 C 185.898438 312.328125 186.671875 312.375 187.449219 312.375 C 188.226562 312.375 189 312.328125 189.773438 312.238281 C 190.542969 312.148438 191.308594 312.015625 192.0625 311.839844 C 192.820312 311.660156 193.5625 311.441406 194.296875 311.175781 C 195.027344 310.914062 195.738281 310.609375 196.4375 310.261719 C 197.132812 309.914062 197.804688 309.53125 198.457031 309.105469 C 199.109375 308.683594 199.734375 308.222656 200.332031 307.726562 C 200.929688 307.230469 201.496094 306.703125 202.035156 306.140625 C 202.570312 305.578125 203.074219 304.988281 203.542969 304.367188 L 345.097656 304.367188 C 345.890625 304.367188 346.679688 304.289062 347.460938 304.132812 C 348.242188 303.980469 349 303.75 349.734375 303.445312 C 350.472656 303.140625 351.171875 302.765625 351.832031 302.324219 C 352.496094 301.882812 353.105469 301.378906 353.667969 300.816406 C 354.234375 300.25 354.734375 299.640625 355.179688 298.976562 C 355.621094 298.3125 355.992188 297.613281 356.296875 296.878906 C 356.601562 296.144531 356.832031 295.382812 356.988281 294.601562 C 357.144531 293.820312 357.21875 293.03125 357.21875 292.238281 L 357.21875 106.574219 C 357.21875 105.78125 357.136719 104.992188 356.980469 104.210938 C 356.824219 103.429688 356.59375 102.671875 356.289062 101.9375 C 355.980469 101.203125 355.609375 100.503906 355.164062 99.84375 C 354.722656 99.183594 354.222656 98.570312 353.660156 98.007812 C 353.097656 97.445312 352.484375 96.941406 351.824219 96.5 C 351.164062 96.058594 350.464844 95.683594 349.730469 95.378906 C 348.996094 95.070312 348.238281 94.839844 347.457031 94.683594 C 346.679688 94.527344 345.890625 94.445312 345.097656 94.445312 Z M 345.097656 94.445312 "/></g><g clip-rule="nonzero" clip-path="url(#e8a740428c)"><path style=" stroke:none;fill-rule:nonzero;fill:#000000;fill-opacity:1;" d="M 180.929688 98.8125 C 172.019531 91.410156 134.191406 62.480469 88.664062 62.117188 L 88.664062 237.464844 C 105.273438 239.042969 153.226562 245.410156 180.929688 269.429688 Z M 180.929688 98.8125 "/></g><path style=" stroke:none;fill-rule:nonzero;fill:#000000;fill-opacity:1;" d="M 159.957031 269.550781 C 128.492188 251.839844 82.84375 249.171875 82.300781 249.171875 C 81.914062 249.152344 81.535156 249.09375 81.164062 249 C 80.789062 248.90625 80.429688 248.777344 80.078125 248.617188 C 79.730469 248.453125 79.398438 248.261719 79.085938 248.035156 C 78.773438 247.8125 78.484375 247.558594 78.21875 247.28125 C 77.953125 247 77.71875 246.699219 77.507812 246.375 C 77.300781 246.050781 77.125 245.710938 76.980469 245.355469 C 76.835938 244.996094 76.730469 244.628906 76.65625 244.25 C 76.582031 243.875 76.542969 243.492188 76.539062 243.105469 L 76.539062 81.949219 L 52.65625 81.949219 L 52.65625 268.460938 C 70.386719 264.96875 88.289062 263.3125 106.363281 263.496094 C 124.433594 263.679688 142.296875 265.699219 159.957031 269.550781 Z M 159.957031 269.550781 "/><path style=" stroke:none;fill-rule:nonzero;fill:#000000;fill-opacity:1;" d="M 233.003906 122.890625 C 236.554688 122.5625 240.460938 128.320312 242.828125 130.289062 C 242.828125 130.289062 242.828125 82.253906 242.886719 81.949219 L 224.578125 81.949219 C 222.222656 82.007812 221.535156 84.347656 221.789062 86.316406 L 221.789062 131.566406 C 224.503906 129.347656 229.332031 122.484375 233.003906 122.890625 Z M 233.003906 122.890625 "/><path style=" stroke:none;fill-rule:nonzero;fill:#000000;fill-opacity:1;" d="M 322.242188 265.914062 L 322.242188 100.085938 C 311.726562 96.671875 300.984375 94.316406 290.003906 93.019531 C 279.027344 91.722656 268.03125 91.511719 257.011719 92.382812 C 256.328125 92.457031 255.640625 92.5 254.949219 92.503906 L 254.949219 144.910156 C 254.941406 145.503906 254.851562 146.082031 254.671875 146.648438 C 254.496094 147.214844 254.242188 147.746094 253.910156 148.238281 C 253.578125 148.730469 253.179688 149.164062 252.722656 149.539062 C 252.261719 149.914062 251.757812 150.21875 251.210938 150.449219 C 250.664062 150.675781 250.09375 150.820312 249.503906 150.882812 C 248.914062 150.945312 248.328125 150.921875 247.742188 150.8125 C 247.160156 150.703125 246.605469 150.511719 246.078125 150.242188 C 245.550781 149.96875 245.074219 149.625 244.644531 149.214844 L 233.003906 137.570312 L 220.03125 150.550781 C 219.601562 150.960938 219.121094 151.300781 218.59375 151.570312 C 218.0625 151.84375 217.507812 152.03125 216.921875 152.140625 C 216.335938 152.25 215.75 152.273438 215.15625 152.210938 C 214.566406 152.148438 213.996094 152.003906 213.445312 151.777344 C 212.898438 151.546875 212.390625 151.246094 211.929688 150.871094 C 211.46875 150.496094 211.070312 150.0625 210.734375 149.570312 C 210.398438 149.082031 210.140625 148.550781 209.957031 147.984375 C 209.777344 147.417969 209.679688 146.835938 209.667969 146.242188 L 209.667969 97.660156 C 202.574219 98.871094 196.8125 100.023438 193.054688 100.8125 L 193.054688 275.617188 C 240.097656 255.722656 301.386719 262.699219 322.242188 265.914062 Z M 322.242188 265.914062 "/></g></svg>