<svg xmlns="http://www.w3.org/2000/svg" xmlns:xlink="http://www.w3.org/1999/xlink" width="500" zoomAndPan="magnify" viewBox="0 0 375 374.999991" height="500" preserveAspectRatio="xMidYMid meet" version="1.2"><defs><clipPath id="007b07c515"><path d="M 28.4375 0 L 343.4375 0 L 343.4375 371.25 L 28.4375 371.25 Z M 28.4375 0 "/></clipPath></defs><g id="64b2faa22c"><g clip-rule="nonzero" clip-path="url(#007b07c515)"><path style=" stroke:none;fill-rule:evenodd;fill:#000000;fill-opacity:1;" d="M 200.421875 287.78125 L 34.324219 287.78125 C 31.113281 287.78125 28.503906 285.171875 28.503906 281.984375 L 28.503906 5.816406 C 28.503906 2.605469 31.113281 0 34.324219 0 L 202.230469 0 C 202.222656 0.171875 202.21875 0.34375 202.21875 0.515625 L 202.21875 33.074219 C 202.21875 41.453125 209.125 48.359375 217.503906 48.359375 L 250.070312 48.359375 C 250.242188 48.359375 250.414062 48.355469 250.585938 48.347656 L 250.585938 172.636719 C 217.65625 172.636719 190.8125 199.5 190.8125 232.425781 C 190.8125 252.40625 200.699219 270.152344 215.828125 281.023438 C 210.488281 282.871094 205.339844 285.136719 200.421875 287.78125 Z M 110.066406 177.976562 L 178.019531 177.976562 C 181.433594 177.976562 184.207031 175.203125 184.207031 171.789062 C 184.207031 168.371094 181.433594 165.601562 178.019531 165.601562 L 110.066406 165.601562 C 106.648438 165.601562 103.878906 168.371094 103.878906 171.789062 C 103.878906 175.203125 106.648438 177.976562 110.066406 177.976562 Z M 55.507812 232.820312 L 84.84375 232.820312 C 88.261719 232.820312 91.03125 230.050781 91.03125 226.632812 C 91.03125 223.21875 88.261719 220.445312 84.84375 220.445312 L 55.507812 220.445312 C 52.089844 220.445312 49.320312 223.21875 49.320312 226.632812 C 49.320312 230.050781 52.089844 232.820312 55.507812 232.820312 Z M 116.488281 40.421875 L 116.488281 82.921875 L 158.992188 82.921875 C 158.992188 59.449219 139.960938 40.421875 116.488281 40.421875 Z M 147.511719 205.398438 L 178.019531 205.398438 C 181.433594 205.398438 184.207031 202.625 184.207031 199.210938 C 184.207031 195.796875 181.433594 193.023438 178.019531 193.023438 L 147.511719 193.023438 C 144.09375 193.023438 141.320312 195.796875 141.320312 199.210938 C 141.320312 202.625 144.09375 205.398438 147.511719 205.398438 Z M 55.507812 205.398438 L 127.929688 205.398438 C 131.34375 205.398438 134.117188 202.625 134.117188 199.210938 C 134.117188 195.796875 131.34375 193.023438 127.929688 193.023438 L 55.507812 193.023438 C 52.089844 193.023438 49.320312 195.796875 49.320312 199.210938 C 49.320312 202.625 52.089844 205.398438 55.507812 205.398438 Z M 55.507812 177.976562 L 85.5 177.976562 C 88.914062 177.976562 91.6875 175.203125 91.6875 171.789062 C 91.6875 168.371094 88.914062 165.601562 85.5 165.601562 L 55.507812 165.601562 C 52.089844 165.601562 49.320312 168.371094 49.320312 171.789062 C 49.320312 175.203125 52.089844 177.976562 55.507812 177.976562 Z M 111.421875 232.820312 L 178.019531 232.820312 C 181.433594 232.820312 184.207031 230.050781 184.207031 226.632812 C 184.207031 223.21875 181.433594 220.445312 178.019531 220.445312 L 111.421875 220.445312 C 108.007812 220.445312 105.234375 223.21875 105.234375 226.632812 C 105.234375 230.050781 108.007812 232.820312 111.421875 232.820312 Z M 171.511719 130.789062 L 229.421875 130.789062 C 232.839844 130.789062 235.613281 128.019531 235.613281 124.601562 C 235.613281 121.1875 232.839844 118.414062 229.421875 118.414062 L 171.511719 118.414062 C 168.097656 118.414062 165.324219 121.1875 165.324219 124.601562 C 165.324219 128.019531 168.097656 130.789062 171.511719 130.789062 Z M 55.507812 260.246094 L 178.019531 260.246094 C 181.433594 260.246094 184.207031 257.472656 184.207031 254.058594 C 184.207031 250.640625 181.433594 247.871094 178.019531 247.871094 L 55.507812 247.871094 C 52.089844 247.871094 49.320312 250.640625 49.320312 254.058594 C 49.320312 257.472656 52.089844 260.246094 55.507812 260.246094 Z M 140.519531 101.390625 L 98.011719 101.390625 L 98.011719 58.894531 C 74.535156 58.894531 55.507812 77.921875 55.507812 101.390625 C 55.507812 124.863281 74.535156 143.890625 98.011719 143.890625 C 121.488281 143.890625 140.519531 124.863281 140.519531 101.390625 Z M 171.511719 104.777344 L 214.597656 104.777344 C 218.011719 104.777344 220.785156 102.003906 220.785156 98.589844 C 220.785156 95.175781 218.011719 92.402344 214.597656 92.402344 L 171.511719 92.402344 C 168.097656 92.402344 165.324219 95.175781 165.324219 98.589844 C 165.324219 102.003906 168.097656 104.777344 171.511719 104.777344 Z M 214.597656 0.515625 C 215.222656 0.796875 215.78125 1.183594 216.300781 1.703125 L 248.882812 34.28125 C 249.402344 34.796875 249.789062 35.359375 250.070312 35.984375 L 217.503906 35.984375 C 215.910156 35.984375 214.597656 34.667969 214.597656 33.074219 Z M 161.738281 371.25 C 160.613281 371.25 159.546875 370.761719 158.808594 369.910156 C 158.074219 369.058594 157.746094 367.929688 157.910156 366.820312 C 164.917969 321.929688 203.742188 287.574219 250.585938 287.574219 C 297.453125 287.574219 336.277344 321.933594 343.25 366.820312 C 343.414062 367.929688 343.085938 369.054688 342.355469 369.902344 C 341.621094 370.75 340.558594 371.238281 339.4375 371.238281 C 314.109375 371.25 187.070312 371.25 161.738281 371.25 Z M 250.585938 279.839844 C 224.472656 279.839844 203.1875 258.53125 203.1875 232.425781 C 203.1875 206.316406 224.472656 185.011719 250.585938 185.011719 C 276.722656 185.011719 298.007812 206.316406 298.007812 232.425781 C 298.007812 258.53125 276.722656 279.839844 250.585938 279.839844 Z M 250.585938 279.839844 "/></g></g></svg>