<svg xmlns="http://www.w3.org/2000/svg" xmlns:xlink="http://www.w3.org/1999/xlink" width="500" zoomAndPan="magnify" viewBox="0 0 375 374.999991" height="500" preserveAspectRatio="xMidYMid meet" version="1.0"><defs><clipPath id="0512864995"><path d="M 116.21875 62.714844 L 258.71875 62.714844 L 258.71875 312.464844 L 116.21875 312.464844 Z M 116.21875 62.714844 " clip-rule="nonzero"/></clipPath><clipPath id="ee7524d95b"><path d="M 1 3 L 142.71875 3 L 142.71875 250 L 1 250 Z M 1 3 " clip-rule="nonzero"/></clipPath><clipPath id="82f3ac4756"><rect x="0" width="143" y="0" height="251"/></clipPath></defs><g clip-path="url(#0512864995)"><g transform="matrix(1, 0, 0, 1, 116, 62)"><g clip-path="url(#82f3ac4756)"><g clip-path="url(#ee7524d95b)"><path fill="#000000" d="M 100.378906 126.472656 L 7.136719 33.296875 C 6.726562 32.886719 6.339844 32.460938 5.972656 32.011719 C 5.605469 31.5625 5.261719 31.101562 4.941406 30.617188 C 4.617188 30.136719 4.320312 29.640625 4.046875 29.128906 C 3.777344 28.617188 3.527344 28.097656 3.308594 27.5625 C 3.085938 27.027344 2.890625 26.480469 2.722656 25.925781 C 2.554688 25.371094 2.414062 24.8125 2.300781 24.242188 C 2.1875 23.675781 2.105469 23.101562 2.046875 22.527344 C 1.992188 21.949219 1.960938 21.371094 1.960938 20.792969 C 1.960938 20.214844 1.992188 19.636719 2.046875 19.058594 C 2.105469 18.484375 2.1875 17.910156 2.300781 17.34375 C 2.414062 16.773438 2.554688 16.214844 2.722656 15.660156 C 2.890625 15.105469 3.085938 14.558594 3.308594 14.023438 C 3.527344 13.488281 3.777344 12.96875 4.046875 12.457031 C 4.320312 11.945312 4.617188 11.449219 4.941406 10.96875 C 5.261719 10.484375 5.605469 10.019531 5.972656 9.574219 C 6.339844 9.125 6.726562 8.695312 7.136719 8.289062 C 7.546875 7.878906 7.972656 7.488281 8.421875 7.121094 C 8.867188 6.753906 9.332031 6.410156 9.8125 6.089844 C 10.292969 5.765625 10.789062 5.46875 11.300781 5.195312 C 11.808594 4.921875 12.332031 4.675781 12.867188 4.453125 C 13.402344 4.230469 13.945312 4.039062 14.5 3.871094 C 15.054688 3.699219 15.613281 3.558594 16.179688 3.449219 C 16.75 3.335938 17.320312 3.25 17.894531 3.191406 C 18.472656 3.136719 19.046875 3.109375 19.628906 3.109375 C 20.207031 3.109375 20.78125 3.136719 21.359375 3.191406 C 21.933594 3.25 22.507812 3.335938 23.074219 3.449219 C 23.640625 3.558594 24.203125 3.699219 24.753906 3.871094 C 25.308594 4.039062 25.851562 4.230469 26.386719 4.453125 C 26.921875 4.675781 27.445312 4.921875 27.953125 5.195312 C 28.464844 5.46875 28.960938 5.765625 29.441406 6.089844 C 29.921875 6.410156 30.386719 6.753906 30.832031 7.121094 C 31.28125 7.488281 31.707031 7.878906 32.117188 8.289062 L 137.671875 113.964844 C 138.085938 114.375 138.476562 114.800781 138.84375 115.25 C 139.214844 115.695312 139.558594 116.160156 139.882812 116.640625 C 140.207031 117.121094 140.503906 117.617188 140.777344 118.128906 C 141.054688 118.640625 141.300781 119.164062 141.523438 119.699219 C 141.746094 120.234375 141.941406 120.777344 142.113281 121.332031 C 142.28125 121.886719 142.421875 122.449219 142.535156 123.015625 C 142.648438 123.585938 142.734375 124.160156 142.792969 124.734375 C 142.847656 125.3125 142.878906 125.890625 142.878906 126.472656 C 142.878906 127.050781 142.847656 127.628906 142.792969 128.207031 C 142.734375 128.785156 142.648438 129.355469 142.535156 129.925781 C 142.421875 130.492188 142.28125 131.054688 142.113281 131.609375 C 141.941406 132.164062 141.746094 132.710938 141.523438 133.246094 C 141.300781 133.78125 141.054688 134.304688 140.777344 134.8125 C 140.503906 135.324219 140.207031 135.820312 139.882812 136.300781 C 139.558594 136.78125 139.214844 137.246094 138.84375 137.695312 C 138.476562 138.140625 138.085938 138.566406 137.671875 138.976562 L 32.117188 244.65625 C 31.710938 245.066406 31.28125 245.457031 30.835938 245.828125 C 30.390625 246.195312 29.925781 246.542969 29.445312 246.867188 C 28.964844 247.191406 28.46875 247.488281 27.960938 247.761719 C 27.449219 248.039062 26.925781 248.285156 26.394531 248.511719 C 25.859375 248.734375 25.3125 248.929688 24.761719 249.097656 C 24.207031 249.265625 23.644531 249.410156 23.078125 249.523438 C 22.507812 249.636719 21.9375 249.722656 21.359375 249.777344 C 20.785156 249.835938 20.207031 249.863281 19.628906 249.863281 C 19.046875 249.863281 18.46875 249.835938 17.894531 249.777344 C 17.316406 249.722656 16.746094 249.636719 16.175781 249.523438 C 15.609375 249.410156 15.046875 249.265625 14.496094 249.097656 C 13.941406 248.929688 13.394531 248.734375 12.863281 248.511719 C 12.328125 248.285156 11.804688 248.039062 11.292969 247.761719 C 10.785156 247.488281 10.289062 247.191406 9.808594 246.867188 C 9.328125 246.542969 8.863281 246.195312 8.417969 245.828125 C 7.972656 245.457031 7.542969 245.066406 7.136719 244.65625 C 6.726562 244.246094 6.335938 243.820312 5.964844 243.371094 C 5.597656 242.925781 5.25 242.460938 4.925781 241.980469 C 4.605469 241.5 4.304688 241.003906 4.03125 240.492188 C 3.757812 239.980469 3.507812 239.457031 3.285156 238.921875 C 3.0625 238.386719 2.867188 237.84375 2.699219 237.289062 C 2.527344 236.734375 2.386719 236.171875 2.273438 235.601562 C 2.160156 235.035156 2.074219 234.460938 2.019531 233.886719 C 1.960938 233.308594 1.933594 232.730469 1.933594 232.148438 C 1.933594 231.570312 1.960938 230.992188 2.019531 230.414062 C 2.074219 229.835938 2.160156 229.265625 2.273438 228.695312 C 2.386719 228.128906 2.527344 227.566406 2.699219 227.011719 C 2.867188 226.457031 3.0625 225.910156 3.285156 225.375 C 3.507812 224.839844 3.757812 224.316406 4.03125 223.808594 C 4.304688 223.296875 4.605469 222.800781 4.925781 222.320312 C 5.25 221.839844 5.597656 221.375 5.964844 220.925781 C 6.335938 220.480469 6.726562 220.050781 7.136719 219.644531 Z M 100.378906 126.472656 " fill-opacity="1" fill-rule="nonzero"/></g></g></g></g></svg>