<svg xmlns="http://www.w3.org/2000/svg" xmlns:xlink="http://www.w3.org/1999/xlink" width="500" zoomAndPan="magnify" viewBox="0 0 375 374.999991" height="500" preserveAspectRatio="xMidYMid meet" version="1.0"><defs><clipPath id="87a8161cc3"><path d="M 116.277344 62.527344 L 258.773438 62.527344 L 258.773438 312.277344 L 116.277344 312.277344 Z M 116.277344 62.527344 " clip-rule="nonzero"/></clipPath><clipPath id="0697ef8e8d"><path d="M 0.277344 1 L 142 1 L 142 248 L 0.277344 248 Z M 0.277344 1 " clip-rule="nonzero"/></clipPath><clipPath id="d7e8c1d629"><rect x="0" width="143" y="0" height="251"/></clipPath></defs><g clip-path="url(#87a8161cc3)"><g transform="matrix(1, 0, 0, 1, 116, 62)"><g clip-path="url(#d7e8c1d629)"><g clip-path="url(#0697ef8e8d)"><path fill="#000000" d="M 42.613281 124.523438 L 135.855469 217.695312 C 136.265625 218.105469 136.652344 218.535156 137.019531 218.980469 C 137.386719 219.429688 137.730469 219.894531 138.050781 220.375 C 138.375 220.855469 138.671875 221.351562 138.945312 221.863281 C 139.214844 222.375 139.464844 222.898438 139.683594 223.433594 C 139.90625 223.96875 140.101562 224.511719 140.269531 225.066406 C 140.4375 225.621094 140.578125 226.183594 140.691406 226.75 C 140.804688 227.320312 140.886719 227.890625 140.945312 228.46875 C 141 229.042969 141.03125 229.621094 141.03125 230.199219 C 141.03125 230.78125 141 231.359375 140.945312 231.933594 C 140.886719 232.511719 140.804688 233.082031 140.691406 233.652344 C 140.578125 234.21875 140.4375 234.78125 140.269531 235.335938 C 140.101562 235.886719 139.90625 236.433594 139.683594 236.96875 C 139.464844 237.503906 139.214844 238.027344 138.945312 238.539062 C 138.671875 239.046875 138.375 239.542969 138.050781 240.027344 C 137.730469 240.507812 137.386719 240.972656 137.019531 241.417969 C 136.652344 241.867188 136.265625 242.296875 135.855469 242.707031 C 135.445312 243.117188 135.019531 243.503906 134.570312 243.871094 C 134.125 244.238281 133.660156 244.582031 133.179688 244.90625 C 132.699219 245.226562 132.203125 245.523438 131.691406 245.796875 C 131.183594 246.070312 130.660156 246.316406 130.125 246.539062 C 129.589844 246.761719 129.046875 246.957031 128.492188 247.125 C 127.9375 247.292969 127.378906 247.433594 126.8125 247.546875 C 126.242188 247.660156 125.671875 247.742188 125.097656 247.800781 C 124.519531 247.855469 123.945312 247.886719 123.363281 247.886719 C 122.785156 247.886719 122.210938 247.855469 121.632812 247.800781 C 121.058594 247.742188 120.484375 247.660156 119.917969 247.546875 C 119.351562 247.433594 118.789062 247.292969 118.238281 247.125 C 117.683594 246.957031 117.140625 246.761719 116.605469 246.539062 C 116.070312 246.316406 115.546875 246.070312 115.039062 245.796875 C 114.527344 245.523438 114.03125 245.226562 113.550781 244.90625 C 113.070312 244.582031 112.605469 244.238281 112.160156 243.871094 C 111.710938 243.503906 111.285156 243.117188 110.875 242.707031 L 5.320312 137.027344 C 4.90625 136.621094 4.515625 136.191406 4.148438 135.746094 C 3.777344 135.296875 3.433594 134.832031 3.109375 134.351562 C 2.785156 133.871094 2.488281 133.375 2.214844 132.863281 C 1.9375 132.355469 1.691406 131.832031 1.46875 131.296875 C 1.246094 130.761719 1.050781 130.214844 0.878906 129.660156 C 0.710938 129.105469 0.570312 128.542969 0.457031 127.976562 C 0.34375 127.40625 0.257812 126.835938 0.199219 126.257812 C 0.144531 125.679688 0.113281 125.101562 0.113281 124.523438 C 0.113281 123.941406 0.144531 123.363281 0.199219 122.785156 C 0.257812 122.210938 0.34375 121.636719 0.457031 121.070312 C 0.570312 120.5 0.710938 119.9375 0.878906 119.382812 C 1.050781 118.828125 1.246094 118.285156 1.46875 117.75 C 1.691406 117.214844 1.9375 116.691406 2.214844 116.179688 C 2.488281 115.667969 2.785156 115.171875 3.109375 114.691406 C 3.433594 114.210938 3.777344 113.746094 4.148438 113.300781 C 4.515625 112.851562 4.90625 112.425781 5.320312 112.015625 L 110.875 6.339844 C 111.28125 5.925781 111.710938 5.535156 112.15625 5.167969 C 112.601562 4.796875 113.066406 4.449219 113.546875 4.128906 C 114.027344 3.804688 114.523438 3.503906 115.03125 3.230469 C 115.542969 2.957031 116.066406 2.707031 116.597656 2.484375 C 117.132812 2.261719 117.679688 2.0625 118.230469 1.894531 C 118.785156 1.726562 119.347656 1.585938 119.914062 1.472656 C 120.484375 1.355469 121.054688 1.273438 121.632812 1.214844 C 122.207031 1.15625 122.785156 1.128906 123.363281 1.128906 C 123.945312 1.128906 124.523438 1.15625 125.097656 1.214844 C 125.675781 1.273438 126.246094 1.355469 126.816406 1.472656 C 127.382812 1.585938 127.945312 1.726562 128.496094 1.894531 C 129.050781 2.0625 129.597656 2.261719 130.128906 2.484375 C 130.664062 2.707031 131.1875 2.957031 131.699219 3.230469 C 132.207031 3.503906 132.703125 3.804688 133.183594 4.128906 C 133.664062 4.449219 134.128906 4.796875 134.574219 5.167969 C 135.019531 5.535156 135.449219 5.925781 135.855469 6.339844 C 136.265625 6.746094 136.65625 7.175781 137.027344 7.621094 C 137.394531 8.070312 137.742188 8.53125 138.066406 9.015625 C 138.386719 9.496094 138.6875 9.992188 138.960938 10.5 C 139.234375 11.011719 139.484375 11.535156 139.707031 12.070312 C 139.929688 12.605469 140.125 13.152344 140.292969 13.707031 C 140.464844 14.261719 140.605469 14.820312 140.71875 15.390625 C 140.832031 15.957031 140.917969 16.53125 140.972656 17.109375 C 141.03125 17.6875 141.058594 18.265625 141.058594 18.84375 C 141.058594 19.425781 141.03125 20.003906 140.972656 20.578125 C 140.917969 21.15625 140.832031 21.730469 140.71875 22.296875 C 140.605469 22.867188 140.464844 23.429688 140.292969 23.984375 C 140.125 24.539062 139.929688 25.082031 139.707031 25.617188 C 139.484375 26.152344 139.234375 26.675781 138.960938 27.1875 C 138.6875 27.695312 138.386719 28.191406 138.066406 28.675781 C 137.742188 29.15625 137.394531 29.621094 137.027344 30.066406 C 136.65625 30.511719 136.265625 30.941406 135.855469 31.347656 Z M 42.613281 124.523438 " fill-opacity="1" fill-rule="nonzero"/></g></g></g></g></svg>